solid 
 facet normal -7.071068e-01  7.071068e-01  0.000000e+00
   outer loop
     vertex -3.535534e-01 -2.015254e+01  2.350000e+01
     vertex  2.015254e+01  3.535534e-01  4.500000e+00
     vertex -3.535534e-01 -2.015254e+01  4.500000e+00
   endloop
 endfacet
 facet normal -7.071068e-01  7.071068e-01  0.000000e+00
   outer loop
     vertex -3.535534e-01 -2.015254e+01  2.350000e+01
     vertex  2.015254e+01  3.535534e-01  2.350000e+01
     vertex  2.015254e+01  3.535534e-01  4.500000e+00
   endloop
 endfacet
 facet normal  7.071068e-01 -7.071068e-01  0.000000e+00
   outer loop
     vertex  3.924443e+01 -5.975052e+01  2.350000e+01
     vertex  3.924443e+01 -5.975052e+01  4.500000e+00
     vertex  5.975052e+01 -3.924443e+01  4.500000e+00
   endloop
 endfacet
 facet normal  7.071068e-01 -7.071068e-01  0.000000e+00
   outer loop
     vertex  3.924443e+01 -5.975052e+01  2.350000e+01
     vertex  5.975052e+01 -3.924443e+01  4.500000e+00
     vertex  5.975052e+01 -3.924443e+01  2.350000e+01
   endloop
 endfacet
 facet normal -7.071068e-01 -7.071068e-01 -0.000000e+00
   outer loop
     vertex  3.924443e+01 -5.975052e+01  2.350000e+01
     vertex -3.535534e-01 -2.015254e+01  4.500000e+00
     vertex  3.924443e+01 -5.975052e+01  4.500000e+00
   endloop
 endfacet
 facet normal -7.071068e-01 -7.071068e-01  0.000000e+00
   outer loop
     vertex  3.924443e+01 -5.975052e+01  2.350000e+01
     vertex -3.535534e-01 -2.015254e+01  2.350000e+01
     vertex -3.535534e-01 -2.015254e+01  4.500000e+00
   endloop
 endfacet
 facet normal  7.071068e-01  7.071068e-01  0.000000e+00
   outer loop
     vertex  5.975052e+01 -3.924443e+01  2.350000e+01
     vertex  5.975052e+01 -3.924443e+01  4.500000e+00
     vertex  2.015254e+01  3.535534e-01  4.500000e+00
   endloop
 endfacet
 facet normal  7.071068e-01  7.071068e-01  0.000000e+00
   outer loop
     vertex  5.975052e+01 -3.924443e+01  2.350000e+01
     vertex  2.015254e+01  3.535534e-01  4.500000e+00
     vertex  2.015254e+01  3.535534e-01  2.350000e+01
   endloop
 endfacet
 facet normal  0.000000e+00  0.000000e+00 -1.000000e+00
   outer loop
     vertex  5.975052e+01 -3.924443e+01  4.500000e+00
     vertex -3.535534e-01 -2.015254e+01  4.500000e+00
     vertex  2.015254e+01  3.535534e-01  4.500000e+00
   endloop
 endfacet
 facet normal -0.000000e+00  0.000000e+00 -1.000000e+00
   outer loop
     vertex  5.975052e+01 -3.924443e+01  4.500000e+00
     vertex  3.924443e+01 -5.975052e+01  4.500000e+00
     vertex -3.535534e-01 -2.015254e+01  4.500000e+00
   endloop
 endfacet
 facet normal  0.000000e+00  0.000000e+00  1.000000e+00
   outer loop
     vertex  5.975052e+01 -3.924443e+01  2.350000e+01
     vertex  2.015254e+01  3.535534e-01  2.350000e+01
     vertex -3.535534e-01 -2.015254e+01  2.350000e+01
   endloop
 endfacet
 facet normal  0.000000e+00  0.000000e+00  1.000000e+00
   outer loop
     vertex  5.975052e+01 -3.924443e+01  2.350000e+01
     vertex -3.535534e-01 -2.015254e+01  2.350000e+01
     vertex  3.924443e+01 -5.975052e+01  2.350000e+01
   endloop
 endfacet
endsolid
