solid 
 facet normal -1.000000e+00  0.000000e+00  0.000000e+00
   outer loop
     vertex -3.200000e+01  1.475000e+01  1.200000e+00
     vertex -3.200000e+01  1.700000e+01  0.000000e+00
     vertex -3.200000e+01  1.475000e+01  0.000000e+00
   endloop
 endfacet
 facet normal -1.000000e+00  0.000000e+00  0.000000e+00
   outer loop
     vertex -3.200000e+01  7.750000e+00  1.200000e+00
     vertex -3.200000e+01  1.325000e+01  0.000000e+00
     vertex -3.200000e+01  7.750000e+00  0.000000e+00
   endloop
 endfacet
 facet normal -1.000000e+00  0.000000e+00  0.000000e+00
   outer loop
     vertex -3.200000e+01  7.750000e+00  1.200000e+00
     vertex -3.200000e+01  1.325000e+01  1.200000e+00
     vertex -3.200000e+01  1.325000e+01  0.000000e+00
   endloop
 endfacet
 facet normal -1.000000e+00  0.000000e+00  0.000000e+00
   outer loop
     vertex -3.200000e+01  1.700000e+01  2.400000e+01
     vertex -3.200000e+01  7.750000e+00  1.200000e+00
     vertex -3.200000e+01  6.250000e+00  1.200000e+00
   endloop
 endfacet
 facet normal -1.000000e+00  0.000000e+00  0.000000e+00
   outer loop
     vertex -3.200000e+01  1.700000e+01  2.400000e+01
     vertex -3.200000e+01  1.475000e+01  1.200000e+00
     vertex -3.200000e+01  1.325000e+01  1.200000e+00
   endloop
 endfacet
 facet normal -1.000000e+00  0.000000e+00 -0.000000e+00
   outer loop
     vertex -3.200000e+01  1.700000e+01  2.400000e+01
     vertex -3.200000e+01  1.700000e+01  0.000000e+00
     vertex -3.200000e+01  1.475000e+01  1.200000e+00
   endloop
 endfacet
 facet normal -1.000000e+00  0.000000e+00  0.000000e+00
   outer loop
     vertex -3.200000e+01  1.700000e+01  2.400000e+01
     vertex -3.200000e+01  1.325000e+01  1.200000e+00
     vertex -3.200000e+01  7.750000e+00  1.200000e+00
   endloop
 endfacet
 facet normal -1.000000e+00  0.000000e+00  0.000000e+00
   outer loop
     vertex -3.200000e+01 -6.250000e+00  1.200000e+00
     vertex -3.200000e+01  6.250000e+00  0.000000e+00
     vertex -3.200000e+01 -6.250000e+00  0.000000e+00
   endloop
 endfacet
 facet normal -1.000000e+00  0.000000e+00  0.000000e+00
   outer loop
     vertex -3.200000e+01 -6.250000e+00  1.200000e+00
     vertex -3.200000e+01  6.250000e+00  1.200000e+00
     vertex -3.200000e+01  6.250000e+00  0.000000e+00
   endloop
 endfacet
 facet normal -1.000000e+00  0.000000e+00  0.000000e+00
   outer loop
     vertex -3.200000e+01 -1.325000e+01  0.000000e+00
     vertex -3.200000e+01 -7.750000e+00  1.200000e+00
     vertex -3.200000e+01 -7.750000e+00  0.000000e+00
   endloop
 endfacet
 facet normal -1.000000e+00  0.000000e+00  0.000000e+00
   outer loop
     vertex -3.200000e+01 -1.325000e+01  1.200000e+00
     vertex -3.200000e+01 -7.750000e+00  1.200000e+00
     vertex -3.200000e+01 -1.325000e+01  0.000000e+00
   endloop
 endfacet
 facet normal -1.000000e+00  0.000000e+00  0.000000e+00
   outer loop
     vertex -3.200000e+01 -1.700000e+01  0.000000e+00
     vertex -3.200000e+01 -1.475000e+01  1.200000e+00
     vertex -3.200000e+01 -1.475000e+01  0.000000e+00
   endloop
 endfacet
 facet normal -1.000000e+00  0.000000e+00  0.000000e+00
   outer loop
     vertex -3.200000e+01 -1.700000e+01  2.400000e+01
     vertex -3.200000e+01 -1.325000e+01  1.200000e+00
     vertex -3.200000e+01 -1.475000e+01  1.200000e+00
   endloop
 endfacet
 facet normal -1.000000e+00  0.000000e+00  0.000000e+00
   outer loop
     vertex -3.200000e+01 -1.700000e+01  2.400000e+01
     vertex -3.200000e+01 -6.250000e+00  1.200000e+00
     vertex -3.200000e+01 -7.750000e+00  1.200000e+00
   endloop
 endfacet
 facet normal -1.000000e+00  0.000000e+00  0.000000e+00
   outer loop
     vertex -3.200000e+01 -1.700000e+01  2.400000e+01
     vertex -3.200000e+01  1.700000e+01  2.400000e+01
     vertex -3.200000e+01  6.250000e+00  1.200000e+00
   endloop
 endfacet
 facet normal -1.000000e+00  0.000000e+00  0.000000e+00
   outer loop
     vertex -3.200000e+01 -1.700000e+01  2.400000e+01
     vertex -3.200000e+01  6.250000e+00  1.200000e+00
     vertex -3.200000e+01 -6.250000e+00  1.200000e+00
   endloop
 endfacet
 facet normal -1.000000e+00  0.000000e+00  0.000000e+00
   outer loop
     vertex -3.200000e+01 -1.700000e+01  2.400000e+01
     vertex -3.200000e+01 -7.750000e+00  1.200000e+00
     vertex -3.200000e+01 -1.325000e+01  1.200000e+00
   endloop
 endfacet
 facet normal -1.000000e+00  0.000000e+00  0.000000e+00
   outer loop
     vertex -3.200000e+01 -1.700000e+01  2.400000e+01
     vertex -3.200000e+01 -1.475000e+01  1.200000e+00
     vertex -3.200000e+01 -1.700000e+01  0.000000e+00
   endloop
 endfacet
 facet normal  0.000000e+00  1.000000e+00  0.000000e+00
   outer loop
     vertex -1.875000e+01  1.700000e+01  1.200000e+00
     vertex -1.875000e+01  1.700000e+01  0.000000e+00
     vertex -3.200000e+01  1.700000e+01  0.000000e+00
   endloop
 endfacet
 facet normal  0.000000e+00  1.000000e+00  0.000000e+00
   outer loop
     vertex -3.200000e+01  1.700000e+01  2.400000e+01
     vertex -1.725000e+01  1.700000e+01  1.200000e+00
     vertex -1.875000e+01  1.700000e+01  1.200000e+00
   endloop
 endfacet
 facet normal  0.000000e+00  1.000000e+00  0.000000e+00
   outer loop
     vertex -3.200000e+01  1.700000e+01  2.400000e+01
     vertex -1.875000e+01  1.700000e+01  1.200000e+00
     vertex -3.200000e+01  1.700000e+01  0.000000e+00
   endloop
 endfacet
 facet normal  0.000000e+00  1.000000e+00  0.000000e+00
   outer loop
     vertex -7.500000e-01  1.700000e+01  1.200000e+00
     vertex -7.500000e-01  1.700000e+01  0.000000e+00
     vertex -1.725000e+01  1.700000e+01  0.000000e+00
   endloop
 endfacet
 facet normal  0.000000e+00  1.000000e+00  0.000000e+00
   outer loop
     vertex -7.500000e-01  1.700000e+01  1.200000e+00
     vertex -1.725000e+01  1.700000e+01  0.000000e+00
     vertex -1.725000e+01  1.700000e+01  1.200000e+00
   endloop
 endfacet
 facet normal  0.000000e+00  1.000000e+00  0.000000e+00
   outer loop
     vertex -7.500000e-01  1.700000e+01  1.200000e+00
     vertex -1.725000e+01  1.700000e+01  1.200000e+00
     vertex -3.200000e+01  1.700000e+01  2.400000e+01
   endloop
 endfacet
 facet normal  0.000000e+00  1.000000e+00  0.000000e+00
   outer loop
     vertex  1.725000e+01  1.700000e+01  1.200000e+00
     vertex  1.725000e+01  1.700000e+01  0.000000e+00
     vertex  7.500000e-01  1.700000e+01  0.000000e+00
   endloop
 endfacet
 facet normal  0.000000e+00  1.000000e+00  0.000000e+00
   outer loop
     vertex  1.725000e+01  1.700000e+01  1.200000e+00
     vertex  7.500000e-01  1.700000e+01  0.000000e+00
     vertex  7.500000e-01  1.700000e+01  1.200000e+00
   endloop
 endfacet
 facet normal  0.000000e+00  1.000000e+00  0.000000e+00
   outer loop
     vertex  3.200000e+01  1.700000e+01  0.000000e+00
     vertex  1.875000e+01  1.700000e+01  0.000000e+00
     vertex  1.875000e+01  1.700000e+01  1.200000e+00
   endloop
 endfacet
 facet normal  0.000000e+00  1.000000e+00  0.000000e+00
   outer loop
     vertex  3.200000e+01  1.700000e+01  2.400000e+01
     vertex  1.875000e+01  1.700000e+01  1.200000e+00
     vertex  1.725000e+01  1.700000e+01  1.200000e+00
   endloop
 endfacet
 facet normal  0.000000e+00  1.000000e+00  0.000000e+00
   outer loop
     vertex  3.200000e+01  1.700000e+01  2.400000e+01
     vertex  7.500000e-01  1.700000e+01  1.200000e+00
     vertex -7.500000e-01  1.700000e+01  1.200000e+00
   endloop
 endfacet
 facet normal  0.000000e+00  1.000000e+00  0.000000e+00
   outer loop
     vertex  3.200000e+01  1.700000e+01  2.400000e+01
     vertex -7.500000e-01  1.700000e+01  1.200000e+00
     vertex -3.200000e+01  1.700000e+01  2.400000e+01
   endloop
 endfacet
 facet normal  0.000000e+00  1.000000e+00  0.000000e+00
   outer loop
     vertex  3.200000e+01  1.700000e+01  2.400000e+01
     vertex  1.725000e+01  1.700000e+01  1.200000e+00
     vertex  7.500000e-01  1.700000e+01  1.200000e+00
   endloop
 endfacet
 facet normal  0.000000e+00  1.000000e+00  0.000000e+00
   outer loop
     vertex  3.200000e+01  1.700000e+01  2.400000e+01
     vertex  3.200000e+01  1.700000e+01  0.000000e+00
     vertex  1.875000e+01  1.700000e+01  1.200000e+00
   endloop
 endfacet
 facet normal -0.000000e+00  0.000000e+00 -1.000000e+00
   outer loop
     vertex -1.875000e+01  1.700000e+01  0.000000e+00
     vertex -3.200000e+01  1.475000e+01  0.000000e+00
     vertex -3.200000e+01  1.700000e+01  0.000000e+00
   endloop
 endfacet
 facet normal  0.000000e+00 -0.000000e+00 -1.000000e+00
   outer loop
     vertex -1.875000e+01  1.700000e+01  0.000000e+00
     vertex -1.875000e+01  1.475000e+01  0.000000e+00
     vertex -3.200000e+01  1.475000e+01  0.000000e+00
   endloop
 endfacet
 facet normal  0.000000e+00 -1.000000e+00 -0.000000e+00
   outer loop
     vertex -1.875000e+01  1.475000e+01  1.200000e+00
     vertex -3.200000e+01  1.475000e+01  0.000000e+00
     vertex -1.875000e+01  1.475000e+01  0.000000e+00
   endloop
 endfacet
 facet normal -0.000000e+00 -1.000000e+00  0.000000e+00
   outer loop
     vertex -1.875000e+01  1.475000e+01  1.200000e+00
     vertex -3.200000e+01  1.475000e+01  1.200000e+00
     vertex -3.200000e+01  1.475000e+01  0.000000e+00
   endloop
 endfacet
 facet normal -0.000000e+00  0.000000e+00 -1.000000e+00
   outer loop
     vertex -1.875000e+01  1.475000e+01  1.200000e+00
     vertex -3.200000e+01  1.325000e+01  1.200000e+00
     vertex -3.200000e+01  1.475000e+01  1.200000e+00
   endloop
 endfacet
 facet normal  0.000000e+00 -0.000000e+00 -1.000000e+00
   outer loop
     vertex -1.875000e+01  1.475000e+01  1.200000e+00
     vertex -1.875000e+01  1.325000e+01  1.200000e+00
     vertex -3.200000e+01  1.325000e+01  1.200000e+00
   endloop
 endfacet
 facet normal  0.000000e+00  1.000000e+00  0.000000e+00
   outer loop
     vertex -1.875000e+01  1.325000e+01  1.200000e+00
     vertex -1.875000e+01  1.325000e+01  0.000000e+00
     vertex -3.200000e+01  1.325000e+01  0.000000e+00
   endloop
 endfacet
 facet normal  0.000000e+00  1.000000e+00  0.000000e+00
   outer loop
     vertex -1.875000e+01  1.325000e+01  1.200000e+00
     vertex -3.200000e+01  1.325000e+01  0.000000e+00
     vertex -3.200000e+01  1.325000e+01  1.200000e+00
   endloop
 endfacet
 facet normal -0.000000e+00  0.000000e+00 -1.000000e+00
   outer loop
     vertex -1.875000e+01  1.325000e+01  0.000000e+00
     vertex -3.200000e+01  7.750000e+00  0.000000e+00
     vertex -3.200000e+01  1.325000e+01  0.000000e+00
   endloop
 endfacet
 facet normal  0.000000e+00 -0.000000e+00 -1.000000e+00
   outer loop
     vertex -1.875000e+01  1.325000e+01  0.000000e+00
     vertex -1.875000e+01  7.750000e+00  0.000000e+00
     vertex -3.200000e+01  7.750000e+00  0.000000e+00
   endloop
 endfacet
 facet normal  0.000000e+00 -1.000000e+00 -0.000000e+00
   outer loop
     vertex -1.875000e+01  7.750000e+00  1.200000e+00
     vertex -3.200000e+01  7.750000e+00  0.000000e+00
     vertex -1.875000e+01  7.750000e+00  0.000000e+00
   endloop
 endfacet
 facet normal -0.000000e+00 -1.000000e+00  0.000000e+00
   outer loop
     vertex -1.875000e+01  7.750000e+00  1.200000e+00
     vertex -3.200000e+01  7.750000e+00  1.200000e+00
     vertex -3.200000e+01  7.750000e+00  0.000000e+00
   endloop
 endfacet
 facet normal -0.000000e+00  0.000000e+00 -1.000000e+00
   outer loop
     vertex -1.875000e+01  7.750000e+00  1.200000e+00
     vertex -3.200000e+01  6.250000e+00  1.200000e+00
     vertex -3.200000e+01  7.750000e+00  1.200000e+00
   endloop
 endfacet
 facet normal  0.000000e+00 -0.000000e+00 -1.000000e+00
   outer loop
     vertex -1.875000e+01  7.750000e+00  1.200000e+00
     vertex -1.875000e+01  6.250000e+00  1.200000e+00
     vertex -3.200000e+01  6.250000e+00  1.200000e+00
   endloop
 endfacet
 facet normal  0.000000e+00  1.000000e+00  0.000000e+00
   outer loop
     vertex -1.875000e+01  6.250000e+00  1.200000e+00
     vertex -1.875000e+01  6.250000e+00  0.000000e+00
     vertex -3.200000e+01  6.250000e+00  0.000000e+00
   endloop
 endfacet
 facet normal  0.000000e+00  1.000000e+00  0.000000e+00
   outer loop
     vertex -1.875000e+01  6.250000e+00  1.200000e+00
     vertex -3.200000e+01  6.250000e+00  0.000000e+00
     vertex -3.200000e+01  6.250000e+00  1.200000e+00
   endloop
 endfacet
 facet normal  0.000000e+00  0.000000e+00 -1.000000e+00
   outer loop
     vertex -1.875000e+01 -6.250000e+00  0.000000e+00
     vertex -3.200000e+01 -6.250000e+00  0.000000e+00
     vertex -3.200000e+01  6.250000e+00  0.000000e+00
   endloop
 endfacet
 facet normal -0.000000e+00 -0.000000e+00 -1.000000e+00
   outer loop
     vertex -1.875000e+01  6.250000e+00  0.000000e+00
     vertex -1.875000e+01 -6.250000e+00  0.000000e+00
     vertex -3.200000e+01  6.250000e+00  0.000000e+00
   endloop
 endfacet
 facet normal  0.000000e+00 -1.000000e+00 -0.000000e+00
   outer loop
     vertex -1.875000e+01 -6.250000e+00  1.200000e+00
     vertex -3.200000e+01 -6.250000e+00  0.000000e+00
     vertex -1.875000e+01 -6.250000e+00  0.000000e+00
   endloop
 endfacet
 facet normal -0.000000e+00 -1.000000e+00  0.000000e+00
   outer loop
     vertex -1.875000e+01 -6.250000e+00  1.200000e+00
     vertex -3.200000e+01 -6.250000e+00  1.200000e+00
     vertex -3.200000e+01 -6.250000e+00  0.000000e+00
   endloop
 endfacet
 facet normal -0.000000e+00  0.000000e+00 -1.000000e+00
   outer loop
     vertex -1.875000e+01 -6.250000e+00  1.200000e+00
     vertex -3.200000e+01 -7.750000e+00  1.200000e+00
     vertex -3.200000e+01 -6.250000e+00  1.200000e+00
   endloop
 endfacet
 facet normal  0.000000e+00 -0.000000e+00 -1.000000e+00
   outer loop
     vertex -1.875000e+01 -6.250000e+00  1.200000e+00
     vertex -1.875000e+01 -7.750000e+00  1.200000e+00
     vertex -3.200000e+01 -7.750000e+00  1.200000e+00
   endloop
 endfacet
 facet normal  0.000000e+00  1.000000e+00  0.000000e+00
   outer loop
     vertex -1.875000e+01 -7.750000e+00  1.200000e+00
     vertex -1.875000e+01 -7.750000e+00  0.000000e+00
     vertex -3.200000e+01 -7.750000e+00  0.000000e+00
   endloop
 endfacet
 facet normal  0.000000e+00  1.000000e+00  0.000000e+00
   outer loop
     vertex -1.875000e+01 -7.750000e+00  1.200000e+00
     vertex -3.200000e+01 -7.750000e+00  0.000000e+00
     vertex -3.200000e+01 -7.750000e+00  1.200000e+00
   endloop
 endfacet
 facet normal  0.000000e+00  0.000000e+00 -1.000000e+00
   outer loop
     vertex -1.875000e+01 -1.325000e+01  0.000000e+00
     vertex -3.200000e+01 -1.325000e+01  0.000000e+00
     vertex -3.200000e+01 -7.750000e+00  0.000000e+00
   endloop
 endfacet
 facet normal -0.000000e+00 -0.000000e+00 -1.000000e+00
   outer loop
     vertex -1.875000e+01 -7.750000e+00  0.000000e+00
     vertex -1.875000e+01 -1.325000e+01  0.000000e+00
     vertex -3.200000e+01 -7.750000e+00  0.000000e+00
   endloop
 endfacet
 facet normal  0.000000e+00 -1.000000e+00 -0.000000e+00
   outer loop
     vertex -1.875000e+01 -1.325000e+01  1.200000e+00
     vertex -3.200000e+01 -1.325000e+01  0.000000e+00
     vertex -1.875000e+01 -1.325000e+01  0.000000e+00
   endloop
 endfacet
 facet normal -0.000000e+00 -1.000000e+00  0.000000e+00
   outer loop
     vertex -1.875000e+01 -1.325000e+01  1.200000e+00
     vertex -3.200000e+01 -1.325000e+01  1.200000e+00
     vertex -3.200000e+01 -1.325000e+01  0.000000e+00
   endloop
 endfacet
 facet normal -0.000000e+00  0.000000e+00 -1.000000e+00
   outer loop
     vertex -1.875000e+01 -1.325000e+01  1.200000e+00
     vertex -3.200000e+01 -1.475000e+01  1.200000e+00
     vertex -3.200000e+01 -1.325000e+01  1.200000e+00
   endloop
 endfacet
 facet normal  0.000000e+00 -0.000000e+00 -1.000000e+00
   outer loop
     vertex -1.875000e+01 -1.325000e+01  1.200000e+00
     vertex -1.875000e+01 -1.475000e+01  1.200000e+00
     vertex -3.200000e+01 -1.475000e+01  1.200000e+00
   endloop
 endfacet
 facet normal  0.000000e+00  1.000000e+00  0.000000e+00
   outer loop
     vertex -1.875000e+01 -1.475000e+01  1.200000e+00
     vertex -1.875000e+01 -1.475000e+01  0.000000e+00
     vertex -3.200000e+01 -1.475000e+01  0.000000e+00
   endloop
 endfacet
 facet normal  0.000000e+00  1.000000e+00  0.000000e+00
   outer loop
     vertex -1.875000e+01 -1.475000e+01  1.200000e+00
     vertex -3.200000e+01 -1.475000e+01  0.000000e+00
     vertex -3.200000e+01 -1.475000e+01  1.200000e+00
   endloop
 endfacet
 facet normal -0.000000e+00  0.000000e+00 -1.000000e+00
   outer loop
     vertex -1.875000e+01 -1.475000e+01  0.000000e+00
     vertex -3.200000e+01 -1.700000e+01  0.000000e+00
     vertex -3.200000e+01 -1.475000e+01  0.000000e+00
   endloop
 endfacet
 facet normal  0.000000e+00 -0.000000e+00 -1.000000e+00
   outer loop
     vertex -1.875000e+01 -1.475000e+01  0.000000e+00
     vertex -1.875000e+01 -1.700000e+01  0.000000e+00
     vertex -3.200000e+01 -1.700000e+01  0.000000e+00
   endloop
 endfacet
 facet normal  0.000000e+00 -1.000000e+00 -0.000000e+00
   outer loop
     vertex -1.875000e+01 -1.700000e+01  1.200000e+00
     vertex -3.200000e+01 -1.700000e+01  0.000000e+00
     vertex -1.875000e+01 -1.700000e+01  0.000000e+00
   endloop
 endfacet
 facet normal  0.000000e+00 -1.000000e+00  0.000000e+00
   outer loop
     vertex -3.200000e+01 -1.700000e+01  2.400000e+01
     vertex -1.875000e+01 -1.700000e+01  1.200000e+00
     vertex -1.725000e+01 -1.700000e+01  1.200000e+00
   endloop
 endfacet
 facet normal  0.000000e+00 -1.000000e+00  0.000000e+00
   outer loop
     vertex -3.200000e+01 -1.700000e+01  2.400000e+01
     vertex -3.200000e+01 -1.700000e+01  0.000000e+00
     vertex -1.875000e+01 -1.700000e+01  1.200000e+00
   endloop
 endfacet
 facet normal  0.000000e+00 -1.000000e+00 -0.000000e+00
   outer loop
     vertex -7.500000e-01 -1.700000e+01  1.200000e+00
     vertex -1.725000e+01 -1.700000e+01  0.000000e+00
     vertex -7.500000e-01 -1.700000e+01  0.000000e+00
   endloop
 endfacet
 facet normal -0.000000e+00 -1.000000e+00  0.000000e+00
   outer loop
     vertex -7.500000e-01 -1.700000e+01  1.200000e+00
     vertex -1.725000e+01 -1.700000e+01  1.200000e+00
     vertex -1.725000e+01 -1.700000e+01  0.000000e+00
   endloop
 endfacet
 facet normal  0.000000e+00 -1.000000e+00  0.000000e+00
   outer loop
     vertex -7.500000e-01 -1.700000e+01  1.200000e+00
     vertex -3.200000e+01 -1.700000e+01  2.400000e+01
     vertex -1.725000e+01 -1.700000e+01  1.200000e+00
   endloop
 endfacet
 facet normal  0.000000e+00 -1.000000e+00 -0.000000e+00
   outer loop
     vertex  1.725000e+01 -1.700000e+01  1.200000e+00
     vertex  7.500000e-01 -1.700000e+01  0.000000e+00
     vertex  1.725000e+01 -1.700000e+01  0.000000e+00
   endloop
 endfacet
 facet normal -0.000000e+00 -1.000000e+00  0.000000e+00
   outer loop
     vertex  1.725000e+01 -1.700000e+01  1.200000e+00
     vertex  7.500000e-01 -1.700000e+01  1.200000e+00
     vertex  7.500000e-01 -1.700000e+01  0.000000e+00
   endloop
 endfacet
 facet normal  0.000000e+00 -1.000000e+00  0.000000e+00
   outer loop
     vertex  3.200000e+01 -1.700000e+01  0.000000e+00
     vertex  1.875000e+01 -1.700000e+01  1.200000e+00
     vertex  1.875000e+01 -1.700000e+01  0.000000e+00
   endloop
 endfacet
 facet normal  0.000000e+00 -1.000000e+00  0.000000e+00
   outer loop
     vertex  3.200000e+01 -1.700000e+01  2.400000e+01
     vertex  1.725000e+01 -1.700000e+01  1.200000e+00
     vertex  1.875000e+01 -1.700000e+01  1.200000e+00
   endloop
 endfacet
 facet normal  0.000000e+00 -1.000000e+00  0.000000e+00
   outer loop
     vertex  3.200000e+01 -1.700000e+01  2.400000e+01
     vertex -7.500000e-01 -1.700000e+01  1.200000e+00
     vertex  7.500000e-01 -1.700000e+01  1.200000e+00
   endloop
 endfacet
 facet normal -0.000000e+00 -1.000000e+00  0.000000e+00
   outer loop
     vertex  3.200000e+01 -1.700000e+01  2.400000e+01
     vertex -3.200000e+01 -1.700000e+01  2.400000e+01
     vertex -7.500000e-01 -1.700000e+01  1.200000e+00
   endloop
 endfacet
 facet normal  0.000000e+00 -1.000000e+00  0.000000e+00
   outer loop
     vertex  3.200000e+01 -1.700000e+01  2.400000e+01
     vertex  7.500000e-01 -1.700000e+01  1.200000e+00
     vertex  1.725000e+01 -1.700000e+01  1.200000e+00
   endloop
 endfacet
 facet normal  0.000000e+00 -1.000000e+00 -0.000000e+00
   outer loop
     vertex  3.200000e+01 -1.700000e+01  2.400000e+01
     vertex  1.875000e+01 -1.700000e+01  1.200000e+00
     vertex  3.200000e+01 -1.700000e+01  0.000000e+00
   endloop
 endfacet
 facet normal  0.000000e+00  0.000000e+00  1.000000e+00
   outer loop
     vertex -3.025000e+01  1.525000e+01  2.400000e+01
     vertex -3.200000e+01  1.700000e+01  2.400000e+01
     vertex -3.200000e+01 -1.700000e+01  2.400000e+01
   endloop
 endfacet
 facet normal  0.000000e+00  0.000000e+00  1.000000e+00
   outer loop
     vertex -3.025000e+01  1.525000e+01  2.400000e+01
     vertex -3.200000e+01 -1.700000e+01  2.400000e+01
     vertex -3.025000e+01 -1.525000e+01  2.400000e+01
   endloop
 endfacet
 facet normal  0.000000e+00  0.000000e+00  1.000000e+00
   outer loop
     vertex  3.200000e+01 -1.700000e+01  2.400000e+01
     vertex  3.025000e+01 -1.525000e+01  2.400000e+01
     vertex -3.025000e+01 -1.525000e+01  2.400000e+01
   endloop
 endfacet
 facet normal  0.000000e+00  0.000000e+00  1.000000e+00
   outer loop
     vertex  3.200000e+01 -1.700000e+01  2.400000e+01
     vertex -3.025000e+01 -1.525000e+01  2.400000e+01
     vertex -3.200000e+01 -1.700000e+01  2.400000e+01
   endloop
 endfacet
 facet normal  0.000000e+00  0.000000e+00  1.000000e+00
   outer loop
     vertex  3.200000e+01 -5.000000e+00  2.400000e+01
     vertex  3.025000e+01 -5.000000e+00  2.400000e+01
     vertex  3.025000e+01 -1.525000e+01  2.400000e+01
   endloop
 endfacet
 facet normal  0.000000e+00  0.000000e+00  1.000000e+00
   outer loop
     vertex  3.200000e+01 -5.000000e+00  2.400000e+01
     vertex  3.025000e+01 -1.525000e+01  2.400000e+01
     vertex  3.200000e+01 -1.700000e+01  2.400000e+01
   endloop
 endfacet
 facet normal  0.000000e+00  0.000000e+00  1.000000e+00
   outer loop
     vertex  3.025000e+01  1.525000e+01  2.400000e+01
     vertex  3.025000e+01  5.000000e+00  2.400000e+01
     vertex  3.200000e+01  5.000000e+00  2.400000e+01
   endloop
 endfacet
 facet normal  0.000000e+00  0.000000e+00  1.000000e+00
   outer loop
     vertex  3.200000e+01  1.700000e+01  2.400000e+01
     vertex  3.025000e+01  1.525000e+01  2.400000e+01
     vertex  3.200000e+01  5.000000e+00  2.400000e+01
   endloop
 endfacet
 facet normal  0.000000e+00  0.000000e+00  1.000000e+00
   outer loop
     vertex  3.200000e+01  1.700000e+01  2.400000e+01
     vertex -3.200000e+01  1.700000e+01  2.400000e+01
     vertex -3.025000e+01  1.525000e+01  2.400000e+01
   endloop
 endfacet
 facet normal  0.000000e+00  0.000000e+00  1.000000e+00
   outer loop
     vertex  3.200000e+01  1.700000e+01  2.400000e+01
     vertex -3.025000e+01  1.525000e+01  2.400000e+01
     vertex  3.025000e+01  1.525000e+01  2.400000e+01
   endloop
 endfacet
 facet normal  1.000000e+00  0.000000e+00  0.000000e+00
   outer loop
     vertex -1.875000e+01  1.475000e+01  1.200000e+00
     vertex -1.875000e+01  1.475000e+01  0.000000e+00
     vertex -1.875000e+01  1.700000e+01  0.000000e+00
   endloop
 endfacet
 facet normal  1.000000e+00 -0.000000e+00  0.000000e+00
   outer loop
     vertex -1.875000e+01  1.475000e+01  1.200000e+00
     vertex -1.875000e+01  1.700000e+01  0.000000e+00
     vertex -1.875000e+01  1.700000e+01  1.200000e+00
   endloop
 endfacet
 facet normal -0.000000e+00  0.000000e+00 -1.000000e+00
   outer loop
     vertex -1.725000e+01  1.700000e+01  1.200000e+00
     vertex -1.875000e+01  1.475000e+01  1.200000e+00
     vertex -1.875000e+01  1.700000e+01  1.200000e+00
   endloop
 endfacet
 facet normal  0.000000e+00 -0.000000e+00 -1.000000e+00
   outer loop
     vertex -1.725000e+01  1.700000e+01  1.200000e+00
     vertex -1.725000e+01  1.475000e+01  1.200000e+00
     vertex -1.875000e+01  1.475000e+01  1.200000e+00
   endloop
 endfacet
 facet normal -1.000000e+00  0.000000e+00  0.000000e+00
   outer loop
     vertex -1.725000e+01  1.475000e+01  1.200000e+00
     vertex -1.725000e+01  1.700000e+01  0.000000e+00
     vertex -1.725000e+01  1.475000e+01  0.000000e+00
   endloop
 endfacet
 facet normal -1.000000e+00  0.000000e+00  0.000000e+00
   outer loop
     vertex -1.725000e+01  1.475000e+01  1.200000e+00
     vertex -1.725000e+01  1.700000e+01  1.200000e+00
     vertex -1.725000e+01  1.700000e+01  0.000000e+00
   endloop
 endfacet
 facet normal -0.000000e+00  0.000000e+00 -1.000000e+00
   outer loop
     vertex -7.500000e-01  1.700000e+01  0.000000e+00
     vertex -1.725000e+01  1.475000e+01  0.000000e+00
     vertex -1.725000e+01  1.700000e+01  0.000000e+00
   endloop
 endfacet
 facet normal  0.000000e+00 -0.000000e+00 -1.000000e+00
   outer loop
     vertex -7.500000e-01  1.700000e+01  0.000000e+00
     vertex -7.500000e-01  1.475000e+01  0.000000e+00
     vertex -1.725000e+01  1.475000e+01  0.000000e+00
   endloop
 endfacet
 facet normal  1.000000e+00  0.000000e+00  0.000000e+00
   outer loop
     vertex -7.500000e-01  1.475000e+01  1.200000e+00
     vertex -7.500000e-01  1.475000e+01  0.000000e+00
     vertex -7.500000e-01  1.700000e+01  0.000000e+00
   endloop
 endfacet
 facet normal  1.000000e+00 -0.000000e+00  0.000000e+00
   outer loop
     vertex -7.500000e-01  1.475000e+01  1.200000e+00
     vertex -7.500000e-01  1.700000e+01  0.000000e+00
     vertex -7.500000e-01  1.700000e+01  1.200000e+00
   endloop
 endfacet
 facet normal -0.000000e+00  0.000000e+00 -1.000000e+00
   outer loop
     vertex  7.500000e-01  1.700000e+01  1.200000e+00
     vertex -7.500000e-01  1.475000e+01  1.200000e+00
     vertex -7.500000e-01  1.700000e+01  1.200000e+00
   endloop
 endfacet
 facet normal  0.000000e+00 -0.000000e+00 -1.000000e+00
   outer loop
     vertex  7.500000e-01  1.700000e+01  1.200000e+00
     vertex  7.500000e-01  1.475000e+01  1.200000e+00
     vertex -7.500000e-01  1.475000e+01  1.200000e+00
   endloop
 endfacet
 facet normal -1.000000e+00  0.000000e+00  0.000000e+00
   outer loop
     vertex  7.500000e-01  1.475000e+01  1.200000e+00
     vertex  7.500000e-01  1.700000e+01  0.000000e+00
     vertex  7.500000e-01  1.475000e+01  0.000000e+00
   endloop
 endfacet
 facet normal -1.000000e+00  0.000000e+00  0.000000e+00
   outer loop
     vertex  7.500000e-01  1.475000e+01  1.200000e+00
     vertex  7.500000e-01  1.700000e+01  1.200000e+00
     vertex  7.500000e-01  1.700000e+01  0.000000e+00
   endloop
 endfacet
 facet normal -0.000000e+00  0.000000e+00 -1.000000e+00
   outer loop
     vertex  1.725000e+01  1.700000e+01  0.000000e+00
     vertex  7.500000e-01  1.475000e+01  0.000000e+00
     vertex  7.500000e-01  1.700000e+01  0.000000e+00
   endloop
 endfacet
 facet normal  0.000000e+00 -0.000000e+00 -1.000000e+00
   outer loop
     vertex  1.725000e+01  1.700000e+01  0.000000e+00
     vertex  1.725000e+01  1.475000e+01  0.000000e+00
     vertex  7.500000e-01  1.475000e+01  0.000000e+00
   endloop
 endfacet
 facet normal  1.000000e+00  0.000000e+00  0.000000e+00
   outer loop
     vertex  1.725000e+01  1.475000e+01  1.200000e+00
     vertex  1.725000e+01  1.475000e+01  0.000000e+00
     vertex  1.725000e+01  1.700000e+01  0.000000e+00
   endloop
 endfacet
 facet normal  1.000000e+00 -0.000000e+00  0.000000e+00
   outer loop
     vertex  1.725000e+01  1.475000e+01  1.200000e+00
     vertex  1.725000e+01  1.700000e+01  0.000000e+00
     vertex  1.725000e+01  1.700000e+01  1.200000e+00
   endloop
 endfacet
 facet normal -0.000000e+00  0.000000e+00 -1.000000e+00
   outer loop
     vertex  1.875000e+01  1.700000e+01  1.200000e+00
     vertex  1.725000e+01  1.475000e+01  1.200000e+00
     vertex  1.725000e+01  1.700000e+01  1.200000e+00
   endloop
 endfacet
 facet normal  0.000000e+00 -0.000000e+00 -1.000000e+00
   outer loop
     vertex  1.875000e+01  1.700000e+01  1.200000e+00
     vertex  1.875000e+01  1.475000e+01  1.200000e+00
     vertex  1.725000e+01  1.475000e+01  1.200000e+00
   endloop
 endfacet
 facet normal -1.000000e+00  0.000000e+00  0.000000e+00
   outer loop
     vertex  1.875000e+01  1.475000e+01  1.200000e+00
     vertex  1.875000e+01  1.700000e+01  0.000000e+00
     vertex  1.875000e+01  1.475000e+01  0.000000e+00
   endloop
 endfacet
 facet normal -1.000000e+00  0.000000e+00  0.000000e+00
   outer loop
     vertex  1.875000e+01  1.475000e+01  1.200000e+00
     vertex  1.875000e+01  1.700000e+01  1.200000e+00
     vertex  1.875000e+01  1.700000e+01  0.000000e+00
   endloop
 endfacet
 facet normal -0.000000e+00  0.000000e+00 -1.000000e+00
   outer loop
     vertex  3.200000e+01  1.700000e+01  0.000000e+00
     vertex  1.875000e+01  1.475000e+01  0.000000e+00
     vertex  1.875000e+01  1.700000e+01  0.000000e+00
   endloop
 endfacet
 facet normal  0.000000e+00 -0.000000e+00 -1.000000e+00
   outer loop
     vertex  3.200000e+01  1.700000e+01  0.000000e+00
     vertex  3.200000e+01  1.475000e+01  0.000000e+00
     vertex  1.875000e+01  1.475000e+01  0.000000e+00
   endloop
 endfacet
 facet normal  1.000000e+00  0.000000e+00  0.000000e+00
   outer loop
     vertex  3.200000e+01  1.475000e+01  1.200000e+00
     vertex  3.200000e+01  1.475000e+01  0.000000e+00
     vertex  3.200000e+01  1.700000e+01  0.000000e+00
   endloop
 endfacet
 facet normal  1.000000e+00  0.000000e+00  0.000000e+00
   outer loop
     vertex  3.200000e+01  7.750000e+00  1.200000e+00
     vertex  3.200000e+01  7.750000e+00  0.000000e+00
     vertex  3.200000e+01  1.325000e+01  0.000000e+00
   endloop
 endfacet
 facet normal  1.000000e+00 -0.000000e+00  0.000000e+00
   outer loop
     vertex  3.200000e+01  7.750000e+00  1.200000e+00
     vertex  3.200000e+01  1.325000e+01  0.000000e+00
     vertex  3.200000e+01  1.325000e+01  1.200000e+00
   endloop
 endfacet
 facet normal  1.000000e+00  0.000000e+00  0.000000e+00
   outer loop
     vertex  3.200000e+01  1.700000e+01  2.400000e+01
     vertex  3.200000e+01  1.475000e+01  1.200000e+00
     vertex  3.200000e+01  1.700000e+01  0.000000e+00
   endloop
 endfacet
 facet normal  1.000000e+00  0.000000e+00  0.000000e+00
   outer loop
     vertex  3.200000e+01 -6.250000e+00  1.200000e+00
     vertex  3.200000e+01 -6.250000e+00  0.000000e+00
     vertex  3.200000e+01  6.250000e+00  0.000000e+00
   endloop
 endfacet
 facet normal  1.000000e+00 -0.000000e+00  0.000000e+00
   outer loop
     vertex  3.200000e+01 -6.250000e+00  1.200000e+00
     vertex  3.200000e+01  6.250000e+00  0.000000e+00
     vertex  3.200000e+01  6.250000e+00  1.200000e+00
   endloop
 endfacet
 facet normal  1.000000e+00  0.000000e+00  0.000000e+00
   outer loop
     vertex  3.200000e+01  5.000000e+00  1.400000e+01
     vertex  3.200000e+01  6.250000e+00  1.200000e+00
     vertex  3.200000e+01  7.750000e+00  1.200000e+00
   endloop
 endfacet
 facet normal  1.000000e+00  0.000000e+00  0.000000e+00
   outer loop
     vertex  3.200000e+01  5.000000e+00  1.400000e+01
     vertex  3.200000e+01  1.325000e+01  1.200000e+00
     vertex  3.200000e+01  1.475000e+01  1.200000e+00
   endloop
 endfacet
 facet normal  1.000000e+00 -0.000000e+00  0.000000e+00
   outer loop
     vertex  3.200000e+01  5.000000e+00  1.400000e+01
     vertex  3.200000e+01  1.475000e+01  1.200000e+00
     vertex  3.200000e+01  1.700000e+01  2.400000e+01
   endloop
 endfacet
 facet normal  1.000000e+00  0.000000e+00  0.000000e+00
   outer loop
     vertex  3.200000e+01  5.000000e+00  1.400000e+01
     vertex  3.200000e+01  7.750000e+00  1.200000e+00
     vertex  3.200000e+01  1.325000e+01  1.200000e+00
   endloop
 endfacet
 facet normal  1.000000e+00  0.000000e+00  0.000000e+00
   outer loop
     vertex  3.200000e+01 -1.325000e+01  0.000000e+00
     vertex  3.200000e+01 -7.750000e+00  0.000000e+00
     vertex  3.200000e+01 -7.750000e+00  1.200000e+00
   endloop
 endfacet
 facet normal  1.000000e+00 -0.000000e+00  0.000000e+00
   outer loop
     vertex  3.200000e+01 -1.325000e+01  1.200000e+00
     vertex  3.200000e+01 -1.325000e+01  0.000000e+00
     vertex  3.200000e+01 -7.750000e+00  1.200000e+00
   endloop
 endfacet
 facet normal  1.000000e+00  0.000000e+00  0.000000e+00
   outer loop
     vertex  3.200000e+01 -1.700000e+01  0.000000e+00
     vertex  3.200000e+01 -1.475000e+01  0.000000e+00
     vertex  3.200000e+01 -1.475000e+01  1.200000e+00
   endloop
 endfacet
 facet normal  1.000000e+00 -0.000000e+00  0.000000e+00
   outer loop
     vertex  3.200000e+01  5.000000e+00  2.400000e+01
     vertex  3.200000e+01  5.000000e+00  1.400000e+01
     vertex  3.200000e+01  1.700000e+01  2.400000e+01
   endloop
 endfacet
 facet normal  1.000000e+00  0.000000e+00  0.000000e+00
   outer loop
     vertex  3.200000e+01 -5.000000e+00  1.400000e+01
     vertex  3.200000e+01 -1.475000e+01  1.200000e+00
     vertex  3.200000e+01 -1.325000e+01  1.200000e+00
   endloop
 endfacet
 facet normal  1.000000e+00  0.000000e+00  0.000000e+00
   outer loop
     vertex  3.200000e+01 -5.000000e+00  1.400000e+01
     vertex  3.200000e+01 -7.750000e+00  1.200000e+00
     vertex  3.200000e+01 -6.250000e+00  1.200000e+00
   endloop
 endfacet
 facet normal  1.000000e+00 -0.000000e+00  0.000000e+00
   outer loop
     vertex  3.200000e+01 -5.000000e+00  1.400000e+01
     vertex  3.200000e+01  6.250000e+00  1.200000e+00
     vertex  3.200000e+01  5.000000e+00  1.400000e+01
   endloop
 endfacet
 facet normal  1.000000e+00  0.000000e+00  0.000000e+00
   outer loop
     vertex  3.200000e+01 -5.000000e+00  1.400000e+01
     vertex  3.200000e+01 -6.250000e+00  1.200000e+00
     vertex  3.200000e+01  6.250000e+00  1.200000e+00
   endloop
 endfacet
 facet normal  1.000000e+00  0.000000e+00  0.000000e+00
   outer loop
     vertex  3.200000e+01 -5.000000e+00  1.400000e+01
     vertex  3.200000e+01 -1.325000e+01  1.200000e+00
     vertex  3.200000e+01 -7.750000e+00  1.200000e+00
   endloop
 endfacet
 facet normal  1.000000e+00 -0.000000e+00  0.000000e+00
   outer loop
     vertex  3.200000e+01 -1.700000e+01  2.400000e+01
     vertex  3.200000e+01 -5.000000e+00  1.400000e+01
     vertex  3.200000e+01 -5.000000e+00  2.400000e+01
   endloop
 endfacet
 facet normal  1.000000e+00  0.000000e+00  0.000000e+00
   outer loop
     vertex  3.200000e+01 -1.700000e+01  2.400000e+01
     vertex  3.200000e+01 -1.475000e+01  1.200000e+00
     vertex  3.200000e+01 -5.000000e+00  1.400000e+01
   endloop
 endfacet
 facet normal  1.000000e+00  0.000000e+00  0.000000e+00
   outer loop
     vertex  3.200000e+01 -1.700000e+01  2.400000e+01
     vertex  3.200000e+01 -1.700000e+01  0.000000e+00
     vertex  3.200000e+01 -1.475000e+01  1.200000e+00
   endloop
 endfacet
 facet normal -0.000000e+00  0.000000e+00 -1.000000e+00
   outer loop
     vertex -1.725000e+01  1.475000e+01  1.200000e+00
     vertex -1.875000e+01  1.325000e+01  1.200000e+00
     vertex -1.875000e+01  1.475000e+01  1.200000e+00
   endloop
 endfacet
 facet normal  0.000000e+00 -0.000000e+00 -1.000000e+00
   outer loop
     vertex -1.725000e+01  1.475000e+01  1.200000e+00
     vertex -1.725000e+01  1.325000e+01  1.200000e+00
     vertex -1.875000e+01  1.325000e+01  1.200000e+00
   endloop
 endfacet
 facet normal  1.000000e+00  0.000000e+00  0.000000e+00
   outer loop
     vertex -1.875000e+01  7.750000e+00  1.200000e+00
     vertex -1.875000e+01  7.750000e+00  0.000000e+00
     vertex -1.875000e+01  1.325000e+01  0.000000e+00
   endloop
 endfacet
 facet normal  1.000000e+00 -0.000000e+00  0.000000e+00
   outer loop
     vertex -1.875000e+01  7.750000e+00  1.200000e+00
     vertex -1.875000e+01  1.325000e+01  0.000000e+00
     vertex -1.875000e+01  1.325000e+01  1.200000e+00
   endloop
 endfacet
 facet normal -0.000000e+00  0.000000e+00 -1.000000e+00
   outer loop
     vertex -1.725000e+01  7.750000e+00  1.200000e+00
     vertex -1.875000e+01  6.250000e+00  1.200000e+00
     vertex -1.875000e+01  7.750000e+00  1.200000e+00
   endloop
 endfacet
 facet normal  0.000000e+00 -0.000000e+00 -1.000000e+00
   outer loop
     vertex -1.725000e+01  7.750000e+00  1.200000e+00
     vertex -1.725000e+01  6.250000e+00  1.200000e+00
     vertex -1.875000e+01  6.250000e+00  1.200000e+00
   endloop
 endfacet
 facet normal  1.000000e+00  0.000000e+00  0.000000e+00
   outer loop
     vertex -1.875000e+01 -6.250000e+00  1.200000e+00
     vertex -1.875000e+01 -6.250000e+00  0.000000e+00
     vertex -1.875000e+01  6.250000e+00  0.000000e+00
   endloop
 endfacet
 facet normal  1.000000e+00 -0.000000e+00  0.000000e+00
   outer loop
     vertex -1.875000e+01 -6.250000e+00  1.200000e+00
     vertex -1.875000e+01  6.250000e+00  0.000000e+00
     vertex -1.875000e+01  6.250000e+00  1.200000e+00
   endloop
 endfacet
 facet normal -0.000000e+00  0.000000e+00 -1.000000e+00
   outer loop
     vertex -1.725000e+01 -6.250000e+00  1.200000e+00
     vertex -1.875000e+01 -7.750000e+00  1.200000e+00
     vertex -1.875000e+01 -6.250000e+00  1.200000e+00
   endloop
 endfacet
 facet normal  0.000000e+00 -0.000000e+00 -1.000000e+00
   outer loop
     vertex -1.725000e+01 -6.250000e+00  1.200000e+00
     vertex -1.725000e+01 -7.750000e+00  1.200000e+00
     vertex -1.875000e+01 -7.750000e+00  1.200000e+00
   endloop
 endfacet
 facet normal  1.000000e+00  0.000000e+00  0.000000e+00
   outer loop
     vertex -1.875000e+01 -1.325000e+01  1.200000e+00
     vertex -1.875000e+01 -1.325000e+01  0.000000e+00
     vertex -1.875000e+01 -7.750000e+00  0.000000e+00
   endloop
 endfacet
 facet normal  1.000000e+00 -0.000000e+00  0.000000e+00
   outer loop
     vertex -1.875000e+01 -1.325000e+01  1.200000e+00
     vertex -1.875000e+01 -7.750000e+00  0.000000e+00
     vertex -1.875000e+01 -7.750000e+00  1.200000e+00
   endloop
 endfacet
 facet normal -0.000000e+00  0.000000e+00 -1.000000e+00
   outer loop
     vertex -1.725000e+01 -1.325000e+01  1.200000e+00
     vertex -1.875000e+01 -1.475000e+01  1.200000e+00
     vertex -1.875000e+01 -1.325000e+01  1.200000e+00
   endloop
 endfacet
 facet normal  0.000000e+00 -0.000000e+00 -1.000000e+00
   outer loop
     vertex -1.725000e+01 -1.325000e+01  1.200000e+00
     vertex -1.725000e+01 -1.475000e+01  1.200000e+00
     vertex -1.875000e+01 -1.475000e+01  1.200000e+00
   endloop
 endfacet
 facet normal  1.000000e+00  0.000000e+00  0.000000e+00
   outer loop
     vertex -1.875000e+01 -1.700000e+01  1.200000e+00
     vertex -1.875000e+01 -1.700000e+01  0.000000e+00
     vertex -1.875000e+01 -1.475000e+01  0.000000e+00
   endloop
 endfacet
 facet normal  1.000000e+00 -0.000000e+00  0.000000e+00
   outer loop
     vertex -1.875000e+01 -1.700000e+01  1.200000e+00
     vertex -1.875000e+01 -1.475000e+01  0.000000e+00
     vertex -1.875000e+01 -1.475000e+01  1.200000e+00
   endloop
 endfacet
 facet normal -0.000000e+00  0.000000e+00 -1.000000e+00
   outer loop
     vertex -1.725000e+01 -1.475000e+01  1.200000e+00
     vertex -1.875000e+01 -1.700000e+01  1.200000e+00
     vertex -1.875000e+01 -1.475000e+01  1.200000e+00
   endloop
 endfacet
 facet normal  0.000000e+00 -0.000000e+00 -1.000000e+00
   outer loop
     vertex -1.725000e+01 -1.475000e+01  1.200000e+00
     vertex -1.725000e+01 -1.700000e+01  1.200000e+00
     vertex -1.875000e+01 -1.700000e+01  1.200000e+00
   endloop
 endfacet
 facet normal -1.000000e+00  0.000000e+00  0.000000e+00
   outer loop
     vertex -1.725000e+01 -1.700000e+01  1.200000e+00
     vertex -1.725000e+01 -1.475000e+01  0.000000e+00
     vertex -1.725000e+01 -1.700000e+01  0.000000e+00
   endloop
 endfacet
 facet normal -1.000000e+00  0.000000e+00  0.000000e+00
   outer loop
     vertex -1.725000e+01 -1.700000e+01  1.200000e+00
     vertex -1.725000e+01 -1.475000e+01  1.200000e+00
     vertex -1.725000e+01 -1.475000e+01  0.000000e+00
   endloop
 endfacet
 facet normal -0.000000e+00  0.000000e+00 -1.000000e+00
   outer loop
     vertex -7.500000e-01 -1.475000e+01  0.000000e+00
     vertex -1.725000e+01 -1.700000e+01  0.000000e+00
     vertex -1.725000e+01 -1.475000e+01  0.000000e+00
   endloop
 endfacet
 facet normal  0.000000e+00 -0.000000e+00 -1.000000e+00
   outer loop
     vertex -7.500000e-01 -1.475000e+01  0.000000e+00
     vertex -7.500000e-01 -1.700000e+01  0.000000e+00
     vertex -1.725000e+01 -1.700000e+01  0.000000e+00
   endloop
 endfacet
 facet normal  1.000000e+00  0.000000e+00  0.000000e+00
   outer loop
     vertex -7.500000e-01 -1.700000e+01  1.200000e+00
     vertex -7.500000e-01 -1.700000e+01  0.000000e+00
     vertex -7.500000e-01 -1.475000e+01  0.000000e+00
   endloop
 endfacet
 facet normal  1.000000e+00 -0.000000e+00  0.000000e+00
   outer loop
     vertex -7.500000e-01 -1.700000e+01  1.200000e+00
     vertex -7.500000e-01 -1.475000e+01  0.000000e+00
     vertex -7.500000e-01 -1.475000e+01  1.200000e+00
   endloop
 endfacet
 facet normal -0.000000e+00  0.000000e+00 -1.000000e+00
   outer loop
     vertex  7.500000e-01 -1.475000e+01  1.200000e+00
     vertex -7.500000e-01 -1.700000e+01  1.200000e+00
     vertex -7.500000e-01 -1.475000e+01  1.200000e+00
   endloop
 endfacet
 facet normal  0.000000e+00 -0.000000e+00 -1.000000e+00
   outer loop
     vertex  7.500000e-01 -1.475000e+01  1.200000e+00
     vertex  7.500000e-01 -1.700000e+01  1.200000e+00
     vertex -7.500000e-01 -1.700000e+01  1.200000e+00
   endloop
 endfacet
 facet normal -1.000000e+00  0.000000e+00  0.000000e+00
   outer loop
     vertex  7.500000e-01 -1.700000e+01  1.200000e+00
     vertex  7.500000e-01 -1.475000e+01  0.000000e+00
     vertex  7.500000e-01 -1.700000e+01  0.000000e+00
   endloop
 endfacet
 facet normal -1.000000e+00  0.000000e+00  0.000000e+00
   outer loop
     vertex  7.500000e-01 -1.700000e+01  1.200000e+00
     vertex  7.500000e-01 -1.475000e+01  1.200000e+00
     vertex  7.500000e-01 -1.475000e+01  0.000000e+00
   endloop
 endfacet
 facet normal -0.000000e+00  0.000000e+00 -1.000000e+00
   outer loop
     vertex  1.725000e+01 -1.475000e+01  0.000000e+00
     vertex  7.500000e-01 -1.700000e+01  0.000000e+00
     vertex  7.500000e-01 -1.475000e+01  0.000000e+00
   endloop
 endfacet
 facet normal  0.000000e+00 -0.000000e+00 -1.000000e+00
   outer loop
     vertex  1.725000e+01 -1.475000e+01  0.000000e+00
     vertex  1.725000e+01 -1.700000e+01  0.000000e+00
     vertex  7.500000e-01 -1.700000e+01  0.000000e+00
   endloop
 endfacet
 facet normal  1.000000e+00  0.000000e+00  0.000000e+00
   outer loop
     vertex  1.725000e+01 -1.700000e+01  1.200000e+00
     vertex  1.725000e+01 -1.700000e+01  0.000000e+00
     vertex  1.725000e+01 -1.475000e+01  0.000000e+00
   endloop
 endfacet
 facet normal  1.000000e+00 -0.000000e+00  0.000000e+00
   outer loop
     vertex  1.725000e+01 -1.700000e+01  1.200000e+00
     vertex  1.725000e+01 -1.475000e+01  0.000000e+00
     vertex  1.725000e+01 -1.475000e+01  1.200000e+00
   endloop
 endfacet
 facet normal -0.000000e+00  0.000000e+00 -1.000000e+00
   outer loop
     vertex  1.875000e+01 -1.475000e+01  1.200000e+00
     vertex  1.725000e+01 -1.700000e+01  1.200000e+00
     vertex  1.725000e+01 -1.475000e+01  1.200000e+00
   endloop
 endfacet
 facet normal  0.000000e+00 -0.000000e+00 -1.000000e+00
   outer loop
     vertex  1.875000e+01 -1.475000e+01  1.200000e+00
     vertex  1.875000e+01 -1.700000e+01  1.200000e+00
     vertex  1.725000e+01 -1.700000e+01  1.200000e+00
   endloop
 endfacet
 facet normal -1.000000e+00  0.000000e+00  0.000000e+00
   outer loop
     vertex  1.875000e+01 -1.700000e+01  1.200000e+00
     vertex  1.875000e+01 -1.475000e+01  0.000000e+00
     vertex  1.875000e+01 -1.700000e+01  0.000000e+00
   endloop
 endfacet
 facet normal -1.000000e+00  0.000000e+00  0.000000e+00
   outer loop
     vertex  1.875000e+01 -1.700000e+01  1.200000e+00
     vertex  1.875000e+01 -1.475000e+01  1.200000e+00
     vertex  1.875000e+01 -1.475000e+01  0.000000e+00
   endloop
 endfacet
 facet normal -0.000000e+00  0.000000e+00 -1.000000e+00
   outer loop
     vertex  3.200000e+01 -1.475000e+01  0.000000e+00
     vertex  1.875000e+01 -1.700000e+01  0.000000e+00
     vertex  1.875000e+01 -1.475000e+01  0.000000e+00
   endloop
 endfacet
 facet normal  0.000000e+00 -0.000000e+00 -1.000000e+00
   outer loop
     vertex  3.200000e+01 -1.475000e+01  0.000000e+00
     vertex  3.200000e+01 -1.700000e+01  0.000000e+00
     vertex  1.875000e+01 -1.700000e+01  0.000000e+00
   endloop
 endfacet
 facet normal  0.000000e+00 -1.000000e+00 -0.000000e+00
   outer loop
     vertex  3.200000e+01  5.000000e+00  2.400000e+01
     vertex  3.025000e+01  5.000000e+00  1.400000e+01
     vertex  3.200000e+01  5.000000e+00  1.400000e+01
   endloop
 endfacet
 facet normal -0.000000e+00 -1.000000e+00  0.000000e+00
   outer loop
     vertex  3.200000e+01  5.000000e+00  2.400000e+01
     vertex  3.025000e+01  5.000000e+00  2.400000e+01
     vertex  3.025000e+01  5.000000e+00  1.400000e+01
   endloop
 endfacet
 facet normal -1.000000e+00  0.000000e+00  0.000000e+00
   outer loop
     vertex  3.025000e+01  5.000000e+00  1.400000e+01
     vertex  3.025000e+01  1.525000e+01  2.400000e+01
     vertex  3.025000e+01  1.525000e+01  2.000000e+00
   endloop
 endfacet
 facet normal -1.000000e+00  0.000000e+00 -0.000000e+00
   outer loop
     vertex  3.025000e+01 -5.000000e+00  1.400000e+01
     vertex  3.025000e+01  1.525000e+01  2.000000e+00
     vertex  3.025000e+01 -1.525000e+01  2.000000e+00
   endloop
 endfacet
 facet normal -1.000000e+00  0.000000e+00  0.000000e+00
   outer loop
     vertex  3.025000e+01 -5.000000e+00  1.400000e+01
     vertex  3.025000e+01  5.000000e+00  1.400000e+01
     vertex  3.025000e+01  1.525000e+01  2.000000e+00
   endloop
 endfacet
 facet normal -1.000000e+00  0.000000e+00  0.000000e+00
   outer loop
     vertex  3.025000e+01  5.000000e+00  2.400000e+01
     vertex  3.025000e+01  1.525000e+01  2.400000e+01
     vertex  3.025000e+01  5.000000e+00  1.400000e+01
   endloop
 endfacet
 facet normal -1.000000e+00  0.000000e+00  0.000000e+00
   outer loop
     vertex  3.025000e+01 -1.525000e+01  2.400000e+01
     vertex  3.025000e+01 -5.000000e+00  2.400000e+01
     vertex  3.025000e+01 -5.000000e+00  1.400000e+01
   endloop
 endfacet
 facet normal -1.000000e+00  0.000000e+00  0.000000e+00
   outer loop
     vertex  3.025000e+01 -1.525000e+01  2.400000e+01
     vertex  3.025000e+01 -5.000000e+00  1.400000e+01
     vertex  3.025000e+01 -1.525000e+01  2.000000e+00
   endloop
 endfacet
 facet normal  0.000000e+00 -1.000000e+00  0.000000e+00
   outer loop
     vertex  3.025000e+01  1.525000e+01  2.000000e+00
     vertex -3.025000e+01  1.525000e+01  2.400000e+01
     vertex -3.025000e+01  1.525000e+01  2.000000e+00
   endloop
 endfacet
 facet normal -0.000000e+00 -1.000000e+00 -0.000000e+00
   outer loop
     vertex  3.025000e+01  1.525000e+01  2.400000e+01
     vertex -3.025000e+01  1.525000e+01  2.400000e+01
     vertex  3.025000e+01  1.525000e+01  2.000000e+00
   endloop
 endfacet
 facet normal  1.000000e+00  0.000000e+00  0.000000e+00
   outer loop
     vertex -3.025000e+01 -1.525000e+01  2.000000e+00
     vertex -3.025000e+01  1.525000e+01  2.000000e+00
     vertex -3.025000e+01  1.525000e+01  2.400000e+01
   endloop
 endfacet
 facet normal  1.000000e+00 -0.000000e+00  0.000000e+00
   outer loop
     vertex -3.025000e+01 -1.525000e+01  2.400000e+01
     vertex -3.025000e+01 -1.525000e+01  2.000000e+00
     vertex -3.025000e+01  1.525000e+01  2.400000e+01
   endloop
 endfacet
 facet normal  0.000000e+00  1.000000e+00  0.000000e+00
   outer loop
     vertex  3.025000e+01 -1.525000e+01  2.000000e+00
     vertex -3.025000e+01 -1.525000e+01  2.000000e+00
     vertex -3.025000e+01 -1.525000e+01  2.400000e+01
   endloop
 endfacet
 facet normal  0.000000e+00  1.000000e+00  0.000000e+00
   outer loop
     vertex  3.025000e+01 -1.525000e+01  2.400000e+01
     vertex  3.025000e+01 -1.525000e+01  2.000000e+00
     vertex -3.025000e+01 -1.525000e+01  2.400000e+01
   endloop
 endfacet
 facet normal  0.000000e+00  1.000000e+00  0.000000e+00
   outer loop
     vertex  3.200000e+01 -5.000000e+00  2.400000e+01
     vertex  3.200000e+01 -5.000000e+00  1.400000e+01
     vertex  3.025000e+01 -5.000000e+00  1.400000e+01
   endloop
 endfacet
 facet normal  0.000000e+00  1.000000e+00  0.000000e+00
   outer loop
     vertex  3.200000e+01 -5.000000e+00  2.400000e+01
     vertex  3.025000e+01 -5.000000e+00  1.400000e+01
     vertex  3.025000e+01 -5.000000e+00  2.400000e+01
   endloop
 endfacet
 facet normal  0.000000e+00 -1.000000e+00 -0.000000e+00
   outer loop
     vertex -7.500000e-01  1.475000e+01  1.200000e+00
     vertex -1.725000e+01  1.475000e+01  0.000000e+00
     vertex -7.500000e-01  1.475000e+01  0.000000e+00
   endloop
 endfacet
 facet normal -0.000000e+00 -1.000000e+00  0.000000e+00
   outer loop
     vertex -7.500000e-01  1.475000e+01  1.200000e+00
     vertex -1.725000e+01  1.475000e+01  1.200000e+00
     vertex -1.725000e+01  1.475000e+01  0.000000e+00
   endloop
 endfacet
 facet normal -0.000000e+00  0.000000e+00 -1.000000e+00
   outer loop
     vertex  7.500000e-01  1.475000e+01  1.200000e+00
     vertex -7.500000e-01  1.325000e+01  1.200000e+00
     vertex -7.500000e-01  1.475000e+01  1.200000e+00
   endloop
 endfacet
 facet normal  0.000000e+00 -0.000000e+00 -1.000000e+00
   outer loop
     vertex  7.500000e-01  1.475000e+01  1.200000e+00
     vertex  7.500000e-01  1.325000e+01  1.200000e+00
     vertex -7.500000e-01  1.325000e+01  1.200000e+00
   endloop
 endfacet
 facet normal  0.000000e+00 -1.000000e+00 -0.000000e+00
   outer loop
     vertex  1.725000e+01  1.475000e+01  1.200000e+00
     vertex  7.500000e-01  1.475000e+01  0.000000e+00
     vertex  1.725000e+01  1.475000e+01  0.000000e+00
   endloop
 endfacet
 facet normal -0.000000e+00 -1.000000e+00  0.000000e+00
   outer loop
     vertex  1.725000e+01  1.475000e+01  1.200000e+00
     vertex  7.500000e-01  1.475000e+01  1.200000e+00
     vertex  7.500000e-01  1.475000e+01  0.000000e+00
   endloop
 endfacet
 facet normal -0.000000e+00  0.000000e+00 -1.000000e+00
   outer loop
     vertex  1.875000e+01  1.475000e+01  1.200000e+00
     vertex  1.725000e+01  1.325000e+01  1.200000e+00
     vertex  1.725000e+01  1.475000e+01  1.200000e+00
   endloop
 endfacet
 facet normal  0.000000e+00 -0.000000e+00 -1.000000e+00
   outer loop
     vertex  1.875000e+01  1.475000e+01  1.200000e+00
     vertex  1.875000e+01  1.325000e+01  1.200000e+00
     vertex  1.725000e+01  1.325000e+01  1.200000e+00
   endloop
 endfacet
 facet normal  0.000000e+00 -1.000000e+00 -0.000000e+00
   outer loop
     vertex  3.200000e+01  1.475000e+01  1.200000e+00
     vertex  1.875000e+01  1.475000e+01  0.000000e+00
     vertex  3.200000e+01  1.475000e+01  0.000000e+00
   endloop
 endfacet
 facet normal -0.000000e+00 -1.000000e+00  0.000000e+00
   outer loop
     vertex  3.200000e+01  1.475000e+01  1.200000e+00
     vertex  1.875000e+01  1.475000e+01  1.200000e+00
     vertex  1.875000e+01  1.475000e+01  0.000000e+00
   endloop
 endfacet
 facet normal -0.000000e+00  0.000000e+00 -1.000000e+00
   outer loop
     vertex  3.200000e+01  1.475000e+01  1.200000e+00
     vertex  1.875000e+01  1.325000e+01  1.200000e+00
     vertex  1.875000e+01  1.475000e+01  1.200000e+00
   endloop
 endfacet
 facet normal  0.000000e+00 -0.000000e+00 -1.000000e+00
   outer loop
     vertex  3.200000e+01  1.475000e+01  1.200000e+00
     vertex  3.200000e+01  1.325000e+01  1.200000e+00
     vertex  1.875000e+01  1.325000e+01  1.200000e+00
   endloop
 endfacet
 facet normal  0.000000e+00  1.000000e+00  0.000000e+00
   outer loop
     vertex  3.200000e+01  1.325000e+01  1.200000e+00
     vertex  3.200000e+01  1.325000e+01  0.000000e+00
     vertex  1.875000e+01  1.325000e+01  0.000000e+00
   endloop
 endfacet
 facet normal  0.000000e+00  1.000000e+00  0.000000e+00
   outer loop
     vertex  3.200000e+01  1.325000e+01  1.200000e+00
     vertex  1.875000e+01  1.325000e+01  0.000000e+00
     vertex  1.875000e+01  1.325000e+01  1.200000e+00
   endloop
 endfacet
 facet normal -0.000000e+00  0.000000e+00 -1.000000e+00
   outer loop
     vertex  3.200000e+01  1.325000e+01  0.000000e+00
     vertex  1.875000e+01  7.750000e+00  0.000000e+00
     vertex  1.875000e+01  1.325000e+01  0.000000e+00
   endloop
 endfacet
 facet normal  0.000000e+00 -0.000000e+00 -1.000000e+00
   outer loop
     vertex  3.200000e+01  1.325000e+01  0.000000e+00
     vertex  3.200000e+01  7.750000e+00  0.000000e+00
     vertex  1.875000e+01  7.750000e+00  0.000000e+00
   endloop
 endfacet
 facet normal  0.000000e+00 -1.000000e+00 -0.000000e+00
   outer loop
     vertex  3.200000e+01  7.750000e+00  1.200000e+00
     vertex  1.875000e+01  7.750000e+00  0.000000e+00
     vertex  3.200000e+01  7.750000e+00  0.000000e+00
   endloop
 endfacet
 facet normal -0.000000e+00 -1.000000e+00  0.000000e+00
   outer loop
     vertex  3.200000e+01  7.750000e+00  1.200000e+00
     vertex  1.875000e+01  7.750000e+00  1.200000e+00
     vertex  1.875000e+01  7.750000e+00  0.000000e+00
   endloop
 endfacet
 facet normal -0.000000e+00  0.000000e+00 -1.000000e+00
   outer loop
     vertex  3.200000e+01  7.750000e+00  1.200000e+00
     vertex  1.875000e+01  6.250000e+00  1.200000e+00
     vertex  1.875000e+01  7.750000e+00  1.200000e+00
   endloop
 endfacet
 facet normal  0.000000e+00 -0.000000e+00 -1.000000e+00
   outer loop
     vertex  3.200000e+01  7.750000e+00  1.200000e+00
     vertex  3.200000e+01  6.250000e+00  1.200000e+00
     vertex  1.875000e+01  6.250000e+00  1.200000e+00
   endloop
 endfacet
 facet normal  0.000000e+00  1.000000e+00  0.000000e+00
   outer loop
     vertex  3.200000e+01  6.250000e+00  1.200000e+00
     vertex  3.200000e+01  6.250000e+00  0.000000e+00
     vertex  1.875000e+01  6.250000e+00  0.000000e+00
   endloop
 endfacet
 facet normal  0.000000e+00  1.000000e+00  0.000000e+00
   outer loop
     vertex  3.200000e+01  6.250000e+00  1.200000e+00
     vertex  1.875000e+01  6.250000e+00  0.000000e+00
     vertex  1.875000e+01  6.250000e+00  1.200000e+00
   endloop
 endfacet
 facet normal -0.000000e+00  0.000000e+00 -1.000000e+00
   outer loop
     vertex  3.200000e+01  6.250000e+00  0.000000e+00
     vertex  1.875000e+01 -6.250000e+00  0.000000e+00
     vertex  1.875000e+01  6.250000e+00  0.000000e+00
   endloop
 endfacet
 facet normal  0.000000e+00 -0.000000e+00 -1.000000e+00
   outer loop
     vertex  3.200000e+01  6.250000e+00  0.000000e+00
     vertex  3.200000e+01 -6.250000e+00  0.000000e+00
     vertex  1.875000e+01 -6.250000e+00  0.000000e+00
   endloop
 endfacet
 facet normal  0.000000e+00 -1.000000e+00 -0.000000e+00
   outer loop
     vertex  3.200000e+01 -6.250000e+00  1.200000e+00
     vertex  1.875000e+01 -6.250000e+00  0.000000e+00
     vertex  3.200000e+01 -6.250000e+00  0.000000e+00
   endloop
 endfacet
 facet normal -0.000000e+00 -1.000000e+00  0.000000e+00
   outer loop
     vertex  3.200000e+01 -6.250000e+00  1.200000e+00
     vertex  1.875000e+01 -6.250000e+00  1.200000e+00
     vertex  1.875000e+01 -6.250000e+00  0.000000e+00
   endloop
 endfacet
 facet normal -0.000000e+00  0.000000e+00 -1.000000e+00
   outer loop
     vertex  3.200000e+01 -6.250000e+00  1.200000e+00
     vertex  1.875000e+01 -7.750000e+00  1.200000e+00
     vertex  1.875000e+01 -6.250000e+00  1.200000e+00
   endloop
 endfacet
 facet normal  0.000000e+00 -0.000000e+00 -1.000000e+00
   outer loop
     vertex  3.200000e+01 -6.250000e+00  1.200000e+00
     vertex  3.200000e+01 -7.750000e+00  1.200000e+00
     vertex  1.875000e+01 -7.750000e+00  1.200000e+00
   endloop
 endfacet
 facet normal  0.000000e+00  1.000000e+00  0.000000e+00
   outer loop
     vertex  3.200000e+01 -7.750000e+00  1.200000e+00
     vertex  3.200000e+01 -7.750000e+00  0.000000e+00
     vertex  1.875000e+01 -7.750000e+00  0.000000e+00
   endloop
 endfacet
 facet normal  0.000000e+00  1.000000e+00  0.000000e+00
   outer loop
     vertex  3.200000e+01 -7.750000e+00  1.200000e+00
     vertex  1.875000e+01 -7.750000e+00  0.000000e+00
     vertex  1.875000e+01 -7.750000e+00  1.200000e+00
   endloop
 endfacet
 facet normal -0.000000e+00  0.000000e+00 -1.000000e+00
   outer loop
     vertex  3.200000e+01 -7.750000e+00  0.000000e+00
     vertex  1.875000e+01 -1.325000e+01  0.000000e+00
     vertex  1.875000e+01 -7.750000e+00  0.000000e+00
   endloop
 endfacet
 facet normal  0.000000e+00 -0.000000e+00 -1.000000e+00
   outer loop
     vertex  3.200000e+01 -7.750000e+00  0.000000e+00
     vertex  3.200000e+01 -1.325000e+01  0.000000e+00
     vertex  1.875000e+01 -1.325000e+01  0.000000e+00
   endloop
 endfacet
 facet normal  0.000000e+00 -1.000000e+00 -0.000000e+00
   outer loop
     vertex  3.200000e+01 -1.325000e+01  1.200000e+00
     vertex  1.875000e+01 -1.325000e+01  0.000000e+00
     vertex  3.200000e+01 -1.325000e+01  0.000000e+00
   endloop
 endfacet
 facet normal -0.000000e+00 -1.000000e+00  0.000000e+00
   outer loop
     vertex  3.200000e+01 -1.325000e+01  1.200000e+00
     vertex  1.875000e+01 -1.325000e+01  1.200000e+00
     vertex  1.875000e+01 -1.325000e+01  0.000000e+00
   endloop
 endfacet
 facet normal -0.000000e+00  0.000000e+00 -1.000000e+00
   outer loop
     vertex  3.200000e+01 -1.325000e+01  1.200000e+00
     vertex  1.875000e+01 -1.475000e+01  1.200000e+00
     vertex  1.875000e+01 -1.325000e+01  1.200000e+00
   endloop
 endfacet
 facet normal  0.000000e+00 -0.000000e+00 -1.000000e+00
   outer loop
     vertex  3.200000e+01 -1.325000e+01  1.200000e+00
     vertex  3.200000e+01 -1.475000e+01  1.200000e+00
     vertex  1.875000e+01 -1.475000e+01  1.200000e+00
   endloop
 endfacet
 facet normal  0.000000e+00  1.000000e+00  0.000000e+00
   outer loop
     vertex  3.200000e+01 -1.475000e+01  1.200000e+00
     vertex  3.200000e+01 -1.475000e+01  0.000000e+00
     vertex  1.875000e+01 -1.475000e+01  0.000000e+00
   endloop
 endfacet
 facet normal  0.000000e+00  1.000000e+00  0.000000e+00
   outer loop
     vertex  3.200000e+01 -1.475000e+01  1.200000e+00
     vertex  1.875000e+01 -1.475000e+01  0.000000e+00
     vertex  1.875000e+01 -1.475000e+01  1.200000e+00
   endloop
 endfacet
 facet normal  0.000000e+00  0.000000e+00  1.000000e+00
   outer loop
     vertex  3.200000e+01  5.000000e+00  1.400000e+01
     vertex  3.025000e+01  5.000000e+00  1.400000e+01
     vertex  3.025000e+01 -5.000000e+00  1.400000e+01
   endloop
 endfacet
 facet normal  0.000000e+00  0.000000e+00  1.000000e+00
   outer loop
     vertex  3.200000e+01  5.000000e+00  1.400000e+01
     vertex  3.025000e+01 -5.000000e+00  1.400000e+01
     vertex  3.200000e+01 -5.000000e+00  1.400000e+01
   endloop
 endfacet
 facet normal -0.000000e+00  0.000000e+00 -1.000000e+00
   outer loop
     vertex -7.500000e-01  1.475000e+01  1.200000e+00
     vertex -1.725000e+01  1.325000e+01  1.200000e+00
     vertex -1.725000e+01  1.475000e+01  1.200000e+00
   endloop
 endfacet
 facet normal  0.000000e+00 -0.000000e+00 -1.000000e+00
   outer loop
     vertex -7.500000e-01  1.475000e+01  1.200000e+00
     vertex -7.500000e-01  1.325000e+01  1.200000e+00
     vertex -1.725000e+01  1.325000e+01  1.200000e+00
   endloop
 endfacet
 facet normal -0.000000e+00  0.000000e+00 -1.000000e+00
   outer loop
     vertex -1.725000e+01  1.325000e+01  1.200000e+00
     vertex -1.875000e+01  7.750000e+00  1.200000e+00
     vertex -1.875000e+01  1.325000e+01  1.200000e+00
   endloop
 endfacet
 facet normal  0.000000e+00 -0.000000e+00 -1.000000e+00
   outer loop
     vertex -1.725000e+01  1.325000e+01  1.200000e+00
     vertex -1.725000e+01  7.750000e+00  1.200000e+00
     vertex -1.875000e+01  7.750000e+00  1.200000e+00
   endloop
 endfacet
 facet normal -0.000000e+00  0.000000e+00 -1.000000e+00
   outer loop
     vertex -7.500000e-01  7.750000e+00  1.200000e+00
     vertex -1.725000e+01  6.250000e+00  1.200000e+00
     vertex -1.725000e+01  7.750000e+00  1.200000e+00
   endloop
 endfacet
 facet normal  0.000000e+00 -0.000000e+00 -1.000000e+00
   outer loop
     vertex -7.500000e-01  7.750000e+00  1.200000e+00
     vertex -7.500000e-01  6.250000e+00  1.200000e+00
     vertex -1.725000e+01  6.250000e+00  1.200000e+00
   endloop
 endfacet
 facet normal -0.000000e+00  0.000000e+00 -1.000000e+00
   outer loop
     vertex -1.725000e+01  6.250000e+00  1.200000e+00
     vertex -1.875000e+01 -6.250000e+00  1.200000e+00
     vertex -1.875000e+01  6.250000e+00  1.200000e+00
   endloop
 endfacet
 facet normal  0.000000e+00 -0.000000e+00 -1.000000e+00
   outer loop
     vertex -1.725000e+01  6.250000e+00  1.200000e+00
     vertex -1.725000e+01 -6.250000e+00  1.200000e+00
     vertex -1.875000e+01 -6.250000e+00  1.200000e+00
   endloop
 endfacet
 facet normal -0.000000e+00  0.000000e+00 -1.000000e+00
   outer loop
     vertex -7.500000e-01 -6.250000e+00  1.200000e+00
     vertex -1.725000e+01 -7.750000e+00  1.200000e+00
     vertex -1.725000e+01 -6.250000e+00  1.200000e+00
   endloop
 endfacet
 facet normal  0.000000e+00 -0.000000e+00 -1.000000e+00
   outer loop
     vertex -7.500000e-01 -6.250000e+00  1.200000e+00
     vertex -7.500000e-01 -7.750000e+00  1.200000e+00
     vertex -1.725000e+01 -7.750000e+00  1.200000e+00
   endloop
 endfacet
 facet normal -0.000000e+00  0.000000e+00 -1.000000e+00
   outer loop
     vertex -1.725000e+01 -7.750000e+00  1.200000e+00
     vertex -1.875000e+01 -1.325000e+01  1.200000e+00
     vertex -1.875000e+01 -7.750000e+00  1.200000e+00
   endloop
 endfacet
 facet normal  0.000000e+00 -0.000000e+00 -1.000000e+00
   outer loop
     vertex -1.725000e+01 -7.750000e+00  1.200000e+00
     vertex -1.725000e+01 -1.325000e+01  1.200000e+00
     vertex -1.875000e+01 -1.325000e+01  1.200000e+00
   endloop
 endfacet
 facet normal -0.000000e+00  0.000000e+00 -1.000000e+00
   outer loop
     vertex -7.500000e-01 -1.325000e+01  1.200000e+00
     vertex -1.725000e+01 -1.475000e+01  1.200000e+00
     vertex -1.725000e+01 -1.325000e+01  1.200000e+00
   endloop
 endfacet
 facet normal  0.000000e+00 -0.000000e+00 -1.000000e+00
   outer loop
     vertex -7.500000e-01 -1.325000e+01  1.200000e+00
     vertex -7.500000e-01 -1.475000e+01  1.200000e+00
     vertex -1.725000e+01 -1.475000e+01  1.200000e+00
   endloop
 endfacet
 facet normal  0.000000e+00  1.000000e+00  0.000000e+00
   outer loop
     vertex -7.500000e-01 -1.475000e+01  1.200000e+00
     vertex -7.500000e-01 -1.475000e+01  0.000000e+00
     vertex -1.725000e+01 -1.475000e+01  0.000000e+00
   endloop
 endfacet
 facet normal  0.000000e+00  1.000000e+00  0.000000e+00
   outer loop
     vertex -7.500000e-01 -1.475000e+01  1.200000e+00
     vertex -1.725000e+01 -1.475000e+01  0.000000e+00
     vertex -1.725000e+01 -1.475000e+01  1.200000e+00
   endloop
 endfacet
 facet normal -0.000000e+00  0.000000e+00 -1.000000e+00
   outer loop
     vertex  7.500000e-01 -1.325000e+01  1.200000e+00
     vertex -7.500000e-01 -1.475000e+01  1.200000e+00
     vertex -7.500000e-01 -1.325000e+01  1.200000e+00
   endloop
 endfacet
 facet normal  0.000000e+00 -0.000000e+00 -1.000000e+00
   outer loop
     vertex  7.500000e-01 -1.325000e+01  1.200000e+00
     vertex  7.500000e-01 -1.475000e+01  1.200000e+00
     vertex -7.500000e-01 -1.475000e+01  1.200000e+00
   endloop
 endfacet
 facet normal  0.000000e+00  1.000000e+00  0.000000e+00
   outer loop
     vertex  1.725000e+01 -1.475000e+01  1.200000e+00
     vertex  1.725000e+01 -1.475000e+01  0.000000e+00
     vertex  7.500000e-01 -1.475000e+01  0.000000e+00
   endloop
 endfacet
 facet normal  0.000000e+00  1.000000e+00  0.000000e+00
   outer loop
     vertex  1.725000e+01 -1.475000e+01  1.200000e+00
     vertex  7.500000e-01 -1.475000e+01  0.000000e+00
     vertex  7.500000e-01 -1.475000e+01  1.200000e+00
   endloop
 endfacet
 facet normal -0.000000e+00  0.000000e+00 -1.000000e+00
   outer loop
     vertex  1.875000e+01 -1.325000e+01  1.200000e+00
     vertex  1.725000e+01 -1.475000e+01  1.200000e+00
     vertex  1.725000e+01 -1.325000e+01  1.200000e+00
   endloop
 endfacet
 facet normal  0.000000e+00 -0.000000e+00 -1.000000e+00
   outer loop
     vertex  1.875000e+01 -1.325000e+01  1.200000e+00
     vertex  1.875000e+01 -1.475000e+01  1.200000e+00
     vertex  1.725000e+01 -1.475000e+01  1.200000e+00
   endloop
 endfacet
 facet normal  0.000000e+00  0.000000e+00  1.000000e+00
   outer loop
     vertex  3.025000e+01  1.525000e+01  2.000000e+00
     vertex -3.025000e+01  1.525000e+01  2.000000e+00
     vertex -3.025000e+01 -1.525000e+01  2.000000e+00
   endloop
 endfacet
 facet normal  0.000000e+00  0.000000e+00  1.000000e+00
   outer loop
     vertex  3.025000e+01  1.525000e+01  2.000000e+00
     vertex -3.025000e+01 -1.525000e+01  2.000000e+00
     vertex  3.025000e+01 -1.525000e+01  2.000000e+00
   endloop
 endfacet
 facet normal -0.000000e+00  0.000000e+00 -1.000000e+00
   outer loop
     vertex  1.725000e+01  1.475000e+01  1.200000e+00
     vertex  7.500000e-01  1.325000e+01  1.200000e+00
     vertex  7.500000e-01  1.475000e+01  1.200000e+00
   endloop
 endfacet
 facet normal  0.000000e+00 -0.000000e+00 -1.000000e+00
   outer loop
     vertex  1.725000e+01  1.475000e+01  1.200000e+00
     vertex  1.725000e+01  1.325000e+01  1.200000e+00
     vertex  7.500000e-01  1.325000e+01  1.200000e+00
   endloop
 endfacet
 facet normal -0.000000e+00  0.000000e+00 -1.000000e+00
   outer loop
     vertex  7.500000e-01  1.325000e+01  1.200000e+00
     vertex -7.500000e-01  7.750000e+00  1.200000e+00
     vertex -7.500000e-01  1.325000e+01  1.200000e+00
   endloop
 endfacet
 facet normal  0.000000e+00 -0.000000e+00 -1.000000e+00
   outer loop
     vertex  7.500000e-01  1.325000e+01  1.200000e+00
     vertex  7.500000e-01  7.750000e+00  1.200000e+00
     vertex -7.500000e-01  7.750000e+00  1.200000e+00
   endloop
 endfacet
 facet normal -0.000000e+00  0.000000e+00 -1.000000e+00
   outer loop
     vertex  1.875000e+01  1.325000e+01  1.200000e+00
     vertex  1.725000e+01  7.750000e+00  1.200000e+00
     vertex  1.725000e+01  1.325000e+01  1.200000e+00
   endloop
 endfacet
 facet normal  0.000000e+00 -0.000000e+00 -1.000000e+00
   outer loop
     vertex  1.875000e+01  1.325000e+01  1.200000e+00
     vertex  1.875000e+01  7.750000e+00  1.200000e+00
     vertex  1.725000e+01  7.750000e+00  1.200000e+00
   endloop
 endfacet
 facet normal -1.000000e+00  0.000000e+00  0.000000e+00
   outer loop
     vertex  1.875000e+01  7.750000e+00  1.200000e+00
     vertex  1.875000e+01  1.325000e+01  0.000000e+00
     vertex  1.875000e+01  7.750000e+00  0.000000e+00
   endloop
 endfacet
 facet normal -1.000000e+00  0.000000e+00  0.000000e+00
   outer loop
     vertex  1.875000e+01  7.750000e+00  1.200000e+00
     vertex  1.875000e+01  1.325000e+01  1.200000e+00
     vertex  1.875000e+01  1.325000e+01  0.000000e+00
   endloop
 endfacet
 facet normal -0.000000e+00  0.000000e+00 -1.000000e+00
   outer loop
     vertex  1.875000e+01  7.750000e+00  1.200000e+00
     vertex  1.725000e+01  6.250000e+00  1.200000e+00
     vertex  1.725000e+01  7.750000e+00  1.200000e+00
   endloop
 endfacet
 facet normal  0.000000e+00 -0.000000e+00 -1.000000e+00
   outer loop
     vertex  1.875000e+01  7.750000e+00  1.200000e+00
     vertex  1.875000e+01  6.250000e+00  1.200000e+00
     vertex  1.725000e+01  6.250000e+00  1.200000e+00
   endloop
 endfacet
 facet normal -1.000000e+00  0.000000e+00  0.000000e+00
   outer loop
     vertex  1.875000e+01 -6.250000e+00  1.200000e+00
     vertex  1.875000e+01  6.250000e+00  0.000000e+00
     vertex  1.875000e+01 -6.250000e+00  0.000000e+00
   endloop
 endfacet
 facet normal -1.000000e+00  0.000000e+00  0.000000e+00
   outer loop
     vertex  1.875000e+01 -6.250000e+00  1.200000e+00
     vertex  1.875000e+01  6.250000e+00  1.200000e+00
     vertex  1.875000e+01  6.250000e+00  0.000000e+00
   endloop
 endfacet
 facet normal -0.000000e+00  0.000000e+00 -1.000000e+00
   outer loop
     vertex  1.875000e+01 -6.250000e+00  1.200000e+00
     vertex  1.725000e+01 -7.750000e+00  1.200000e+00
     vertex  1.725000e+01 -6.250000e+00  1.200000e+00
   endloop
 endfacet
 facet normal  0.000000e+00 -0.000000e+00 -1.000000e+00
   outer loop
     vertex  1.875000e+01 -6.250000e+00  1.200000e+00
     vertex  1.875000e+01 -7.750000e+00  1.200000e+00
     vertex  1.725000e+01 -7.750000e+00  1.200000e+00
   endloop
 endfacet
 facet normal -1.000000e+00  0.000000e+00  0.000000e+00
   outer loop
     vertex  1.875000e+01 -1.325000e+01  1.200000e+00
     vertex  1.875000e+01 -7.750000e+00  0.000000e+00
     vertex  1.875000e+01 -1.325000e+01  0.000000e+00
   endloop
 endfacet
 facet normal -1.000000e+00  0.000000e+00  0.000000e+00
   outer loop
     vertex  1.875000e+01 -1.325000e+01  1.200000e+00
     vertex  1.875000e+01 -7.750000e+00  1.200000e+00
     vertex  1.875000e+01 -7.750000e+00  0.000000e+00
   endloop
 endfacet
 facet normal  0.000000e+00  1.000000e+00  0.000000e+00
   outer loop
     vertex -7.500000e-01  1.325000e+01  1.200000e+00
     vertex -7.500000e-01  1.325000e+01  0.000000e+00
     vertex -1.725000e+01  1.325000e+01  0.000000e+00
   endloop
 endfacet
 facet normal  0.000000e+00  1.000000e+00  0.000000e+00
   outer loop
     vertex -7.500000e-01  1.325000e+01  1.200000e+00
     vertex -1.725000e+01  1.325000e+01  0.000000e+00
     vertex -1.725000e+01  1.325000e+01  1.200000e+00
   endloop
 endfacet
 facet normal -1.000000e+00  0.000000e+00  0.000000e+00
   outer loop
     vertex -1.725000e+01  7.750000e+00  1.200000e+00
     vertex -1.725000e+01  1.325000e+01  0.000000e+00
     vertex -1.725000e+01  7.750000e+00  0.000000e+00
   endloop
 endfacet
 facet normal -1.000000e+00  0.000000e+00  0.000000e+00
   outer loop
     vertex -1.725000e+01  7.750000e+00  1.200000e+00
     vertex -1.725000e+01  1.325000e+01  1.200000e+00
     vertex -1.725000e+01  1.325000e+01  0.000000e+00
   endloop
 endfacet
 facet normal  0.000000e+00 -1.000000e+00 -0.000000e+00
   outer loop
     vertex -7.500000e-01  7.750000e+00  1.200000e+00
     vertex -1.725000e+01  7.750000e+00  0.000000e+00
     vertex -7.500000e-01  7.750000e+00  0.000000e+00
   endloop
 endfacet
 facet normal -0.000000e+00 -1.000000e+00  0.000000e+00
   outer loop
     vertex -7.500000e-01  7.750000e+00  1.200000e+00
     vertex -1.725000e+01  7.750000e+00  1.200000e+00
     vertex -1.725000e+01  7.750000e+00  0.000000e+00
   endloop
 endfacet
 facet normal -0.000000e+00  0.000000e+00 -1.000000e+00
   outer loop
     vertex  7.500000e-01  7.750000e+00  1.200000e+00
     vertex -7.500000e-01  6.250000e+00  1.200000e+00
     vertex -7.500000e-01  7.750000e+00  1.200000e+00
   endloop
 endfacet
 facet normal  0.000000e+00 -0.000000e+00 -1.000000e+00
   outer loop
     vertex  7.500000e-01  7.750000e+00  1.200000e+00
     vertex  7.500000e-01  6.250000e+00  1.200000e+00
     vertex -7.500000e-01  6.250000e+00  1.200000e+00
   endloop
 endfacet
 facet normal  0.000000e+00  1.000000e+00  0.000000e+00
   outer loop
     vertex -7.500000e-01  6.250000e+00  1.200000e+00
     vertex -7.500000e-01  6.250000e+00  0.000000e+00
     vertex -1.725000e+01  6.250000e+00  0.000000e+00
   endloop
 endfacet
 facet normal  0.000000e+00  1.000000e+00  0.000000e+00
   outer loop
     vertex -7.500000e-01  6.250000e+00  1.200000e+00
     vertex -1.725000e+01  6.250000e+00  0.000000e+00
     vertex -1.725000e+01  6.250000e+00  1.200000e+00
   endloop
 endfacet
 facet normal -1.000000e+00  0.000000e+00  0.000000e+00
   outer loop
     vertex -1.725000e+01 -6.250000e+00  1.200000e+00
     vertex -1.725000e+01  6.250000e+00  0.000000e+00
     vertex -1.725000e+01 -6.250000e+00  0.000000e+00
   endloop
 endfacet
 facet normal -1.000000e+00  0.000000e+00  0.000000e+00
   outer loop
     vertex -1.725000e+01 -6.250000e+00  1.200000e+00
     vertex -1.725000e+01  6.250000e+00  1.200000e+00
     vertex -1.725000e+01  6.250000e+00  0.000000e+00
   endloop
 endfacet
 facet normal  0.000000e+00 -1.000000e+00 -0.000000e+00
   outer loop
     vertex -7.500000e-01 -6.250000e+00  1.200000e+00
     vertex -1.725000e+01 -6.250000e+00  0.000000e+00
     vertex -7.500000e-01 -6.250000e+00  0.000000e+00
   endloop
 endfacet
 facet normal -0.000000e+00 -1.000000e+00  0.000000e+00
   outer loop
     vertex -7.500000e-01 -6.250000e+00  1.200000e+00
     vertex -1.725000e+01 -6.250000e+00  1.200000e+00
     vertex -1.725000e+01 -6.250000e+00  0.000000e+00
   endloop
 endfacet
 facet normal -0.000000e+00  0.000000e+00 -1.000000e+00
   outer loop
     vertex  7.500000e-01 -6.250000e+00  1.200000e+00
     vertex -7.500000e-01 -7.750000e+00  1.200000e+00
     vertex -7.500000e-01 -6.250000e+00  1.200000e+00
   endloop
 endfacet
 facet normal  0.000000e+00 -0.000000e+00 -1.000000e+00
   outer loop
     vertex  7.500000e-01 -6.250000e+00  1.200000e+00
     vertex  7.500000e-01 -7.750000e+00  1.200000e+00
     vertex -7.500000e-01 -7.750000e+00  1.200000e+00
   endloop
 endfacet
 facet normal  0.000000e+00  1.000000e+00  0.000000e+00
   outer loop
     vertex -7.500000e-01 -7.750000e+00  1.200000e+00
     vertex -7.500000e-01 -7.750000e+00  0.000000e+00
     vertex -1.725000e+01 -7.750000e+00  0.000000e+00
   endloop
 endfacet
 facet normal  0.000000e+00  1.000000e+00  0.000000e+00
   outer loop
     vertex -7.500000e-01 -7.750000e+00  1.200000e+00
     vertex -1.725000e+01 -7.750000e+00  0.000000e+00
     vertex -1.725000e+01 -7.750000e+00  1.200000e+00
   endloop
 endfacet
 facet normal -1.000000e+00  0.000000e+00  0.000000e+00
   outer loop
     vertex -1.725000e+01 -1.325000e+01  1.200000e+00
     vertex -1.725000e+01 -7.750000e+00  0.000000e+00
     vertex -1.725000e+01 -1.325000e+01  0.000000e+00
   endloop
 endfacet
 facet normal -1.000000e+00  0.000000e+00  0.000000e+00
   outer loop
     vertex -1.725000e+01 -1.325000e+01  1.200000e+00
     vertex -1.725000e+01 -7.750000e+00  1.200000e+00
     vertex -1.725000e+01 -7.750000e+00  0.000000e+00
   endloop
 endfacet
 facet normal  0.000000e+00 -1.000000e+00 -0.000000e+00
   outer loop
     vertex -7.500000e-01 -1.325000e+01  1.200000e+00
     vertex -1.725000e+01 -1.325000e+01  0.000000e+00
     vertex -7.500000e-01 -1.325000e+01  0.000000e+00
   endloop
 endfacet
 facet normal -0.000000e+00 -1.000000e+00  0.000000e+00
   outer loop
     vertex -7.500000e-01 -1.325000e+01  1.200000e+00
     vertex -1.725000e+01 -1.325000e+01  1.200000e+00
     vertex -1.725000e+01 -1.325000e+01  0.000000e+00
   endloop
 endfacet
 facet normal -0.000000e+00  0.000000e+00 -1.000000e+00
   outer loop
     vertex  7.500000e-01 -7.750000e+00  1.200000e+00
     vertex -7.500000e-01 -1.325000e+01  1.200000e+00
     vertex -7.500000e-01 -7.750000e+00  1.200000e+00
   endloop
 endfacet
 facet normal  0.000000e+00 -0.000000e+00 -1.000000e+00
   outer loop
     vertex  7.500000e-01 -7.750000e+00  1.200000e+00
     vertex  7.500000e-01 -1.325000e+01  1.200000e+00
     vertex -7.500000e-01 -1.325000e+01  1.200000e+00
   endloop
 endfacet
 facet normal -0.000000e+00  0.000000e+00 -1.000000e+00
   outer loop
     vertex  1.725000e+01 -1.325000e+01  1.200000e+00
     vertex  7.500000e-01 -1.475000e+01  1.200000e+00
     vertex  7.500000e-01 -1.325000e+01  1.200000e+00
   endloop
 endfacet
 facet normal  0.000000e+00 -0.000000e+00 -1.000000e+00
   outer loop
     vertex  1.725000e+01 -1.325000e+01  1.200000e+00
     vertex  1.725000e+01 -1.475000e+01  1.200000e+00
     vertex  7.500000e-01 -1.475000e+01  1.200000e+00
   endloop
 endfacet
 facet normal -0.000000e+00  0.000000e+00 -1.000000e+00
   outer loop
     vertex  1.875000e+01 -7.750000e+00  1.200000e+00
     vertex  1.725000e+01 -1.325000e+01  1.200000e+00
     vertex  1.725000e+01 -7.750000e+00  1.200000e+00
   endloop
 endfacet
 facet normal  0.000000e+00 -0.000000e+00 -1.000000e+00
   outer loop
     vertex  1.875000e+01 -7.750000e+00  1.200000e+00
     vertex  1.875000e+01 -1.325000e+01  1.200000e+00
     vertex  1.725000e+01 -1.325000e+01  1.200000e+00
   endloop
 endfacet
 facet normal  0.000000e+00  1.000000e+00  0.000000e+00
   outer loop
     vertex  1.725000e+01  1.325000e+01  1.200000e+00
     vertex  1.725000e+01  1.325000e+01  0.000000e+00
     vertex  7.500000e-01  1.325000e+01  0.000000e+00
   endloop
 endfacet
 facet normal  0.000000e+00  1.000000e+00  0.000000e+00
   outer loop
     vertex  1.725000e+01  1.325000e+01  1.200000e+00
     vertex  7.500000e-01  1.325000e+01  0.000000e+00
     vertex  7.500000e-01  1.325000e+01  1.200000e+00
   endloop
 endfacet
 facet normal  1.000000e+00  0.000000e+00  0.000000e+00
   outer loop
     vertex -7.500000e-01  7.750000e+00  1.200000e+00
     vertex -7.500000e-01  7.750000e+00  0.000000e+00
     vertex -7.500000e-01  1.325000e+01  0.000000e+00
   endloop
 endfacet
 facet normal  1.000000e+00 -0.000000e+00  0.000000e+00
   outer loop
     vertex -7.500000e-01  7.750000e+00  1.200000e+00
     vertex -7.500000e-01  1.325000e+01  0.000000e+00
     vertex -7.500000e-01  1.325000e+01  1.200000e+00
   endloop
 endfacet
 facet normal -1.000000e+00  0.000000e+00  0.000000e+00
   outer loop
     vertex  7.500000e-01  7.750000e+00  1.200000e+00
     vertex  7.500000e-01  1.325000e+01  0.000000e+00
     vertex  7.500000e-01  7.750000e+00  0.000000e+00
   endloop
 endfacet
 facet normal -1.000000e+00  0.000000e+00  0.000000e+00
   outer loop
     vertex  7.500000e-01  7.750000e+00  1.200000e+00
     vertex  7.500000e-01  1.325000e+01  1.200000e+00
     vertex  7.500000e-01  1.325000e+01  0.000000e+00
   endloop
 endfacet
 facet normal  1.000000e+00  0.000000e+00  0.000000e+00
   outer loop
     vertex  1.725000e+01  7.750000e+00  1.200000e+00
     vertex  1.725000e+01  7.750000e+00  0.000000e+00
     vertex  1.725000e+01  1.325000e+01  0.000000e+00
   endloop
 endfacet
 facet normal  1.000000e+00 -0.000000e+00  0.000000e+00
   outer loop
     vertex  1.725000e+01  7.750000e+00  1.200000e+00
     vertex  1.725000e+01  1.325000e+01  0.000000e+00
     vertex  1.725000e+01  1.325000e+01  1.200000e+00
   endloop
 endfacet
 facet normal -0.000000e+00  0.000000e+00 -1.000000e+00
   outer loop
     vertex  1.875000e+01  6.250000e+00  1.200000e+00
     vertex  1.725000e+01 -6.250000e+00  1.200000e+00
     vertex  1.725000e+01  6.250000e+00  1.200000e+00
   endloop
 endfacet
 facet normal  0.000000e+00 -0.000000e+00 -1.000000e+00
   outer loop
     vertex  1.875000e+01  6.250000e+00  1.200000e+00
     vertex  1.875000e+01 -6.250000e+00  1.200000e+00
     vertex  1.725000e+01 -6.250000e+00  1.200000e+00
   endloop
 endfacet
 facet normal -0.000000e+00  0.000000e+00 -1.000000e+00
   outer loop
     vertex  1.725000e+01  7.750000e+00  1.200000e+00
     vertex  7.500000e-01  6.250000e+00  1.200000e+00
     vertex  7.500000e-01  7.750000e+00  1.200000e+00
   endloop
 endfacet
 facet normal  0.000000e+00 -0.000000e+00 -1.000000e+00
   outer loop
     vertex  1.725000e+01  7.750000e+00  1.200000e+00
     vertex  1.725000e+01  6.250000e+00  1.200000e+00
     vertex  7.500000e-01  6.250000e+00  1.200000e+00
   endloop
 endfacet
 facet normal -0.000000e+00  0.000000e+00 -1.000000e+00
   outer loop
     vertex  1.725000e+01 -6.250000e+00  1.200000e+00
     vertex  7.500000e-01 -7.750000e+00  1.200000e+00
     vertex  7.500000e-01 -6.250000e+00  1.200000e+00
   endloop
 endfacet
 facet normal  0.000000e+00 -0.000000e+00 -1.000000e+00
   outer loop
     vertex  1.725000e+01 -6.250000e+00  1.200000e+00
     vertex  1.725000e+01 -7.750000e+00  1.200000e+00
     vertex  7.500000e-01 -7.750000e+00  1.200000e+00
   endloop
 endfacet
 facet normal -0.000000e+00  0.000000e+00 -1.000000e+00
   outer loop
     vertex -7.500000e-01  1.325000e+01  0.000000e+00
     vertex -1.725000e+01  7.750000e+00  0.000000e+00
     vertex -1.725000e+01  1.325000e+01  0.000000e+00
   endloop
 endfacet
 facet normal  0.000000e+00 -0.000000e+00 -1.000000e+00
   outer loop
     vertex -7.500000e-01  1.325000e+01  0.000000e+00
     vertex -7.500000e-01  7.750000e+00  0.000000e+00
     vertex -1.725000e+01  7.750000e+00  0.000000e+00
   endloop
 endfacet
 facet normal -0.000000e+00  0.000000e+00 -1.000000e+00
   outer loop
     vertex  7.500000e-01  6.250000e+00  1.200000e+00
     vertex -7.500000e-01 -6.250000e+00  1.200000e+00
     vertex -7.500000e-01  6.250000e+00  1.200000e+00
   endloop
 endfacet
 facet normal  0.000000e+00 -0.000000e+00 -1.000000e+00
   outer loop
     vertex  7.500000e-01  6.250000e+00  1.200000e+00
     vertex  7.500000e-01 -6.250000e+00  1.200000e+00
     vertex -7.500000e-01 -6.250000e+00  1.200000e+00
   endloop
 endfacet
 facet normal -0.000000e+00  0.000000e+00 -1.000000e+00
   outer loop
     vertex -7.500000e-01  6.250000e+00  0.000000e+00
     vertex -1.725000e+01 -6.250000e+00  0.000000e+00
     vertex -1.725000e+01  6.250000e+00  0.000000e+00
   endloop
 endfacet
 facet normal  0.000000e+00 -0.000000e+00 -1.000000e+00
   outer loop
     vertex -7.500000e-01  6.250000e+00  0.000000e+00
     vertex -7.500000e-01 -6.250000e+00  0.000000e+00
     vertex -1.725000e+01 -6.250000e+00  0.000000e+00
   endloop
 endfacet
 facet normal  1.000000e+00  0.000000e+00  0.000000e+00
   outer loop
     vertex -7.500000e-01 -6.250000e+00  1.200000e+00
     vertex -7.500000e-01 -6.250000e+00  0.000000e+00
     vertex -7.500000e-01  6.250000e+00  0.000000e+00
   endloop
 endfacet
 facet normal  1.000000e+00 -0.000000e+00  0.000000e+00
   outer loop
     vertex -7.500000e-01 -6.250000e+00  1.200000e+00
     vertex -7.500000e-01  6.250000e+00  0.000000e+00
     vertex -7.500000e-01  6.250000e+00  1.200000e+00
   endloop
 endfacet
 facet normal  0.000000e+00  0.000000e+00 -1.000000e+00
   outer loop
     vertex -7.500000e-01 -1.325000e+01  0.000000e+00
     vertex -1.725000e+01 -1.325000e+01  0.000000e+00
     vertex -1.725000e+01 -7.750000e+00  0.000000e+00
   endloop
 endfacet
 facet normal -0.000000e+00 -0.000000e+00 -1.000000e+00
   outer loop
     vertex -7.500000e-01 -7.750000e+00  0.000000e+00
     vertex -7.500000e-01 -1.325000e+01  0.000000e+00
     vertex -1.725000e+01 -7.750000e+00  0.000000e+00
   endloop
 endfacet
 facet normal  1.000000e+00  0.000000e+00  0.000000e+00
   outer loop
     vertex -7.500000e-01 -1.325000e+01  1.200000e+00
     vertex -7.500000e-01 -1.325000e+01  0.000000e+00
     vertex -7.500000e-01 -7.750000e+00  0.000000e+00
   endloop
 endfacet
 facet normal  1.000000e+00 -0.000000e+00  0.000000e+00
   outer loop
     vertex -7.500000e-01 -1.325000e+01  1.200000e+00
     vertex -7.500000e-01 -7.750000e+00  0.000000e+00
     vertex -7.500000e-01 -7.750000e+00  1.200000e+00
   endloop
 endfacet
 facet normal -1.000000e+00  0.000000e+00  0.000000e+00
   outer loop
     vertex  7.500000e-01 -1.325000e+01  1.200000e+00
     vertex  7.500000e-01 -7.750000e+00  0.000000e+00
     vertex  7.500000e-01 -1.325000e+01  0.000000e+00
   endloop
 endfacet
 facet normal -1.000000e+00  0.000000e+00  0.000000e+00
   outer loop
     vertex  7.500000e-01 -1.325000e+01  1.200000e+00
     vertex  7.500000e-01 -7.750000e+00  1.200000e+00
     vertex  7.500000e-01 -7.750000e+00  0.000000e+00
   endloop
 endfacet
 facet normal  0.000000e+00 -1.000000e+00 -0.000000e+00
   outer loop
     vertex  1.725000e+01 -1.325000e+01  1.200000e+00
     vertex  7.500000e-01 -1.325000e+01  0.000000e+00
     vertex  1.725000e+01 -1.325000e+01  0.000000e+00
   endloop
 endfacet
 facet normal -0.000000e+00 -1.000000e+00  0.000000e+00
   outer loop
     vertex  1.725000e+01 -1.325000e+01  1.200000e+00
     vertex  7.500000e-01 -1.325000e+01  1.200000e+00
     vertex  7.500000e-01 -1.325000e+01  0.000000e+00
   endloop
 endfacet
 facet normal  1.000000e+00  0.000000e+00  0.000000e+00
   outer loop
     vertex  1.725000e+01 -1.325000e+01  1.200000e+00
     vertex  1.725000e+01 -1.325000e+01  0.000000e+00
     vertex  1.725000e+01 -7.750000e+00  0.000000e+00
   endloop
 endfacet
 facet normal  1.000000e+00 -0.000000e+00  0.000000e+00
   outer loop
     vertex  1.725000e+01 -1.325000e+01  1.200000e+00
     vertex  1.725000e+01 -7.750000e+00  0.000000e+00
     vertex  1.725000e+01 -7.750000e+00  1.200000e+00
   endloop
 endfacet
 facet normal -0.000000e+00  0.000000e+00 -1.000000e+00
   outer loop
     vertex  1.725000e+01  1.325000e+01  0.000000e+00
     vertex  7.500000e-01  7.750000e+00  0.000000e+00
     vertex  7.500000e-01  1.325000e+01  0.000000e+00
   endloop
 endfacet
 facet normal  0.000000e+00 -0.000000e+00 -1.000000e+00
   outer loop
     vertex  1.725000e+01  1.325000e+01  0.000000e+00
     vertex  1.725000e+01  7.750000e+00  0.000000e+00
     vertex  7.500000e-01  7.750000e+00  0.000000e+00
   endloop
 endfacet
 facet normal  0.000000e+00 -1.000000e+00 -0.000000e+00
   outer loop
     vertex  1.725000e+01  7.750000e+00  1.200000e+00
     vertex  7.500000e-01  7.750000e+00  0.000000e+00
     vertex  1.725000e+01  7.750000e+00  0.000000e+00
   endloop
 endfacet
 facet normal -0.000000e+00 -1.000000e+00  0.000000e+00
   outer loop
     vertex  1.725000e+01  7.750000e+00  1.200000e+00
     vertex  7.500000e-01  7.750000e+00  1.200000e+00
     vertex  7.500000e-01  7.750000e+00  0.000000e+00
   endloop
 endfacet
 facet normal  1.000000e+00  0.000000e+00  0.000000e+00
   outer loop
     vertex  1.725000e+01 -6.250000e+00  1.200000e+00
     vertex  1.725000e+01 -6.250000e+00  0.000000e+00
     vertex  1.725000e+01  6.250000e+00  0.000000e+00
   endloop
 endfacet
 facet normal  1.000000e+00 -0.000000e+00  0.000000e+00
   outer loop
     vertex  1.725000e+01 -6.250000e+00  1.200000e+00
     vertex  1.725000e+01  6.250000e+00  0.000000e+00
     vertex  1.725000e+01  6.250000e+00  1.200000e+00
   endloop
 endfacet
 facet normal  0.000000e+00  1.000000e+00  0.000000e+00
   outer loop
     vertex  1.725000e+01  6.250000e+00  1.200000e+00
     vertex  1.725000e+01  6.250000e+00  0.000000e+00
     vertex  7.500000e-01  6.250000e+00  0.000000e+00
   endloop
 endfacet
 facet normal  0.000000e+00  1.000000e+00  0.000000e+00
   outer loop
     vertex  1.725000e+01  6.250000e+00  1.200000e+00
     vertex  7.500000e-01  6.250000e+00  0.000000e+00
     vertex  7.500000e-01  6.250000e+00  1.200000e+00
   endloop
 endfacet
 facet normal  0.000000e+00 -1.000000e+00 -0.000000e+00
   outer loop
     vertex  1.725000e+01 -6.250000e+00  1.200000e+00
     vertex  7.500000e-01 -6.250000e+00  0.000000e+00
     vertex  1.725000e+01 -6.250000e+00  0.000000e+00
   endloop
 endfacet
 facet normal -0.000000e+00 -1.000000e+00  0.000000e+00
   outer loop
     vertex  1.725000e+01 -6.250000e+00  1.200000e+00
     vertex  7.500000e-01 -6.250000e+00  1.200000e+00
     vertex  7.500000e-01 -6.250000e+00  0.000000e+00
   endloop
 endfacet
 facet normal  0.000000e+00  1.000000e+00  0.000000e+00
   outer loop
     vertex  1.725000e+01 -7.750000e+00  1.200000e+00
     vertex  1.725000e+01 -7.750000e+00  0.000000e+00
     vertex  7.500000e-01 -7.750000e+00  0.000000e+00
   endloop
 endfacet
 facet normal  0.000000e+00  1.000000e+00  0.000000e+00
   outer loop
     vertex  1.725000e+01 -7.750000e+00  1.200000e+00
     vertex  7.500000e-01 -7.750000e+00  0.000000e+00
     vertex  7.500000e-01 -7.750000e+00  1.200000e+00
   endloop
 endfacet
 facet normal -1.000000e+00  0.000000e+00  0.000000e+00
   outer loop
     vertex  7.500000e-01 -6.250000e+00  1.200000e+00
     vertex  7.500000e-01  6.250000e+00  0.000000e+00
     vertex  7.500000e-01 -6.250000e+00  0.000000e+00
   endloop
 endfacet
 facet normal -1.000000e+00  0.000000e+00  0.000000e+00
   outer loop
     vertex  7.500000e-01 -6.250000e+00  1.200000e+00
     vertex  7.500000e-01  6.250000e+00  1.200000e+00
     vertex  7.500000e-01  6.250000e+00  0.000000e+00
   endloop
 endfacet
 facet normal  0.000000e+00  0.000000e+00 -1.000000e+00
   outer loop
     vertex  1.725000e+01 -1.325000e+01  0.000000e+00
     vertex  7.500000e-01 -1.325000e+01  0.000000e+00
     vertex  7.500000e-01 -7.750000e+00  0.000000e+00
   endloop
 endfacet
 facet normal -0.000000e+00 -0.000000e+00 -1.000000e+00
   outer loop
     vertex  1.725000e+01 -7.750000e+00  0.000000e+00
     vertex  1.725000e+01 -1.325000e+01  0.000000e+00
     vertex  7.500000e-01 -7.750000e+00  0.000000e+00
   endloop
 endfacet
 facet normal -0.000000e+00  0.000000e+00 -1.000000e+00
   outer loop
     vertex  1.725000e+01  6.250000e+00  0.000000e+00
     vertex  7.500000e-01 -6.250000e+00  0.000000e+00
     vertex  7.500000e-01  6.250000e+00  0.000000e+00
   endloop
 endfacet
 facet normal  0.000000e+00 -0.000000e+00 -1.000000e+00
   outer loop
     vertex  1.725000e+01  6.250000e+00  0.000000e+00
     vertex  1.725000e+01 -6.250000e+00  0.000000e+00
     vertex  7.500000e-01 -6.250000e+00  0.000000e+00
   endloop
 endfacet
endsolid
