0
SECTION
2
HEADER
9
$ACADVER
1
AC1009
9
$INSUNITS
70
4
0
ENDSEC
0
SECTION
2
TABLES
0
TABLE
2
LAYER
70
1
0
LAYER
2
0
70
0
62
7
6
CONTINUOUS
0
ENDTAB
0
ENDSEC
0
SECTION
2
ENTITIES
0
POLYLINE
8
0
66
1
70
1
0
VERTEX
8
0
10
18.18500
20
0.00000
30
0.0
0
VERTEX
8
0
10
19.66434
20
0.90155
30
0.0
0
VERTEX
8
0
10
19.61379
20
1.67287
30
0.0
0
VERTEX
8
0
10
18.02942
20
2.37362
30
0.0
0
VERTEX
8
0
10
17.56536
20
4.70662
30
0.0
0
VERTEX
8
0
10
18.76096
20
5.96034
30
0.0
0
VERTEX
8
0
10
18.51249
20
6.69229
30
0.0
0
VERTEX
8
0
10
16.80075
20
6.95910
30
0.0
0
VERTEX
8
0
10
15.74867
20
9.09250
30
0.0
0
VERTEX
8
0
10
16.57905
20
10.61294
30
0.0
0
VERTEX
8
0
10
16.14960
20
11.25565
30
0.0
0
VERTEX
8
0
10
14.42713
20
11.07033
30
0.0
0
VERTEX
8
0
10
12.85874
20
12.85874
30
0.0
0
VERTEX
8
0
10
13.26730
20
14.54228
30
0.0
0
VERTEX
8
0
10
12.68614
20
15.05194
30
0.0
0
VERTEX
8
0
10
11.07033
20
14.42713
30
0.0
0
VERTEX
8
0
10
9.09250
20
15.74867
30
0.0
0
VERTEX
8
0
10
9.05141
20
17.48060
30
0.0
0
VERTEX
8
0
10
8.35814
20
17.82248
30
0.0
0
VERTEX
8
0
10
6.95910
20
16.80075
30
0.0
0
VERTEX
8
0
10
4.70662
20
17.56536
30
0.0
0
VERTEX
8
0
10
4.21868
20
19.22764
30
0.0
0
VERTEX
8
0
10
3.46055
20
19.37844
30
0.0
0
VERTEX
8
0
10
2.37362
20
18.02942
30
0.0
0
VERTEX
8
0
10
0.00000
20
18.18500
30
0.0
0
VERTEX
8
0
10
-0.90155
20
19.66434
30
0.0
0
VERTEX
8
0
10
-1.67287
20
19.61379
30
0.0
0
VERTEX
8
0
10
-2.37362
20
18.02942
30
0.0
0
VERTEX
8
0
10
-4.70662
20
17.56536
30
0.0
0
VERTEX
8
0
10
-5.96034
20
18.76096
30
0.0
0
VERTEX
8
0
10
-6.69229
20
18.51249
30
0.0
0
VERTEX
8
0
10
-6.95910
20
16.80075
30
0.0
0
VERTEX
8
0
10
-9.09250
20
15.74867
30
0.0
0
VERTEX
8
0
10
-10.61294
20
16.57905
30
0.0
0
VERTEX
8
0
10
-11.25565
20
16.14960
30
0.0
0
VERTEX
8
0
10
-11.07033
20
14.42713
30
0.0
0
VERTEX
8
0
10
-12.85874
20
12.85874
30
0.0
0
VERTEX
8
0
10
-14.54228
20
13.26730
30
0.0
0
VERTEX
8
0
10
-15.05194
20
12.68614
30
0.0
0
VERTEX
8
0
10
-14.42713
20
11.07033
30
0.0
0
VERTEX
8
0
10
-15.74867
20
9.09250
30
0.0
0
VERTEX
8
0
10
-17.48060
20
9.05141
30
0.0
0
VERTEX
8
0
10
-17.82248
20
8.35814
30
0.0
0
VERTEX
8
0
10
-16.80075
20
6.95910
30
0.0
0
VERTEX
8
0
10
-17.56536
20
4.70662
30
0.0
0
VERTEX
8
0
10
-19.22764
20
4.21868
30
0.0
0
VERTEX
8
0
10
-19.37844
20
3.46055
30
0.0
0
VERTEX
8
0
10
-18.02942
20
2.37362
30
0.0
0
VERTEX
8
0
10
-18.18500
20
0.00000
30
0.0
0
VERTEX
8
0
10
-19.66434
20
-0.90155
30
0.0
0
VERTEX
8
0
10
-19.61379
20
-1.67287
30
0.0
0
VERTEX
8
0
10
-18.02942
20
-2.37362
30
0.0
0
VERTEX
8
0
10
-17.56536
20
-4.70662
30
0.0
0
VERTEX
8
0
10
-18.76096
20
-5.96034
30
0.0
0
VERTEX
8
0
10
-18.51249
20
-6.69229
30
0.0
0
VERTEX
8
0
10
-16.80075
20
-6.95910
30
0.0
0
VERTEX
8
0
10
-15.74867
20
-9.09250
30
0.0
0
VERTEX
8
0
10
-16.57905
20
-10.61294
30
0.0
0
VERTEX
8
0
10
-16.14960
20
-11.25565
30
0.0
0
VERTEX
8
0
10
-14.42713
20
-11.07033
30
0.0
0
VERTEX
8
0
10
-12.85874
20
-12.85874
30
0.0
0
VERTEX
8
0
10
-13.26730
20
-14.54228
30
0.0
0
VERTEX
8
0
10
-12.68614
20
-15.05194
30
0.0
0
VERTEX
8
0
10
-11.07033
20
-14.42713
30
0.0
0
VERTEX
8
0
10
-9.09250
20
-15.74867
30
0.0
0
VERTEX
8
0
10
-9.05141
20
-17.48060
30
0.0
0
VERTEX
8
0
10
-8.35814
20
-17.82248
30
0.0
0
VERTEX
8
0
10
-6.95910
20
-16.80075
30
0.0
0
VERTEX
8
0
10
-4.70662
20
-17.56536
30
0.0
0
VERTEX
8
0
10
-4.21868
20
-19.22764
30
0.0
0
VERTEX
8
0
10
-3.46055
20
-19.37844
30
0.0
0
VERTEX
8
0
10
-2.37362
20
-18.02942
30
0.0
0
VERTEX
8
0
10
-0.00000
20
-18.18500
30
0.0
0
VERTEX
8
0
10
0.90155
20
-19.66434
30
0.0
0
VERTEX
8
0
10
1.67287
20
-19.61379
30
0.0
0
VERTEX
8
0
10
2.37362
20
-18.02942
30
0.0
0
VERTEX
8
0
10
4.70662
20
-17.56536
30
0.0
0
VERTEX
8
0
10
5.96034
20
-18.76096
30
0.0
0
VERTEX
8
0
10
6.69229
20
-18.51249
30
0.0
0
VERTEX
8
0
10
6.95910
20
-16.80075
30
0.0
0
VERTEX
8
0
10
9.09250
20
-15.74867
30
0.0
0
VERTEX
8
0
10
10.61294
20
-16.57905
30
0.0
0
VERTEX
8
0
10
11.25565
20
-16.14960
30
0.0
0
VERTEX
8
0
10
11.07033
20
-14.42713
30
0.0
0
VERTEX
8
0
10
12.85874
20
-12.85874
30
0.0
0
VERTEX
8
0
10
14.54228
20
-13.26730
30
0.0
0
VERTEX
8
0
10
15.05194
20
-12.68614
30
0.0
0
VERTEX
8
0
10
14.42713
20
-11.07033
30
0.0
0
VERTEX
8
0
10
15.74867
20
-9.09250
30
0.0
0
VERTEX
8
0
10
17.48060
20
-9.05141
30
0.0
0
VERTEX
8
0
10
17.82248
20
-8.35814
30
0.0
0
VERTEX
8
0
10
16.80075
20
-6.95910
30
0.0
0
VERTEX
8
0
10
17.56536
20
-4.70662
30
0.0
0
VERTEX
8
0
10
19.22764
20
-4.21868
30
0.0
0
VERTEX
8
0
10
19.37844
20
-3.46055
30
0.0
0
VERTEX
8
0
10
18.02942
20
-2.37362
30
0.0
0
SEQEND
0
CIRCLE
8
0
10
0.0
20
0.0
30
0.0
40
9.60000
0
CIRCLE
8
0
10
8.83883
20
8.83883
30
0.0
40
1.60000
0
CIRCLE
8
0
10
-8.83883
20
8.83883
30
0.0
40
1.60000
0
CIRCLE
8
0
10
-8.83883
20
-8.83883
30
0.0
40
1.60000
0
CIRCLE
8
0
10
8.83883
20
-8.83883
30
0.0
40
1.60000
0
ENDSEC
0
EOF
