ISO-10303-21;
HEADER;
FILE_DESCRIPTION(('FreeCAD Model'),'2;1');
FILE_NAME('Open CASCADE Shape Model','2026-10-04T15:25:31',('FreeCAD'),(
    'FreeCAD'),'Open CASCADE STEP processor 7.8','FreeCAD','Unknown');
FILE_SCHEMA(('AUTOMOTIVE_DESIGN { 1 0 10303 214 1 1 1 1 }'));
ENDSEC;
DATA;
#1 = APPLICATION_PROTOCOL_DEFINITION('international standard',
  'automotive_design',2000,#2);
#2 = APPLICATION_CONTEXT(
  'core data for automotive mechanical design processes');
#3 = SHAPE_DEFINITION_REPRESENTATION(#4,#10);
#4 = PRODUCT_DEFINITION_SHAPE('','',#5);
#5 = PRODUCT_DEFINITION('design','',#6,#9);
#6 = PRODUCT_DEFINITION_FORMATION('','',#7);
#7 = PRODUCT('Open CASCADE STEP translator 7.8 10',
  'Open CASCADE STEP translator 7.8 10','',(#8));
#8 = PRODUCT_CONTEXT('',#2,'mechanical');
#9 = PRODUCT_DEFINITION_CONTEXT('part definition',#2,'design');
#10 = ADVANCED_BREP_SHAPE_REPRESENTATION('',(#11,#15),#1243);
#11 = AXIS2_PLACEMENT_3D('',#12,#13,#14);
#12 = CARTESIAN_POINT('',(0.,0.,0.));
#13 = DIRECTION('',(0.,0.,1.));
#14 = DIRECTION('',(1.,0.,-0.));
#15 = MANIFOLD_SOLID_BREP('',#16);
#16 = CLOSED_SHELL('',(#17,#57,#88,#168,#192,#231,#277,#353,#429,#460,
    #518,#576,#593,#615,#632,#649,#661,#749,#773,#854,#871,#888,#905,
    #917,#948,#972,#996,#1013,#1067,#1091,#1138,#1150,#1162,#1174,#1191,
    #1219,#1231));
#17 = ADVANCED_FACE('',(#18),#52,.F.);
#18 = FACE_BOUND('',#19,.F.);
#19 = EDGE_LOOP('',(#20,#30,#38,#46));
#20 = ORIENTED_EDGE('',*,*,#21,.F.);
#21 = EDGE_CURVE('',#22,#24,#26,.T.);
#22 = VERTEX_POINT('',#23);
#23 = CARTESIAN_POINT('',(50.880946093926,14.749537703707,11.5));
#24 = VERTEX_POINT('',#25);
#25 = CARTESIAN_POINT('',(50.880946093926,14.749537703707,24.5));
#26 = LINE('',#27,#28);
#27 = CARTESIAN_POINT('',(50.880946093926,14.749537703707,11.5));
#28 = VECTOR('',#29,1.);
#29 = DIRECTION('',(0.,0.,1.));
#30 = ORIENTED_EDGE('',*,*,#31,.T.);
#31 = EDGE_CURVE('',#22,#32,#34,.T.);
#32 = VERTEX_POINT('',#33);
#33 = CARTESIAN_POINT('',(44.119053906074,29.250462296293,11.5));
#34 = LINE('',#35,#36);
#35 = CARTESIAN_POINT('',(50.880946093926,14.749537703707,11.5));
#36 = VECTOR('',#37,1.);
#37 = DIRECTION('',(-0.422618261741,0.906307787037,0.));
#38 = ORIENTED_EDGE('',*,*,#39,.T.);
#39 = EDGE_CURVE('',#32,#40,#42,.T.);
#40 = VERTEX_POINT('',#41);
#41 = CARTESIAN_POINT('',(44.119053906074,29.250462296293,24.5));
#42 = LINE('',#43,#44);
#43 = CARTESIAN_POINT('',(44.119053906074,29.250462296293,11.5));
#44 = VECTOR('',#45,1.);
#45 = DIRECTION('',(0.,0.,1.));
#46 = ORIENTED_EDGE('',*,*,#47,.F.);
#47 = EDGE_CURVE('',#24,#40,#48,.T.);
#48 = LINE('',#49,#50);
#49 = CARTESIAN_POINT('',(50.880946093926,14.749537703707,24.5));
#50 = VECTOR('',#51,1.);
#51 = DIRECTION('',(-0.422618261741,0.906307787037,0.));
#52 = PLANE('',#53);
#53 = AXIS2_PLACEMENT_3D('',#54,#55,#56);
#54 = CARTESIAN_POINT('',(50.880946093926,14.749537703707,11.5));
#55 = DIRECTION('',(0.906307787037,0.422618261741,0.));
#56 = DIRECTION('',(0.,0.,1.));
#57 = ADVANCED_FACE('',(#58),#83,.F.);
#58 = FACE_BOUND('',#59,.F.);
#59 = EDGE_LOOP('',(#60,#68,#69,#77));
#60 = ORIENTED_EDGE('',*,*,#61,.F.);
#61 = EDGE_CURVE('',#22,#62,#64,.T.);
#62 = VERTEX_POINT('',#63);
#63 = CARTESIAN_POINT('',(72.632332982805,24.892375985484,11.5));
#64 = LINE('',#65,#66);
#65 = CARTESIAN_POINT('',(50.880946093926,14.749537703707,11.5));
#66 = VECTOR('',#67,1.);
#67 = DIRECTION('',(0.906307787037,0.422618261741,0.));
#68 = ORIENTED_EDGE('',*,*,#21,.T.);
#69 = ORIENTED_EDGE('',*,*,#70,.T.);
#70 = EDGE_CURVE('',#24,#71,#73,.T.);
#71 = VERTEX_POINT('',#72);
#72 = CARTESIAN_POINT('',(72.632332982805,24.892375985484,24.5));
#73 = LINE('',#74,#75);
#74 = CARTESIAN_POINT('',(50.880946093926,14.749537703707,24.5));
#75 = VECTOR('',#76,1.);
#76 = DIRECTION('',(0.906307787037,0.422618261741,0.));
#77 = ORIENTED_EDGE('',*,*,#78,.F.);
#78 = EDGE_CURVE('',#62,#71,#79,.T.);
#79 = LINE('',#80,#81);
#80 = CARTESIAN_POINT('',(72.632332982805,24.892375985484,11.5));
#81 = VECTOR('',#82,1.);
#82 = DIRECTION('',(0.,0.,1.));
#83 = PLANE('',#84);
#84 = AXIS2_PLACEMENT_3D('',#85,#86,#87);
#85 = CARTESIAN_POINT('',(50.880946093926,14.749537703707,11.5));
#86 = DIRECTION('',(-0.422618261741,0.906307787037,0.));
#87 = DIRECTION('',(0.,0.,1.));
#88 = ADVANCED_FACE('',(#89,#107,#118,#129),#163,.T.);
#89 = FACE_BOUND('',#90,.T.);
#90 = EDGE_LOOP('',(#91,#92,#93,#101));
#91 = ORIENTED_EDGE('',*,*,#47,.F.);
#92 = ORIENTED_EDGE('',*,*,#70,.T.);
#93 = ORIENTED_EDGE('',*,*,#94,.T.);
#94 = EDGE_CURVE('',#71,#95,#97,.T.);
#95 = VERTEX_POINT('',#96);
#96 = CARTESIAN_POINT('',(65.870440794954,39.39330057807,24.5));
#97 = LINE('',#98,#99);
#98 = CARTESIAN_POINT('',(72.632332982805,24.892375985484,24.5));
#99 = VECTOR('',#100,1.);
#100 = DIRECTION('',(-0.422618261741,0.906307787037,0.));
#101 = ORIENTED_EDGE('',*,*,#102,.F.);
#102 = EDGE_CURVE('',#40,#95,#103,.T.);
#103 = LINE('',#104,#105);
#104 = CARTESIAN_POINT('',(44.119053906074,29.250462296293,24.5));
#105 = VECTOR('',#106,1.);
#106 = DIRECTION('',(0.906307787037,0.422618261741,0.));
#107 = FACE_BOUND('',#108,.T.);
#108 = EDGE_LOOP('',(#109));
#109 = ORIENTED_EDGE('',*,*,#110,.F.);
#110 = EDGE_CURVE('',#111,#111,#113,.T.);
#111 = VERTEX_POINT('',#112);
#112 = CARTESIAN_POINT('',(57.981170522904,20.818871526965,24.5));
#113 = CIRCLE('',#114,1.);
#114 = AXIS2_PLACEMENT_3D('',#115,#116,#117);
#115 = CARTESIAN_POINT('',(57.074862735867,20.396253265224,24.5));
#116 = DIRECTION('',(0.,-0.,1.));
#117 = DIRECTION('',(0.906307787037,0.422618261741,0.));
#118 = FACE_BOUND('',#119,.T.);
#119 = EDGE_LOOP('',(#120));
#120 = ORIENTED_EDGE('',*,*,#121,.F.);
#121 = EDGE_CURVE('',#122,#122,#124,.T.);
#122 = VERTEX_POINT('',#123);
#123 = CARTESIAN_POINT('',(53.332369643756,30.788257184368,24.5));
#124 = CIRCLE('',#125,1.);
#125 = AXIS2_PLACEMENT_3D('',#126,#127,#128);
#126 = CARTESIAN_POINT('',(52.426061856719,30.365638922627,24.5));
#127 = DIRECTION('',(0.,-0.,1.));
#128 = DIRECTION('',(0.906307787037,0.422618261741,0.));
#129 = FACE_BOUND('',#130,.T.);
#130 = EDGE_LOOP('',(#131,#141,#149,#157));
#131 = ORIENTED_EDGE('',*,*,#132,.F.);
#132 = EDGE_CURVE('',#133,#135,#137,.T.);
#133 = VERTEX_POINT('',#134);
#134 = CARTESIAN_POINT('',(70.684015269834,24.811393954628,24.5));
#135 = VERTEX_POINT('',#136);
#136 = CARTESIAN_POINT('',(72.043476950389,25.445321347239,24.5));
#137 = LINE('',#138,#139);
#138 = CARTESIAN_POINT('',(70.684015269834,24.811393954628,24.5));
#139 = VECTOR('',#140,1.);
#140 = DIRECTION('',(0.906307787037,0.422618261741,0.));
#141 = ORIENTED_EDGE('',*,*,#142,.T.);
#142 = EDGE_CURVE('',#133,#143,#145,.T.);
#143 = VERTEX_POINT('',#144);
#144 = CARTESIAN_POINT('',(64.556050474594,37.952856866659,24.5));
#145 = LINE('',#146,#147);
#146 = CARTESIAN_POINT('',(70.684015269834,24.811393954628,24.5));
#147 = VECTOR('',#148,1.);
#148 = DIRECTION('',(-0.422618261741,0.906307787037,0.));
#149 = ORIENTED_EDGE('',*,*,#150,.T.);
#150 = EDGE_CURVE('',#143,#151,#153,.T.);
#151 = VERTEX_POINT('',#152);
#152 = CARTESIAN_POINT('',(65.915512155149,38.58678425927,24.5));
#153 = LINE('',#154,#155);
#154 = CARTESIAN_POINT('',(64.556050474594,37.952856866659,24.5));
#155 = VECTOR('',#156,1.);
#156 = DIRECTION('',(0.906307787037,0.422618261741,0.));
#157 = ORIENTED_EDGE('',*,*,#158,.F.);
#158 = EDGE_CURVE('',#135,#151,#159,.T.);
#159 = LINE('',#160,#161);
#160 = CARTESIAN_POINT('',(72.043476950389,25.445321347239,24.5));
#161 = VECTOR('',#162,1.);
#162 = DIRECTION('',(-0.422618261741,0.906307787037,0.));
#163 = PLANE('',#164);
#164 = AXIS2_PLACEMENT_3D('',#165,#166,#167);
#165 = CARTESIAN_POINT('',(50.880946093926,14.749537703707,24.5));
#166 = DIRECTION('',(0.,0.,1.));
#167 = DIRECTION('',(0.906307787037,0.422618261741,0.));
#168 = ADVANCED_FACE('',(#169),#187,.T.);
#169 = FACE_BOUND('',#170,.T.);
#170 = EDGE_LOOP('',(#171,#179,#180,#181));
#171 = ORIENTED_EDGE('',*,*,#172,.F.);
#172 = EDGE_CURVE('',#32,#173,#175,.T.);
#173 = VERTEX_POINT('',#174);
#174 = CARTESIAN_POINT('',(65.870440794954,39.39330057807,11.5));
#175 = LINE('',#176,#177);
#176 = CARTESIAN_POINT('',(44.119053906074,29.250462296293,11.5));
#177 = VECTOR('',#178,1.);
#178 = DIRECTION('',(0.906307787037,0.422618261741,0.));
#179 = ORIENTED_EDGE('',*,*,#39,.T.);
#180 = ORIENTED_EDGE('',*,*,#102,.T.);
#181 = ORIENTED_EDGE('',*,*,#182,.F.);
#182 = EDGE_CURVE('',#173,#95,#183,.T.);
#183 = LINE('',#184,#185);
#184 = CARTESIAN_POINT('',(65.870440794954,39.39330057807,11.5));
#185 = VECTOR('',#186,1.);
#186 = DIRECTION('',(0.,0.,1.));
#187 = PLANE('',#188);
#188 = AXIS2_PLACEMENT_3D('',#189,#190,#191);
#189 = CARTESIAN_POINT('',(44.119053906074,29.250462296293,11.5));
#190 = DIRECTION('',(-0.422618261741,0.906307787037,0.));
#191 = DIRECTION('',(0.,0.,1.));
#192 = ADVANCED_FACE('',(#193,#204,#215),#226,.F.);
#193 = FACE_BOUND('',#194,.F.);
#194 = EDGE_LOOP('',(#195,#196,#197,#203));
#195 = ORIENTED_EDGE('',*,*,#31,.F.);
#196 = ORIENTED_EDGE('',*,*,#61,.T.);
#197 = ORIENTED_EDGE('',*,*,#198,.T.);
#198 = EDGE_CURVE('',#62,#173,#199,.T.);
#199 = LINE('',#200,#201);
#200 = CARTESIAN_POINT('',(72.632332982805,24.892375985484,11.5));
#201 = VECTOR('',#202,1.);
#202 = DIRECTION('',(-0.422618261741,0.906307787037,0.));
#203 = ORIENTED_EDGE('',*,*,#172,.F.);
#204 = FACE_BOUND('',#205,.F.);
#205 = EDGE_LOOP('',(#206));
#206 = ORIENTED_EDGE('',*,*,#207,.F.);
#207 = EDGE_CURVE('',#208,#208,#210,.T.);
#208 = VERTEX_POINT('',#209);
#209 = CARTESIAN_POINT('',(57.981170522904,20.818871526965,11.5));
#210 = CIRCLE('',#211,1.);
#211 = AXIS2_PLACEMENT_3D('',#212,#213,#214);
#212 = CARTESIAN_POINT('',(57.074862735867,20.396253265224,11.5));
#213 = DIRECTION('',(0.,-0.,1.));
#214 = DIRECTION('',(0.906307787037,0.422618261741,0.));
#215 = FACE_BOUND('',#216,.F.);
#216 = EDGE_LOOP('',(#217));
#217 = ORIENTED_EDGE('',*,*,#218,.F.);
#218 = EDGE_CURVE('',#219,#219,#221,.T.);
#219 = VERTEX_POINT('',#220);
#220 = CARTESIAN_POINT('',(53.332369643756,30.788257184368,11.5));
#221 = CIRCLE('',#222,1.);
#222 = AXIS2_PLACEMENT_3D('',#223,#224,#225);
#223 = CARTESIAN_POINT('',(52.426061856719,30.365638922627,11.5));
#224 = DIRECTION('',(0.,-0.,1.));
#225 = DIRECTION('',(0.906307787037,0.422618261741,0.));
#226 = PLANE('',#227);
#227 = AXIS2_PLACEMENT_3D('',#228,#229,#230);
#228 = CARTESIAN_POINT('',(50.880946093926,14.749537703707,11.5));
#229 = DIRECTION('',(0.,0.,1.));
#230 = DIRECTION('',(0.906307787037,0.422618261741,0.));
#231 = ADVANCED_FACE('',(#232,#238),#272,.T.);
#232 = FACE_BOUND('',#233,.T.);
#233 = EDGE_LOOP('',(#234,#235,#236,#237));
#234 = ORIENTED_EDGE('',*,*,#78,.F.);
#235 = ORIENTED_EDGE('',*,*,#198,.T.);
#236 = ORIENTED_EDGE('',*,*,#182,.T.);
#237 = ORIENTED_EDGE('',*,*,#94,.F.);
#238 = FACE_BOUND('',#239,.T.);
#239 = EDGE_LOOP('',(#240,#250,#258,#266));
#240 = ORIENTED_EDGE('',*,*,#241,.T.);
#241 = EDGE_CURVE('',#242,#244,#246,.T.);
#242 = VERTEX_POINT('',#243);
#243 = CARTESIAN_POINT('',(66.293059056695,38.486992791033,13.5));
#244 = VERTEX_POINT('',#245);
#245 = CARTESIAN_POINT('',(72.209714721065,25.79868377252,13.5));
#246 = LINE('',#247,#248);
#247 = CARTESIAN_POINT('',(72.421023851935,25.345529879002,13.5));
#248 = VECTOR('',#249,1.);
#249 = DIRECTION('',(0.422618261741,-0.906307787037,0.));
#250 = ORIENTED_EDGE('',*,*,#251,.T.);
#251 = EDGE_CURVE('',#244,#252,#254,.T.);
#252 = VERTEX_POINT('',#253);
#253 = CARTESIAN_POINT('',(72.209714721065,25.79868377252,22.5));
#254 = LINE('',#255,#256);
#255 = CARTESIAN_POINT('',(72.209714721065,25.79868377252,12.5));
#256 = VECTOR('',#257,1.);
#257 = DIRECTION('',(0.,0.,1.));
#258 = ORIENTED_EDGE('',*,*,#259,.F.);
#259 = EDGE_CURVE('',#260,#252,#262,.T.);
#260 = VERTEX_POINT('',#261);
#261 = CARTESIAN_POINT('',(66.293059056695,38.486992791033,22.5));
#262 = LINE('',#263,#264);
#263 = CARTESIAN_POINT('',(72.421023851935,25.345529879002,22.5));
#264 = VECTOR('',#265,1.);
#265 = DIRECTION('',(0.422618261741,-0.906307787037,0.));
#266 = ORIENTED_EDGE('',*,*,#267,.F.);
#267 = EDGE_CURVE('',#242,#260,#268,.T.);
#268 = LINE('',#269,#270);
#269 = CARTESIAN_POINT('',(66.293059056695,38.486992791033,12.5));
#270 = VECTOR('',#271,1.);
#271 = DIRECTION('',(0.,0.,1.));
#272 = PLANE('',#273);
#273 = AXIS2_PLACEMENT_3D('',#274,#275,#276);
#274 = CARTESIAN_POINT('',(72.632332982805,24.892375985484,11.5));
#275 = DIRECTION('',(0.906307787037,0.422618261741,0.));
#276 = DIRECTION('',(0.,0.,1.));
#277 = ADVANCED_FACE('',(#278),#348,.F.);
#278 = FACE_BOUND('',#279,.F.);
#279 = EDGE_LOOP('',(#280,#281,#289,#298,#306,#315,#321,#322,#323,#332,
    #340,#347));
#280 = ORIENTED_EDGE('',*,*,#110,.F.);
#281 = ORIENTED_EDGE('',*,*,#282,.F.);
#282 = EDGE_CURVE('',#283,#111,#285,.T.);
#283 = VERTEX_POINT('',#284);
#284 = CARTESIAN_POINT('',(57.981170522904,20.818871526965,20.));
#285 = LINE('',#286,#287);
#286 = CARTESIAN_POINT('',(57.981170522904,20.818871526965,10.5));
#287 = VECTOR('',#288,1.);
#288 = DIRECTION('',(0.,0.,1.));
#289 = ORIENTED_EDGE('',*,*,#290,.T.);
#290 = EDGE_CURVE('',#283,#291,#293,.T.);
#291 = VERTEX_POINT('',#292);
#292 = CARTESIAN_POINT('',(56.501286299516,19.577101220935,20.));
#293 = CIRCLE('',#294,1.);
#294 = AXIS2_PLACEMENT_3D('',#295,#296,#297);
#295 = CARTESIAN_POINT('',(57.074862735867,20.396253265224,20.));
#296 = DIRECTION('',(0.,-0.,1.));
#297 = DIRECTION('',(0.906307787037,0.422618261741,0.));
#298 = ORIENTED_EDGE('',*,*,#299,.F.);
#299 = EDGE_CURVE('',#300,#291,#302,.T.);
#300 = VERTEX_POINT('',#301);
#301 = CARTESIAN_POINT('',(56.501286299516,19.577101220935,16.));
#302 = LINE('',#303,#304);
#303 = CARTESIAN_POINT('',(56.501286299516,19.577101220935,10.5));
#304 = VECTOR('',#305,1.);
#305 = DIRECTION('',(0.,0.,1.));
#306 = ORIENTED_EDGE('',*,*,#307,.F.);
#307 = EDGE_CURVE('',#308,#300,#310,.T.);
#308 = VERTEX_POINT('',#309);
#309 = CARTESIAN_POINT('',(57.981170522904,20.818871526965,16.));
#310 = CIRCLE('',#311,1.);
#311 = AXIS2_PLACEMENT_3D('',#312,#313,#314);
#312 = CARTESIAN_POINT('',(57.074862735867,20.396253265224,16.));
#313 = DIRECTION('',(0.,-0.,1.));
#314 = DIRECTION('',(0.906307787037,0.422618261741,0.));
#315 = ORIENTED_EDGE('',*,*,#316,.F.);
#316 = EDGE_CURVE('',#208,#308,#317,.T.);
#317 = LINE('',#318,#319);
#318 = CARTESIAN_POINT('',(57.981170522904,20.818871526965,10.5));
#319 = VECTOR('',#320,1.);
#320 = DIRECTION('',(0.,0.,1.));
#321 = ORIENTED_EDGE('',*,*,#207,.T.);
#322 = ORIENTED_EDGE('',*,*,#316,.T.);
#323 = ORIENTED_EDGE('',*,*,#324,.F.);
#324 = EDGE_CURVE('',#325,#308,#327,.T.);
#325 = VERTEX_POINT('',#326);
#326 = CARTESIAN_POINT('',(58.071057433959,20.309097522476,16.));
#327 = CIRCLE('',#328,1.);
#328 = AXIS2_PLACEMENT_3D('',#329,#330,#331);
#329 = CARTESIAN_POINT('',(57.074862735867,20.396253265224,16.));
#330 = DIRECTION('',(0.,-0.,1.));
#331 = DIRECTION('',(0.906307787037,0.422618261741,0.));
#332 = ORIENTED_EDGE('',*,*,#333,.T.);
#333 = EDGE_CURVE('',#325,#334,#336,.T.);
#334 = VERTEX_POINT('',#335);
#335 = CARTESIAN_POINT('',(58.071057433959,20.309097522476,20.));
#336 = LINE('',#337,#338);
#337 = CARTESIAN_POINT('',(58.071057433959,20.309097522476,10.5));
#338 = VECTOR('',#339,1.);
#339 = DIRECTION('',(0.,0.,1.));
#340 = ORIENTED_EDGE('',*,*,#341,.T.);
#341 = EDGE_CURVE('',#334,#283,#342,.T.);
#342 = CIRCLE('',#343,1.);
#343 = AXIS2_PLACEMENT_3D('',#344,#345,#346);
#344 = CARTESIAN_POINT('',(57.074862735867,20.396253265224,20.));
#345 = DIRECTION('',(0.,-0.,1.));
#346 = DIRECTION('',(0.906307787037,0.422618261741,0.));
#347 = ORIENTED_EDGE('',*,*,#282,.T.);
#348 = CYLINDRICAL_SURFACE('',#349,1.);
#349 = AXIS2_PLACEMENT_3D('',#350,#351,#352);
#350 = CARTESIAN_POINT('',(57.074862735867,20.396253265224,10.5));
#351 = DIRECTION('',(0.,0.,1.));
#352 = DIRECTION('',(0.906307787037,0.422618261741,0.));
#353 = ADVANCED_FACE('',(#354),#424,.F.);
#354 = FACE_BOUND('',#355,.F.);
#355 = EDGE_LOOP('',(#356,#357,#365,#374,#382,#391,#397,#398,#399,#408,
    #416,#423));
#356 = ORIENTED_EDGE('',*,*,#121,.F.);
#357 = ORIENTED_EDGE('',*,*,#358,.F.);
#358 = EDGE_CURVE('',#359,#122,#361,.T.);
#359 = VERTEX_POINT('',#360);
#360 = CARTESIAN_POINT('',(53.332369643756,30.788257184368,20.));
#361 = LINE('',#362,#363);
#362 = CARTESIAN_POINT('',(53.332369643756,30.788257184368,10.5));
#363 = VECTOR('',#364,1.);
#364 = DIRECTION('',(0.,0.,1.));
#365 = ORIENTED_EDGE('',*,*,#366,.T.);
#366 = EDGE_CURVE('',#359,#367,#369,.T.);
#367 = VERTEX_POINT('',#368);
#368 = CARTESIAN_POINT('',(52.99963829307,31.184790966916,20.));
#369 = CIRCLE('',#370,1.);
#370 = AXIS2_PLACEMENT_3D('',#371,#372,#373);
#371 = CARTESIAN_POINT('',(52.426061856719,30.365638922627,20.));
#372 = DIRECTION('',(0.,-0.,1.));
#373 = DIRECTION('',(0.906307787037,0.422618261741,0.));
#374 = ORIENTED_EDGE('',*,*,#375,.F.);
#375 = EDGE_CURVE('',#376,#367,#378,.T.);
#376 = VERTEX_POINT('',#377);
#377 = CARTESIAN_POINT('',(52.99963829307,31.184790966916,16.));
#378 = LINE('',#379,#380);
#379 = CARTESIAN_POINT('',(52.99963829307,31.184790966916,10.5));
#380 = VECTOR('',#381,1.);
#381 = DIRECTION('',(0.,0.,1.));
#382 = ORIENTED_EDGE('',*,*,#383,.F.);
#383 = EDGE_CURVE('',#384,#376,#386,.T.);
#384 = VERTEX_POINT('',#385);
#385 = CARTESIAN_POINT('',(53.332369643756,30.788257184368,16.));
#386 = CIRCLE('',#387,1.);
#387 = AXIS2_PLACEMENT_3D('',#388,#389,#390);
#388 = CARTESIAN_POINT('',(52.426061856719,30.365638922627,16.));
#389 = DIRECTION('',(0.,-0.,1.));
#390 = DIRECTION('',(0.906307787037,0.422618261741,0.));
#391 = ORIENTED_EDGE('',*,*,#392,.F.);
#392 = EDGE_CURVE('',#219,#384,#393,.T.);
#393 = LINE('',#394,#395);
#394 = CARTESIAN_POINT('',(53.332369643756,30.788257184368,10.5));
#395 = VECTOR('',#396,1.);
#396 = DIRECTION('',(0.,0.,1.));
#397 = ORIENTED_EDGE('',*,*,#218,.T.);
#398 = ORIENTED_EDGE('',*,*,#392,.T.);
#399 = ORIENTED_EDGE('',*,*,#400,.F.);
#400 = EDGE_CURVE('',#401,#384,#403,.T.);
#401 = VERTEX_POINT('',#402);
#402 = CARTESIAN_POINT('',(51.429867158628,30.452794665375,16.));
#403 = CIRCLE('',#404,1.);
#404 = AXIS2_PLACEMENT_3D('',#405,#406,#407);
#405 = CARTESIAN_POINT('',(52.426061856719,30.365638922627,16.));
#406 = DIRECTION('',(0.,-0.,1.));
#407 = DIRECTION('',(0.906307787037,0.422618261741,0.));
#408 = ORIENTED_EDGE('',*,*,#409,.T.);
#409 = EDGE_CURVE('',#401,#410,#412,.T.);
#410 = VERTEX_POINT('',#411);
#411 = CARTESIAN_POINT('',(51.429867158628,30.452794665375,20.));
#412 = LINE('',#413,#414);
#413 = CARTESIAN_POINT('',(51.429867158628,30.452794665375,10.5));
#414 = VECTOR('',#415,1.);
#415 = DIRECTION('',(0.,0.,1.));
#416 = ORIENTED_EDGE('',*,*,#417,.T.);
#417 = EDGE_CURVE('',#410,#359,#418,.T.);
#418 = CIRCLE('',#419,1.);
#419 = AXIS2_PLACEMENT_3D('',#420,#421,#422);
#420 = CARTESIAN_POINT('',(52.426061856719,30.365638922627,20.));
#421 = DIRECTION('',(0.,-0.,1.));
#422 = DIRECTION('',(0.906307787037,0.422618261741,0.));
#423 = ORIENTED_EDGE('',*,*,#358,.T.);
#424 = CYLINDRICAL_SURFACE('',#425,1.);
#425 = AXIS2_PLACEMENT_3D('',#426,#427,#428);
#426 = CARTESIAN_POINT('',(52.426061856719,30.365638922627,10.5));
#427 = DIRECTION('',(0.,0.,1.));
#428 = DIRECTION('',(0.906307787037,0.422618261741,0.));
#429 = ADVANCED_FACE('',(#430),#455,.T.);
#430 = FACE_BOUND('',#431,.T.);
#431 = EDGE_LOOP('',(#432,#442,#448,#449));
#432 = ORIENTED_EDGE('',*,*,#433,.F.);
#433 = EDGE_CURVE('',#434,#436,#438,.T.);
#434 = VERTEX_POINT('',#435);
#435 = CARTESIAN_POINT('',(70.684015269834,24.811393954628,12.5));
#436 = VERTEX_POINT('',#437);
#437 = CARTESIAN_POINT('',(72.043476950389,25.445321347239,12.5));
#438 = LINE('',#439,#440);
#439 = CARTESIAN_POINT('',(70.684015269834,24.811393954628,12.5));
#440 = VECTOR('',#441,1.);
#441 = DIRECTION('',(0.906307787037,0.422618261741,0.));
#442 = ORIENTED_EDGE('',*,*,#443,.T.);
#443 = EDGE_CURVE('',#434,#133,#444,.T.);
#444 = LINE('',#445,#446);
#445 = CARTESIAN_POINT('',(70.684015269834,24.811393954628,12.5));
#446 = VECTOR('',#447,1.);
#447 = DIRECTION('',(0.,0.,1.));
#448 = ORIENTED_EDGE('',*,*,#132,.T.);
#449 = ORIENTED_EDGE('',*,*,#450,.F.);
#450 = EDGE_CURVE('',#436,#135,#451,.T.);
#451 = LINE('',#452,#453);
#452 = CARTESIAN_POINT('',(72.043476950389,25.445321347239,12.5));
#453 = VECTOR('',#454,1.);
#454 = DIRECTION('',(0.,0.,1.));
#455 = PLANE('',#456);
#456 = AXIS2_PLACEMENT_3D('',#457,#458,#459);
#457 = CARTESIAN_POINT('',(70.684015269834,24.811393954628,12.5));
#458 = DIRECTION('',(-0.422618261741,0.906307787037,0.));
#459 = DIRECTION('',(0.,0.,1.));
#460 = ADVANCED_FACE('',(#461,#479),#513,.T.);
#461 = FACE_BOUND('',#462,.T.);
#462 = EDGE_LOOP('',(#463,#464,#472,#478));
#463 = ORIENTED_EDGE('',*,*,#443,.F.);
#464 = ORIENTED_EDGE('',*,*,#465,.T.);
#465 = EDGE_CURVE('',#434,#466,#468,.T.);
#466 = VERTEX_POINT('',#467);
#467 = CARTESIAN_POINT('',(64.556050474594,37.952856866659,12.5));
#468 = LINE('',#469,#470);
#469 = CARTESIAN_POINT('',(70.684015269834,24.811393954628,12.5));
#470 = VECTOR('',#471,1.);
#471 = DIRECTION('',(-0.422618261741,0.906307787037,0.));
#472 = ORIENTED_EDGE('',*,*,#473,.T.);
#473 = EDGE_CURVE('',#466,#143,#474,.T.);
#474 = LINE('',#475,#476);
#475 = CARTESIAN_POINT('',(64.556050474594,37.952856866659,12.5));
#476 = VECTOR('',#477,1.);
#477 = DIRECTION('',(0.,0.,1.));
#478 = ORIENTED_EDGE('',*,*,#142,.F.);
#479 = FACE_BOUND('',#480,.T.);
#480 = EDGE_LOOP('',(#481,#491,#499,#507));
#481 = ORIENTED_EDGE('',*,*,#482,.F.);
#482 = EDGE_CURVE('',#483,#485,#487,.T.);
#483 = VERTEX_POINT('',#484);
#484 = CARTESIAN_POINT('',(70.578360704399,25.037970901387,13.5));
#485 = VERTEX_POINT('',#486);
#486 = CARTESIAN_POINT('',(64.661705040029,37.7262799199,13.5));
#487 = LINE('',#488,#489);
#488 = CARTESIAN_POINT('',(70.631187987116,24.924682428007,13.5));
#489 = VECTOR('',#490,1.);
#490 = DIRECTION('',(-0.422618261741,0.906307787037,0.));
#491 = ORIENTED_EDGE('',*,*,#492,.F.);
#492 = EDGE_CURVE('',#493,#483,#495,.T.);
#493 = VERTEX_POINT('',#494);
#494 = CARTESIAN_POINT('',(70.578360704399,25.037970901387,22.5));
#495 = LINE('',#496,#497);
#496 = CARTESIAN_POINT('',(70.578360704399,25.037970901387,13.));
#497 = VECTOR('',#498,1.);
#498 = DIRECTION('',(-0.,0.,-1.));
#499 = ORIENTED_EDGE('',*,*,#500,.T.);
#500 = EDGE_CURVE('',#493,#501,#503,.T.);
#501 = VERTEX_POINT('',#502);
#502 = CARTESIAN_POINT('',(64.661705040029,37.7262799199,22.5));
#503 = LINE('',#504,#505);
#504 = CARTESIAN_POINT('',(70.631187987116,24.924682428007,22.5));
#505 = VECTOR('',#506,1.);
#506 = DIRECTION('',(-0.422618261741,0.906307787037,0.));
#507 = ORIENTED_EDGE('',*,*,#508,.T.);
#508 = EDGE_CURVE('',#501,#485,#509,.T.);
#509 = LINE('',#510,#511);
#510 = CARTESIAN_POINT('',(64.661705040029,37.7262799199,13.));
#511 = VECTOR('',#512,1.);
#512 = DIRECTION('',(-0.,0.,-1.));
#513 = PLANE('',#514);
#514 = AXIS2_PLACEMENT_3D('',#515,#516,#517);
#515 = CARTESIAN_POINT('',(70.684015269834,24.811393954628,12.5));
#516 = DIRECTION('',(0.906307787037,0.422618261741,0.));
#517 = DIRECTION('',(0.,0.,1.));
#518 = ADVANCED_FACE('',(#519,#537),#571,.F.);
#519 = FACE_BOUND('',#520,.F.);
#520 = EDGE_LOOP('',(#521,#522,#530,#536));
#521 = ORIENTED_EDGE('',*,*,#450,.F.);
#522 = ORIENTED_EDGE('',*,*,#523,.T.);
#523 = EDGE_CURVE('',#436,#524,#526,.T.);
#524 = VERTEX_POINT('',#525);
#525 = CARTESIAN_POINT('',(65.915512155149,38.58678425927,12.5));
#526 = LINE('',#527,#528);
#527 = CARTESIAN_POINT('',(72.043476950389,25.445321347239,12.5));
#528 = VECTOR('',#529,1.);
#529 = DIRECTION('',(-0.422618261741,0.906307787037,0.));
#530 = ORIENTED_EDGE('',*,*,#531,.T.);
#531 = EDGE_CURVE('',#524,#151,#532,.T.);
#532 = LINE('',#533,#534);
#533 = CARTESIAN_POINT('',(65.915512155149,38.58678425927,12.5));
#534 = VECTOR('',#535,1.);
#535 = DIRECTION('',(0.,0.,1.));
#536 = ORIENTED_EDGE('',*,*,#158,.F.);
#537 = FACE_BOUND('',#538,.F.);
#538 = EDGE_LOOP('',(#539,#549,#557,#565));
#539 = ORIENTED_EDGE('',*,*,#540,.F.);
#540 = EDGE_CURVE('',#541,#543,#545,.T.);
#541 = VERTEX_POINT('',#542);
#542 = CARTESIAN_POINT('',(71.937822384954,25.671898293998,13.5));
#543 = VERTEX_POINT('',#544);
#544 = CARTESIAN_POINT('',(66.021166720584,38.360207312511,13.5));
#545 = LINE('',#546,#547);
#546 = CARTESIAN_POINT('',(71.990649667671,25.558609820618,13.5));
#547 = VECTOR('',#548,1.);
#548 = DIRECTION('',(-0.422618261741,0.906307787037,0.));
#549 = ORIENTED_EDGE('',*,*,#550,.F.);
#550 = EDGE_CURVE('',#551,#541,#553,.T.);
#551 = VERTEX_POINT('',#552);
#552 = CARTESIAN_POINT('',(71.937822384954,25.671898293998,22.5));
#553 = LINE('',#554,#555);
#554 = CARTESIAN_POINT('',(71.937822384954,25.671898293998,13.));
#555 = VECTOR('',#556,1.);
#556 = DIRECTION('',(-0.,0.,-1.));
#557 = ORIENTED_EDGE('',*,*,#558,.T.);
#558 = EDGE_CURVE('',#551,#559,#561,.T.);
#559 = VERTEX_POINT('',#560);
#560 = CARTESIAN_POINT('',(66.021166720584,38.360207312511,22.5));
#561 = LINE('',#562,#563);
#562 = CARTESIAN_POINT('',(71.990649667671,25.558609820618,22.5));
#563 = VECTOR('',#564,1.);
#564 = DIRECTION('',(-0.422618261741,0.906307787037,0.));
#565 = ORIENTED_EDGE('',*,*,#566,.T.);
#566 = EDGE_CURVE('',#559,#543,#567,.T.);
#567 = LINE('',#568,#569);
#568 = CARTESIAN_POINT('',(66.021166720584,38.360207312511,13.));
#569 = VECTOR('',#570,1.);
#570 = DIRECTION('',(-0.,0.,-1.));
#571 = PLANE('',#572);
#572 = AXIS2_PLACEMENT_3D('',#573,#574,#575);
#573 = CARTESIAN_POINT('',(72.043476950389,25.445321347239,12.5));
#574 = DIRECTION('',(0.906307787037,0.422618261741,0.));
#575 = DIRECTION('',(0.,0.,1.));
#576 = ADVANCED_FACE('',(#577),#588,.F.);
#577 = FACE_BOUND('',#578,.F.);
#578 = EDGE_LOOP('',(#579,#585,#586,#587));
#579 = ORIENTED_EDGE('',*,*,#580,.F.);
#580 = EDGE_CURVE('',#466,#524,#581,.T.);
#581 = LINE('',#582,#583);
#582 = CARTESIAN_POINT('',(64.556050474594,37.952856866659,12.5));
#583 = VECTOR('',#584,1.);
#584 = DIRECTION('',(0.906307787037,0.422618261741,0.));
#585 = ORIENTED_EDGE('',*,*,#473,.T.);
#586 = ORIENTED_EDGE('',*,*,#150,.T.);
#587 = ORIENTED_EDGE('',*,*,#531,.F.);
#588 = PLANE('',#589);
#589 = AXIS2_PLACEMENT_3D('',#590,#591,#592);
#590 = CARTESIAN_POINT('',(64.556050474594,37.952856866659,12.5));
#591 = DIRECTION('',(-0.422618261741,0.906307787037,0.));
#592 = DIRECTION('',(0.,0.,1.));
#593 = ADVANCED_FACE('',(#594),#610,.T.);
#594 = FACE_BOUND('',#595,.T.);
#595 = EDGE_LOOP('',(#596,#602,#603,#609));
#596 = ORIENTED_EDGE('',*,*,#597,.F.);
#597 = EDGE_CURVE('',#543,#242,#598,.T.);
#598 = LINE('',#599,#600);
#599 = CARTESIAN_POINT('',(64.571074261325,37.684018093726,13.5));
#600 = VECTOR('',#601,1.);
#601 = DIRECTION('',(0.906307787037,0.422618261741,0.));
#602 = ORIENTED_EDGE('',*,*,#540,.F.);
#603 = ORIENTED_EDGE('',*,*,#604,.T.);
#604 = EDGE_CURVE('',#541,#244,#605,.T.);
#605 = LINE('',#606,#607);
#606 = CARTESIAN_POINT('',(70.487729925695,24.995709075213,13.5));
#607 = VECTOR('',#608,1.);
#608 = DIRECTION('',(0.906307787037,0.422618261741,0.));
#609 = ORIENTED_EDGE('',*,*,#241,.F.);
#610 = PLANE('',#611);
#611 = AXIS2_PLACEMENT_3D('',#612,#613,#614);
#612 = CARTESIAN_POINT('',(70.487729925695,24.995709075213,13.5));
#613 = DIRECTION('',(0.,0.,1.));
#614 = DIRECTION('',(0.906307787037,0.422618261741,0.));
#615 = ADVANCED_FACE('',(#616),#627,.F.);
#616 = FACE_BOUND('',#617,.F.);
#617 = EDGE_LOOP('',(#618,#619,#620,#626));
#618 = ORIENTED_EDGE('',*,*,#597,.F.);
#619 = ORIENTED_EDGE('',*,*,#566,.F.);
#620 = ORIENTED_EDGE('',*,*,#621,.T.);
#621 = EDGE_CURVE('',#559,#260,#622,.T.);
#622 = LINE('',#623,#624);
#623 = CARTESIAN_POINT('',(64.571074261325,37.684018093726,22.5));
#624 = VECTOR('',#625,1.);
#625 = DIRECTION('',(0.906307787037,0.422618261741,0.));
#626 = ORIENTED_EDGE('',*,*,#267,.F.);
#627 = PLANE('',#628);
#628 = AXIS2_PLACEMENT_3D('',#629,#630,#631);
#629 = CARTESIAN_POINT('',(64.571074261325,37.684018093726,13.5));
#630 = DIRECTION('',(-0.422618261741,0.906307787037,0.));
#631 = DIRECTION('',(0.,0.,1.));
#632 = ADVANCED_FACE('',(#633),#644,.F.);
#633 = FACE_BOUND('',#634,.F.);
#634 = EDGE_LOOP('',(#635,#636,#637,#643));
#635 = ORIENTED_EDGE('',*,*,#621,.F.);
#636 = ORIENTED_EDGE('',*,*,#558,.F.);
#637 = ORIENTED_EDGE('',*,*,#638,.T.);
#638 = EDGE_CURVE('',#551,#252,#639,.T.);
#639 = LINE('',#640,#641);
#640 = CARTESIAN_POINT('',(70.487729925695,24.995709075213,22.5));
#641 = VECTOR('',#642,1.);
#642 = DIRECTION('',(0.906307787037,0.422618261741,0.));
#643 = ORIENTED_EDGE('',*,*,#259,.F.);
#644 = PLANE('',#645);
#645 = AXIS2_PLACEMENT_3D('',#646,#647,#648);
#646 = CARTESIAN_POINT('',(70.487729925695,24.995709075213,22.5));
#647 = DIRECTION('',(0.,0.,1.));
#648 = DIRECTION('',(0.906307787037,0.422618261741,0.));
#649 = ADVANCED_FACE('',(#650),#656,.T.);
#650 = FACE_BOUND('',#651,.T.);
#651 = EDGE_LOOP('',(#652,#653,#654,#655));
#652 = ORIENTED_EDGE('',*,*,#604,.F.);
#653 = ORIENTED_EDGE('',*,*,#550,.F.);
#654 = ORIENTED_EDGE('',*,*,#638,.T.);
#655 = ORIENTED_EDGE('',*,*,#251,.F.);
#656 = PLANE('',#657);
#657 = AXIS2_PLACEMENT_3D('',#658,#659,#660);
#658 = CARTESIAN_POINT('',(70.487729925695,24.995709075213,13.5));
#659 = DIRECTION('',(-0.422618261741,0.906307787037,0.));
#660 = DIRECTION('',(0.,0.,1.));
#661 = ADVANCED_FACE('',(#662),#744,.F.);
#662 = FACE_BOUND('',#663,.F.);
#663 = EDGE_LOOP('',(#664,#674,#682,#688,#689,#690,#698,#706,#712,#713,
    #714,#722,#730,#738));
#664 = ORIENTED_EDGE('',*,*,#665,.F.);
#665 = EDGE_CURVE('',#666,#668,#670,.T.);
#666 = VERTEX_POINT('',#667);
#667 = CARTESIAN_POINT('',(60.582831940049,34.169203278293,20.));
#668 = VERTEX_POINT('',#669);
#669 = CARTESIAN_POINT('',(59.676524153013,33.746585016553,20.));
#670 = LINE('',#671,#672);
#671 = CARTESIAN_POINT('',(53.785523537274,30.999566315238,20.));
#672 = VECTOR('',#673,1.);
#673 = DIRECTION('',(-0.906307787037,-0.422618261741,0.));
#674 = ORIENTED_EDGE('',*,*,#675,.T.);
#675 = EDGE_CURVE('',#666,#676,#678,.T.);
#676 = VERTEX_POINT('',#677);
#677 = CARTESIAN_POINT('',(60.371522809179,34.622357171812,20.));
#678 = LINE('',#679,#680);
#679 = CARTESIAN_POINT('',(65.442941950067,23.746663727372,20.));
#680 = VECTOR('',#681,1.);
#681 = DIRECTION('',(-0.422618261741,0.906307787037,0.));
#682 = ORIENTED_EDGE('',*,*,#683,.F.);
#683 = EDGE_CURVE('',#367,#676,#684,.T.);
#684 = LINE('',#685,#686);
#685 = CARTESIAN_POINT('',(47.683213790666,28.705701507442,20.));
#686 = VECTOR('',#687,1.);
#687 = DIRECTION('',(0.906307787037,0.422618261741,0.));
#688 = ORIENTED_EDGE('',*,*,#366,.F.);
#689 = ORIENTED_EDGE('',*,*,#417,.F.);
#690 = ORIENTED_EDGE('',*,*,#691,.F.);
#691 = EDGE_CURVE('',#692,#410,#694,.T.);
#692 = VERTEX_POINT('',#693);
#693 = CARTESIAN_POINT('',(47.683213790666,28.705701507442,20.));
#694 = LINE('',#695,#696);
#695 = CARTESIAN_POINT('',(47.683213790666,28.705701507442,20.));
#696 = VECTOR('',#697,1.);
#697 = DIRECTION('',(0.906307787037,0.422618261741,0.));
#698 = ORIENTED_EDGE('',*,*,#699,.F.);
#699 = EDGE_CURVE('',#700,#692,#702,.T.);
#700 = VERTEX_POINT('',#701);
#701 = CARTESIAN_POINT('',(52.754632931554,17.830008063002,20.));
#702 = LINE('',#703,#704);
#703 = CARTESIAN_POINT('',(52.754632931554,17.830008063002,20.));
#704 = VECTOR('',#705,1.);
#705 = DIRECTION('',(-0.422618261741,0.906307787037,0.));
#706 = ORIENTED_EDGE('',*,*,#707,.T.);
#707 = EDGE_CURVE('',#700,#291,#708,.T.);
#708 = LINE('',#709,#710);
#709 = CARTESIAN_POINT('',(52.754632931554,17.830008063002,20.));
#710 = VECTOR('',#711,1.);
#711 = DIRECTION('',(0.906307787037,0.422618261741,0.));
#712 = ORIENTED_EDGE('',*,*,#290,.F.);
#713 = ORIENTED_EDGE('',*,*,#341,.F.);
#714 = ORIENTED_EDGE('',*,*,#715,.T.);
#715 = EDGE_CURVE('',#334,#716,#718,.T.);
#716 = VERTEX_POINT('',#717);
#717 = CARTESIAN_POINT('',(65.442941950067,23.746663727372,20.));
#718 = LINE('',#719,#720);
#719 = CARTESIAN_POINT('',(52.754632931554,17.830008063002,20.));
#720 = VECTOR('',#721,1.);
#721 = DIRECTION('',(0.906307787037,0.422618261741,0.));
#722 = ORIENTED_EDGE('',*,*,#723,.T.);
#723 = EDGE_CURVE('',#716,#724,#726,.T.);
#724 = VERTEX_POINT('',#725);
#725 = CARTESIAN_POINT('',(65.231632819197,24.19981762089,20.));
#726 = LINE('',#727,#728);
#727 = CARTESIAN_POINT('',(65.442941950067,23.746663727372,20.));
#728 = VECTOR('',#729,1.);
#729 = DIRECTION('',(-0.422618261741,0.906307787037,0.));
#730 = ORIENTED_EDGE('',*,*,#731,.T.);
#731 = EDGE_CURVE('',#724,#732,#734,.T.);
#732 = VERTEX_POINT('',#733);
#733 = CARTESIAN_POINT('',(64.32532503216,23.77719935915,20.));
#734 = LINE('',#735,#736);
#735 = CARTESIAN_POINT('',(58.434324416422,21.030180657835,20.));
#736 = VECTOR('',#737,1.);
#737 = DIRECTION('',(-0.906307787037,-0.422618261741,0.));
#738 = ORIENTED_EDGE('',*,*,#739,.T.);
#739 = EDGE_CURVE('',#732,#668,#740,.T.);
#740 = LINE('',#741,#742);
#741 = CARTESIAN_POINT('',(64.430979597595,23.55062241239,20.));
#742 = VECTOR('',#743,1.);
#743 = DIRECTION('',(-0.422618261741,0.906307787037,0.));
#744 = PLANE('',#745);
#745 = AXIS2_PLACEMENT_3D('',#746,#747,#748);
#746 = CARTESIAN_POINT('',(52.754632931554,17.830008063002,20.));
#747 = DIRECTION('',(0.,0.,1.));
#748 = DIRECTION('',(0.906307787037,0.422618261741,0.));
#749 = ADVANCED_FACE('',(#750),#768,.T.);
#750 = FACE_BOUND('',#751,.T.);
#751 = EDGE_LOOP('',(#752,#760,#761,#762));
#752 = ORIENTED_EDGE('',*,*,#753,.F.);
#753 = EDGE_CURVE('',#325,#754,#756,.T.);
#754 = VERTEX_POINT('',#755);
#755 = CARTESIAN_POINT('',(65.442941950067,23.746663727372,16.));
#756 = LINE('',#757,#758);
#757 = CARTESIAN_POINT('',(52.754632931554,17.830008063002,16.));
#758 = VECTOR('',#759,1.);
#759 = DIRECTION('',(0.906307787037,0.422618261741,0.));
#760 = ORIENTED_EDGE('',*,*,#333,.T.);
#761 = ORIENTED_EDGE('',*,*,#715,.T.);
#762 = ORIENTED_EDGE('',*,*,#763,.F.);
#763 = EDGE_CURVE('',#754,#716,#764,.T.);
#764 = LINE('',#765,#766);
#765 = CARTESIAN_POINT('',(65.442941950067,23.746663727372,16.));
#766 = VECTOR('',#767,1.);
#767 = DIRECTION('',(0.,0.,1.));
#768 = PLANE('',#769);
#769 = AXIS2_PLACEMENT_3D('',#770,#771,#772);
#770 = CARTESIAN_POINT('',(52.754632931554,17.830008063002,16.));
#771 = DIRECTION('',(-0.422618261741,0.906307787037,0.));
#772 = DIRECTION('',(0.,0.,1.));
#773 = ADVANCED_FACE('',(#774),#849,.T.);
#774 = FACE_BOUND('',#775,.T.);
#775 = EDGE_LOOP('',(#776,#786,#794,#800,#801,#802,#810,#818,#824,#825,
    #826,#827,#835,#843));
#776 = ORIENTED_EDGE('',*,*,#777,.F.);
#777 = EDGE_CURVE('',#778,#780,#782,.T.);
#778 = VERTEX_POINT('',#779);
#779 = CARTESIAN_POINT('',(60.582831940049,34.169203278293,16.));
#780 = VERTEX_POINT('',#781);
#781 = CARTESIAN_POINT('',(59.676524153013,33.746585016553,16.));
#782 = LINE('',#783,#784);
#783 = CARTESIAN_POINT('',(53.785523537274,30.999566315238,16.));
#784 = VECTOR('',#785,1.);
#785 = DIRECTION('',(-0.906307787037,-0.422618261741,0.));
#786 = ORIENTED_EDGE('',*,*,#787,.T.);
#787 = EDGE_CURVE('',#778,#788,#790,.T.);
#788 = VERTEX_POINT('',#789);
#789 = CARTESIAN_POINT('',(60.371522809179,34.622357171812,16.));
#790 = LINE('',#791,#792);
#791 = CARTESIAN_POINT('',(65.442941950067,23.746663727372,16.));
#792 = VECTOR('',#793,1.);
#793 = DIRECTION('',(-0.422618261741,0.906307787037,0.));
#794 = ORIENTED_EDGE('',*,*,#795,.F.);
#795 = EDGE_CURVE('',#376,#788,#796,.T.);
#796 = LINE('',#797,#798);
#797 = CARTESIAN_POINT('',(47.683213790666,28.705701507442,16.));
#798 = VECTOR('',#799,1.);
#799 = DIRECTION('',(0.906307787037,0.422618261741,0.));
#800 = ORIENTED_EDGE('',*,*,#383,.F.);
#801 = ORIENTED_EDGE('',*,*,#400,.F.);
#802 = ORIENTED_EDGE('',*,*,#803,.F.);
#803 = EDGE_CURVE('',#804,#401,#806,.T.);
#804 = VERTEX_POINT('',#805);
#805 = CARTESIAN_POINT('',(47.683213790666,28.705701507442,16.));
#806 = LINE('',#807,#808);
#807 = CARTESIAN_POINT('',(47.683213790666,28.705701507442,16.));
#808 = VECTOR('',#809,1.);
#809 = DIRECTION('',(0.906307787037,0.422618261741,0.));
#810 = ORIENTED_EDGE('',*,*,#811,.F.);
#811 = EDGE_CURVE('',#812,#804,#814,.T.);
#812 = VERTEX_POINT('',#813);
#813 = CARTESIAN_POINT('',(52.754632931554,17.830008063002,16.));
#814 = LINE('',#815,#816);
#815 = CARTESIAN_POINT('',(52.754632931554,17.830008063002,16.));
#816 = VECTOR('',#817,1.);
#817 = DIRECTION('',(-0.422618261741,0.906307787037,0.));
#818 = ORIENTED_EDGE('',*,*,#819,.T.);
#819 = EDGE_CURVE('',#812,#300,#820,.T.);
#820 = LINE('',#821,#822);
#821 = CARTESIAN_POINT('',(52.754632931554,17.830008063002,16.));
#822 = VECTOR('',#823,1.);
#823 = DIRECTION('',(0.906307787037,0.422618261741,0.));
#824 = ORIENTED_EDGE('',*,*,#307,.F.);
#825 = ORIENTED_EDGE('',*,*,#324,.F.);
#826 = ORIENTED_EDGE('',*,*,#753,.T.);
#827 = ORIENTED_EDGE('',*,*,#828,.T.);
#828 = EDGE_CURVE('',#754,#829,#831,.T.);
#829 = VERTEX_POINT('',#830);
#830 = CARTESIAN_POINT('',(65.231632819197,24.19981762089,16.));
#831 = LINE('',#832,#833);
#832 = CARTESIAN_POINT('',(65.442941950067,23.746663727372,16.));
#833 = VECTOR('',#834,1.);
#834 = DIRECTION('',(-0.422618261741,0.906307787037,0.));
#835 = ORIENTED_EDGE('',*,*,#836,.T.);
#836 = EDGE_CURVE('',#829,#837,#839,.T.);
#837 = VERTEX_POINT('',#838);
#838 = CARTESIAN_POINT('',(64.32532503216,23.77719935915,16.));
#839 = LINE('',#840,#841);
#840 = CARTESIAN_POINT('',(58.434324416422,21.030180657835,16.));
#841 = VECTOR('',#842,1.);
#842 = DIRECTION('',(-0.906307787037,-0.422618261741,0.));
#843 = ORIENTED_EDGE('',*,*,#844,.T.);
#844 = EDGE_CURVE('',#837,#780,#845,.T.);
#845 = LINE('',#846,#847);
#846 = CARTESIAN_POINT('',(64.430979597595,23.55062241239,16.));
#847 = VECTOR('',#848,1.);
#848 = DIRECTION('',(-0.422618261741,0.906307787037,0.));
#849 = PLANE('',#850);
#850 = AXIS2_PLACEMENT_3D('',#851,#852,#853);
#851 = CARTESIAN_POINT('',(52.754632931554,17.830008063002,16.));
#852 = DIRECTION('',(0.,0.,1.));
#853 = DIRECTION('',(0.906307787037,0.422618261741,0.));
#854 = ADVANCED_FACE('',(#855),#866,.T.);
#855 = FACE_BOUND('',#856,.T.);
#856 = EDGE_LOOP('',(#857,#858,#864,#865));
#857 = ORIENTED_EDGE('',*,*,#819,.F.);
#858 = ORIENTED_EDGE('',*,*,#859,.T.);
#859 = EDGE_CURVE('',#812,#700,#860,.T.);
#860 = LINE('',#861,#862);
#861 = CARTESIAN_POINT('',(52.754632931554,17.830008063002,16.));
#862 = VECTOR('',#863,1.);
#863 = DIRECTION('',(0.,0.,1.));
#864 = ORIENTED_EDGE('',*,*,#707,.T.);
#865 = ORIENTED_EDGE('',*,*,#299,.F.);
#866 = PLANE('',#867);
#867 = AXIS2_PLACEMENT_3D('',#868,#869,#870);
#868 = CARTESIAN_POINT('',(52.754632931554,17.830008063002,16.));
#869 = DIRECTION('',(-0.422618261741,0.906307787037,0.));
#870 = DIRECTION('',(0.,0.,1.));
#871 = ADVANCED_FACE('',(#872),#883,.F.);
#872 = FACE_BOUND('',#873,.F.);
#873 = EDGE_LOOP('',(#874,#875,#881,#882));
#874 = ORIENTED_EDGE('',*,*,#803,.F.);
#875 = ORIENTED_EDGE('',*,*,#876,.T.);
#876 = EDGE_CURVE('',#804,#692,#877,.T.);
#877 = LINE('',#878,#879);
#878 = CARTESIAN_POINT('',(47.683213790666,28.705701507442,16.));
#879 = VECTOR('',#880,1.);
#880 = DIRECTION('',(0.,0.,1.));
#881 = ORIENTED_EDGE('',*,*,#691,.T.);
#882 = ORIENTED_EDGE('',*,*,#409,.F.);
#883 = PLANE('',#884);
#884 = AXIS2_PLACEMENT_3D('',#885,#886,#887);
#885 = CARTESIAN_POINT('',(47.683213790666,28.705701507442,16.));
#886 = DIRECTION('',(-0.422618261741,0.906307787037,0.));
#887 = DIRECTION('',(0.,0.,1.));
#888 = ADVANCED_FACE('',(#889),#900,.F.);
#889 = FACE_BOUND('',#890,.F.);
#890 = EDGE_LOOP('',(#891,#892,#893,#894));
#891 = ORIENTED_EDGE('',*,*,#795,.F.);
#892 = ORIENTED_EDGE('',*,*,#375,.T.);
#893 = ORIENTED_EDGE('',*,*,#683,.T.);
#894 = ORIENTED_EDGE('',*,*,#895,.F.);
#895 = EDGE_CURVE('',#788,#676,#896,.T.);
#896 = LINE('',#897,#898);
#897 = CARTESIAN_POINT('',(60.371522809179,34.622357171812,16.));
#898 = VECTOR('',#899,1.);
#899 = DIRECTION('',(0.,0.,1.));
#900 = PLANE('',#901);
#901 = AXIS2_PLACEMENT_3D('',#902,#903,#904);
#902 = CARTESIAN_POINT('',(47.683213790666,28.705701507442,16.));
#903 = DIRECTION('',(-0.422618261741,0.906307787037,0.));
#904 = DIRECTION('',(0.,0.,1.));
#905 = ADVANCED_FACE('',(#906),#912,.T.);
#906 = FACE_BOUND('',#907,.T.);
#907 = EDGE_LOOP('',(#908,#909,#910,#911));
#908 = ORIENTED_EDGE('',*,*,#465,.F.);
#909 = ORIENTED_EDGE('',*,*,#433,.T.);
#910 = ORIENTED_EDGE('',*,*,#523,.T.);
#911 = ORIENTED_EDGE('',*,*,#580,.F.);
#912 = PLANE('',#913);
#913 = AXIS2_PLACEMENT_3D('',#914,#915,#916);
#914 = CARTESIAN_POINT('',(70.684015269834,24.811393954628,12.5));
#915 = DIRECTION('',(0.,0.,1.));
#916 = DIRECTION('',(0.906307787037,0.422618261741,0.));
#917 = ADVANCED_FACE('',(#918),#943,.T.);
#918 = FACE_BOUND('',#919,.T.);
#919 = EDGE_LOOP('',(#920,#928,#936,#942));
#920 = ORIENTED_EDGE('',*,*,#921,.F.);
#921 = EDGE_CURVE('',#922,#485,#924,.T.);
#922 = VERTEX_POINT('',#923);
#923 = CARTESIAN_POINT('',(64.571074261325,37.684018093726,13.5));
#924 = LINE('',#925,#926);
#925 = CARTESIAN_POINT('',(64.571074261325,37.684018093726,13.5));
#926 = VECTOR('',#927,1.);
#927 = DIRECTION('',(0.906307787037,0.422618261741,0.));
#928 = ORIENTED_EDGE('',*,*,#929,.F.);
#929 = EDGE_CURVE('',#930,#922,#932,.T.);
#930 = VERTEX_POINT('',#931);
#931 = CARTESIAN_POINT('',(70.487729925695,24.995709075213,13.5));
#932 = LINE('',#933,#934);
#933 = CARTESIAN_POINT('',(70.487729925695,24.995709075213,13.5));
#934 = VECTOR('',#935,1.);
#935 = DIRECTION('',(-0.422618261741,0.906307787037,0.));
#936 = ORIENTED_EDGE('',*,*,#937,.T.);
#937 = EDGE_CURVE('',#930,#483,#938,.T.);
#938 = LINE('',#939,#940);
#939 = CARTESIAN_POINT('',(70.487729925695,24.995709075213,13.5));
#940 = VECTOR('',#941,1.);
#941 = DIRECTION('',(0.906307787037,0.422618261741,0.));
#942 = ORIENTED_EDGE('',*,*,#482,.T.);
#943 = PLANE('',#944);
#944 = AXIS2_PLACEMENT_3D('',#945,#946,#947);
#945 = CARTESIAN_POINT('',(70.487729925695,24.995709075213,13.5));
#946 = DIRECTION('',(0.,0.,1.));
#947 = DIRECTION('',(0.906307787037,0.422618261741,0.));
#948 = ADVANCED_FACE('',(#949),#967,.F.);
#949 = FACE_BOUND('',#950,.F.);
#950 = EDGE_LOOP('',(#951,#952,#960,#966));
#951 = ORIENTED_EDGE('',*,*,#921,.F.);
#952 = ORIENTED_EDGE('',*,*,#953,.T.);
#953 = EDGE_CURVE('',#922,#954,#956,.T.);
#954 = VERTEX_POINT('',#955);
#955 = CARTESIAN_POINT('',(64.571074261325,37.684018093726,22.5));
#956 = LINE('',#957,#958);
#957 = CARTESIAN_POINT('',(64.571074261325,37.684018093726,13.5));
#958 = VECTOR('',#959,1.);
#959 = DIRECTION('',(0.,0.,1.));
#960 = ORIENTED_EDGE('',*,*,#961,.T.);
#961 = EDGE_CURVE('',#954,#501,#962,.T.);
#962 = LINE('',#963,#964);
#963 = CARTESIAN_POINT('',(64.571074261325,37.684018093726,22.5));
#964 = VECTOR('',#965,1.);
#965 = DIRECTION('',(0.906307787037,0.422618261741,0.));
#966 = ORIENTED_EDGE('',*,*,#508,.T.);
#967 = PLANE('',#968);
#968 = AXIS2_PLACEMENT_3D('',#969,#970,#971);
#969 = CARTESIAN_POINT('',(64.571074261325,37.684018093726,13.5));
#970 = DIRECTION('',(-0.422618261741,0.906307787037,0.));
#971 = DIRECTION('',(0.,0.,1.));
#972 = ADVANCED_FACE('',(#973),#991,.F.);
#973 = FACE_BOUND('',#974,.F.);
#974 = EDGE_LOOP('',(#975,#976,#984,#990));
#975 = ORIENTED_EDGE('',*,*,#961,.F.);
#976 = ORIENTED_EDGE('',*,*,#977,.F.);
#977 = EDGE_CURVE('',#978,#954,#980,.T.);
#978 = VERTEX_POINT('',#979);
#979 = CARTESIAN_POINT('',(70.487729925695,24.995709075213,22.5));
#980 = LINE('',#981,#982);
#981 = CARTESIAN_POINT('',(70.487729925695,24.995709075213,22.5));
#982 = VECTOR('',#983,1.);
#983 = DIRECTION('',(-0.422618261741,0.906307787037,0.));
#984 = ORIENTED_EDGE('',*,*,#985,.T.);
#985 = EDGE_CURVE('',#978,#493,#986,.T.);
#986 = LINE('',#987,#988);
#987 = CARTESIAN_POINT('',(70.487729925695,24.995709075213,22.5));
#988 = VECTOR('',#989,1.);
#989 = DIRECTION('',(0.906307787037,0.422618261741,0.));
#990 = ORIENTED_EDGE('',*,*,#500,.T.);
#991 = PLANE('',#992);
#992 = AXIS2_PLACEMENT_3D('',#993,#994,#995);
#993 = CARTESIAN_POINT('',(70.487729925695,24.995709075213,22.5));
#994 = DIRECTION('',(0.,0.,1.));
#995 = DIRECTION('',(0.906307787037,0.422618261741,0.));
#996 = ADVANCED_FACE('',(#997),#1008,.T.);
#997 = FACE_BOUND('',#998,.T.);
#998 = EDGE_LOOP('',(#999,#1000,#1006,#1007));
#999 = ORIENTED_EDGE('',*,*,#937,.F.);
#1000 = ORIENTED_EDGE('',*,*,#1001,.T.);
#1001 = EDGE_CURVE('',#930,#978,#1002,.T.);
#1002 = LINE('',#1003,#1004);
#1003 = CARTESIAN_POINT('',(70.487729925695,24.995709075213,13.5));
#1004 = VECTOR('',#1005,1.);
#1005 = DIRECTION('',(0.,0.,1.));
#1006 = ORIENTED_EDGE('',*,*,#985,.T.);
#1007 = ORIENTED_EDGE('',*,*,#492,.T.);
#1008 = PLANE('',#1009);
#1009 = AXIS2_PLACEMENT_3D('',#1010,#1011,#1012);
#1010 = CARTESIAN_POINT('',(70.487729925695,24.995709075213,13.5));
#1011 = DIRECTION('',(-0.422618261741,0.906307787037,0.));
#1012 = DIRECTION('',(0.,0.,1.));
#1013 = ADVANCED_FACE('',(#1014),#1062,.F.);
#1014 = FACE_BOUND('',#1015,.F.);
#1015 = EDGE_LOOP('',(#1016,#1026,#1032,#1033,#1039,#1040,#1048,#1056));
#1016 = ORIENTED_EDGE('',*,*,#1017,.F.);
#1017 = EDGE_CURVE('',#1018,#1020,#1022,.T.);
#1018 = VERTEX_POINT('',#1019);
#1019 = CARTESIAN_POINT('',(59.676524153013,33.746585016553,14.5));
#1020 = VERTEX_POINT('',#1021);
#1021 = CARTESIAN_POINT('',(65.205001653936,36.324556413171,14.5));
#1022 = LINE('',#1023,#1024);
#1023 = CARTESIAN_POINT('',(59.676524153013,33.746585016553,14.5));
#1024 = VECTOR('',#1025,1.);
#1025 = DIRECTION('',(0.906307787037,0.422618261741,0.));
#1026 = ORIENTED_EDGE('',*,*,#1027,.T.);
#1027 = EDGE_CURVE('',#1018,#780,#1028,.T.);
#1028 = LINE('',#1029,#1030);
#1029 = CARTESIAN_POINT('',(59.676524153013,33.746585016553,14.5));
#1030 = VECTOR('',#1031,1.);
#1031 = DIRECTION('',(0.,0.,1.));
#1032 = ORIENTED_EDGE('',*,*,#777,.F.);
#1033 = ORIENTED_EDGE('',*,*,#1034,.T.);
#1034 = EDGE_CURVE('',#778,#666,#1035,.T.);
#1035 = LINE('',#1036,#1037);
#1036 = CARTESIAN_POINT('',(60.582831940049,34.169203278293,15.25));
#1037 = VECTOR('',#1038,1.);
#1038 = DIRECTION('',(0.,0.,1.));
#1039 = ORIENTED_EDGE('',*,*,#665,.T.);
#1040 = ORIENTED_EDGE('',*,*,#1041,.T.);
#1041 = EDGE_CURVE('',#668,#1042,#1044,.T.);
#1042 = VERTEX_POINT('',#1043);
#1043 = CARTESIAN_POINT('',(59.676524153013,33.746585016553,21.5));
#1044 = LINE('',#1045,#1046);
#1045 = CARTESIAN_POINT('',(59.676524153013,33.746585016553,14.5));
#1046 = VECTOR('',#1047,1.);
#1047 = DIRECTION('',(0.,0.,1.));
#1048 = ORIENTED_EDGE('',*,*,#1049,.T.);
#1049 = EDGE_CURVE('',#1042,#1050,#1052,.T.);
#1050 = VERTEX_POINT('',#1051);
#1051 = CARTESIAN_POINT('',(65.205001653936,36.324556413171,21.5));
#1052 = LINE('',#1053,#1054);
#1053 = CARTESIAN_POINT('',(59.676524153013,33.746585016553,21.5));
#1054 = VECTOR('',#1055,1.);
#1055 = DIRECTION('',(0.906307787037,0.422618261741,0.));
#1056 = ORIENTED_EDGE('',*,*,#1057,.T.);
#1057 = EDGE_CURVE('',#1050,#1020,#1058,.T.);
#1058 = LINE('',#1059,#1060);
#1059 = CARTESIAN_POINT('',(65.205001653936,36.324556413171,14.));
#1060 = VECTOR('',#1061,1.);
#1061 = DIRECTION('',(-0.,0.,-1.));
#1062 = PLANE('',#1063);
#1063 = AXIS2_PLACEMENT_3D('',#1064,#1065,#1066);
#1064 = CARTESIAN_POINT('',(59.676524153013,33.746585016553,14.5));
#1065 = DIRECTION('',(-0.422618261741,0.906307787037,0.));
#1066 = DIRECTION('',(0.,0.,1.));
#1067 = ADVANCED_FACE('',(#1068),#1086,.T.);
#1068 = FACE_BOUND('',#1069,.T.);
#1069 = EDGE_LOOP('',(#1070,#1078,#1079,#1080));
#1070 = ORIENTED_EDGE('',*,*,#1071,.F.);
#1071 = EDGE_CURVE('',#732,#1072,#1074,.T.);
#1072 = VERTEX_POINT('',#1073);
#1073 = CARTESIAN_POINT('',(64.32532503216,23.77719935915,21.5));
#1074 = LINE('',#1075,#1076);
#1075 = CARTESIAN_POINT('',(64.32532503216,23.77719935915,14.5));
#1076 = VECTOR('',#1077,1.);
#1077 = DIRECTION('',(0.,0.,1.));
#1078 = ORIENTED_EDGE('',*,*,#739,.T.);
#1079 = ORIENTED_EDGE('',*,*,#1041,.T.);
#1080 = ORIENTED_EDGE('',*,*,#1081,.F.);
#1081 = EDGE_CURVE('',#1072,#1042,#1082,.T.);
#1082 = LINE('',#1083,#1084);
#1083 = CARTESIAN_POINT('',(64.32532503216,23.77719935915,21.5));
#1084 = VECTOR('',#1085,1.);
#1085 = DIRECTION('',(-0.422618261741,0.906307787037,0.));
#1086 = PLANE('',#1087);
#1087 = AXIS2_PLACEMENT_3D('',#1088,#1089,#1090);
#1088 = CARTESIAN_POINT('',(64.32532503216,23.77719935915,14.5));
#1089 = DIRECTION('',(0.906307787037,0.422618261741,0.));
#1090 = DIRECTION('',(0.,0.,1.));
#1091 = ADVANCED_FACE('',(#1092),#1133,.T.);
#1092 = FACE_BOUND('',#1093,.T.);
#1093 = EDGE_LOOP('',(#1094,#1104,#1110,#1111,#1117,#1118,#1119,#1127));
#1094 = ORIENTED_EDGE('',*,*,#1095,.F.);
#1095 = EDGE_CURVE('',#1096,#1098,#1100,.T.);
#1096 = VERTEX_POINT('',#1097);
#1097 = CARTESIAN_POINT('',(64.32532503216,23.77719935915,14.5));
#1098 = VERTEX_POINT('',#1099);
#1099 = CARTESIAN_POINT('',(69.853802533084,26.355170755768,14.5));
#1100 = LINE('',#1101,#1102);
#1101 = CARTESIAN_POINT('',(64.32532503216,23.77719935915,14.5));
#1102 = VECTOR('',#1103,1.);
#1103 = DIRECTION('',(0.906307787037,0.422618261741,0.));
#1104 = ORIENTED_EDGE('',*,*,#1105,.T.);
#1105 = EDGE_CURVE('',#1096,#837,#1106,.T.);
#1106 = LINE('',#1107,#1108);
#1107 = CARTESIAN_POINT('',(64.32532503216,23.77719935915,14.5));
#1108 = VECTOR('',#1109,1.);
#1109 = DIRECTION('',(0.,0.,1.));
#1110 = ORIENTED_EDGE('',*,*,#836,.F.);
#1111 = ORIENTED_EDGE('',*,*,#1112,.T.);
#1112 = EDGE_CURVE('',#829,#724,#1113,.T.);
#1113 = LINE('',#1114,#1115);
#1114 = CARTESIAN_POINT('',(65.231632819197,24.19981762089,15.25));
#1115 = VECTOR('',#1116,1.);
#1116 = DIRECTION('',(0.,0.,1.));
#1117 = ORIENTED_EDGE('',*,*,#731,.T.);
#1118 = ORIENTED_EDGE('',*,*,#1071,.T.);
#1119 = ORIENTED_EDGE('',*,*,#1120,.T.);
#1120 = EDGE_CURVE('',#1072,#1121,#1123,.T.);
#1121 = VERTEX_POINT('',#1122);
#1122 = CARTESIAN_POINT('',(69.853802533084,26.355170755768,21.5));
#1123 = LINE('',#1124,#1125);
#1124 = CARTESIAN_POINT('',(64.32532503216,23.77719935915,21.5));
#1125 = VECTOR('',#1126,1.);
#1126 = DIRECTION('',(0.906307787037,0.422618261741,0.));
#1127 = ORIENTED_EDGE('',*,*,#1128,.T.);
#1128 = EDGE_CURVE('',#1121,#1098,#1129,.T.);
#1129 = LINE('',#1130,#1131);
#1130 = CARTESIAN_POINT('',(69.853802533084,26.355170755768,14.));
#1131 = VECTOR('',#1132,1.);
#1132 = DIRECTION('',(-0.,0.,-1.));
#1133 = PLANE('',#1134);
#1134 = AXIS2_PLACEMENT_3D('',#1135,#1136,#1137);
#1135 = CARTESIAN_POINT('',(64.32532503216,23.77719935915,14.5));
#1136 = DIRECTION('',(-0.422618261741,0.906307787037,0.));
#1137 = DIRECTION('',(0.,0.,1.));
#1138 = ADVANCED_FACE('',(#1139),#1145,.F.);
#1139 = FACE_BOUND('',#1140,.F.);
#1140 = EDGE_LOOP('',(#1141,#1142,#1143,#1144));
#1141 = ORIENTED_EDGE('',*,*,#723,.F.);
#1142 = ORIENTED_EDGE('',*,*,#763,.F.);
#1143 = ORIENTED_EDGE('',*,*,#828,.T.);
#1144 = ORIENTED_EDGE('',*,*,#1112,.T.);
#1145 = PLANE('',#1146);
#1146 = AXIS2_PLACEMENT_3D('',#1147,#1148,#1149);
#1147 = CARTESIAN_POINT('',(65.442941950067,23.746663727372,16.));
#1148 = DIRECTION('',(0.906307787037,0.422618261741,0.));
#1149 = DIRECTION('',(0.,0.,1.));
#1150 = ADVANCED_FACE('',(#1151),#1157,.T.);
#1151 = FACE_BOUND('',#1152,.T.);
#1152 = EDGE_LOOP('',(#1153,#1154,#1155,#1156));
#1153 = ORIENTED_EDGE('',*,*,#859,.F.);
#1154 = ORIENTED_EDGE('',*,*,#811,.T.);
#1155 = ORIENTED_EDGE('',*,*,#876,.T.);
#1156 = ORIENTED_EDGE('',*,*,#699,.F.);
#1157 = PLANE('',#1158);
#1158 = AXIS2_PLACEMENT_3D('',#1159,#1160,#1161);
#1159 = CARTESIAN_POINT('',(52.754632931554,17.830008063002,16.));
#1160 = DIRECTION('',(0.906307787037,0.422618261741,0.));
#1161 = DIRECTION('',(0.,0.,1.));
#1162 = ADVANCED_FACE('',(#1163),#1169,.F.);
#1163 = FACE_BOUND('',#1164,.F.);
#1164 = EDGE_LOOP('',(#1165,#1166,#1167,#1168));
#1165 = ORIENTED_EDGE('',*,*,#675,.F.);
#1166 = ORIENTED_EDGE('',*,*,#1034,.F.);
#1167 = ORIENTED_EDGE('',*,*,#787,.T.);
#1168 = ORIENTED_EDGE('',*,*,#895,.T.);
#1169 = PLANE('',#1170);
#1170 = AXIS2_PLACEMENT_3D('',#1171,#1172,#1173);
#1171 = CARTESIAN_POINT('',(65.442941950067,23.746663727372,16.));
#1172 = DIRECTION('',(0.906307787037,0.422618261741,0.));
#1173 = DIRECTION('',(0.,0.,1.));
#1174 = ADVANCED_FACE('',(#1175),#1186,.T.);
#1175 = FACE_BOUND('',#1176,.T.);
#1176 = EDGE_LOOP('',(#1177,#1178,#1184,#1185));
#1177 = ORIENTED_EDGE('',*,*,#1105,.F.);
#1178 = ORIENTED_EDGE('',*,*,#1179,.T.);
#1179 = EDGE_CURVE('',#1096,#1018,#1180,.T.);
#1180 = LINE('',#1181,#1182);
#1181 = CARTESIAN_POINT('',(64.32532503216,23.77719935915,14.5));
#1182 = VECTOR('',#1183,1.);
#1183 = DIRECTION('',(-0.422618261741,0.906307787037,0.));
#1184 = ORIENTED_EDGE('',*,*,#1027,.T.);
#1185 = ORIENTED_EDGE('',*,*,#844,.F.);
#1186 = PLANE('',#1187);
#1187 = AXIS2_PLACEMENT_3D('',#1188,#1189,#1190);
#1188 = CARTESIAN_POINT('',(64.32532503216,23.77719935915,14.5));
#1189 = DIRECTION('',(0.906307787037,0.422618261741,0.));
#1190 = DIRECTION('',(0.,0.,1.));
#1191 = ADVANCED_FACE('',(#1192,#1198),#1214,.T.);
#1192 = FACE_BOUND('',#1193,.T.);
#1193 = EDGE_LOOP('',(#1194,#1195,#1196,#1197));
#1194 = ORIENTED_EDGE('',*,*,#1001,.F.);
#1195 = ORIENTED_EDGE('',*,*,#929,.T.);
#1196 = ORIENTED_EDGE('',*,*,#953,.T.);
#1197 = ORIENTED_EDGE('',*,*,#977,.F.);
#1198 = FACE_BOUND('',#1199,.T.);
#1199 = EDGE_LOOP('',(#1200,#1206,#1207,#1213));
#1200 = ORIENTED_EDGE('',*,*,#1201,.F.);
#1201 = EDGE_CURVE('',#1098,#1020,#1202,.T.);
#1202 = LINE('',#1203,#1204);
#1203 = CARTESIAN_POINT('',(70.170766229389,25.67543991549,14.5));
#1204 = VECTOR('',#1205,1.);
#1205 = DIRECTION('',(-0.422618261741,0.906307787037,0.));
#1206 = ORIENTED_EDGE('',*,*,#1128,.F.);
#1207 = ORIENTED_EDGE('',*,*,#1208,.T.);
#1208 = EDGE_CURVE('',#1121,#1050,#1209,.T.);
#1209 = LINE('',#1210,#1211);
#1210 = CARTESIAN_POINT('',(70.170766229389,25.67543991549,21.5));
#1211 = VECTOR('',#1212,1.);
#1212 = DIRECTION('',(-0.422618261741,0.906307787037,0.));
#1213 = ORIENTED_EDGE('',*,*,#1057,.T.);
#1214 = PLANE('',#1215);
#1215 = AXIS2_PLACEMENT_3D('',#1216,#1217,#1218);
#1216 = CARTESIAN_POINT('',(70.487729925695,24.995709075213,13.5));
#1217 = DIRECTION('',(0.906307787037,0.422618261741,0.));
#1218 = DIRECTION('',(0.,0.,1.));
#1219 = ADVANCED_FACE('',(#1220),#1226,.T.);
#1220 = FACE_BOUND('',#1221,.T.);
#1221 = EDGE_LOOP('',(#1222,#1223,#1224,#1225));
#1222 = ORIENTED_EDGE('',*,*,#1017,.F.);
#1223 = ORIENTED_EDGE('',*,*,#1179,.F.);
#1224 = ORIENTED_EDGE('',*,*,#1095,.T.);
#1225 = ORIENTED_EDGE('',*,*,#1201,.T.);
#1226 = PLANE('',#1227);
#1227 = AXIS2_PLACEMENT_3D('',#1228,#1229,#1230);
#1228 = CARTESIAN_POINT('',(64.32532503216,23.77719935915,14.5));
#1229 = DIRECTION('',(0.,0.,1.));
#1230 = DIRECTION('',(0.906307787037,0.422618261741,0.));
#1231 = ADVANCED_FACE('',(#1232),#1238,.F.);
#1232 = FACE_BOUND('',#1233,.F.);
#1233 = EDGE_LOOP('',(#1234,#1235,#1236,#1237));
#1234 = ORIENTED_EDGE('',*,*,#1049,.F.);
#1235 = ORIENTED_EDGE('',*,*,#1081,.F.);
#1236 = ORIENTED_EDGE('',*,*,#1120,.T.);
#1237 = ORIENTED_EDGE('',*,*,#1208,.T.);
#1238 = PLANE('',#1239);
#1239 = AXIS2_PLACEMENT_3D('',#1240,#1241,#1242);
#1240 = CARTESIAN_POINT('',(64.32532503216,23.77719935915,21.5));
#1241 = DIRECTION('',(0.,0.,1.));
#1242 = DIRECTION('',(0.906307787037,0.422618261741,0.));
#1243 = ( GEOMETRIC_REPRESENTATION_CONTEXT(3) 
GLOBAL_UNCERTAINTY_ASSIGNED_CONTEXT((#1247)) 
GLOBAL_UNIT_ASSIGNED_CONTEXT((#1244,#1245,#1246)) REPRESENTATION_CONTEXT
('Context #1','3D Context with UNIT and UNCERTAINTY') );
#1244 = ( LENGTH_UNIT() NAMED_UNIT(*) SI_UNIT(.MILLI.,.METRE.) );
#1245 = ( NAMED_UNIT(*) PLANE_ANGLE_UNIT() SI_UNIT($,.RADIAN.) );
#1246 = ( NAMED_UNIT(*) SI_UNIT($,.STERADIAN.) SOLID_ANGLE_UNIT() );
#1247 = UNCERTAINTY_MEASURE_WITH_UNIT(LENGTH_MEASURE(1.E-07),#1244,
  'distance_accuracy_value','confusion accuracy');
#1248 = PRODUCT_RELATED_PRODUCT_CATEGORY('part',$,(#7));
ENDSEC;
END-ISO-10303-21;
