ISO-10303-21;
HEADER;
FILE_DESCRIPTION(('FreeCAD Model'),'2;1');
FILE_NAME('Open CASCADE Shape Model','2026-10-03T22:17:25',('FreeCAD'),(
    'FreeCAD'),'Open CASCADE STEP processor 7.8','FreeCAD','Unknown');
FILE_SCHEMA(('AUTOMOTIVE_DESIGN { 1 0 10303 214 1 1 1 1 }'));
ENDSEC;
DATA;
#1 = APPLICATION_PROTOCOL_DEFINITION('international standard',
  'automotive_design',2000,#2);
#2 = APPLICATION_CONTEXT(
  'core data for automotive mechanical design processes');
#3 = SHAPE_DEFINITION_REPRESENTATION(#4,#10);
#4 = PRODUCT_DEFINITION_SHAPE('','',#5);
#5 = PRODUCT_DEFINITION('design','',#6,#9);
#6 = PRODUCT_DEFINITION_FORMATION('','',#7);
#7 = PRODUCT('Open CASCADE STEP translator 7.8 9',
  'Open CASCADE STEP translator 7.8 9','',(#8));
#8 = PRODUCT_CONTEXT('',#2,'mechanical');
#9 = PRODUCT_DEFINITION_CONTEXT('part definition',#2,'design');
#10 = ADVANCED_BREP_SHAPE_REPRESENTATION('',(#11,#15),#965);
#11 = AXIS2_PLACEMENT_3D('',#12,#13,#14);
#12 = CARTESIAN_POINT('',(0.,0.,0.));
#13 = DIRECTION('',(0.,0.,1.));
#14 = DIRECTION('',(1.,0.,-0.));
#15 = MANIFOLD_SOLID_BREP('',#16);
#16 = CLOSED_SHELL('',(#17,#57,#88,#134,#158,#197,#243,#319,#395,#426,
    #450,#474,#491,#579,#603,#684,#701,#718,#735,#781,#826,#850,#888,
    #900,#912,#924,#941,#953));
#17 = ADVANCED_FACE('',(#18),#52,.F.);
#18 = FACE_BOUND('',#19,.F.);
#19 = EDGE_LOOP('',(#20,#30,#38,#46));
#20 = ORIENTED_EDGE('',*,*,#21,.F.);
#21 = EDGE_CURVE('',#22,#24,#26,.T.);
#22 = VERTEX_POINT('',#23);
#23 = CARTESIAN_POINT('',(50.880946093926,14.749537703707,11.5));
#24 = VERTEX_POINT('',#25);
#25 = CARTESIAN_POINT('',(50.880946093926,14.749537703707,24.5));
#26 = LINE('',#27,#28);
#27 = CARTESIAN_POINT('',(50.880946093926,14.749537703707,11.5));
#28 = VECTOR('',#29,1.);
#29 = DIRECTION('',(0.,0.,1.));
#30 = ORIENTED_EDGE('',*,*,#31,.T.);
#31 = EDGE_CURVE('',#22,#32,#34,.T.);
#32 = VERTEX_POINT('',#33);
#33 = CARTESIAN_POINT('',(44.119053906074,29.250462296293,11.5));
#34 = LINE('',#35,#36);
#35 = CARTESIAN_POINT('',(50.880946093926,14.749537703707,11.5));
#36 = VECTOR('',#37,1.);
#37 = DIRECTION('',(-0.422618261741,0.906307787037,0.));
#38 = ORIENTED_EDGE('',*,*,#39,.T.);
#39 = EDGE_CURVE('',#32,#40,#42,.T.);
#40 = VERTEX_POINT('',#41);
#41 = CARTESIAN_POINT('',(44.119053906074,29.250462296293,24.5));
#42 = LINE('',#43,#44);
#43 = CARTESIAN_POINT('',(44.119053906074,29.250462296293,11.5));
#44 = VECTOR('',#45,1.);
#45 = DIRECTION('',(0.,0.,1.));
#46 = ORIENTED_EDGE('',*,*,#47,.F.);
#47 = EDGE_CURVE('',#24,#40,#48,.T.);
#48 = LINE('',#49,#50);
#49 = CARTESIAN_POINT('',(50.880946093926,14.749537703707,24.5));
#50 = VECTOR('',#51,1.);
#51 = DIRECTION('',(-0.422618261741,0.906307787037,0.));
#52 = PLANE('',#53);
#53 = AXIS2_PLACEMENT_3D('',#54,#55,#56);
#54 = CARTESIAN_POINT('',(50.880946093926,14.749537703707,11.5));
#55 = DIRECTION('',(0.906307787037,0.422618261741,0.));
#56 = DIRECTION('',(0.,0.,1.));
#57 = ADVANCED_FACE('',(#58),#83,.F.);
#58 = FACE_BOUND('',#59,.F.);
#59 = EDGE_LOOP('',(#60,#68,#69,#77));
#60 = ORIENTED_EDGE('',*,*,#61,.F.);
#61 = EDGE_CURVE('',#22,#62,#64,.T.);
#62 = VERTEX_POINT('',#63);
#63 = CARTESIAN_POINT('',(72.632332982805,24.892375985484,11.5));
#64 = LINE('',#65,#66);
#65 = CARTESIAN_POINT('',(50.880946093926,14.749537703707,11.5));
#66 = VECTOR('',#67,1.);
#67 = DIRECTION('',(0.906307787037,0.422618261741,0.));
#68 = ORIENTED_EDGE('',*,*,#21,.T.);
#69 = ORIENTED_EDGE('',*,*,#70,.T.);
#70 = EDGE_CURVE('',#24,#71,#73,.T.);
#71 = VERTEX_POINT('',#72);
#72 = CARTESIAN_POINT('',(72.632332982805,24.892375985484,24.5));
#73 = LINE('',#74,#75);
#74 = CARTESIAN_POINT('',(50.880946093926,14.749537703707,24.5));
#75 = VECTOR('',#76,1.);
#76 = DIRECTION('',(0.906307787037,0.422618261741,0.));
#77 = ORIENTED_EDGE('',*,*,#78,.F.);
#78 = EDGE_CURVE('',#62,#71,#79,.T.);
#79 = LINE('',#80,#81);
#80 = CARTESIAN_POINT('',(72.632332982805,24.892375985484,11.5));
#81 = VECTOR('',#82,1.);
#82 = DIRECTION('',(0.,0.,1.));
#83 = PLANE('',#84);
#84 = AXIS2_PLACEMENT_3D('',#85,#86,#87);
#85 = CARTESIAN_POINT('',(50.880946093926,14.749537703707,11.5));
#86 = DIRECTION('',(-0.422618261741,0.906307787037,0.));
#87 = DIRECTION('',(0.,0.,1.));
#88 = ADVANCED_FACE('',(#89,#107,#118),#129,.T.);
#89 = FACE_BOUND('',#90,.T.);
#90 = EDGE_LOOP('',(#91,#92,#93,#101));
#91 = ORIENTED_EDGE('',*,*,#47,.F.);
#92 = ORIENTED_EDGE('',*,*,#70,.T.);
#93 = ORIENTED_EDGE('',*,*,#94,.T.);
#94 = EDGE_CURVE('',#71,#95,#97,.T.);
#95 = VERTEX_POINT('',#96);
#96 = CARTESIAN_POINT('',(65.870440794954,39.39330057807,24.5));
#97 = LINE('',#98,#99);
#98 = CARTESIAN_POINT('',(72.632332982805,24.892375985484,24.5));
#99 = VECTOR('',#100,1.);
#100 = DIRECTION('',(-0.422618261741,0.906307787037,0.));
#101 = ORIENTED_EDGE('',*,*,#102,.F.);
#102 = EDGE_CURVE('',#40,#95,#103,.T.);
#103 = LINE('',#104,#105);
#104 = CARTESIAN_POINT('',(44.119053906074,29.250462296293,24.5));
#105 = VECTOR('',#106,1.);
#106 = DIRECTION('',(0.906307787037,0.422618261741,0.));
#107 = FACE_BOUND('',#108,.T.);
#108 = EDGE_LOOP('',(#109));
#109 = ORIENTED_EDGE('',*,*,#110,.F.);
#110 = EDGE_CURVE('',#111,#111,#113,.T.);
#111 = VERTEX_POINT('',#112);
#112 = CARTESIAN_POINT('',(57.981170522904,20.818871526965,24.5));
#113 = CIRCLE('',#114,1.);
#114 = AXIS2_PLACEMENT_3D('',#115,#116,#117);
#115 = CARTESIAN_POINT('',(57.074862735867,20.396253265224,24.5));
#116 = DIRECTION('',(0.,-0.,1.));
#117 = DIRECTION('',(0.906307787037,0.422618261741,0.));
#118 = FACE_BOUND('',#119,.T.);
#119 = EDGE_LOOP('',(#120));
#120 = ORIENTED_EDGE('',*,*,#121,.F.);
#121 = EDGE_CURVE('',#122,#122,#124,.T.);
#122 = VERTEX_POINT('',#123);
#123 = CARTESIAN_POINT('',(53.332369643756,30.788257184368,24.5));
#124 = CIRCLE('',#125,1.);
#125 = AXIS2_PLACEMENT_3D('',#126,#127,#128);
#126 = CARTESIAN_POINT('',(52.426061856719,30.365638922627,24.5));
#127 = DIRECTION('',(0.,-0.,1.));
#128 = DIRECTION('',(0.906307787037,0.422618261741,0.));
#129 = PLANE('',#130);
#130 = AXIS2_PLACEMENT_3D('',#131,#132,#133);
#131 = CARTESIAN_POINT('',(50.880946093926,14.749537703707,24.5));
#132 = DIRECTION('',(0.,0.,1.));
#133 = DIRECTION('',(0.906307787037,0.422618261741,0.));
#134 = ADVANCED_FACE('',(#135),#153,.T.);
#135 = FACE_BOUND('',#136,.T.);
#136 = EDGE_LOOP('',(#137,#145,#146,#147));
#137 = ORIENTED_EDGE('',*,*,#138,.F.);
#138 = EDGE_CURVE('',#32,#139,#141,.T.);
#139 = VERTEX_POINT('',#140);
#140 = CARTESIAN_POINT('',(65.870440794954,39.39330057807,11.5));
#141 = LINE('',#142,#143);
#142 = CARTESIAN_POINT('',(44.119053906074,29.250462296293,11.5));
#143 = VECTOR('',#144,1.);
#144 = DIRECTION('',(0.906307787037,0.422618261741,0.));
#145 = ORIENTED_EDGE('',*,*,#39,.T.);
#146 = ORIENTED_EDGE('',*,*,#102,.T.);
#147 = ORIENTED_EDGE('',*,*,#148,.F.);
#148 = EDGE_CURVE('',#139,#95,#149,.T.);
#149 = LINE('',#150,#151);
#150 = CARTESIAN_POINT('',(65.870440794954,39.39330057807,11.5));
#151 = VECTOR('',#152,1.);
#152 = DIRECTION('',(0.,0.,1.));
#153 = PLANE('',#154);
#154 = AXIS2_PLACEMENT_3D('',#155,#156,#157);
#155 = CARTESIAN_POINT('',(44.119053906074,29.250462296293,11.5));
#156 = DIRECTION('',(-0.422618261741,0.906307787037,0.));
#157 = DIRECTION('',(0.,0.,1.));
#158 = ADVANCED_FACE('',(#159,#170,#181),#192,.F.);
#159 = FACE_BOUND('',#160,.F.);
#160 = EDGE_LOOP('',(#161,#162,#163,#169));
#161 = ORIENTED_EDGE('',*,*,#31,.F.);
#162 = ORIENTED_EDGE('',*,*,#61,.T.);
#163 = ORIENTED_EDGE('',*,*,#164,.T.);
#164 = EDGE_CURVE('',#62,#139,#165,.T.);
#165 = LINE('',#166,#167);
#166 = CARTESIAN_POINT('',(72.632332982805,24.892375985484,11.5));
#167 = VECTOR('',#168,1.);
#168 = DIRECTION('',(-0.422618261741,0.906307787037,0.));
#169 = ORIENTED_EDGE('',*,*,#138,.F.);
#170 = FACE_BOUND('',#171,.F.);
#171 = EDGE_LOOP('',(#172));
#172 = ORIENTED_EDGE('',*,*,#173,.F.);
#173 = EDGE_CURVE('',#174,#174,#176,.T.);
#174 = VERTEX_POINT('',#175);
#175 = CARTESIAN_POINT('',(57.981170522904,20.818871526965,11.5));
#176 = CIRCLE('',#177,1.);
#177 = AXIS2_PLACEMENT_3D('',#178,#179,#180);
#178 = CARTESIAN_POINT('',(57.074862735867,20.396253265224,11.5));
#179 = DIRECTION('',(0.,-0.,1.));
#180 = DIRECTION('',(0.906307787037,0.422618261741,0.));
#181 = FACE_BOUND('',#182,.F.);
#182 = EDGE_LOOP('',(#183));
#183 = ORIENTED_EDGE('',*,*,#184,.F.);
#184 = EDGE_CURVE('',#185,#185,#187,.T.);
#185 = VERTEX_POINT('',#186);
#186 = CARTESIAN_POINT('',(53.332369643756,30.788257184368,11.5));
#187 = CIRCLE('',#188,1.);
#188 = AXIS2_PLACEMENT_3D('',#189,#190,#191);
#189 = CARTESIAN_POINT('',(52.426061856719,30.365638922627,11.5));
#190 = DIRECTION('',(0.,-0.,1.));
#191 = DIRECTION('',(0.906307787037,0.422618261741,0.));
#192 = PLANE('',#193);
#193 = AXIS2_PLACEMENT_3D('',#194,#195,#196);
#194 = CARTESIAN_POINT('',(50.880946093926,14.749537703707,11.5));
#195 = DIRECTION('',(0.,0.,1.));
#196 = DIRECTION('',(0.906307787037,0.422618261741,0.));
#197 = ADVANCED_FACE('',(#198,#204),#238,.T.);
#198 = FACE_BOUND('',#199,.T.);
#199 = EDGE_LOOP('',(#200,#201,#202,#203));
#200 = ORIENTED_EDGE('',*,*,#78,.F.);
#201 = ORIENTED_EDGE('',*,*,#164,.T.);
#202 = ORIENTED_EDGE('',*,*,#148,.T.);
#203 = ORIENTED_EDGE('',*,*,#94,.F.);
#204 = FACE_BOUND('',#205,.T.);
#205 = EDGE_LOOP('',(#206,#216,#224,#232));
#206 = ORIENTED_EDGE('',*,*,#207,.T.);
#207 = EDGE_CURVE('',#208,#210,#212,.T.);
#208 = VERTEX_POINT('',#209);
#209 = CARTESIAN_POINT('',(66.293059056695,38.486992791033,13.5));
#210 = VERTEX_POINT('',#211);
#211 = CARTESIAN_POINT('',(72.209714721065,25.79868377252,13.5));
#212 = LINE('',#213,#214);
#213 = CARTESIAN_POINT('',(72.421023851935,25.345529879002,13.5));
#214 = VECTOR('',#215,1.);
#215 = DIRECTION('',(0.422618261741,-0.906307787037,0.));
#216 = ORIENTED_EDGE('',*,*,#217,.T.);
#217 = EDGE_CURVE('',#210,#218,#220,.T.);
#218 = VERTEX_POINT('',#219);
#219 = CARTESIAN_POINT('',(72.209714721065,25.79868377252,22.5));
#220 = LINE('',#221,#222);
#221 = CARTESIAN_POINT('',(72.209714721065,25.79868377252,12.5));
#222 = VECTOR('',#223,1.);
#223 = DIRECTION('',(0.,0.,1.));
#224 = ORIENTED_EDGE('',*,*,#225,.F.);
#225 = EDGE_CURVE('',#226,#218,#228,.T.);
#226 = VERTEX_POINT('',#227);
#227 = CARTESIAN_POINT('',(66.293059056695,38.486992791033,22.5));
#228 = LINE('',#229,#230);
#229 = CARTESIAN_POINT('',(72.421023851935,25.345529879002,22.5));
#230 = VECTOR('',#231,1.);
#231 = DIRECTION('',(0.422618261741,-0.906307787037,0.));
#232 = ORIENTED_EDGE('',*,*,#233,.F.);
#233 = EDGE_CURVE('',#208,#226,#234,.T.);
#234 = LINE('',#235,#236);
#235 = CARTESIAN_POINT('',(66.293059056695,38.486992791033,12.5));
#236 = VECTOR('',#237,1.);
#237 = DIRECTION('',(0.,0.,1.));
#238 = PLANE('',#239);
#239 = AXIS2_PLACEMENT_3D('',#240,#241,#242);
#240 = CARTESIAN_POINT('',(72.632332982805,24.892375985484,11.5));
#241 = DIRECTION('',(0.906307787037,0.422618261741,0.));
#242 = DIRECTION('',(0.,0.,1.));
#243 = ADVANCED_FACE('',(#244),#314,.F.);
#244 = FACE_BOUND('',#245,.F.);
#245 = EDGE_LOOP('',(#246,#247,#255,#264,#272,#281,#287,#288,#289,#298,
    #306,#313));
#246 = ORIENTED_EDGE('',*,*,#110,.F.);
#247 = ORIENTED_EDGE('',*,*,#248,.F.);
#248 = EDGE_CURVE('',#249,#111,#251,.T.);
#249 = VERTEX_POINT('',#250);
#250 = CARTESIAN_POINT('',(57.981170522904,20.818871526965,20.));
#251 = LINE('',#252,#253);
#252 = CARTESIAN_POINT('',(57.981170522904,20.818871526965,10.5));
#253 = VECTOR('',#254,1.);
#254 = DIRECTION('',(0.,0.,1.));
#255 = ORIENTED_EDGE('',*,*,#256,.T.);
#256 = EDGE_CURVE('',#249,#257,#259,.T.);
#257 = VERTEX_POINT('',#258);
#258 = CARTESIAN_POINT('',(56.501286299516,19.577101220935,20.));
#259 = CIRCLE('',#260,1.);
#260 = AXIS2_PLACEMENT_3D('',#261,#262,#263);
#261 = CARTESIAN_POINT('',(57.074862735867,20.396253265224,20.));
#262 = DIRECTION('',(0.,-0.,1.));
#263 = DIRECTION('',(0.906307787037,0.422618261741,0.));
#264 = ORIENTED_EDGE('',*,*,#265,.F.);
#265 = EDGE_CURVE('',#266,#257,#268,.T.);
#266 = VERTEX_POINT('',#267);
#267 = CARTESIAN_POINT('',(56.501286299516,19.577101220935,16.));
#268 = LINE('',#269,#270);
#269 = CARTESIAN_POINT('',(56.501286299516,19.577101220935,10.5));
#270 = VECTOR('',#271,1.);
#271 = DIRECTION('',(0.,0.,1.));
#272 = ORIENTED_EDGE('',*,*,#273,.F.);
#273 = EDGE_CURVE('',#274,#266,#276,.T.);
#274 = VERTEX_POINT('',#275);
#275 = CARTESIAN_POINT('',(57.981170522904,20.818871526965,16.));
#276 = CIRCLE('',#277,1.);
#277 = AXIS2_PLACEMENT_3D('',#278,#279,#280);
#278 = CARTESIAN_POINT('',(57.074862735867,20.396253265224,16.));
#279 = DIRECTION('',(0.,-0.,1.));
#280 = DIRECTION('',(0.906307787037,0.422618261741,0.));
#281 = ORIENTED_EDGE('',*,*,#282,.F.);
#282 = EDGE_CURVE('',#174,#274,#283,.T.);
#283 = LINE('',#284,#285);
#284 = CARTESIAN_POINT('',(57.981170522904,20.818871526965,10.5));
#285 = VECTOR('',#286,1.);
#286 = DIRECTION('',(0.,0.,1.));
#287 = ORIENTED_EDGE('',*,*,#173,.T.);
#288 = ORIENTED_EDGE('',*,*,#282,.T.);
#289 = ORIENTED_EDGE('',*,*,#290,.F.);
#290 = EDGE_CURVE('',#291,#274,#293,.T.);
#291 = VERTEX_POINT('',#292);
#292 = CARTESIAN_POINT('',(58.071057433959,20.309097522476,16.));
#293 = CIRCLE('',#294,1.);
#294 = AXIS2_PLACEMENT_3D('',#295,#296,#297);
#295 = CARTESIAN_POINT('',(57.074862735867,20.396253265224,16.));
#296 = DIRECTION('',(0.,-0.,1.));
#297 = DIRECTION('',(0.906307787037,0.422618261741,0.));
#298 = ORIENTED_EDGE('',*,*,#299,.T.);
#299 = EDGE_CURVE('',#291,#300,#302,.T.);
#300 = VERTEX_POINT('',#301);
#301 = CARTESIAN_POINT('',(58.071057433959,20.309097522476,20.));
#302 = LINE('',#303,#304);
#303 = CARTESIAN_POINT('',(58.071057433959,20.309097522476,10.5));
#304 = VECTOR('',#305,1.);
#305 = DIRECTION('',(0.,0.,1.));
#306 = ORIENTED_EDGE('',*,*,#307,.T.);
#307 = EDGE_CURVE('',#300,#249,#308,.T.);
#308 = CIRCLE('',#309,1.);
#309 = AXIS2_PLACEMENT_3D('',#310,#311,#312);
#310 = CARTESIAN_POINT('',(57.074862735867,20.396253265224,20.));
#311 = DIRECTION('',(0.,-0.,1.));
#312 = DIRECTION('',(0.906307787037,0.422618261741,0.));
#313 = ORIENTED_EDGE('',*,*,#248,.T.);
#314 = CYLINDRICAL_SURFACE('',#315,1.);
#315 = AXIS2_PLACEMENT_3D('',#316,#317,#318);
#316 = CARTESIAN_POINT('',(57.074862735867,20.396253265224,10.5));
#317 = DIRECTION('',(0.,0.,1.));
#318 = DIRECTION('',(0.906307787037,0.422618261741,0.));
#319 = ADVANCED_FACE('',(#320),#390,.F.);
#320 = FACE_BOUND('',#321,.F.);
#321 = EDGE_LOOP('',(#322,#323,#331,#340,#348,#357,#363,#364,#365,#374,
    #382,#389));
#322 = ORIENTED_EDGE('',*,*,#121,.F.);
#323 = ORIENTED_EDGE('',*,*,#324,.F.);
#324 = EDGE_CURVE('',#325,#122,#327,.T.);
#325 = VERTEX_POINT('',#326);
#326 = CARTESIAN_POINT('',(53.332369643756,30.788257184368,20.));
#327 = LINE('',#328,#329);
#328 = CARTESIAN_POINT('',(53.332369643756,30.788257184368,10.5));
#329 = VECTOR('',#330,1.);
#330 = DIRECTION('',(0.,0.,1.));
#331 = ORIENTED_EDGE('',*,*,#332,.T.);
#332 = EDGE_CURVE('',#325,#333,#335,.T.);
#333 = VERTEX_POINT('',#334);
#334 = CARTESIAN_POINT('',(52.99963829307,31.184790966916,20.));
#335 = CIRCLE('',#336,1.);
#336 = AXIS2_PLACEMENT_3D('',#337,#338,#339);
#337 = CARTESIAN_POINT('',(52.426061856719,30.365638922627,20.));
#338 = DIRECTION('',(0.,-0.,1.));
#339 = DIRECTION('',(0.906307787037,0.422618261741,0.));
#340 = ORIENTED_EDGE('',*,*,#341,.F.);
#341 = EDGE_CURVE('',#342,#333,#344,.T.);
#342 = VERTEX_POINT('',#343);
#343 = CARTESIAN_POINT('',(52.99963829307,31.184790966916,16.));
#344 = LINE('',#345,#346);
#345 = CARTESIAN_POINT('',(52.99963829307,31.184790966916,10.5));
#346 = VECTOR('',#347,1.);
#347 = DIRECTION('',(0.,0.,1.));
#348 = ORIENTED_EDGE('',*,*,#349,.F.);
#349 = EDGE_CURVE('',#350,#342,#352,.T.);
#350 = VERTEX_POINT('',#351);
#351 = CARTESIAN_POINT('',(53.332369643756,30.788257184368,16.));
#352 = CIRCLE('',#353,1.);
#353 = AXIS2_PLACEMENT_3D('',#354,#355,#356);
#354 = CARTESIAN_POINT('',(52.426061856719,30.365638922627,16.));
#355 = DIRECTION('',(0.,-0.,1.));
#356 = DIRECTION('',(0.906307787037,0.422618261741,0.));
#357 = ORIENTED_EDGE('',*,*,#358,.F.);
#358 = EDGE_CURVE('',#185,#350,#359,.T.);
#359 = LINE('',#360,#361);
#360 = CARTESIAN_POINT('',(53.332369643756,30.788257184368,10.5));
#361 = VECTOR('',#362,1.);
#362 = DIRECTION('',(0.,0.,1.));
#363 = ORIENTED_EDGE('',*,*,#184,.T.);
#364 = ORIENTED_EDGE('',*,*,#358,.T.);
#365 = ORIENTED_EDGE('',*,*,#366,.F.);
#366 = EDGE_CURVE('',#367,#350,#369,.T.);
#367 = VERTEX_POINT('',#368);
#368 = CARTESIAN_POINT('',(51.429867158628,30.452794665375,16.));
#369 = CIRCLE('',#370,1.);
#370 = AXIS2_PLACEMENT_3D('',#371,#372,#373);
#371 = CARTESIAN_POINT('',(52.426061856719,30.365638922627,16.));
#372 = DIRECTION('',(0.,-0.,1.));
#373 = DIRECTION('',(0.906307787037,0.422618261741,0.));
#374 = ORIENTED_EDGE('',*,*,#375,.T.);
#375 = EDGE_CURVE('',#367,#376,#378,.T.);
#376 = VERTEX_POINT('',#377);
#377 = CARTESIAN_POINT('',(51.429867158628,30.452794665375,20.));
#378 = LINE('',#379,#380);
#379 = CARTESIAN_POINT('',(51.429867158628,30.452794665375,10.5));
#380 = VECTOR('',#381,1.);
#381 = DIRECTION('',(0.,0.,1.));
#382 = ORIENTED_EDGE('',*,*,#383,.T.);
#383 = EDGE_CURVE('',#376,#325,#384,.T.);
#384 = CIRCLE('',#385,1.);
#385 = AXIS2_PLACEMENT_3D('',#386,#387,#388);
#386 = CARTESIAN_POINT('',(52.426061856719,30.365638922627,20.));
#387 = DIRECTION('',(0.,-0.,1.));
#388 = DIRECTION('',(0.906307787037,0.422618261741,0.));
#389 = ORIENTED_EDGE('',*,*,#324,.T.);
#390 = CYLINDRICAL_SURFACE('',#391,1.);
#391 = AXIS2_PLACEMENT_3D('',#392,#393,#394);
#392 = CARTESIAN_POINT('',(52.426061856719,30.365638922627,10.5));
#393 = DIRECTION('',(0.,0.,1.));
#394 = DIRECTION('',(0.906307787037,0.422618261741,0.));
#395 = ADVANCED_FACE('',(#396),#421,.T.);
#396 = FACE_BOUND('',#397,.T.);
#397 = EDGE_LOOP('',(#398,#406,#414,#420));
#398 = ORIENTED_EDGE('',*,*,#399,.F.);
#399 = EDGE_CURVE('',#400,#208,#402,.T.);
#400 = VERTEX_POINT('',#401);
#401 = CARTESIAN_POINT('',(64.571074261325,37.684018093726,13.5));
#402 = LINE('',#403,#404);
#403 = CARTESIAN_POINT('',(64.571074261325,37.684018093726,13.5));
#404 = VECTOR('',#405,1.);
#405 = DIRECTION('',(0.906307787037,0.422618261741,0.));
#406 = ORIENTED_EDGE('',*,*,#407,.F.);
#407 = EDGE_CURVE('',#408,#400,#410,.T.);
#408 = VERTEX_POINT('',#409);
#409 = CARTESIAN_POINT('',(70.487729925695,24.995709075213,13.5));
#410 = LINE('',#411,#412);
#411 = CARTESIAN_POINT('',(70.487729925695,24.995709075213,13.5));
#412 = VECTOR('',#413,1.);
#413 = DIRECTION('',(-0.422618261741,0.906307787037,0.));
#414 = ORIENTED_EDGE('',*,*,#415,.T.);
#415 = EDGE_CURVE('',#408,#210,#416,.T.);
#416 = LINE('',#417,#418);
#417 = CARTESIAN_POINT('',(70.487729925695,24.995709075213,13.5));
#418 = VECTOR('',#419,1.);
#419 = DIRECTION('',(0.906307787037,0.422618261741,0.));
#420 = ORIENTED_EDGE('',*,*,#207,.F.);
#421 = PLANE('',#422);
#422 = AXIS2_PLACEMENT_3D('',#423,#424,#425);
#423 = CARTESIAN_POINT('',(70.487729925695,24.995709075213,13.5));
#424 = DIRECTION('',(0.,0.,1.));
#425 = DIRECTION('',(0.906307787037,0.422618261741,0.));
#426 = ADVANCED_FACE('',(#427),#445,.F.);
#427 = FACE_BOUND('',#428,.F.);
#428 = EDGE_LOOP('',(#429,#430,#438,#444));
#429 = ORIENTED_EDGE('',*,*,#399,.F.);
#430 = ORIENTED_EDGE('',*,*,#431,.T.);
#431 = EDGE_CURVE('',#400,#432,#434,.T.);
#432 = VERTEX_POINT('',#433);
#433 = CARTESIAN_POINT('',(64.571074261325,37.684018093726,22.5));
#434 = LINE('',#435,#436);
#435 = CARTESIAN_POINT('',(64.571074261325,37.684018093726,13.5));
#436 = VECTOR('',#437,1.);
#437 = DIRECTION('',(0.,0.,1.));
#438 = ORIENTED_EDGE('',*,*,#439,.T.);
#439 = EDGE_CURVE('',#432,#226,#440,.T.);
#440 = LINE('',#441,#442);
#441 = CARTESIAN_POINT('',(64.571074261325,37.684018093726,22.5));
#442 = VECTOR('',#443,1.);
#443 = DIRECTION('',(0.906307787037,0.422618261741,0.));
#444 = ORIENTED_EDGE('',*,*,#233,.F.);
#445 = PLANE('',#446);
#446 = AXIS2_PLACEMENT_3D('',#447,#448,#449);
#447 = CARTESIAN_POINT('',(64.571074261325,37.684018093726,13.5));
#448 = DIRECTION('',(-0.422618261741,0.906307787037,0.));
#449 = DIRECTION('',(0.,0.,1.));
#450 = ADVANCED_FACE('',(#451),#469,.F.);
#451 = FACE_BOUND('',#452,.F.);
#452 = EDGE_LOOP('',(#453,#454,#462,#468));
#453 = ORIENTED_EDGE('',*,*,#439,.F.);
#454 = ORIENTED_EDGE('',*,*,#455,.F.);
#455 = EDGE_CURVE('',#456,#432,#458,.T.);
#456 = VERTEX_POINT('',#457);
#457 = CARTESIAN_POINT('',(70.487729925695,24.995709075213,22.5));
#458 = LINE('',#459,#460);
#459 = CARTESIAN_POINT('',(70.487729925695,24.995709075213,22.5));
#460 = VECTOR('',#461,1.);
#461 = DIRECTION('',(-0.422618261741,0.906307787037,0.));
#462 = ORIENTED_EDGE('',*,*,#463,.T.);
#463 = EDGE_CURVE('',#456,#218,#464,.T.);
#464 = LINE('',#465,#466);
#465 = CARTESIAN_POINT('',(70.487729925695,24.995709075213,22.5));
#466 = VECTOR('',#467,1.);
#467 = DIRECTION('',(0.906307787037,0.422618261741,0.));
#468 = ORIENTED_EDGE('',*,*,#225,.F.);
#469 = PLANE('',#470);
#470 = AXIS2_PLACEMENT_3D('',#471,#472,#473);
#471 = CARTESIAN_POINT('',(70.487729925695,24.995709075213,22.5));
#472 = DIRECTION('',(0.,0.,1.));
#473 = DIRECTION('',(0.906307787037,0.422618261741,0.));
#474 = ADVANCED_FACE('',(#475),#486,.T.);
#475 = FACE_BOUND('',#476,.T.);
#476 = EDGE_LOOP('',(#477,#478,#484,#485));
#477 = ORIENTED_EDGE('',*,*,#415,.F.);
#478 = ORIENTED_EDGE('',*,*,#479,.T.);
#479 = EDGE_CURVE('',#408,#456,#480,.T.);
#480 = LINE('',#481,#482);
#481 = CARTESIAN_POINT('',(70.487729925695,24.995709075213,13.5));
#482 = VECTOR('',#483,1.);
#483 = DIRECTION('',(0.,0.,1.));
#484 = ORIENTED_EDGE('',*,*,#463,.T.);
#485 = ORIENTED_EDGE('',*,*,#217,.F.);
#486 = PLANE('',#487);
#487 = AXIS2_PLACEMENT_3D('',#488,#489,#490);
#488 = CARTESIAN_POINT('',(70.487729925695,24.995709075213,13.5));
#489 = DIRECTION('',(-0.422618261741,0.906307787037,0.));
#490 = DIRECTION('',(0.,0.,1.));
#491 = ADVANCED_FACE('',(#492),#574,.F.);
#492 = FACE_BOUND('',#493,.F.);
#493 = EDGE_LOOP('',(#494,#504,#512,#518,#519,#520,#528,#536,#542,#543,
    #544,#552,#560,#568));
#494 = ORIENTED_EDGE('',*,*,#495,.F.);
#495 = EDGE_CURVE('',#496,#498,#500,.T.);
#496 = VERTEX_POINT('',#497);
#497 = CARTESIAN_POINT('',(60.582831940049,34.169203278293,20.));
#498 = VERTEX_POINT('',#499);
#499 = CARTESIAN_POINT('',(59.676524153013,33.746585016553,20.));
#500 = LINE('',#501,#502);
#501 = CARTESIAN_POINT('',(53.785523537274,30.999566315238,20.));
#502 = VECTOR('',#503,1.);
#503 = DIRECTION('',(-0.906307787037,-0.422618261741,0.));
#504 = ORIENTED_EDGE('',*,*,#505,.T.);
#505 = EDGE_CURVE('',#496,#506,#508,.T.);
#506 = VERTEX_POINT('',#507);
#507 = CARTESIAN_POINT('',(60.371522809179,34.622357171812,20.));
#508 = LINE('',#509,#510);
#509 = CARTESIAN_POINT('',(65.442941950067,23.746663727372,20.));
#510 = VECTOR('',#511,1.);
#511 = DIRECTION('',(-0.422618261741,0.906307787037,0.));
#512 = ORIENTED_EDGE('',*,*,#513,.F.);
#513 = EDGE_CURVE('',#333,#506,#514,.T.);
#514 = LINE('',#515,#516);
#515 = CARTESIAN_POINT('',(47.683213790666,28.705701507442,20.));
#516 = VECTOR('',#517,1.);
#517 = DIRECTION('',(0.906307787037,0.422618261741,0.));
#518 = ORIENTED_EDGE('',*,*,#332,.F.);
#519 = ORIENTED_EDGE('',*,*,#383,.F.);
#520 = ORIENTED_EDGE('',*,*,#521,.F.);
#521 = EDGE_CURVE('',#522,#376,#524,.T.);
#522 = VERTEX_POINT('',#523);
#523 = CARTESIAN_POINT('',(47.683213790666,28.705701507442,20.));
#524 = LINE('',#525,#526);
#525 = CARTESIAN_POINT('',(47.683213790666,28.705701507442,20.));
#526 = VECTOR('',#527,1.);
#527 = DIRECTION('',(0.906307787037,0.422618261741,0.));
#528 = ORIENTED_EDGE('',*,*,#529,.F.);
#529 = EDGE_CURVE('',#530,#522,#532,.T.);
#530 = VERTEX_POINT('',#531);
#531 = CARTESIAN_POINT('',(52.754632931554,17.830008063002,20.));
#532 = LINE('',#533,#534);
#533 = CARTESIAN_POINT('',(52.754632931554,17.830008063002,20.));
#534 = VECTOR('',#535,1.);
#535 = DIRECTION('',(-0.422618261741,0.906307787037,0.));
#536 = ORIENTED_EDGE('',*,*,#537,.T.);
#537 = EDGE_CURVE('',#530,#257,#538,.T.);
#538 = LINE('',#539,#540);
#539 = CARTESIAN_POINT('',(52.754632931554,17.830008063002,20.));
#540 = VECTOR('',#541,1.);
#541 = DIRECTION('',(0.906307787037,0.422618261741,0.));
#542 = ORIENTED_EDGE('',*,*,#256,.F.);
#543 = ORIENTED_EDGE('',*,*,#307,.F.);
#544 = ORIENTED_EDGE('',*,*,#545,.T.);
#545 = EDGE_CURVE('',#300,#546,#548,.T.);
#546 = VERTEX_POINT('',#547);
#547 = CARTESIAN_POINT('',(65.442941950067,23.746663727372,20.));
#548 = LINE('',#549,#550);
#549 = CARTESIAN_POINT('',(52.754632931554,17.830008063002,20.));
#550 = VECTOR('',#551,1.);
#551 = DIRECTION('',(0.906307787037,0.422618261741,0.));
#552 = ORIENTED_EDGE('',*,*,#553,.T.);
#553 = EDGE_CURVE('',#546,#554,#556,.T.);
#554 = VERTEX_POINT('',#555);
#555 = CARTESIAN_POINT('',(65.231632819197,24.19981762089,20.));
#556 = LINE('',#557,#558);
#557 = CARTESIAN_POINT('',(65.442941950067,23.746663727372,20.));
#558 = VECTOR('',#559,1.);
#559 = DIRECTION('',(-0.422618261741,0.906307787037,0.));
#560 = ORIENTED_EDGE('',*,*,#561,.T.);
#561 = EDGE_CURVE('',#554,#562,#564,.T.);
#562 = VERTEX_POINT('',#563);
#563 = CARTESIAN_POINT('',(64.32532503216,23.77719935915,20.));
#564 = LINE('',#565,#566);
#565 = CARTESIAN_POINT('',(58.434324416422,21.030180657835,20.));
#566 = VECTOR('',#567,1.);
#567 = DIRECTION('',(-0.906307787037,-0.422618261741,0.));
#568 = ORIENTED_EDGE('',*,*,#569,.T.);
#569 = EDGE_CURVE('',#562,#498,#570,.T.);
#570 = LINE('',#571,#572);
#571 = CARTESIAN_POINT('',(64.430979597595,23.55062241239,20.));
#572 = VECTOR('',#573,1.);
#573 = DIRECTION('',(-0.422618261741,0.906307787037,0.));
#574 = PLANE('',#575);
#575 = AXIS2_PLACEMENT_3D('',#576,#577,#578);
#576 = CARTESIAN_POINT('',(52.754632931554,17.830008063002,20.));
#577 = DIRECTION('',(0.,0.,1.));
#578 = DIRECTION('',(0.906307787037,0.422618261741,0.));
#579 = ADVANCED_FACE('',(#580),#598,.T.);
#580 = FACE_BOUND('',#581,.T.);
#581 = EDGE_LOOP('',(#582,#590,#591,#592));
#582 = ORIENTED_EDGE('',*,*,#583,.F.);
#583 = EDGE_CURVE('',#291,#584,#586,.T.);
#584 = VERTEX_POINT('',#585);
#585 = CARTESIAN_POINT('',(65.442941950067,23.746663727372,16.));
#586 = LINE('',#587,#588);
#587 = CARTESIAN_POINT('',(52.754632931554,17.830008063002,16.));
#588 = VECTOR('',#589,1.);
#589 = DIRECTION('',(0.906307787037,0.422618261741,0.));
#590 = ORIENTED_EDGE('',*,*,#299,.T.);
#591 = ORIENTED_EDGE('',*,*,#545,.T.);
#592 = ORIENTED_EDGE('',*,*,#593,.F.);
#593 = EDGE_CURVE('',#584,#546,#594,.T.);
#594 = LINE('',#595,#596);
#595 = CARTESIAN_POINT('',(65.442941950067,23.746663727372,16.));
#596 = VECTOR('',#597,1.);
#597 = DIRECTION('',(0.,0.,1.));
#598 = PLANE('',#599);
#599 = AXIS2_PLACEMENT_3D('',#600,#601,#602);
#600 = CARTESIAN_POINT('',(52.754632931554,17.830008063002,16.));
#601 = DIRECTION('',(-0.422618261741,0.906307787037,0.));
#602 = DIRECTION('',(0.,0.,1.));
#603 = ADVANCED_FACE('',(#604),#679,.T.);
#604 = FACE_BOUND('',#605,.T.);
#605 = EDGE_LOOP('',(#606,#616,#624,#630,#631,#632,#640,#648,#654,#655,
    #656,#657,#665,#673));
#606 = ORIENTED_EDGE('',*,*,#607,.F.);
#607 = EDGE_CURVE('',#608,#610,#612,.T.);
#608 = VERTEX_POINT('',#609);
#609 = CARTESIAN_POINT('',(60.582831940049,34.169203278293,16.));
#610 = VERTEX_POINT('',#611);
#611 = CARTESIAN_POINT('',(59.676524153013,33.746585016553,16.));
#612 = LINE('',#613,#614);
#613 = CARTESIAN_POINT('',(53.785523537274,30.999566315238,16.));
#614 = VECTOR('',#615,1.);
#615 = DIRECTION('',(-0.906307787037,-0.422618261741,0.));
#616 = ORIENTED_EDGE('',*,*,#617,.T.);
#617 = EDGE_CURVE('',#608,#618,#620,.T.);
#618 = VERTEX_POINT('',#619);
#619 = CARTESIAN_POINT('',(60.371522809179,34.622357171812,16.));
#620 = LINE('',#621,#622);
#621 = CARTESIAN_POINT('',(65.442941950067,23.746663727372,16.));
#622 = VECTOR('',#623,1.);
#623 = DIRECTION('',(-0.422618261741,0.906307787037,0.));
#624 = ORIENTED_EDGE('',*,*,#625,.F.);
#625 = EDGE_CURVE('',#342,#618,#626,.T.);
#626 = LINE('',#627,#628);
#627 = CARTESIAN_POINT('',(47.683213790666,28.705701507442,16.));
#628 = VECTOR('',#629,1.);
#629 = DIRECTION('',(0.906307787037,0.422618261741,0.));
#630 = ORIENTED_EDGE('',*,*,#349,.F.);
#631 = ORIENTED_EDGE('',*,*,#366,.F.);
#632 = ORIENTED_EDGE('',*,*,#633,.F.);
#633 = EDGE_CURVE('',#634,#367,#636,.T.);
#634 = VERTEX_POINT('',#635);
#635 = CARTESIAN_POINT('',(47.683213790666,28.705701507442,16.));
#636 = LINE('',#637,#638);
#637 = CARTESIAN_POINT('',(47.683213790666,28.705701507442,16.));
#638 = VECTOR('',#639,1.);
#639 = DIRECTION('',(0.906307787037,0.422618261741,0.));
#640 = ORIENTED_EDGE('',*,*,#641,.F.);
#641 = EDGE_CURVE('',#642,#634,#644,.T.);
#642 = VERTEX_POINT('',#643);
#643 = CARTESIAN_POINT('',(52.754632931554,17.830008063002,16.));
#644 = LINE('',#645,#646);
#645 = CARTESIAN_POINT('',(52.754632931554,17.830008063002,16.));
#646 = VECTOR('',#647,1.);
#647 = DIRECTION('',(-0.422618261741,0.906307787037,0.));
#648 = ORIENTED_EDGE('',*,*,#649,.T.);
#649 = EDGE_CURVE('',#642,#266,#650,.T.);
#650 = LINE('',#651,#652);
#651 = CARTESIAN_POINT('',(52.754632931554,17.830008063002,16.));
#652 = VECTOR('',#653,1.);
#653 = DIRECTION('',(0.906307787037,0.422618261741,0.));
#654 = ORIENTED_EDGE('',*,*,#273,.F.);
#655 = ORIENTED_EDGE('',*,*,#290,.F.);
#656 = ORIENTED_EDGE('',*,*,#583,.T.);
#657 = ORIENTED_EDGE('',*,*,#658,.T.);
#658 = EDGE_CURVE('',#584,#659,#661,.T.);
#659 = VERTEX_POINT('',#660);
#660 = CARTESIAN_POINT('',(65.231632819197,24.19981762089,16.));
#661 = LINE('',#662,#663);
#662 = CARTESIAN_POINT('',(65.442941950067,23.746663727372,16.));
#663 = VECTOR('',#664,1.);
#664 = DIRECTION('',(-0.422618261741,0.906307787037,0.));
#665 = ORIENTED_EDGE('',*,*,#666,.T.);
#666 = EDGE_CURVE('',#659,#667,#669,.T.);
#667 = VERTEX_POINT('',#668);
#668 = CARTESIAN_POINT('',(64.32532503216,23.77719935915,16.));
#669 = LINE('',#670,#671);
#670 = CARTESIAN_POINT('',(58.434324416422,21.030180657835,16.));
#671 = VECTOR('',#672,1.);
#672 = DIRECTION('',(-0.906307787037,-0.422618261741,0.));
#673 = ORIENTED_EDGE('',*,*,#674,.T.);
#674 = EDGE_CURVE('',#667,#610,#675,.T.);
#675 = LINE('',#676,#677);
#676 = CARTESIAN_POINT('',(64.430979597595,23.55062241239,16.));
#677 = VECTOR('',#678,1.);
#678 = DIRECTION('',(-0.422618261741,0.906307787037,0.));
#679 = PLANE('',#680);
#680 = AXIS2_PLACEMENT_3D('',#681,#682,#683);
#681 = CARTESIAN_POINT('',(52.754632931554,17.830008063002,16.));
#682 = DIRECTION('',(0.,0.,1.));
#683 = DIRECTION('',(0.906307787037,0.422618261741,0.));
#684 = ADVANCED_FACE('',(#685),#696,.T.);
#685 = FACE_BOUND('',#686,.T.);
#686 = EDGE_LOOP('',(#687,#688,#694,#695));
#687 = ORIENTED_EDGE('',*,*,#649,.F.);
#688 = ORIENTED_EDGE('',*,*,#689,.T.);
#689 = EDGE_CURVE('',#642,#530,#690,.T.);
#690 = LINE('',#691,#692);
#691 = CARTESIAN_POINT('',(52.754632931554,17.830008063002,16.));
#692 = VECTOR('',#693,1.);
#693 = DIRECTION('',(0.,0.,1.));
#694 = ORIENTED_EDGE('',*,*,#537,.T.);
#695 = ORIENTED_EDGE('',*,*,#265,.F.);
#696 = PLANE('',#697);
#697 = AXIS2_PLACEMENT_3D('',#698,#699,#700);
#698 = CARTESIAN_POINT('',(52.754632931554,17.830008063002,16.));
#699 = DIRECTION('',(-0.422618261741,0.906307787037,0.));
#700 = DIRECTION('',(0.,0.,1.));
#701 = ADVANCED_FACE('',(#702),#713,.F.);
#702 = FACE_BOUND('',#703,.F.);
#703 = EDGE_LOOP('',(#704,#705,#711,#712));
#704 = ORIENTED_EDGE('',*,*,#633,.F.);
#705 = ORIENTED_EDGE('',*,*,#706,.T.);
#706 = EDGE_CURVE('',#634,#522,#707,.T.);
#707 = LINE('',#708,#709);
#708 = CARTESIAN_POINT('',(47.683213790666,28.705701507442,16.));
#709 = VECTOR('',#710,1.);
#710 = DIRECTION('',(0.,0.,1.));
#711 = ORIENTED_EDGE('',*,*,#521,.T.);
#712 = ORIENTED_EDGE('',*,*,#375,.F.);
#713 = PLANE('',#714);
#714 = AXIS2_PLACEMENT_3D('',#715,#716,#717);
#715 = CARTESIAN_POINT('',(47.683213790666,28.705701507442,16.));
#716 = DIRECTION('',(-0.422618261741,0.906307787037,0.));
#717 = DIRECTION('',(0.,0.,1.));
#718 = ADVANCED_FACE('',(#719),#730,.F.);
#719 = FACE_BOUND('',#720,.F.);
#720 = EDGE_LOOP('',(#721,#722,#723,#724));
#721 = ORIENTED_EDGE('',*,*,#625,.F.);
#722 = ORIENTED_EDGE('',*,*,#341,.T.);
#723 = ORIENTED_EDGE('',*,*,#513,.T.);
#724 = ORIENTED_EDGE('',*,*,#725,.F.);
#725 = EDGE_CURVE('',#618,#506,#726,.T.);
#726 = LINE('',#727,#728);
#727 = CARTESIAN_POINT('',(60.371522809179,34.622357171812,16.));
#728 = VECTOR('',#729,1.);
#729 = DIRECTION('',(0.,0.,1.));
#730 = PLANE('',#731);
#731 = AXIS2_PLACEMENT_3D('',#732,#733,#734);
#732 = CARTESIAN_POINT('',(47.683213790666,28.705701507442,16.));
#733 = DIRECTION('',(-0.422618261741,0.906307787037,0.));
#734 = DIRECTION('',(0.,0.,1.));
#735 = ADVANCED_FACE('',(#736,#742),#776,.T.);
#736 = FACE_BOUND('',#737,.T.);
#737 = EDGE_LOOP('',(#738,#739,#740,#741));
#738 = ORIENTED_EDGE('',*,*,#479,.F.);
#739 = ORIENTED_EDGE('',*,*,#407,.T.);
#740 = ORIENTED_EDGE('',*,*,#431,.T.);
#741 = ORIENTED_EDGE('',*,*,#455,.F.);
#742 = FACE_BOUND('',#743,.T.);
#743 = EDGE_LOOP('',(#744,#754,#762,#770));
#744 = ORIENTED_EDGE('',*,*,#745,.F.);
#745 = EDGE_CURVE('',#746,#748,#750,.T.);
#746 = VERTEX_POINT('',#747);
#747 = CARTESIAN_POINT('',(69.853802533084,26.355170755768,14.5));
#748 = VERTEX_POINT('',#749);
#749 = CARTESIAN_POINT('',(65.205001653936,36.324556413171,14.5));
#750 = LINE('',#751,#752);
#751 = CARTESIAN_POINT('',(70.170766229389,25.67543991549,14.5));
#752 = VECTOR('',#753,1.);
#753 = DIRECTION('',(-0.422618261741,0.906307787037,0.));
#754 = ORIENTED_EDGE('',*,*,#755,.F.);
#755 = EDGE_CURVE('',#756,#746,#758,.T.);
#756 = VERTEX_POINT('',#757);
#757 = CARTESIAN_POINT('',(69.853802533084,26.355170755768,21.5));
#758 = LINE('',#759,#760);
#759 = CARTESIAN_POINT('',(69.853802533084,26.355170755768,14.));
#760 = VECTOR('',#761,1.);
#761 = DIRECTION('',(-0.,0.,-1.));
#762 = ORIENTED_EDGE('',*,*,#763,.T.);
#763 = EDGE_CURVE('',#756,#764,#766,.T.);
#764 = VERTEX_POINT('',#765);
#765 = CARTESIAN_POINT('',(65.205001653936,36.324556413171,21.5));
#766 = LINE('',#767,#768);
#767 = CARTESIAN_POINT('',(70.170766229389,25.67543991549,21.5));
#768 = VECTOR('',#769,1.);
#769 = DIRECTION('',(-0.422618261741,0.906307787037,0.));
#770 = ORIENTED_EDGE('',*,*,#771,.T.);
#771 = EDGE_CURVE('',#764,#748,#772,.T.);
#772 = LINE('',#773,#774);
#773 = CARTESIAN_POINT('',(65.205001653936,36.324556413171,14.));
#774 = VECTOR('',#775,1.);
#775 = DIRECTION('',(-0.,0.,-1.));
#776 = PLANE('',#777);
#777 = AXIS2_PLACEMENT_3D('',#778,#779,#780);
#778 = CARTESIAN_POINT('',(70.487729925695,24.995709075213,13.5));
#779 = DIRECTION('',(0.906307787037,0.422618261741,0.));
#780 = DIRECTION('',(0.,0.,1.));
#781 = ADVANCED_FACE('',(#782),#821,.F.);
#782 = FACE_BOUND('',#783,.F.);
#783 = EDGE_LOOP('',(#784,#792,#798,#799,#805,#806,#814,#820));
#784 = ORIENTED_EDGE('',*,*,#785,.F.);
#785 = EDGE_CURVE('',#786,#748,#788,.T.);
#786 = VERTEX_POINT('',#787);
#787 = CARTESIAN_POINT('',(59.676524153013,33.746585016553,14.5));
#788 = LINE('',#789,#790);
#789 = CARTESIAN_POINT('',(59.676524153013,33.746585016553,14.5));
#790 = VECTOR('',#791,1.);
#791 = DIRECTION('',(0.906307787037,0.422618261741,0.));
#792 = ORIENTED_EDGE('',*,*,#793,.T.);
#793 = EDGE_CURVE('',#786,#610,#794,.T.);
#794 = LINE('',#795,#796);
#795 = CARTESIAN_POINT('',(59.676524153013,33.746585016553,14.5));
#796 = VECTOR('',#797,1.);
#797 = DIRECTION('',(0.,0.,1.));
#798 = ORIENTED_EDGE('',*,*,#607,.F.);
#799 = ORIENTED_EDGE('',*,*,#800,.T.);
#800 = EDGE_CURVE('',#608,#496,#801,.T.);
#801 = LINE('',#802,#803);
#802 = CARTESIAN_POINT('',(60.582831940049,34.169203278293,15.25));
#803 = VECTOR('',#804,1.);
#804 = DIRECTION('',(0.,0.,1.));
#805 = ORIENTED_EDGE('',*,*,#495,.T.);
#806 = ORIENTED_EDGE('',*,*,#807,.T.);
#807 = EDGE_CURVE('',#498,#808,#810,.T.);
#808 = VERTEX_POINT('',#809);
#809 = CARTESIAN_POINT('',(59.676524153013,33.746585016553,21.5));
#810 = LINE('',#811,#812);
#811 = CARTESIAN_POINT('',(59.676524153013,33.746585016553,14.5));
#812 = VECTOR('',#813,1.);
#813 = DIRECTION('',(0.,0.,1.));
#814 = ORIENTED_EDGE('',*,*,#815,.T.);
#815 = EDGE_CURVE('',#808,#764,#816,.T.);
#816 = LINE('',#817,#818);
#817 = CARTESIAN_POINT('',(59.676524153013,33.746585016553,21.5));
#818 = VECTOR('',#819,1.);
#819 = DIRECTION('',(0.906307787037,0.422618261741,0.));
#820 = ORIENTED_EDGE('',*,*,#771,.T.);
#821 = PLANE('',#822);
#822 = AXIS2_PLACEMENT_3D('',#823,#824,#825);
#823 = CARTESIAN_POINT('',(59.676524153013,33.746585016553,14.5));
#824 = DIRECTION('',(-0.422618261741,0.906307787037,0.));
#825 = DIRECTION('',(0.,0.,1.));
#826 = ADVANCED_FACE('',(#827),#845,.T.);
#827 = FACE_BOUND('',#828,.T.);
#828 = EDGE_LOOP('',(#829,#837,#838,#839));
#829 = ORIENTED_EDGE('',*,*,#830,.F.);
#830 = EDGE_CURVE('',#562,#831,#833,.T.);
#831 = VERTEX_POINT('',#832);
#832 = CARTESIAN_POINT('',(64.32532503216,23.77719935915,21.5));
#833 = LINE('',#834,#835);
#834 = CARTESIAN_POINT('',(64.32532503216,23.77719935915,14.5));
#835 = VECTOR('',#836,1.);
#836 = DIRECTION('',(0.,0.,1.));
#837 = ORIENTED_EDGE('',*,*,#569,.T.);
#838 = ORIENTED_EDGE('',*,*,#807,.T.);
#839 = ORIENTED_EDGE('',*,*,#840,.F.);
#840 = EDGE_CURVE('',#831,#808,#841,.T.);
#841 = LINE('',#842,#843);
#842 = CARTESIAN_POINT('',(64.32532503216,23.77719935915,21.5));
#843 = VECTOR('',#844,1.);
#844 = DIRECTION('',(-0.422618261741,0.906307787037,0.));
#845 = PLANE('',#846);
#846 = AXIS2_PLACEMENT_3D('',#847,#848,#849);
#847 = CARTESIAN_POINT('',(64.32532503216,23.77719935915,14.5));
#848 = DIRECTION('',(0.906307787037,0.422618261741,0.));
#849 = DIRECTION('',(0.,0.,1.));
#850 = ADVANCED_FACE('',(#851),#883,.T.);
#851 = FACE_BOUND('',#852,.T.);
#852 = EDGE_LOOP('',(#853,#861,#867,#868,#874,#875,#876,#882));
#853 = ORIENTED_EDGE('',*,*,#854,.F.);
#854 = EDGE_CURVE('',#855,#746,#857,.T.);
#855 = VERTEX_POINT('',#856);
#856 = CARTESIAN_POINT('',(64.32532503216,23.77719935915,14.5));
#857 = LINE('',#858,#859);
#858 = CARTESIAN_POINT('',(64.32532503216,23.77719935915,14.5));
#859 = VECTOR('',#860,1.);
#860 = DIRECTION('',(0.906307787037,0.422618261741,0.));
#861 = ORIENTED_EDGE('',*,*,#862,.T.);
#862 = EDGE_CURVE('',#855,#667,#863,.T.);
#863 = LINE('',#864,#865);
#864 = CARTESIAN_POINT('',(64.32532503216,23.77719935915,14.5));
#865 = VECTOR('',#866,1.);
#866 = DIRECTION('',(0.,0.,1.));
#867 = ORIENTED_EDGE('',*,*,#666,.F.);
#868 = ORIENTED_EDGE('',*,*,#869,.T.);
#869 = EDGE_CURVE('',#659,#554,#870,.T.);
#870 = LINE('',#871,#872);
#871 = CARTESIAN_POINT('',(65.231632819197,24.19981762089,15.25));
#872 = VECTOR('',#873,1.);
#873 = DIRECTION('',(0.,0.,1.));
#874 = ORIENTED_EDGE('',*,*,#561,.T.);
#875 = ORIENTED_EDGE('',*,*,#830,.T.);
#876 = ORIENTED_EDGE('',*,*,#877,.T.);
#877 = EDGE_CURVE('',#831,#756,#878,.T.);
#878 = LINE('',#879,#880);
#879 = CARTESIAN_POINT('',(64.32532503216,23.77719935915,21.5));
#880 = VECTOR('',#881,1.);
#881 = DIRECTION('',(0.906307787037,0.422618261741,0.));
#882 = ORIENTED_EDGE('',*,*,#755,.T.);
#883 = PLANE('',#884);
#884 = AXIS2_PLACEMENT_3D('',#885,#886,#887);
#885 = CARTESIAN_POINT('',(64.32532503216,23.77719935915,14.5));
#886 = DIRECTION('',(-0.422618261741,0.906307787037,0.));
#887 = DIRECTION('',(0.,0.,1.));
#888 = ADVANCED_FACE('',(#889),#895,.F.);
#889 = FACE_BOUND('',#890,.F.);
#890 = EDGE_LOOP('',(#891,#892,#893,#894));
#891 = ORIENTED_EDGE('',*,*,#553,.F.);
#892 = ORIENTED_EDGE('',*,*,#593,.F.);
#893 = ORIENTED_EDGE('',*,*,#658,.T.);
#894 = ORIENTED_EDGE('',*,*,#869,.T.);
#895 = PLANE('',#896);
#896 = AXIS2_PLACEMENT_3D('',#897,#898,#899);
#897 = CARTESIAN_POINT('',(65.442941950067,23.746663727372,16.));
#898 = DIRECTION('',(0.906307787037,0.422618261741,0.));
#899 = DIRECTION('',(0.,0.,1.));
#900 = ADVANCED_FACE('',(#901),#907,.T.);
#901 = FACE_BOUND('',#902,.T.);
#902 = EDGE_LOOP('',(#903,#904,#905,#906));
#903 = ORIENTED_EDGE('',*,*,#689,.F.);
#904 = ORIENTED_EDGE('',*,*,#641,.T.);
#905 = ORIENTED_EDGE('',*,*,#706,.T.);
#906 = ORIENTED_EDGE('',*,*,#529,.F.);
#907 = PLANE('',#908);
#908 = AXIS2_PLACEMENT_3D('',#909,#910,#911);
#909 = CARTESIAN_POINT('',(52.754632931554,17.830008063002,16.));
#910 = DIRECTION('',(0.906307787037,0.422618261741,0.));
#911 = DIRECTION('',(0.,0.,1.));
#912 = ADVANCED_FACE('',(#913),#919,.F.);
#913 = FACE_BOUND('',#914,.F.);
#914 = EDGE_LOOP('',(#915,#916,#917,#918));
#915 = ORIENTED_EDGE('',*,*,#505,.F.);
#916 = ORIENTED_EDGE('',*,*,#800,.F.);
#917 = ORIENTED_EDGE('',*,*,#617,.T.);
#918 = ORIENTED_EDGE('',*,*,#725,.T.);
#919 = PLANE('',#920);
#920 = AXIS2_PLACEMENT_3D('',#921,#922,#923);
#921 = CARTESIAN_POINT('',(65.442941950067,23.746663727372,16.));
#922 = DIRECTION('',(0.906307787037,0.422618261741,0.));
#923 = DIRECTION('',(0.,0.,1.));
#924 = ADVANCED_FACE('',(#925),#936,.T.);
#925 = FACE_BOUND('',#926,.T.);
#926 = EDGE_LOOP('',(#927,#928,#934,#935));
#927 = ORIENTED_EDGE('',*,*,#862,.F.);
#928 = ORIENTED_EDGE('',*,*,#929,.T.);
#929 = EDGE_CURVE('',#855,#786,#930,.T.);
#930 = LINE('',#931,#932);
#931 = CARTESIAN_POINT('',(64.32532503216,23.77719935915,14.5));
#932 = VECTOR('',#933,1.);
#933 = DIRECTION('',(-0.422618261741,0.906307787037,0.));
#934 = ORIENTED_EDGE('',*,*,#793,.T.);
#935 = ORIENTED_EDGE('',*,*,#674,.F.);
#936 = PLANE('',#937);
#937 = AXIS2_PLACEMENT_3D('',#938,#939,#940);
#938 = CARTESIAN_POINT('',(64.32532503216,23.77719935915,14.5));
#939 = DIRECTION('',(0.906307787037,0.422618261741,0.));
#940 = DIRECTION('',(0.,0.,1.));
#941 = ADVANCED_FACE('',(#942),#948,.T.);
#942 = FACE_BOUND('',#943,.T.);
#943 = EDGE_LOOP('',(#944,#945,#946,#947));
#944 = ORIENTED_EDGE('',*,*,#785,.F.);
#945 = ORIENTED_EDGE('',*,*,#929,.F.);
#946 = ORIENTED_EDGE('',*,*,#854,.T.);
#947 = ORIENTED_EDGE('',*,*,#745,.T.);
#948 = PLANE('',#949);
#949 = AXIS2_PLACEMENT_3D('',#950,#951,#952);
#950 = CARTESIAN_POINT('',(64.32532503216,23.77719935915,14.5));
#951 = DIRECTION('',(0.,0.,1.));
#952 = DIRECTION('',(0.906307787037,0.422618261741,0.));
#953 = ADVANCED_FACE('',(#954),#960,.F.);
#954 = FACE_BOUND('',#955,.F.);
#955 = EDGE_LOOP('',(#956,#957,#958,#959));
#956 = ORIENTED_EDGE('',*,*,#815,.F.);
#957 = ORIENTED_EDGE('',*,*,#840,.F.);
#958 = ORIENTED_EDGE('',*,*,#877,.T.);
#959 = ORIENTED_EDGE('',*,*,#763,.T.);
#960 = PLANE('',#961);
#961 = AXIS2_PLACEMENT_3D('',#962,#963,#964);
#962 = CARTESIAN_POINT('',(64.32532503216,23.77719935915,21.5));
#963 = DIRECTION('',(0.,0.,1.));
#964 = DIRECTION('',(0.906307787037,0.422618261741,0.));
#965 = ( GEOMETRIC_REPRESENTATION_CONTEXT(3) 
GLOBAL_UNCERTAINTY_ASSIGNED_CONTEXT((#969)) GLOBAL_UNIT_ASSIGNED_CONTEXT
((#966,#967,#968)) REPRESENTATION_CONTEXT('Context #1',
  '3D Context with UNIT and UNCERTAINTY') );
#966 = ( LENGTH_UNIT() NAMED_UNIT(*) SI_UNIT(.MILLI.,.METRE.) );
#967 = ( NAMED_UNIT(*) PLANE_ANGLE_UNIT() SI_UNIT($,.RADIAN.) );
#968 = ( NAMED_UNIT(*) SI_UNIT($,.STERADIAN.) SOLID_ANGLE_UNIT() );
#969 = UNCERTAINTY_MEASURE_WITH_UNIT(LENGTH_MEASURE(1.E-07),#966,
  'distance_accuracy_value','confusion accuracy');
#970 = PRODUCT_RELATED_PRODUCT_CATEGORY('part',$,(#7));
ENDSEC;
END-ISO-10303-21;
