solid 
 facet normal -1.000000e+00  0.000000e+00  0.000000e+00
   outer loop
     vertex -3.700000e+01 -1.160000e+01  7.400000e+00
     vertex -3.700000e+01 -8.400000e+00  6.000000e+00
     vertex -3.700000e+01 -1.160000e+01  6.000000e+00
   endloop
 endfacet
 facet normal -1.000000e+00  0.000000e+00  0.000000e+00
   outer loop
     vertex -3.700000e+01 -1.160000e+01  7.400000e+00
     vertex -3.700000e+01 -8.400000e+00  7.400000e+00
     vertex -3.700000e+01 -8.400000e+00  6.000000e+00
   endloop
 endfacet
 facet normal  1.000000e+00  0.000000e+00  0.000000e+00
   outer loop
     vertex -2.700000e+01 -1.160000e+01  7.400000e+00
     vertex -2.700000e+01 -1.160000e+01  6.000000e+00
     vertex -2.700000e+01 -8.400000e+00  6.000000e+00
   endloop
 endfacet
 facet normal  1.000000e+00 -0.000000e+00  0.000000e+00
   outer loop
     vertex -2.700000e+01 -1.160000e+01  7.400000e+00
     vertex -2.700000e+01 -8.400000e+00  6.000000e+00
     vertex -2.700000e+01 -8.400000e+00  7.400000e+00
   endloop
 endfacet
 facet normal  0.000000e+00 -1.000000e+00 -0.000000e+00
   outer loop
     vertex -2.700000e+01 -1.160000e+01  7.400000e+00
     vertex -3.700000e+01 -1.160000e+01  6.000000e+00
     vertex -2.700000e+01 -1.160000e+01  6.000000e+00
   endloop
 endfacet
 facet normal -0.000000e+00 -1.000000e+00  0.000000e+00
   outer loop
     vertex -2.700000e+01 -1.160000e+01  7.400000e+00
     vertex -3.700000e+01 -1.160000e+01  7.400000e+00
     vertex -3.700000e+01 -1.160000e+01  6.000000e+00
   endloop
 endfacet
 facet normal  0.000000e+00  1.000000e+00  0.000000e+00
   outer loop
     vertex -2.700000e+01 -8.400000e+00  7.400000e+00
     vertex -2.700000e+01 -8.400000e+00  6.000000e+00
     vertex -3.700000e+01 -8.400000e+00  6.000000e+00
   endloop
 endfacet
 facet normal  0.000000e+00  1.000000e+00  0.000000e+00
   outer loop
     vertex -2.700000e+01 -8.400000e+00  7.400000e+00
     vertex -3.700000e+01 -8.400000e+00  6.000000e+00
     vertex -3.700000e+01 -8.400000e+00  7.400000e+00
   endloop
 endfacet
 facet normal -0.000000e+00  0.000000e+00 -1.000000e+00
   outer loop
     vertex -2.700000e+01 -8.400000e+00  6.000000e+00
     vertex -3.700000e+01 -1.160000e+01  6.000000e+00
     vertex -3.700000e+01 -8.400000e+00  6.000000e+00
   endloop
 endfacet
 facet normal  0.000000e+00 -0.000000e+00 -1.000000e+00
   outer loop
     vertex -2.700000e+01 -8.400000e+00  6.000000e+00
     vertex -2.700000e+01 -1.160000e+01  6.000000e+00
     vertex -3.700000e+01 -1.160000e+01  6.000000e+00
   endloop
 endfacet
 facet normal  0.000000e+00  0.000000e+00  1.000000e+00
   outer loop
     vertex -2.700000e+01 -8.400000e+00  7.400000e+00
     vertex -3.700000e+01 -8.400000e+00  7.400000e+00
     vertex -3.700000e+01 -1.160000e+01  7.400000e+00
   endloop
 endfacet
 facet normal  0.000000e+00  0.000000e+00  1.000000e+00
   outer loop
     vertex -2.700000e+01 -8.400000e+00  7.400000e+00
     vertex -3.700000e+01 -1.160000e+01  7.400000e+00
     vertex -2.700000e+01 -1.160000e+01  7.400000e+00
   endloop
 endfacet
 facet normal -1.000000e+00  0.000000e+00  0.000000e+00
   outer loop
     vertex -3.700000e+01 -5.600000e+00  7.400000e+00
     vertex -3.700000e+01 -2.400000e+00  6.000000e+00
     vertex -3.700000e+01 -5.600000e+00  6.000000e+00
   endloop
 endfacet
 facet normal -1.000000e+00  0.000000e+00  0.000000e+00
   outer loop
     vertex -3.700000e+01 -5.600000e+00  7.400000e+00
     vertex -3.700000e+01 -2.400000e+00  7.400000e+00
     vertex -3.700000e+01 -2.400000e+00  6.000000e+00
   endloop
 endfacet
 facet normal  1.000000e+00  0.000000e+00  0.000000e+00
   outer loop
     vertex -2.700000e+01 -5.600000e+00  7.400000e+00
     vertex -2.700000e+01 -5.600000e+00  6.000000e+00
     vertex -2.700000e+01 -2.400000e+00  6.000000e+00
   endloop
 endfacet
 facet normal  1.000000e+00 -0.000000e+00  0.000000e+00
   outer loop
     vertex -2.700000e+01 -5.600000e+00  7.400000e+00
     vertex -2.700000e+01 -2.400000e+00  6.000000e+00
     vertex -2.700000e+01 -2.400000e+00  7.400000e+00
   endloop
 endfacet
 facet normal  0.000000e+00 -1.000000e+00 -0.000000e+00
   outer loop
     vertex -2.700000e+01 -5.600000e+00  7.400000e+00
     vertex -3.700000e+01 -5.600000e+00  6.000000e+00
     vertex -2.700000e+01 -5.600000e+00  6.000000e+00
   endloop
 endfacet
 facet normal -0.000000e+00 -1.000000e+00  0.000000e+00
   outer loop
     vertex -2.700000e+01 -5.600000e+00  7.400000e+00
     vertex -3.700000e+01 -5.600000e+00  7.400000e+00
     vertex -3.700000e+01 -5.600000e+00  6.000000e+00
   endloop
 endfacet
 facet normal  0.000000e+00  1.000000e+00  0.000000e+00
   outer loop
     vertex -2.700000e+01 -2.400000e+00  7.400000e+00
     vertex -2.700000e+01 -2.400000e+00  6.000000e+00
     vertex -3.700000e+01 -2.400000e+00  6.000000e+00
   endloop
 endfacet
 facet normal  0.000000e+00  1.000000e+00  0.000000e+00
   outer loop
     vertex -2.700000e+01 -2.400000e+00  7.400000e+00
     vertex -3.700000e+01 -2.400000e+00  6.000000e+00
     vertex -3.700000e+01 -2.400000e+00  7.400000e+00
   endloop
 endfacet
 facet normal -0.000000e+00  0.000000e+00 -1.000000e+00
   outer loop
     vertex -2.700000e+01 -2.400000e+00  6.000000e+00
     vertex -3.700000e+01 -5.600000e+00  6.000000e+00
     vertex -3.700000e+01 -2.400000e+00  6.000000e+00
   endloop
 endfacet
 facet normal  0.000000e+00 -0.000000e+00 -1.000000e+00
   outer loop
     vertex -2.700000e+01 -2.400000e+00  6.000000e+00
     vertex -2.700000e+01 -5.600000e+00  6.000000e+00
     vertex -3.700000e+01 -5.600000e+00  6.000000e+00
   endloop
 endfacet
 facet normal  0.000000e+00  0.000000e+00  1.000000e+00
   outer loop
     vertex -2.700000e+01 -2.400000e+00  7.400000e+00
     vertex -3.700000e+01 -2.400000e+00  7.400000e+00
     vertex -3.700000e+01 -5.600000e+00  7.400000e+00
   endloop
 endfacet
 facet normal  0.000000e+00  0.000000e+00  1.000000e+00
   outer loop
     vertex -2.700000e+01 -2.400000e+00  7.400000e+00
     vertex -3.700000e+01 -5.600000e+00  7.400000e+00
     vertex -2.700000e+01 -5.600000e+00  7.400000e+00
   endloop
 endfacet
 facet normal -1.000000e+00  0.000000e+00  0.000000e+00
   outer loop
     vertex -3.700000e+01  2.400000e+00  7.400000e+00
     vertex -3.700000e+01  5.600000e+00  6.000000e+00
     vertex -3.700000e+01  2.400000e+00  6.000000e+00
   endloop
 endfacet
 facet normal -1.000000e+00  0.000000e+00  0.000000e+00
   outer loop
     vertex -3.700000e+01  2.400000e+00  7.400000e+00
     vertex -3.700000e+01  5.600000e+00  7.400000e+00
     vertex -3.700000e+01  5.600000e+00  6.000000e+00
   endloop
 endfacet
 facet normal  1.000000e+00  0.000000e+00  0.000000e+00
   outer loop
     vertex -2.700000e+01  2.400000e+00  7.400000e+00
     vertex -2.700000e+01  2.400000e+00  6.000000e+00
     vertex -2.700000e+01  5.600000e+00  6.000000e+00
   endloop
 endfacet
 facet normal  1.000000e+00 -0.000000e+00  0.000000e+00
   outer loop
     vertex -2.700000e+01  2.400000e+00  7.400000e+00
     vertex -2.700000e+01  5.600000e+00  6.000000e+00
     vertex -2.700000e+01  5.600000e+00  7.400000e+00
   endloop
 endfacet
 facet normal  0.000000e+00 -1.000000e+00 -0.000000e+00
   outer loop
     vertex -2.700000e+01  2.400000e+00  7.400000e+00
     vertex -3.700000e+01  2.400000e+00  6.000000e+00
     vertex -2.700000e+01  2.400000e+00  6.000000e+00
   endloop
 endfacet
 facet normal -0.000000e+00 -1.000000e+00  0.000000e+00
   outer loop
     vertex -2.700000e+01  2.400000e+00  7.400000e+00
     vertex -3.700000e+01  2.400000e+00  7.400000e+00
     vertex -3.700000e+01  2.400000e+00  6.000000e+00
   endloop
 endfacet
 facet normal  0.000000e+00  1.000000e+00  0.000000e+00
   outer loop
     vertex -2.700000e+01  5.600000e+00  7.400000e+00
     vertex -2.700000e+01  5.600000e+00  6.000000e+00
     vertex -3.700000e+01  5.600000e+00  6.000000e+00
   endloop
 endfacet
 facet normal  0.000000e+00  1.000000e+00  0.000000e+00
   outer loop
     vertex -2.700000e+01  5.600000e+00  7.400000e+00
     vertex -3.700000e+01  5.600000e+00  6.000000e+00
     vertex -3.700000e+01  5.600000e+00  7.400000e+00
   endloop
 endfacet
 facet normal -0.000000e+00  0.000000e+00 -1.000000e+00
   outer loop
     vertex -2.700000e+01  5.600000e+00  6.000000e+00
     vertex -3.700000e+01  2.400000e+00  6.000000e+00
     vertex -3.700000e+01  5.600000e+00  6.000000e+00
   endloop
 endfacet
 facet normal  0.000000e+00 -0.000000e+00 -1.000000e+00
   outer loop
     vertex -2.700000e+01  5.600000e+00  6.000000e+00
     vertex -2.700000e+01  2.400000e+00  6.000000e+00
     vertex -3.700000e+01  2.400000e+00  6.000000e+00
   endloop
 endfacet
 facet normal  0.000000e+00  0.000000e+00  1.000000e+00
   outer loop
     vertex -2.700000e+01  5.600000e+00  7.400000e+00
     vertex -3.700000e+01  5.600000e+00  7.400000e+00
     vertex -3.700000e+01  2.400000e+00  7.400000e+00
   endloop
 endfacet
 facet normal  0.000000e+00  0.000000e+00  1.000000e+00
   outer loop
     vertex -2.700000e+01  5.600000e+00  7.400000e+00
     vertex -3.700000e+01  2.400000e+00  7.400000e+00
     vertex -2.700000e+01  2.400000e+00  7.400000e+00
   endloop
 endfacet
 facet normal -1.000000e+00  0.000000e+00  0.000000e+00
   outer loop
     vertex -3.700000e+01  8.400000e+00  7.400000e+00
     vertex -3.700000e+01  1.160000e+01  6.000000e+00
     vertex -3.700000e+01  8.400000e+00  6.000000e+00
   endloop
 endfacet
 facet normal -1.000000e+00  0.000000e+00  0.000000e+00
   outer loop
     vertex -3.700000e+01  8.400000e+00  7.400000e+00
     vertex -3.700000e+01  1.160000e+01  7.400000e+00
     vertex -3.700000e+01  1.160000e+01  6.000000e+00
   endloop
 endfacet
 facet normal  1.000000e+00  0.000000e+00  0.000000e+00
   outer loop
     vertex -2.700000e+01  8.400000e+00  7.400000e+00
     vertex -2.700000e+01  8.400000e+00  6.000000e+00
     vertex -2.700000e+01  1.160000e+01  6.000000e+00
   endloop
 endfacet
 facet normal  1.000000e+00 -0.000000e+00  0.000000e+00
   outer loop
     vertex -2.700000e+01  8.400000e+00  7.400000e+00
     vertex -2.700000e+01  1.160000e+01  6.000000e+00
     vertex -2.700000e+01  1.160000e+01  7.400000e+00
   endloop
 endfacet
 facet normal  0.000000e+00 -1.000000e+00 -0.000000e+00
   outer loop
     vertex -2.700000e+01  8.400000e+00  7.400000e+00
     vertex -3.700000e+01  8.400000e+00  6.000000e+00
     vertex -2.700000e+01  8.400000e+00  6.000000e+00
   endloop
 endfacet
 facet normal -0.000000e+00 -1.000000e+00  0.000000e+00
   outer loop
     vertex -2.700000e+01  8.400000e+00  7.400000e+00
     vertex -3.700000e+01  8.400000e+00  7.400000e+00
     vertex -3.700000e+01  8.400000e+00  6.000000e+00
   endloop
 endfacet
 facet normal  0.000000e+00  1.000000e+00  0.000000e+00
   outer loop
     vertex -2.700000e+01  1.160000e+01  7.400000e+00
     vertex -2.700000e+01  1.160000e+01  6.000000e+00
     vertex -3.700000e+01  1.160000e+01  6.000000e+00
   endloop
 endfacet
 facet normal  0.000000e+00  1.000000e+00  0.000000e+00
   outer loop
     vertex -2.700000e+01  1.160000e+01  7.400000e+00
     vertex -3.700000e+01  1.160000e+01  6.000000e+00
     vertex -3.700000e+01  1.160000e+01  7.400000e+00
   endloop
 endfacet
 facet normal -0.000000e+00  0.000000e+00 -1.000000e+00
   outer loop
     vertex -2.700000e+01  1.160000e+01  6.000000e+00
     vertex -3.700000e+01  8.400000e+00  6.000000e+00
     vertex -3.700000e+01  1.160000e+01  6.000000e+00
   endloop
 endfacet
 facet normal  0.000000e+00 -0.000000e+00 -1.000000e+00
   outer loop
     vertex -2.700000e+01  1.160000e+01  6.000000e+00
     vertex -2.700000e+01  8.400000e+00  6.000000e+00
     vertex -3.700000e+01  8.400000e+00  6.000000e+00
   endloop
 endfacet
 facet normal  0.000000e+00  0.000000e+00  1.000000e+00
   outer loop
     vertex -2.700000e+01  1.160000e+01  7.400000e+00
     vertex -3.700000e+01  1.160000e+01  7.400000e+00
     vertex -3.700000e+01  8.400000e+00  7.400000e+00
   endloop
 endfacet
 facet normal  0.000000e+00  0.000000e+00  1.000000e+00
   outer loop
     vertex -2.700000e+01  1.160000e+01  7.400000e+00
     vertex -3.700000e+01  8.400000e+00  7.400000e+00
     vertex -2.700000e+01  8.400000e+00  7.400000e+00
   endloop
 endfacet
endsolid
