solid 
 facet normal -1.000000e+00  0.000000e+00  0.000000e+00
   outer loop
     vertex -3.300000e+01  1.575000e+01  1.200000e+00
     vertex -3.300000e+01  1.750000e+01  0.000000e+00
     vertex -3.300000e+01  1.575000e+01  0.000000e+00
   endloop
 endfacet
 facet normal -1.000000e+00  0.000000e+00  0.000000e+00
   outer loop
     vertex -3.300000e+01  1.750000e+01  9.000000e+00
     vertex -3.300000e+01  1.575000e+01  1.200000e+00
     vertex -3.300000e+01  1.425000e+01  1.200000e+00
   endloop
 endfacet
 facet normal -1.000000e+00  0.000000e+00 -0.000000e+00
   outer loop
     vertex -3.300000e+01  1.750000e+01  9.000000e+00
     vertex -3.300000e+01  1.750000e+01  0.000000e+00
     vertex -3.300000e+01  1.575000e+01  1.200000e+00
   endloop
 endfacet
 facet normal -1.000000e+00  0.000000e+00  0.000000e+00
   outer loop
     vertex -3.300000e+01  8.250000e+00  1.200000e+00
     vertex -3.300000e+01  1.425000e+01  0.000000e+00
     vertex -3.300000e+01  8.250000e+00  0.000000e+00
   endloop
 endfacet
 facet normal -1.000000e+00  0.000000e+00  0.000000e+00
   outer loop
     vertex -3.300000e+01  8.250000e+00  1.200000e+00
     vertex -3.300000e+01  1.425000e+01  1.200000e+00
     vertex -3.300000e+01  1.425000e+01  0.000000e+00
   endloop
 endfacet
 facet normal -1.000000e+00  0.000000e+00  0.000000e+00
   outer loop
     vertex -3.300000e+01  8.250000e+00  1.200000e+00
     vertex -3.300000e+01  1.750000e+01  9.000000e+00
     vertex -3.300000e+01  1.425000e+01  1.200000e+00
   endloop
 endfacet
 facet normal -1.000000e+00  0.000000e+00  0.000000e+00
   outer loop
     vertex -3.300000e+01  1.750000e+01  1.250000e+01
     vertex -3.300000e+01  8.250000e+00  1.200000e+00
     vertex -3.300000e+01  6.750000e+00  1.200000e+00
   endloop
 endfacet
 facet normal -1.000000e+00  0.000000e+00 -0.000000e+00
   outer loop
     vertex -3.300000e+01  1.750000e+01  1.250000e+01
     vertex -3.300000e+01  1.750000e+01  9.000000e+00
     vertex -3.300000e+01  8.250000e+00  1.200000e+00
   endloop
 endfacet
 facet normal -1.000000e+00  0.000000e+00 -0.000000e+00
   outer loop
     vertex -3.300000e+01  1.750000e+01  2.300000e+01
     vertex -3.300000e+01  1.750000e+01  1.250000e+01
     vertex -3.300000e+01  6.750000e+00  1.200000e+00
   endloop
 endfacet
 facet normal -1.000000e+00  0.000000e+00  0.000000e+00
   outer loop
     vertex -3.300000e+01 -6.750000e+00  1.200000e+00
     vertex -3.300000e+01  6.750000e+00  0.000000e+00
     vertex -3.300000e+01 -6.750000e+00  0.000000e+00
   endloop
 endfacet
 facet normal -1.000000e+00  0.000000e+00  0.000000e+00
   outer loop
     vertex -3.300000e+01 -6.750000e+00  1.200000e+00
     vertex -3.300000e+01  6.750000e+00  1.200000e+00
     vertex -3.300000e+01  6.750000e+00  0.000000e+00
   endloop
 endfacet
 facet normal -1.000000e+00  0.000000e+00  0.000000e+00
   outer loop
     vertex -3.300000e+01 -1.425000e+01  1.200000e+00
     vertex -3.300000e+01 -8.250000e+00  0.000000e+00
     vertex -3.300000e+01 -1.425000e+01  0.000000e+00
   endloop
 endfacet
 facet normal -1.000000e+00  0.000000e+00  0.000000e+00
   outer loop
     vertex -3.300000e+01 -1.425000e+01  1.200000e+00
     vertex -3.300000e+01 -8.250000e+00  1.200000e+00
     vertex -3.300000e+01 -8.250000e+00  0.000000e+00
   endloop
 endfacet
 facet normal -1.000000e+00  0.000000e+00  0.000000e+00
   outer loop
     vertex -3.300000e+01 -1.750000e+01  0.000000e+00
     vertex -3.300000e+01 -1.575000e+01  1.200000e+00
     vertex -3.300000e+01 -1.575000e+01  0.000000e+00
   endloop
 endfacet
 facet normal -1.000000e+00  0.000000e+00  0.000000e+00
   outer loop
     vertex -3.300000e+01 -1.750000e+01  9.000000e+00
     vertex -3.300000e+01 -1.425000e+01  1.200000e+00
     vertex -3.300000e+01 -1.575000e+01  1.200000e+00
   endloop
 endfacet
 facet normal -1.000000e+00  0.000000e+00  0.000000e+00
   outer loop
     vertex -3.300000e+01 -1.750000e+01  9.000000e+00
     vertex -3.300000e+01 -8.250000e+00  1.200000e+00
     vertex -3.300000e+01 -1.425000e+01  1.200000e+00
   endloop
 endfacet
 facet normal -1.000000e+00  0.000000e+00  0.000000e+00
   outer loop
     vertex -3.300000e+01 -1.750000e+01  9.000000e+00
     vertex -3.300000e+01 -1.575000e+01  1.200000e+00
     vertex -3.300000e+01 -1.750000e+01  0.000000e+00
   endloop
 endfacet
 facet normal -1.000000e+00  0.000000e+00  0.000000e+00
   outer loop
     vertex -3.300000e+01 -1.750000e+01  1.250000e+01
     vertex -3.300000e+01 -6.750000e+00  1.200000e+00
     vertex -3.300000e+01 -8.250000e+00  1.200000e+00
   endloop
 endfacet
 facet normal -1.000000e+00  0.000000e+00  0.000000e+00
   outer loop
     vertex -3.300000e+01 -1.750000e+01  1.250000e+01
     vertex -3.300000e+01 -8.250000e+00  1.200000e+00
     vertex -3.300000e+01 -1.750000e+01  9.000000e+00
   endloop
 endfacet
 facet normal -1.000000e+00  0.000000e+00  0.000000e+00
   outer loop
     vertex -3.300000e+01 -1.750000e+01  2.300000e+01
     vertex -3.300000e+01  6.750000e+00  1.200000e+00
     vertex -3.300000e+01 -6.750000e+00  1.200000e+00
   endloop
 endfacet
 facet normal -1.000000e+00  0.000000e+00  0.000000e+00
   outer loop
     vertex -3.300000e+01 -1.750000e+01  2.300000e+01
     vertex -3.300000e+01  1.750000e+01  2.300000e+01
     vertex -3.300000e+01  6.750000e+00  1.200000e+00
   endloop
 endfacet
 facet normal -1.000000e+00  0.000000e+00  0.000000e+00
   outer loop
     vertex -3.300000e+01 -1.750000e+01  2.300000e+01
     vertex -3.300000e+01 -6.750000e+00  1.200000e+00
     vertex -3.300000e+01 -1.750000e+01  1.250000e+01
   endloop
 endfacet
 facet normal  0.000000e+00  1.000000e+00  0.000000e+00
   outer loop
     vertex -2.075000e+01  1.750000e+01  1.200000e+00
     vertex -2.075000e+01  1.750000e+01  0.000000e+00
     vertex -3.300000e+01  1.750000e+01  0.000000e+00
   endloop
 endfacet
 facet normal  0.000000e+00  1.000000e+00  0.000000e+00
   outer loop
     vertex -2.075000e+01  1.750000e+01  1.200000e+00
     vertex -3.300000e+01  1.750000e+01  0.000000e+00
     vertex -3.300000e+01  1.750000e+01  9.000000e+00
   endloop
 endfacet
 facet normal  0.000000e+00  1.000000e+00  0.000000e+00
   outer loop
     vertex -1.925000e+01  1.750000e+01  1.200000e+00
     vertex -2.075000e+01  1.750000e+01  1.200000e+00
     vertex -3.300000e+01  1.750000e+01  9.000000e+00
   endloop
 endfacet
 facet normal  0.000000e+00  1.000000e+00  0.000000e+00
   outer loop
     vertex -7.500000e-01  1.750000e+01  1.200000e+00
     vertex -7.500000e-01  1.750000e+01  0.000000e+00
     vertex -1.925000e+01  1.750000e+01  0.000000e+00
   endloop
 endfacet
 facet normal  0.000000e+00  1.000000e+00  0.000000e+00
   outer loop
     vertex -7.500000e-01  1.750000e+01  1.200000e+00
     vertex -1.925000e+01  1.750000e+01  0.000000e+00
     vertex -1.925000e+01  1.750000e+01  1.200000e+00
   endloop
 endfacet
 facet normal  0.000000e+00  1.000000e+00  0.000000e+00
   outer loop
     vertex -7.500000e-01  1.750000e+01  1.200000e+00
     vertex -1.925000e+01  1.750000e+01  1.200000e+00
     vertex -3.300000e+01  1.750000e+01  9.000000e+00
   endloop
 endfacet
 facet normal  0.000000e+00  1.000000e+00  0.000000e+00
   outer loop
     vertex  1.925000e+01  1.750000e+01  1.200000e+00
     vertex  1.925000e+01  1.750000e+01  0.000000e+00
     vertex  7.500000e-01  1.750000e+01  0.000000e+00
   endloop
 endfacet
 facet normal  0.000000e+00  1.000000e+00  0.000000e+00
   outer loop
     vertex  1.925000e+01  1.750000e+01  1.200000e+00
     vertex  7.500000e-01  1.750000e+01  0.000000e+00
     vertex  7.500000e-01  1.750000e+01  1.200000e+00
   endloop
 endfacet
 facet normal  0.000000e+00  1.000000e+00  0.000000e+00
   outer loop
     vertex  3.300000e+01  1.750000e+01  0.000000e+00
     vertex  2.075000e+01  1.750000e+01  0.000000e+00
     vertex  2.075000e+01  1.750000e+01  1.200000e+00
   endloop
 endfacet
 facet normal  0.000000e+00  1.000000e+00  0.000000e+00
   outer loop
     vertex  3.300000e+01  1.750000e+01  9.000000e+00
     vertex  2.075000e+01  1.750000e+01  1.200000e+00
     vertex  1.925000e+01  1.750000e+01  1.200000e+00
   endloop
 endfacet
 facet normal  0.000000e+00  1.000000e+00  0.000000e+00
   outer loop
     vertex  3.300000e+01  1.750000e+01  9.000000e+00
     vertex  1.925000e+01  1.750000e+01  1.200000e+00
     vertex  7.500000e-01  1.750000e+01  1.200000e+00
   endloop
 endfacet
 facet normal  0.000000e+00  1.000000e+00  0.000000e+00
   outer loop
     vertex  3.300000e+01  1.750000e+01  9.000000e+00
     vertex  3.300000e+01  1.750000e+01  0.000000e+00
     vertex  2.075000e+01  1.750000e+01  1.200000e+00
   endloop
 endfacet
 facet normal -0.000000e+00  1.000000e+00  0.000000e+00
   outer loop
     vertex -3.300000e+01  1.750000e+01  9.000000e+00
     vertex  3.300000e+01  1.750000e+01  9.000000e+00
     vertex  7.500000e-01  1.750000e+01  1.200000e+00
   endloop
 endfacet
 facet normal  0.000000e+00  1.000000e+00  0.000000e+00
   outer loop
     vertex -3.300000e+01  1.750000e+01  9.000000e+00
     vertex  7.500000e-01  1.750000e+01  1.200000e+00
     vertex -7.500000e-01  1.750000e+01  1.200000e+00
   endloop
 endfacet
 facet normal -1.000000e+00  0.000000e+00  0.000000e+00
   outer loop
     vertex -3.300000e+01  1.750000e+01  1.250000e+01
     vertex -3.300000e+01  2.000000e+01  9.000000e+00
     vertex -3.300000e+01  1.750000e+01  9.000000e+00
   endloop
 endfacet
 facet normal -1.000000e+00  0.000000e+00  0.000000e+00
   outer loop
     vertex -3.300000e+01  1.750000e+01  1.250000e+01
     vertex -3.300000e+01  2.000000e+01  1.250000e+01
     vertex -3.300000e+01  2.000000e+01  9.000000e+00
   endloop
 endfacet
 facet normal  0.000000e+00  1.000000e+00  0.000000e+00
   outer loop
     vertex  3.300000e+01  1.750000e+01  2.300000e+01
     vertex  3.300000e+01  1.750000e+01  1.250000e+01
     vertex -3.300000e+01  1.750000e+01  1.250000e+01
   endloop
 endfacet
 facet normal  0.000000e+00  1.000000e+00  0.000000e+00
   outer loop
     vertex  3.300000e+01  1.750000e+01  2.300000e+01
     vertex -3.300000e+01  1.750000e+01  1.250000e+01
     vertex -3.300000e+01  1.750000e+01  2.300000e+01
   endloop
 endfacet
 facet normal -0.000000e+00  0.000000e+00 -1.000000e+00
   outer loop
     vertex -2.075000e+01  1.750000e+01  0.000000e+00
     vertex -3.300000e+01  1.575000e+01  0.000000e+00
     vertex -3.300000e+01  1.750000e+01  0.000000e+00
   endloop
 endfacet
 facet normal  0.000000e+00 -0.000000e+00 -1.000000e+00
   outer loop
     vertex -2.075000e+01  1.750000e+01  0.000000e+00
     vertex -2.075000e+01  1.575000e+01  0.000000e+00
     vertex -3.300000e+01  1.575000e+01  0.000000e+00
   endloop
 endfacet
 facet normal  0.000000e+00 -1.000000e+00 -0.000000e+00
   outer loop
     vertex -2.075000e+01  1.575000e+01  1.200000e+00
     vertex -3.300000e+01  1.575000e+01  0.000000e+00
     vertex -2.075000e+01  1.575000e+01  0.000000e+00
   endloop
 endfacet
 facet normal -0.000000e+00 -1.000000e+00  0.000000e+00
   outer loop
     vertex -2.075000e+01  1.575000e+01  1.200000e+00
     vertex -3.300000e+01  1.575000e+01  1.200000e+00
     vertex -3.300000e+01  1.575000e+01  0.000000e+00
   endloop
 endfacet
 facet normal -0.000000e+00  0.000000e+00 -1.000000e+00
   outer loop
     vertex -2.075000e+01  1.575000e+01  1.200000e+00
     vertex -3.300000e+01  1.425000e+01  1.200000e+00
     vertex -3.300000e+01  1.575000e+01  1.200000e+00
   endloop
 endfacet
 facet normal  0.000000e+00 -0.000000e+00 -1.000000e+00
   outer loop
     vertex -2.075000e+01  1.575000e+01  1.200000e+00
     vertex -2.075000e+01  1.425000e+01  1.200000e+00
     vertex -3.300000e+01  1.425000e+01  1.200000e+00
   endloop
 endfacet
 facet normal  0.000000e+00  1.000000e+00  0.000000e+00
   outer loop
     vertex -2.075000e+01  1.425000e+01  1.200000e+00
     vertex -2.075000e+01  1.425000e+01  0.000000e+00
     vertex -3.300000e+01  1.425000e+01  0.000000e+00
   endloop
 endfacet
 facet normal  0.000000e+00  1.000000e+00  0.000000e+00
   outer loop
     vertex -2.075000e+01  1.425000e+01  1.200000e+00
     vertex -3.300000e+01  1.425000e+01  0.000000e+00
     vertex -3.300000e+01  1.425000e+01  1.200000e+00
   endloop
 endfacet
 facet normal -0.000000e+00  0.000000e+00 -1.000000e+00
   outer loop
     vertex -2.075000e+01  1.425000e+01  0.000000e+00
     vertex -3.300000e+01  8.250000e+00  0.000000e+00
     vertex -3.300000e+01  1.425000e+01  0.000000e+00
   endloop
 endfacet
 facet normal  0.000000e+00 -0.000000e+00 -1.000000e+00
   outer loop
     vertex -2.075000e+01  1.425000e+01  0.000000e+00
     vertex -2.075000e+01  8.250000e+00  0.000000e+00
     vertex -3.300000e+01  8.250000e+00  0.000000e+00
   endloop
 endfacet
 facet normal  0.000000e+00 -1.000000e+00 -0.000000e+00
   outer loop
     vertex -2.075000e+01  8.250000e+00  1.200000e+00
     vertex -3.300000e+01  8.250000e+00  0.000000e+00
     vertex -2.075000e+01  8.250000e+00  0.000000e+00
   endloop
 endfacet
 facet normal -0.000000e+00 -1.000000e+00  0.000000e+00
   outer loop
     vertex -2.075000e+01  8.250000e+00  1.200000e+00
     vertex -3.300000e+01  8.250000e+00  1.200000e+00
     vertex -3.300000e+01  8.250000e+00  0.000000e+00
   endloop
 endfacet
 facet normal -0.000000e+00  0.000000e+00 -1.000000e+00
   outer loop
     vertex -2.075000e+01  8.250000e+00  1.200000e+00
     vertex -3.300000e+01  6.750000e+00  1.200000e+00
     vertex -3.300000e+01  8.250000e+00  1.200000e+00
   endloop
 endfacet
 facet normal  0.000000e+00 -0.000000e+00 -1.000000e+00
   outer loop
     vertex -2.075000e+01  8.250000e+00  1.200000e+00
     vertex -2.075000e+01  6.750000e+00  1.200000e+00
     vertex -3.300000e+01  6.750000e+00  1.200000e+00
   endloop
 endfacet
 facet normal  0.000000e+00  1.000000e+00  0.000000e+00
   outer loop
     vertex -2.075000e+01  6.750000e+00  1.200000e+00
     vertex -2.075000e+01  6.750000e+00  0.000000e+00
     vertex -3.300000e+01  6.750000e+00  0.000000e+00
   endloop
 endfacet
 facet normal  0.000000e+00  1.000000e+00  0.000000e+00
   outer loop
     vertex -2.075000e+01  6.750000e+00  1.200000e+00
     vertex -3.300000e+01  6.750000e+00  0.000000e+00
     vertex -3.300000e+01  6.750000e+00  1.200000e+00
   endloop
 endfacet
 facet normal -0.000000e+00  0.000000e+00 -1.000000e+00
   outer loop
     vertex -2.075000e+01  6.750000e+00  0.000000e+00
     vertex -3.300000e+01 -6.750000e+00  0.000000e+00
     vertex -3.300000e+01  6.750000e+00  0.000000e+00
   endloop
 endfacet
 facet normal  0.000000e+00 -0.000000e+00 -1.000000e+00
   outer loop
     vertex -2.075000e+01  6.750000e+00  0.000000e+00
     vertex -2.075000e+01 -6.750000e+00  0.000000e+00
     vertex -3.300000e+01 -6.750000e+00  0.000000e+00
   endloop
 endfacet
 facet normal  0.000000e+00 -1.000000e+00 -0.000000e+00
   outer loop
     vertex -2.075000e+01 -6.750000e+00  1.200000e+00
     vertex -3.300000e+01 -6.750000e+00  0.000000e+00
     vertex -2.075000e+01 -6.750000e+00  0.000000e+00
   endloop
 endfacet
 facet normal -0.000000e+00 -1.000000e+00  0.000000e+00
   outer loop
     vertex -2.075000e+01 -6.750000e+00  1.200000e+00
     vertex -3.300000e+01 -6.750000e+00  1.200000e+00
     vertex -3.300000e+01 -6.750000e+00  0.000000e+00
   endloop
 endfacet
 facet normal -0.000000e+00  0.000000e+00 -1.000000e+00
   outer loop
     vertex -2.075000e+01 -6.750000e+00  1.200000e+00
     vertex -3.300000e+01 -8.250000e+00  1.200000e+00
     vertex -3.300000e+01 -6.750000e+00  1.200000e+00
   endloop
 endfacet
 facet normal  0.000000e+00 -0.000000e+00 -1.000000e+00
   outer loop
     vertex -2.075000e+01 -6.750000e+00  1.200000e+00
     vertex -2.075000e+01 -8.250000e+00  1.200000e+00
     vertex -3.300000e+01 -8.250000e+00  1.200000e+00
   endloop
 endfacet
 facet normal  0.000000e+00  1.000000e+00  0.000000e+00
   outer loop
     vertex -2.075000e+01 -8.250000e+00  1.200000e+00
     vertex -2.075000e+01 -8.250000e+00  0.000000e+00
     vertex -3.300000e+01 -8.250000e+00  0.000000e+00
   endloop
 endfacet
 facet normal  0.000000e+00  1.000000e+00  0.000000e+00
   outer loop
     vertex -2.075000e+01 -8.250000e+00  1.200000e+00
     vertex -3.300000e+01 -8.250000e+00  0.000000e+00
     vertex -3.300000e+01 -8.250000e+00  1.200000e+00
   endloop
 endfacet
 facet normal -0.000000e+00  0.000000e+00 -1.000000e+00
   outer loop
     vertex -2.075000e+01 -8.250000e+00  0.000000e+00
     vertex -3.300000e+01 -1.425000e+01  0.000000e+00
     vertex -3.300000e+01 -8.250000e+00  0.000000e+00
   endloop
 endfacet
 facet normal  0.000000e+00 -0.000000e+00 -1.000000e+00
   outer loop
     vertex -2.075000e+01 -8.250000e+00  0.000000e+00
     vertex -2.075000e+01 -1.425000e+01  0.000000e+00
     vertex -3.300000e+01 -1.425000e+01  0.000000e+00
   endloop
 endfacet
 facet normal  0.000000e+00 -1.000000e+00 -0.000000e+00
   outer loop
     vertex -2.075000e+01 -1.425000e+01  1.200000e+00
     vertex -3.300000e+01 -1.425000e+01  0.000000e+00
     vertex -2.075000e+01 -1.425000e+01  0.000000e+00
   endloop
 endfacet
 facet normal -0.000000e+00 -1.000000e+00  0.000000e+00
   outer loop
     vertex -2.075000e+01 -1.425000e+01  1.200000e+00
     vertex -3.300000e+01 -1.425000e+01  1.200000e+00
     vertex -3.300000e+01 -1.425000e+01  0.000000e+00
   endloop
 endfacet
 facet normal -0.000000e+00  0.000000e+00 -1.000000e+00
   outer loop
     vertex -2.075000e+01 -1.425000e+01  1.200000e+00
     vertex -3.300000e+01 -1.575000e+01  1.200000e+00
     vertex -3.300000e+01 -1.425000e+01  1.200000e+00
   endloop
 endfacet
 facet normal  0.000000e+00 -0.000000e+00 -1.000000e+00
   outer loop
     vertex -2.075000e+01 -1.425000e+01  1.200000e+00
     vertex -2.075000e+01 -1.575000e+01  1.200000e+00
     vertex -3.300000e+01 -1.575000e+01  1.200000e+00
   endloop
 endfacet
 facet normal  0.000000e+00  1.000000e+00  0.000000e+00
   outer loop
     vertex -2.075000e+01 -1.575000e+01  1.200000e+00
     vertex -2.075000e+01 -1.575000e+01  0.000000e+00
     vertex -3.300000e+01 -1.575000e+01  0.000000e+00
   endloop
 endfacet
 facet normal  0.000000e+00  1.000000e+00  0.000000e+00
   outer loop
     vertex -2.075000e+01 -1.575000e+01  1.200000e+00
     vertex -3.300000e+01 -1.575000e+01  0.000000e+00
     vertex -3.300000e+01 -1.575000e+01  1.200000e+00
   endloop
 endfacet
 facet normal -0.000000e+00  0.000000e+00 -1.000000e+00
   outer loop
     vertex -2.075000e+01 -1.575000e+01  0.000000e+00
     vertex -3.300000e+01 -1.750000e+01  0.000000e+00
     vertex -3.300000e+01 -1.575000e+01  0.000000e+00
   endloop
 endfacet
 facet normal  0.000000e+00 -0.000000e+00 -1.000000e+00
   outer loop
     vertex -2.075000e+01 -1.575000e+01  0.000000e+00
     vertex -2.075000e+01 -1.750000e+01  0.000000e+00
     vertex -3.300000e+01 -1.750000e+01  0.000000e+00
   endloop
 endfacet
 facet normal  0.000000e+00 -1.000000e+00 -0.000000e+00
   outer loop
     vertex -2.075000e+01 -1.750000e+01  1.200000e+00
     vertex -3.300000e+01 -1.750000e+01  0.000000e+00
     vertex -2.075000e+01 -1.750000e+01  0.000000e+00
   endloop
 endfacet
 facet normal -0.000000e+00 -1.000000e+00  0.000000e+00
   outer loop
     vertex -2.075000e+01 -1.750000e+01  1.200000e+00
     vertex -3.300000e+01 -1.750000e+01  9.000000e+00
     vertex -3.300000e+01 -1.750000e+01  0.000000e+00
   endloop
 endfacet
 facet normal  0.000000e+00 -1.000000e+00  0.000000e+00
   outer loop
     vertex -1.925000e+01 -1.750000e+01  1.200000e+00
     vertex -3.300000e+01 -1.750000e+01  9.000000e+00
     vertex -2.075000e+01 -1.750000e+01  1.200000e+00
   endloop
 endfacet
 facet normal  0.000000e+00 -1.000000e+00 -0.000000e+00
   outer loop
     vertex -7.500000e-01 -1.750000e+01  1.200000e+00
     vertex -1.925000e+01 -1.750000e+01  0.000000e+00
     vertex -7.500000e-01 -1.750000e+01  0.000000e+00
   endloop
 endfacet
 facet normal -0.000000e+00 -1.000000e+00  0.000000e+00
   outer loop
     vertex -7.500000e-01 -1.750000e+01  1.200000e+00
     vertex -1.925000e+01 -1.750000e+01  1.200000e+00
     vertex -1.925000e+01 -1.750000e+01  0.000000e+00
   endloop
 endfacet
 facet normal  0.000000e+00 -1.000000e+00  0.000000e+00
   outer loop
     vertex -7.500000e-01 -1.750000e+01  1.200000e+00
     vertex -3.300000e+01 -1.750000e+01  9.000000e+00
     vertex -1.925000e+01 -1.750000e+01  1.200000e+00
   endloop
 endfacet
 facet normal  0.000000e+00 -1.000000e+00 -0.000000e+00
   outer loop
     vertex  1.925000e+01 -1.750000e+01  1.200000e+00
     vertex  7.500000e-01 -1.750000e+01  0.000000e+00
     vertex  1.925000e+01 -1.750000e+01  0.000000e+00
   endloop
 endfacet
 facet normal -0.000000e+00 -1.000000e+00  0.000000e+00
   outer loop
     vertex  1.925000e+01 -1.750000e+01  1.200000e+00
     vertex  7.500000e-01 -1.750000e+01  1.200000e+00
     vertex  7.500000e-01 -1.750000e+01  0.000000e+00
   endloop
 endfacet
 facet normal  0.000000e+00 -1.000000e+00  0.000000e+00
   outer loop
     vertex  3.300000e+01 -1.750000e+01  0.000000e+00
     vertex  2.075000e+01 -1.750000e+01  1.200000e+00
     vertex  2.075000e+01 -1.750000e+01  0.000000e+00
   endloop
 endfacet
 facet normal  0.000000e+00 -1.000000e+00  0.000000e+00
   outer loop
     vertex  3.300000e+01 -1.750000e+01  9.000000e+00
     vertex  1.925000e+01 -1.750000e+01  1.200000e+00
     vertex  2.075000e+01 -1.750000e+01  1.200000e+00
   endloop
 endfacet
 facet normal  0.000000e+00 -1.000000e+00  0.000000e+00
   outer loop
     vertex  3.300000e+01 -1.750000e+01  9.000000e+00
     vertex  7.500000e-01 -1.750000e+01  1.200000e+00
     vertex  1.925000e+01 -1.750000e+01  1.200000e+00
   endloop
 endfacet
 facet normal  0.000000e+00 -1.000000e+00 -0.000000e+00
   outer loop
     vertex  3.300000e+01 -1.750000e+01  9.000000e+00
     vertex  2.075000e+01 -1.750000e+01  1.200000e+00
     vertex  3.300000e+01 -1.750000e+01  0.000000e+00
   endloop
 endfacet
 facet normal  0.000000e+00 -1.000000e+00  0.000000e+00
   outer loop
     vertex -3.300000e+01 -1.750000e+01  9.000000e+00
     vertex  7.500000e-01 -1.750000e+01  1.200000e+00
     vertex  3.300000e+01 -1.750000e+01  9.000000e+00
   endloop
 endfacet
 facet normal  0.000000e+00 -1.000000e+00  0.000000e+00
   outer loop
     vertex -3.300000e+01 -1.750000e+01  9.000000e+00
     vertex -7.500000e-01 -1.750000e+01  1.200000e+00
     vertex  7.500000e-01 -1.750000e+01  1.200000e+00
   endloop
 endfacet
 facet normal -1.000000e+00  0.000000e+00  0.000000e+00
   outer loop
     vertex -3.300000e+01 -2.000000e+01  1.250000e+01
     vertex -3.300000e+01 -1.750000e+01  9.000000e+00
     vertex -3.300000e+01 -2.000000e+01  9.000000e+00
   endloop
 endfacet
 facet normal -1.000000e+00  0.000000e+00  0.000000e+00
   outer loop
     vertex -3.300000e+01 -2.000000e+01  1.250000e+01
     vertex -3.300000e+01 -1.750000e+01  1.250000e+01
     vertex -3.300000e+01 -1.750000e+01  9.000000e+00
   endloop
 endfacet
 facet normal  0.000000e+00 -1.000000e+00 -0.000000e+00
   outer loop
     vertex  3.300000e+01 -1.750000e+01  2.300000e+01
     vertex -3.300000e+01 -1.750000e+01  1.250000e+01
     vertex  3.300000e+01 -1.750000e+01  1.250000e+01
   endloop
 endfacet
 facet normal -0.000000e+00 -1.000000e+00  0.000000e+00
   outer loop
     vertex  3.300000e+01 -1.750000e+01  2.300000e+01
     vertex -3.300000e+01 -1.750000e+01  2.300000e+01
     vertex -3.300000e+01 -1.750000e+01  1.250000e+01
   endloop
 endfacet
 facet normal  0.000000e+00  0.000000e+00  1.000000e+00
   outer loop
     vertex -2.950000e+01  1.475000e+01  2.300000e+01
     vertex -3.300000e+01  1.750000e+01  2.300000e+01
     vertex -3.300000e+01 -1.750000e+01  2.300000e+01
   endloop
 endfacet
 facet normal  0.000000e+00  0.000000e+00  1.000000e+00
   outer loop
     vertex -2.950000e+01  1.475000e+01  2.300000e+01
     vertex -3.300000e+01 -1.750000e+01  2.300000e+01
     vertex -2.950000e+01 -1.475000e+01  2.300000e+01
   endloop
 endfacet
 facet normal  0.000000e+00  0.000000e+00  1.000000e+00
   outer loop
     vertex  2.950000e+01 -1.475000e+01  2.300000e+01
     vertex -2.950000e+01 -1.475000e+01  2.300000e+01
     vertex -3.300000e+01 -1.750000e+01  2.300000e+01
   endloop
 endfacet
 facet normal  0.000000e+00  0.000000e+00  1.000000e+00
   outer loop
     vertex  3.300000e+01 -1.750000e+01  2.300000e+01
     vertex  2.950000e+01 -1.475000e+01  2.300000e+01
     vertex -3.300000e+01 -1.750000e+01  2.300000e+01
   endloop
 endfacet
 facet normal  0.000000e+00  0.000000e+00  1.000000e+00
   outer loop
     vertex  3.300000e+01  1.750000e+01  2.300000e+01
     vertex  2.950000e+01  1.475000e+01  2.300000e+01
     vertex  2.950000e+01 -1.475000e+01  2.300000e+01
   endloop
 endfacet
 facet normal  0.000000e+00  0.000000e+00  1.000000e+00
   outer loop
     vertex  3.300000e+01  1.750000e+01  2.300000e+01
     vertex  2.950000e+01 -1.475000e+01  2.300000e+01
     vertex  3.300000e+01 -1.750000e+01  2.300000e+01
   endloop
 endfacet
 facet normal  0.000000e+00  0.000000e+00  1.000000e+00
   outer loop
     vertex  3.300000e+01  1.750000e+01  2.300000e+01
     vertex -3.300000e+01  1.750000e+01  2.300000e+01
     vertex -2.950000e+01  1.475000e+01  2.300000e+01
   endloop
 endfacet
 facet normal  0.000000e+00  0.000000e+00  1.000000e+00
   outer loop
     vertex  3.300000e+01  1.750000e+01  2.300000e+01
     vertex -2.950000e+01  1.475000e+01  2.300000e+01
     vertex  2.950000e+01  1.475000e+01  2.300000e+01
   endloop
 endfacet
 facet normal  1.000000e+00  0.000000e+00  0.000000e+00
   outer loop
     vertex -2.075000e+01  1.575000e+01  1.200000e+00
     vertex -2.075000e+01  1.575000e+01  0.000000e+00
     vertex -2.075000e+01  1.750000e+01  0.000000e+00
   endloop
 endfacet
 facet normal  1.000000e+00 -0.000000e+00  0.000000e+00
   outer loop
     vertex -2.075000e+01  1.575000e+01  1.200000e+00
     vertex -2.075000e+01  1.750000e+01  0.000000e+00
     vertex -2.075000e+01  1.750000e+01  1.200000e+00
   endloop
 endfacet
 facet normal -0.000000e+00  0.000000e+00 -1.000000e+00
   outer loop
     vertex -1.925000e+01  1.750000e+01  1.200000e+00
     vertex -2.075000e+01  1.575000e+01  1.200000e+00
     vertex -2.075000e+01  1.750000e+01  1.200000e+00
   endloop
 endfacet
 facet normal  0.000000e+00 -0.000000e+00 -1.000000e+00
   outer loop
     vertex -1.925000e+01  1.750000e+01  1.200000e+00
     vertex -1.925000e+01  1.575000e+01  1.200000e+00
     vertex -2.075000e+01  1.575000e+01  1.200000e+00
   endloop
 endfacet
 facet normal -1.000000e+00  0.000000e+00  0.000000e+00
   outer loop
     vertex -1.925000e+01  1.575000e+01  1.200000e+00
     vertex -1.925000e+01  1.750000e+01  0.000000e+00
     vertex -1.925000e+01  1.575000e+01  0.000000e+00
   endloop
 endfacet
 facet normal -1.000000e+00  0.000000e+00  0.000000e+00
   outer loop
     vertex -1.925000e+01  1.575000e+01  1.200000e+00
     vertex -1.925000e+01  1.750000e+01  1.200000e+00
     vertex -1.925000e+01  1.750000e+01  0.000000e+00
   endloop
 endfacet
 facet normal  0.000000e+00  0.000000e+00 -1.000000e+00
   outer loop
     vertex -7.500000e-01  1.575000e+01  0.000000e+00
     vertex -1.925000e+01  1.575000e+01  0.000000e+00
     vertex -1.925000e+01  1.750000e+01  0.000000e+00
   endloop
 endfacet
 facet normal -0.000000e+00 -0.000000e+00 -1.000000e+00
   outer loop
     vertex -7.500000e-01  1.750000e+01  0.000000e+00
     vertex -7.500000e-01  1.575000e+01  0.000000e+00
     vertex -1.925000e+01  1.750000e+01  0.000000e+00
   endloop
 endfacet
 facet normal  1.000000e+00  0.000000e+00  0.000000e+00
   outer loop
     vertex -7.500000e-01  1.575000e+01  1.200000e+00
     vertex -7.500000e-01  1.575000e+01  0.000000e+00
     vertex -7.500000e-01  1.750000e+01  0.000000e+00
   endloop
 endfacet
 facet normal  1.000000e+00 -0.000000e+00  0.000000e+00
   outer loop
     vertex -7.500000e-01  1.575000e+01  1.200000e+00
     vertex -7.500000e-01  1.750000e+01  0.000000e+00
     vertex -7.500000e-01  1.750000e+01  1.200000e+00
   endloop
 endfacet
 facet normal -0.000000e+00  0.000000e+00 -1.000000e+00
   outer loop
     vertex  7.500000e-01  1.750000e+01  1.200000e+00
     vertex -7.500000e-01  1.575000e+01  1.200000e+00
     vertex -7.500000e-01  1.750000e+01  1.200000e+00
   endloop
 endfacet
 facet normal  0.000000e+00 -0.000000e+00 -1.000000e+00
   outer loop
     vertex  7.500000e-01  1.750000e+01  1.200000e+00
     vertex  7.500000e-01  1.575000e+01  1.200000e+00
     vertex -7.500000e-01  1.575000e+01  1.200000e+00
   endloop
 endfacet
 facet normal -1.000000e+00  0.000000e+00  0.000000e+00
   outer loop
     vertex  7.500000e-01  1.575000e+01  1.200000e+00
     vertex  7.500000e-01  1.750000e+01  0.000000e+00
     vertex  7.500000e-01  1.575000e+01  0.000000e+00
   endloop
 endfacet
 facet normal -1.000000e+00  0.000000e+00  0.000000e+00
   outer loop
     vertex  7.500000e-01  1.575000e+01  1.200000e+00
     vertex  7.500000e-01  1.750000e+01  1.200000e+00
     vertex  7.500000e-01  1.750000e+01  0.000000e+00
   endloop
 endfacet
 facet normal  0.000000e+00  0.000000e+00 -1.000000e+00
   outer loop
     vertex  1.925000e+01  1.575000e+01  0.000000e+00
     vertex  7.500000e-01  1.575000e+01  0.000000e+00
     vertex  7.500000e-01  1.750000e+01  0.000000e+00
   endloop
 endfacet
 facet normal -0.000000e+00 -0.000000e+00 -1.000000e+00
   outer loop
     vertex  1.925000e+01  1.750000e+01  0.000000e+00
     vertex  1.925000e+01  1.575000e+01  0.000000e+00
     vertex  7.500000e-01  1.750000e+01  0.000000e+00
   endloop
 endfacet
 facet normal  1.000000e+00  0.000000e+00  0.000000e+00
   outer loop
     vertex  1.925000e+01  1.575000e+01  1.200000e+00
     vertex  1.925000e+01  1.575000e+01  0.000000e+00
     vertex  1.925000e+01  1.750000e+01  0.000000e+00
   endloop
 endfacet
 facet normal  1.000000e+00 -0.000000e+00  0.000000e+00
   outer loop
     vertex  1.925000e+01  1.575000e+01  1.200000e+00
     vertex  1.925000e+01  1.750000e+01  0.000000e+00
     vertex  1.925000e+01  1.750000e+01  1.200000e+00
   endloop
 endfacet
 facet normal -0.000000e+00  0.000000e+00 -1.000000e+00
   outer loop
     vertex  2.075000e+01  1.750000e+01  1.200000e+00
     vertex  1.925000e+01  1.575000e+01  1.200000e+00
     vertex  1.925000e+01  1.750000e+01  1.200000e+00
   endloop
 endfacet
 facet normal  0.000000e+00 -0.000000e+00 -1.000000e+00
   outer loop
     vertex  2.075000e+01  1.750000e+01  1.200000e+00
     vertex  2.075000e+01  1.575000e+01  1.200000e+00
     vertex  1.925000e+01  1.575000e+01  1.200000e+00
   endloop
 endfacet
 facet normal -1.000000e+00  0.000000e+00  0.000000e+00
   outer loop
     vertex  2.075000e+01  1.575000e+01  1.200000e+00
     vertex  2.075000e+01  1.750000e+01  0.000000e+00
     vertex  2.075000e+01  1.575000e+01  0.000000e+00
   endloop
 endfacet
 facet normal -1.000000e+00  0.000000e+00  0.000000e+00
   outer loop
     vertex  2.075000e+01  1.575000e+01  1.200000e+00
     vertex  2.075000e+01  1.750000e+01  1.200000e+00
     vertex  2.075000e+01  1.750000e+01  0.000000e+00
   endloop
 endfacet
 facet normal -0.000000e+00  0.000000e+00 -1.000000e+00
   outer loop
     vertex  3.300000e+01  1.750000e+01  0.000000e+00
     vertex  2.075000e+01  1.575000e+01  0.000000e+00
     vertex  2.075000e+01  1.750000e+01  0.000000e+00
   endloop
 endfacet
 facet normal  0.000000e+00 -0.000000e+00 -1.000000e+00
   outer loop
     vertex  3.300000e+01  1.750000e+01  0.000000e+00
     vertex  3.300000e+01  1.575000e+01  0.000000e+00
     vertex  2.075000e+01  1.575000e+01  0.000000e+00
   endloop
 endfacet
 facet normal  1.000000e+00  0.000000e+00  0.000000e+00
   outer loop
     vertex  3.300000e+01  1.575000e+01  1.200000e+00
     vertex  3.300000e+01  1.575000e+01  0.000000e+00
     vertex  3.300000e+01  1.750000e+01  0.000000e+00
   endloop
 endfacet
 facet normal  1.000000e+00  0.000000e+00  0.000000e+00
   outer loop
     vertex  3.300000e+01  1.750000e+01  9.000000e+00
     vertex  3.300000e+01  1.425000e+01  1.200000e+00
     vertex  3.300000e+01  1.575000e+01  1.200000e+00
   endloop
 endfacet
 facet normal  1.000000e+00  0.000000e+00  0.000000e+00
   outer loop
     vertex  3.300000e+01  1.750000e+01  9.000000e+00
     vertex  3.300000e+01  1.575000e+01  1.200000e+00
     vertex  3.300000e+01  1.750000e+01  0.000000e+00
   endloop
 endfacet
 facet normal  1.000000e+00  0.000000e+00  0.000000e+00
   outer loop
     vertex  3.300000e+01  8.250000e+00  1.200000e+00
     vertex  3.300000e+01  8.250000e+00  0.000000e+00
     vertex  3.300000e+01  1.425000e+01  0.000000e+00
   endloop
 endfacet
 facet normal  1.000000e+00 -0.000000e+00  0.000000e+00
   outer loop
     vertex  3.300000e+01  8.250000e+00  1.200000e+00
     vertex  3.300000e+01  1.425000e+01  0.000000e+00
     vertex  3.300000e+01  1.425000e+01  1.200000e+00
   endloop
 endfacet
 facet normal  1.000000e+00  0.000000e+00  0.000000e+00
   outer loop
     vertex  3.300000e+01  8.250000e+00  1.200000e+00
     vertex  3.300000e+01  1.425000e+01  1.200000e+00
     vertex  3.300000e+01  1.750000e+01  9.000000e+00
   endloop
 endfacet
 facet normal  1.000000e+00  0.000000e+00  0.000000e+00
   outer loop
     vertex  3.300000e+01 -6.750000e+00  1.200000e+00
     vertex  3.300000e+01 -6.750000e+00  0.000000e+00
     vertex  3.300000e+01  6.750000e+00  0.000000e+00
   endloop
 endfacet
 facet normal  1.000000e+00 -0.000000e+00  0.000000e+00
   outer loop
     vertex  3.300000e+01 -6.750000e+00  1.200000e+00
     vertex  3.300000e+01  6.750000e+00  0.000000e+00
     vertex  3.300000e+01  6.750000e+00  1.200000e+00
   endloop
 endfacet
 facet normal  1.000000e+00  0.000000e+00  0.000000e+00
   outer loop
     vertex  3.300000e+01  7.000000e+00  1.800000e+01
     vertex  3.300000e+01  1.750000e+01  9.000000e+00
     vertex  3.300000e+01  1.750000e+01  1.250000e+01
   endloop
 endfacet
 facet normal  1.000000e+00 -0.000000e+00  0.000000e+00
   outer loop
     vertex  3.300000e+01  7.000000e+00  1.800000e+01
     vertex  3.300000e+01  1.750000e+01  1.250000e+01
     vertex  3.300000e+01  1.750000e+01  2.300000e+01
   endloop
 endfacet
 facet normal  1.000000e+00  0.000000e+00  0.000000e+00
   outer loop
     vertex  3.300000e+01  7.000000e+00  1.800000e+01
     vertex  3.300000e+01  6.750000e+00  1.200000e+00
     vertex  3.300000e+01  8.250000e+00  1.200000e+00
   endloop
 endfacet
 facet normal  1.000000e+00  0.000000e+00  0.000000e+00
   outer loop
     vertex  3.300000e+01  7.000000e+00  1.800000e+01
     vertex  3.300000e+01  8.250000e+00  1.200000e+00
     vertex  3.300000e+01  1.750000e+01  9.000000e+00
   endloop
 endfacet
 facet normal  1.000000e+00 -0.000000e+00  0.000000e+00
   outer loop
     vertex  3.300000e+01  7.000000e+00  2.200000e+01
     vertex  3.300000e+01  7.000000e+00  1.800000e+01
     vertex  3.300000e+01  1.750000e+01  2.300000e+01
   endloop
 endfacet
 facet normal  1.000000e+00  0.000000e+00  0.000000e+00
   outer loop
     vertex  3.300000e+01 -1.425000e+01  1.200000e+00
     vertex  3.300000e+01 -1.425000e+01  0.000000e+00
     vertex  3.300000e+01 -8.250000e+00  0.000000e+00
   endloop
 endfacet
 facet normal  1.000000e+00 -0.000000e+00  0.000000e+00
   outer loop
     vertex  3.300000e+01 -1.425000e+01  1.200000e+00
     vertex  3.300000e+01 -8.250000e+00  0.000000e+00
     vertex  3.300000e+01 -8.250000e+00  1.200000e+00
   endloop
 endfacet
 facet normal  1.000000e+00  0.000000e+00  0.000000e+00
   outer loop
     vertex  3.300000e+01 -1.750000e+01  0.000000e+00
     vertex  3.300000e+01 -1.575000e+01  0.000000e+00
     vertex  3.300000e+01 -1.575000e+01  1.200000e+00
   endloop
 endfacet
 facet normal  1.000000e+00  0.000000e+00  0.000000e+00
   outer loop
     vertex  3.300000e+01 -7.000000e+00  1.800000e+01
     vertex  3.300000e+01 -8.250000e+00  1.200000e+00
     vertex  3.300000e+01 -6.750000e+00  1.200000e+00
   endloop
 endfacet
 facet normal  1.000000e+00 -0.000000e+00  0.000000e+00
   outer loop
     vertex  3.300000e+01 -7.000000e+00  1.800000e+01
     vertex  3.300000e+01  6.750000e+00  1.200000e+00
     vertex  3.300000e+01  7.000000e+00  1.800000e+01
   endloop
 endfacet
 facet normal  1.000000e+00  0.000000e+00  0.000000e+00
   outer loop
     vertex  3.300000e+01 -7.000000e+00  1.800000e+01
     vertex  3.300000e+01 -6.750000e+00  1.200000e+00
     vertex  3.300000e+01  6.750000e+00  1.200000e+00
   endloop
 endfacet
 facet normal  1.000000e+00  0.000000e+00  0.000000e+00
   outer loop
     vertex  3.300000e+01 -1.750000e+01  9.000000e+00
     vertex  3.300000e+01 -1.575000e+01  1.200000e+00
     vertex  3.300000e+01 -1.425000e+01  1.200000e+00
   endloop
 endfacet
 facet normal  1.000000e+00  0.000000e+00  0.000000e+00
   outer loop
     vertex  3.300000e+01 -1.750000e+01  9.000000e+00
     vertex  3.300000e+01 -1.425000e+01  1.200000e+00
     vertex  3.300000e+01 -8.250000e+00  1.200000e+00
   endloop
 endfacet
 facet normal  1.000000e+00 -0.000000e+00  0.000000e+00
   outer loop
     vertex  3.300000e+01 -1.750000e+01  9.000000e+00
     vertex  3.300000e+01 -8.250000e+00  1.200000e+00
     vertex  3.300000e+01 -7.000000e+00  1.800000e+01
   endloop
 endfacet
 facet normal  1.000000e+00  0.000000e+00  0.000000e+00
   outer loop
     vertex  3.300000e+01 -1.750000e+01  9.000000e+00
     vertex  3.300000e+01 -1.750000e+01  0.000000e+00
     vertex  3.300000e+01 -1.575000e+01  1.200000e+00
   endloop
 endfacet
 facet normal  1.000000e+00 -0.000000e+00  0.000000e+00
   outer loop
     vertex  3.300000e+01 -1.750000e+01  1.250000e+01
     vertex  3.300000e+01 -1.750000e+01  9.000000e+00
     vertex  3.300000e+01 -7.000000e+00  1.800000e+01
   endloop
 endfacet
 facet normal  1.000000e+00  0.000000e+00  0.000000e+00
   outer loop
     vertex  3.300000e+01 -1.750000e+01  2.300000e+01
     vertex  3.300000e+01 -7.000000e+00  1.800000e+01
     vertex  3.300000e+01 -7.000000e+00  2.200000e+01
   endloop
 endfacet
 facet normal  1.000000e+00  0.000000e+00  0.000000e+00
   outer loop
     vertex  3.300000e+01 -1.750000e+01  2.300000e+01
     vertex  3.300000e+01 -1.750000e+01  1.250000e+01
     vertex  3.300000e+01 -7.000000e+00  1.800000e+01
   endloop
 endfacet
 facet normal  1.000000e+00  0.000000e+00  0.000000e+00
   outer loop
     vertex  3.300000e+01  1.750000e+01  2.300000e+01
     vertex  3.300000e+01 -1.750000e+01  2.300000e+01
     vertex  3.300000e+01 -7.000000e+00  2.200000e+01
   endloop
 endfacet
 facet normal  1.000000e+00  0.000000e+00  0.000000e+00
   outer loop
     vertex  3.300000e+01  1.750000e+01  2.300000e+01
     vertex  3.300000e+01 -7.000000e+00  2.200000e+01
     vertex  3.300000e+01  7.000000e+00  2.200000e+01
   endloop
 endfacet
 facet normal -0.000000e+00  0.000000e+00 -1.000000e+00
   outer loop
     vertex  3.300000e+01  2.000000e+01  9.000000e+00
     vertex -3.300000e+01  1.750000e+01  9.000000e+00
     vertex -3.300000e+01  2.000000e+01  9.000000e+00
   endloop
 endfacet
 facet normal  0.000000e+00 -0.000000e+00 -1.000000e+00
   outer loop
     vertex  3.300000e+01  2.000000e+01  9.000000e+00
     vertex  3.300000e+01  1.750000e+01  9.000000e+00
     vertex -3.300000e+01  1.750000e+01  9.000000e+00
   endloop
 endfacet
 facet normal  0.000000e+00  0.000000e+00  1.000000e+00
   outer loop
     vertex  3.300000e+01  2.000000e+01  1.250000e+01
     vertex -3.300000e+01  2.000000e+01  1.250000e+01
     vertex -3.300000e+01  1.750000e+01  1.250000e+01
   endloop
 endfacet
 facet normal  0.000000e+00  0.000000e+00  1.000000e+00
   outer loop
     vertex  3.300000e+01  2.000000e+01  1.250000e+01
     vertex -3.300000e+01  1.750000e+01  1.250000e+01
     vertex  3.300000e+01  1.750000e+01  1.250000e+01
   endloop
 endfacet
 facet normal  0.000000e+00  1.000000e+00  0.000000e+00
   outer loop
     vertex  3.300000e+01  2.000000e+01  1.250000e+01
     vertex  3.300000e+01  2.000000e+01  9.000000e+00
     vertex -3.300000e+01  2.000000e+01  9.000000e+00
   endloop
 endfacet
 facet normal  0.000000e+00  1.000000e+00  0.000000e+00
   outer loop
     vertex  3.300000e+01  2.000000e+01  1.250000e+01
     vertex -3.300000e+01  2.000000e+01  9.000000e+00
     vertex -3.300000e+01  2.000000e+01  1.250000e+01
   endloop
 endfacet
 facet normal -0.000000e+00  0.000000e+00 -1.000000e+00
   outer loop
     vertex -1.925000e+01  1.575000e+01  1.200000e+00
     vertex -2.075000e+01  1.425000e+01  1.200000e+00
     vertex -2.075000e+01  1.575000e+01  1.200000e+00
   endloop
 endfacet
 facet normal  0.000000e+00 -0.000000e+00 -1.000000e+00
   outer loop
     vertex -1.925000e+01  1.575000e+01  1.200000e+00
     vertex -1.925000e+01  1.425000e+01  1.200000e+00
     vertex -2.075000e+01  1.425000e+01  1.200000e+00
   endloop
 endfacet
 facet normal  1.000000e+00  0.000000e+00  0.000000e+00
   outer loop
     vertex -2.075000e+01  8.250000e+00  1.200000e+00
     vertex -2.075000e+01  8.250000e+00  0.000000e+00
     vertex -2.075000e+01  1.425000e+01  0.000000e+00
   endloop
 endfacet
 facet normal  1.000000e+00 -0.000000e+00  0.000000e+00
   outer loop
     vertex -2.075000e+01  8.250000e+00  1.200000e+00
     vertex -2.075000e+01  1.425000e+01  0.000000e+00
     vertex -2.075000e+01  1.425000e+01  1.200000e+00
   endloop
 endfacet
 facet normal -0.000000e+00  0.000000e+00 -1.000000e+00
   outer loop
     vertex -1.925000e+01  8.250000e+00  1.200000e+00
     vertex -2.075000e+01  6.750000e+00  1.200000e+00
     vertex -2.075000e+01  8.250000e+00  1.200000e+00
   endloop
 endfacet
 facet normal  0.000000e+00 -0.000000e+00 -1.000000e+00
   outer loop
     vertex -1.925000e+01  8.250000e+00  1.200000e+00
     vertex -1.925000e+01  6.750000e+00  1.200000e+00
     vertex -2.075000e+01  6.750000e+00  1.200000e+00
   endloop
 endfacet
 facet normal  1.000000e+00  0.000000e+00  0.000000e+00
   outer loop
     vertex -2.075000e+01 -6.750000e+00  1.200000e+00
     vertex -2.075000e+01 -6.750000e+00  0.000000e+00
     vertex -2.075000e+01  6.750000e+00  0.000000e+00
   endloop
 endfacet
 facet normal  1.000000e+00 -0.000000e+00  0.000000e+00
   outer loop
     vertex -2.075000e+01 -6.750000e+00  1.200000e+00
     vertex -2.075000e+01  6.750000e+00  0.000000e+00
     vertex -2.075000e+01  6.750000e+00  1.200000e+00
   endloop
 endfacet
 facet normal -0.000000e+00  0.000000e+00 -1.000000e+00
   outer loop
     vertex -1.925000e+01 -6.750000e+00  1.200000e+00
     vertex -2.075000e+01 -8.250000e+00  1.200000e+00
     vertex -2.075000e+01 -6.750000e+00  1.200000e+00
   endloop
 endfacet
 facet normal  0.000000e+00 -0.000000e+00 -1.000000e+00
   outer loop
     vertex -1.925000e+01 -6.750000e+00  1.200000e+00
     vertex -1.925000e+01 -8.250000e+00  1.200000e+00
     vertex -2.075000e+01 -8.250000e+00  1.200000e+00
   endloop
 endfacet
 facet normal  1.000000e+00  0.000000e+00  0.000000e+00
   outer loop
     vertex -2.075000e+01 -1.425000e+01  1.200000e+00
     vertex -2.075000e+01 -1.425000e+01  0.000000e+00
     vertex -2.075000e+01 -8.250000e+00  0.000000e+00
   endloop
 endfacet
 facet normal  1.000000e+00 -0.000000e+00  0.000000e+00
   outer loop
     vertex -2.075000e+01 -1.425000e+01  1.200000e+00
     vertex -2.075000e+01 -8.250000e+00  0.000000e+00
     vertex -2.075000e+01 -8.250000e+00  1.200000e+00
   endloop
 endfacet
 facet normal -0.000000e+00  0.000000e+00 -1.000000e+00
   outer loop
     vertex -1.925000e+01 -1.425000e+01  1.200000e+00
     vertex -2.075000e+01 -1.575000e+01  1.200000e+00
     vertex -2.075000e+01 -1.425000e+01  1.200000e+00
   endloop
 endfacet
 facet normal  0.000000e+00 -0.000000e+00 -1.000000e+00
   outer loop
     vertex -1.925000e+01 -1.425000e+01  1.200000e+00
     vertex -1.925000e+01 -1.575000e+01  1.200000e+00
     vertex -2.075000e+01 -1.575000e+01  1.200000e+00
   endloop
 endfacet
 facet normal  1.000000e+00  0.000000e+00  0.000000e+00
   outer loop
     vertex -2.075000e+01 -1.750000e+01  1.200000e+00
     vertex -2.075000e+01 -1.750000e+01  0.000000e+00
     vertex -2.075000e+01 -1.575000e+01  0.000000e+00
   endloop
 endfacet
 facet normal  1.000000e+00 -0.000000e+00  0.000000e+00
   outer loop
     vertex -2.075000e+01 -1.750000e+01  1.200000e+00
     vertex -2.075000e+01 -1.575000e+01  0.000000e+00
     vertex -2.075000e+01 -1.575000e+01  1.200000e+00
   endloop
 endfacet
 facet normal -0.000000e+00  0.000000e+00 -1.000000e+00
   outer loop
     vertex -1.925000e+01 -1.575000e+01  1.200000e+00
     vertex -2.075000e+01 -1.750000e+01  1.200000e+00
     vertex -2.075000e+01 -1.575000e+01  1.200000e+00
   endloop
 endfacet
 facet normal  0.000000e+00 -0.000000e+00 -1.000000e+00
   outer loop
     vertex -1.925000e+01 -1.575000e+01  1.200000e+00
     vertex -1.925000e+01 -1.750000e+01  1.200000e+00
     vertex -2.075000e+01 -1.750000e+01  1.200000e+00
   endloop
 endfacet
 facet normal -1.000000e+00  0.000000e+00  0.000000e+00
   outer loop
     vertex -1.925000e+01 -1.750000e+01  1.200000e+00
     vertex -1.925000e+01 -1.575000e+01  0.000000e+00
     vertex -1.925000e+01 -1.750000e+01  0.000000e+00
   endloop
 endfacet
 facet normal -1.000000e+00  0.000000e+00  0.000000e+00
   outer loop
     vertex -1.925000e+01 -1.750000e+01  1.200000e+00
     vertex -1.925000e+01 -1.575000e+01  1.200000e+00
     vertex -1.925000e+01 -1.575000e+01  0.000000e+00
   endloop
 endfacet
 facet normal -0.000000e+00  0.000000e+00 -1.000000e+00
   outer loop
     vertex -7.500000e-01 -1.575000e+01  0.000000e+00
     vertex -1.925000e+01 -1.750000e+01  0.000000e+00
     vertex -1.925000e+01 -1.575000e+01  0.000000e+00
   endloop
 endfacet
 facet normal  0.000000e+00 -0.000000e+00 -1.000000e+00
   outer loop
     vertex -7.500000e-01 -1.575000e+01  0.000000e+00
     vertex -7.500000e-01 -1.750000e+01  0.000000e+00
     vertex -1.925000e+01 -1.750000e+01  0.000000e+00
   endloop
 endfacet
 facet normal  1.000000e+00  0.000000e+00  0.000000e+00
   outer loop
     vertex -7.500000e-01 -1.750000e+01  1.200000e+00
     vertex -7.500000e-01 -1.750000e+01  0.000000e+00
     vertex -7.500000e-01 -1.575000e+01  0.000000e+00
   endloop
 endfacet
 facet normal  1.000000e+00 -0.000000e+00  0.000000e+00
   outer loop
     vertex -7.500000e-01 -1.750000e+01  1.200000e+00
     vertex -7.500000e-01 -1.575000e+01  0.000000e+00
     vertex -7.500000e-01 -1.575000e+01  1.200000e+00
   endloop
 endfacet
 facet normal -0.000000e+00  0.000000e+00 -1.000000e+00
   outer loop
     vertex  7.500000e-01 -1.575000e+01  1.200000e+00
     vertex -7.500000e-01 -1.750000e+01  1.200000e+00
     vertex -7.500000e-01 -1.575000e+01  1.200000e+00
   endloop
 endfacet
 facet normal  0.000000e+00 -0.000000e+00 -1.000000e+00
   outer loop
     vertex  7.500000e-01 -1.575000e+01  1.200000e+00
     vertex  7.500000e-01 -1.750000e+01  1.200000e+00
     vertex -7.500000e-01 -1.750000e+01  1.200000e+00
   endloop
 endfacet
 facet normal -1.000000e+00  0.000000e+00  0.000000e+00
   outer loop
     vertex  7.500000e-01 -1.750000e+01  1.200000e+00
     vertex  7.500000e-01 -1.575000e+01  0.000000e+00
     vertex  7.500000e-01 -1.750000e+01  0.000000e+00
   endloop
 endfacet
 facet normal -1.000000e+00  0.000000e+00  0.000000e+00
   outer loop
     vertex  7.500000e-01 -1.750000e+01  1.200000e+00
     vertex  7.500000e-01 -1.575000e+01  1.200000e+00
     vertex  7.500000e-01 -1.575000e+01  0.000000e+00
   endloop
 endfacet
 facet normal  0.000000e+00  0.000000e+00 -1.000000e+00
   outer loop
     vertex  1.925000e+01 -1.750000e+01  0.000000e+00
     vertex  7.500000e-01 -1.750000e+01  0.000000e+00
     vertex  7.500000e-01 -1.575000e+01  0.000000e+00
   endloop
 endfacet
 facet normal -0.000000e+00 -0.000000e+00 -1.000000e+00
   outer loop
     vertex  1.925000e+01 -1.575000e+01  0.000000e+00
     vertex  1.925000e+01 -1.750000e+01  0.000000e+00
     vertex  7.500000e-01 -1.575000e+01  0.000000e+00
   endloop
 endfacet
 facet normal  1.000000e+00  0.000000e+00  0.000000e+00
   outer loop
     vertex  1.925000e+01 -1.750000e+01  1.200000e+00
     vertex  1.925000e+01 -1.750000e+01  0.000000e+00
     vertex  1.925000e+01 -1.575000e+01  0.000000e+00
   endloop
 endfacet
 facet normal  1.000000e+00 -0.000000e+00  0.000000e+00
   outer loop
     vertex  1.925000e+01 -1.750000e+01  1.200000e+00
     vertex  1.925000e+01 -1.575000e+01  0.000000e+00
     vertex  1.925000e+01 -1.575000e+01  1.200000e+00
   endloop
 endfacet
 facet normal -0.000000e+00  0.000000e+00 -1.000000e+00
   outer loop
     vertex  2.075000e+01 -1.575000e+01  1.200000e+00
     vertex  1.925000e+01 -1.750000e+01  1.200000e+00
     vertex  1.925000e+01 -1.575000e+01  1.200000e+00
   endloop
 endfacet
 facet normal  0.000000e+00 -0.000000e+00 -1.000000e+00
   outer loop
     vertex  2.075000e+01 -1.575000e+01  1.200000e+00
     vertex  2.075000e+01 -1.750000e+01  1.200000e+00
     vertex  1.925000e+01 -1.750000e+01  1.200000e+00
   endloop
 endfacet
 facet normal -1.000000e+00  0.000000e+00  0.000000e+00
   outer loop
     vertex  2.075000e+01 -1.750000e+01  1.200000e+00
     vertex  2.075000e+01 -1.575000e+01  0.000000e+00
     vertex  2.075000e+01 -1.750000e+01  0.000000e+00
   endloop
 endfacet
 facet normal -1.000000e+00  0.000000e+00  0.000000e+00
   outer loop
     vertex  2.075000e+01 -1.750000e+01  1.200000e+00
     vertex  2.075000e+01 -1.575000e+01  1.200000e+00
     vertex  2.075000e+01 -1.575000e+01  0.000000e+00
   endloop
 endfacet
 facet normal -0.000000e+00  0.000000e+00 -1.000000e+00
   outer loop
     vertex  3.300000e+01 -1.575000e+01  0.000000e+00
     vertex  2.075000e+01 -1.750000e+01  0.000000e+00
     vertex  2.075000e+01 -1.575000e+01  0.000000e+00
   endloop
 endfacet
 facet normal  0.000000e+00 -0.000000e+00 -1.000000e+00
   outer loop
     vertex  3.300000e+01 -1.575000e+01  0.000000e+00
     vertex  3.300000e+01 -1.750000e+01  0.000000e+00
     vertex  2.075000e+01 -1.750000e+01  0.000000e+00
   endloop
 endfacet
 facet normal -0.000000e+00  0.000000e+00 -1.000000e+00
   outer loop
     vertex  3.300000e+01 -1.750000e+01  9.000000e+00
     vertex -3.300000e+01 -2.000000e+01  9.000000e+00
     vertex -3.300000e+01 -1.750000e+01  9.000000e+00
   endloop
 endfacet
 facet normal  0.000000e+00 -0.000000e+00 -1.000000e+00
   outer loop
     vertex  3.300000e+01 -1.750000e+01  9.000000e+00
     vertex  3.300000e+01 -2.000000e+01  9.000000e+00
     vertex -3.300000e+01 -2.000000e+01  9.000000e+00
   endloop
 endfacet
 facet normal  0.000000e+00 -1.000000e+00 -0.000000e+00
   outer loop
     vertex  3.300000e+01 -2.000000e+01  1.250000e+01
     vertex -3.300000e+01 -2.000000e+01  9.000000e+00
     vertex  3.300000e+01 -2.000000e+01  9.000000e+00
   endloop
 endfacet
 facet normal -0.000000e+00 -1.000000e+00  0.000000e+00
   outer loop
     vertex  3.300000e+01 -2.000000e+01  1.250000e+01
     vertex -3.300000e+01 -2.000000e+01  1.250000e+01
     vertex -3.300000e+01 -2.000000e+01  9.000000e+00
   endloop
 endfacet
 facet normal  0.000000e+00  0.000000e+00  1.000000e+00
   outer loop
     vertex  3.300000e+01 -1.750000e+01  1.250000e+01
     vertex -3.300000e+01 -1.750000e+01  1.250000e+01
     vertex -3.300000e+01 -2.000000e+01  1.250000e+01
   endloop
 endfacet
 facet normal  0.000000e+00  0.000000e+00  1.000000e+00
   outer loop
     vertex  3.300000e+01 -1.750000e+01  1.250000e+01
     vertex -3.300000e+01 -2.000000e+01  1.250000e+01
     vertex  3.300000e+01 -2.000000e+01  1.250000e+01
   endloop
 endfacet
 facet normal  0.000000e+00  1.000000e+00  0.000000e+00
   outer loop
     vertex  2.950000e+01 -1.475000e+01  2.300000e+01
     vertex  2.950000e+01 -1.475000e+01  2.000000e+00
     vertex -2.950000e+01 -1.475000e+01  2.000000e+00
   endloop
 endfacet
 facet normal  0.000000e+00  1.000000e+00  0.000000e+00
   outer loop
     vertex  2.950000e+01 -1.475000e+01  2.300000e+01
     vertex -2.950000e+01 -1.475000e+01  2.000000e+00
     vertex -2.950000e+01 -1.475000e+01  2.300000e+01
   endloop
 endfacet
 facet normal -1.000000e+00  0.000000e+00  0.000000e+00
   outer loop
     vertex  2.950000e+01 -1.475000e+01  2.300000e+01
     vertex  2.950000e+01  1.475000e+01  2.000000e+00
     vertex  2.950000e+01 -1.475000e+01  2.000000e+00
   endloop
 endfacet
 facet normal -1.000000e+00  0.000000e+00  0.000000e+00
   outer loop
     vertex  2.950000e+01 -1.475000e+01  2.300000e+01
     vertex  2.950000e+01  1.475000e+01  2.300000e+01
     vertex  2.950000e+01  1.475000e+01  2.000000e+00
   endloop
 endfacet
 facet normal  0.000000e+00 -1.000000e+00 -0.000000e+00
   outer loop
     vertex  2.950000e+01  1.475000e+01  2.300000e+01
     vertex -2.950000e+01  1.475000e+01  2.000000e+00
     vertex  2.950000e+01  1.475000e+01  2.000000e+00
   endloop
 endfacet
 facet normal -0.000000e+00 -1.000000e+00  0.000000e+00
   outer loop
     vertex  2.950000e+01  1.475000e+01  2.300000e+01
     vertex -2.950000e+01  1.475000e+01  2.300000e+01
     vertex -2.950000e+01  1.475000e+01  2.000000e+00
   endloop
 endfacet
 facet normal  1.000000e+00  0.000000e+00  0.000000e+00
   outer loop
     vertex -2.950000e+01 -1.475000e+01  2.300000e+01
     vertex -2.950000e+01 -1.475000e+01  2.000000e+00
     vertex -2.950000e+01  1.475000e+01  2.000000e+00
   endloop
 endfacet
 facet normal  1.000000e+00 -0.000000e+00  0.000000e+00
   outer loop
     vertex -2.950000e+01 -1.475000e+01  2.300000e+01
     vertex -2.950000e+01  1.475000e+01  2.000000e+00
     vertex -2.950000e+01  1.475000e+01  2.300000e+01
   endloop
 endfacet
 facet normal  0.000000e+00 -1.000000e+00 -0.000000e+00
   outer loop
     vertex -7.500000e-01  1.575000e+01  1.200000e+00
     vertex -1.925000e+01  1.575000e+01  0.000000e+00
     vertex -7.500000e-01  1.575000e+01  0.000000e+00
   endloop
 endfacet
 facet normal -0.000000e+00 -1.000000e+00  0.000000e+00
   outer loop
     vertex -7.500000e-01  1.575000e+01  1.200000e+00
     vertex -1.925000e+01  1.575000e+01  1.200000e+00
     vertex -1.925000e+01  1.575000e+01  0.000000e+00
   endloop
 endfacet
 facet normal -0.000000e+00  0.000000e+00 -1.000000e+00
   outer loop
     vertex  7.500000e-01  1.575000e+01  1.200000e+00
     vertex -7.500000e-01  1.425000e+01  1.200000e+00
     vertex -7.500000e-01  1.575000e+01  1.200000e+00
   endloop
 endfacet
 facet normal  0.000000e+00 -0.000000e+00 -1.000000e+00
   outer loop
     vertex  7.500000e-01  1.575000e+01  1.200000e+00
     vertex  7.500000e-01  1.425000e+01  1.200000e+00
     vertex -7.500000e-01  1.425000e+01  1.200000e+00
   endloop
 endfacet
 facet normal  0.000000e+00 -1.000000e+00  0.000000e+00
   outer loop
     vertex  1.925000e+01  1.575000e+01  0.000000e+00
     vertex  7.500000e-01  1.575000e+01  1.200000e+00
     vertex  7.500000e-01  1.575000e+01  0.000000e+00
   endloop
 endfacet
 facet normal -0.000000e+00 -1.000000e+00 -0.000000e+00
   outer loop
     vertex  1.925000e+01  1.575000e+01  1.200000e+00
     vertex  7.500000e-01  1.575000e+01  1.200000e+00
     vertex  1.925000e+01  1.575000e+01  0.000000e+00
   endloop
 endfacet
 facet normal -0.000000e+00  0.000000e+00 -1.000000e+00
   outer loop
     vertex  2.075000e+01  1.575000e+01  1.200000e+00
     vertex  1.925000e+01  1.425000e+01  1.200000e+00
     vertex  1.925000e+01  1.575000e+01  1.200000e+00
   endloop
 endfacet
 facet normal  0.000000e+00 -0.000000e+00 -1.000000e+00
   outer loop
     vertex  2.075000e+01  1.575000e+01  1.200000e+00
     vertex  2.075000e+01  1.425000e+01  1.200000e+00
     vertex  1.925000e+01  1.425000e+01  1.200000e+00
   endloop
 endfacet
 facet normal  0.000000e+00 -1.000000e+00 -0.000000e+00
   outer loop
     vertex  3.300000e+01  1.575000e+01  1.200000e+00
     vertex  2.075000e+01  1.575000e+01  0.000000e+00
     vertex  3.300000e+01  1.575000e+01  0.000000e+00
   endloop
 endfacet
 facet normal -0.000000e+00 -1.000000e+00  0.000000e+00
   outer loop
     vertex  3.300000e+01  1.575000e+01  1.200000e+00
     vertex  2.075000e+01  1.575000e+01  1.200000e+00
     vertex  2.075000e+01  1.575000e+01  0.000000e+00
   endloop
 endfacet
 facet normal  1.000000e+00  0.000000e+00  0.000000e+00
   outer loop
     vertex  3.300000e+01  1.750000e+01  1.250000e+01
     vertex  3.300000e+01  1.750000e+01  9.000000e+00
     vertex  3.300000e+01  2.000000e+01  9.000000e+00
   endloop
 endfacet
 facet normal  1.000000e+00 -0.000000e+00  0.000000e+00
   outer loop
     vertex  3.300000e+01  1.750000e+01  1.250000e+01
     vertex  3.300000e+01  2.000000e+01  9.000000e+00
     vertex  3.300000e+01  2.000000e+01  1.250000e+01
   endloop
 endfacet
 facet normal -0.000000e+00  0.000000e+00 -1.000000e+00
   outer loop
     vertex  3.300000e+01  1.575000e+01  1.200000e+00
     vertex  2.075000e+01  1.425000e+01  1.200000e+00
     vertex  2.075000e+01  1.575000e+01  1.200000e+00
   endloop
 endfacet
 facet normal  0.000000e+00 -0.000000e+00 -1.000000e+00
   outer loop
     vertex  3.300000e+01  1.575000e+01  1.200000e+00
     vertex  3.300000e+01  1.425000e+01  1.200000e+00
     vertex  2.075000e+01  1.425000e+01  1.200000e+00
   endloop
 endfacet
 facet normal  0.000000e+00  1.000000e+00  0.000000e+00
   outer loop
     vertex  3.300000e+01  1.425000e+01  1.200000e+00
     vertex  3.300000e+01  1.425000e+01  0.000000e+00
     vertex  2.075000e+01  1.425000e+01  0.000000e+00
   endloop
 endfacet
 facet normal  0.000000e+00  1.000000e+00  0.000000e+00
   outer loop
     vertex  3.300000e+01  1.425000e+01  1.200000e+00
     vertex  2.075000e+01  1.425000e+01  0.000000e+00
     vertex  2.075000e+01  1.425000e+01  1.200000e+00
   endloop
 endfacet
 facet normal -0.000000e+00  0.000000e+00 -1.000000e+00
   outer loop
     vertex  3.300000e+01  1.425000e+01  0.000000e+00
     vertex  2.075000e+01  8.250000e+00  0.000000e+00
     vertex  2.075000e+01  1.425000e+01  0.000000e+00
   endloop
 endfacet
 facet normal  0.000000e+00 -0.000000e+00 -1.000000e+00
   outer loop
     vertex  3.300000e+01  1.425000e+01  0.000000e+00
     vertex  3.300000e+01  8.250000e+00  0.000000e+00
     vertex  2.075000e+01  8.250000e+00  0.000000e+00
   endloop
 endfacet
 facet normal  1.000000e+00  0.000000e+00  0.000000e+00
   outer loop
     vertex  3.300000e+01 -2.000000e+01  1.250000e+01
     vertex  3.300000e+01 -2.000000e+01  9.000000e+00
     vertex  3.300000e+01 -1.750000e+01  9.000000e+00
   endloop
 endfacet
 facet normal  1.000000e+00 -0.000000e+00  0.000000e+00
   outer loop
     vertex  3.300000e+01 -2.000000e+01  1.250000e+01
     vertex  3.300000e+01 -1.750000e+01  9.000000e+00
     vertex  3.300000e+01 -1.750000e+01  1.250000e+01
   endloop
 endfacet
 facet normal  0.000000e+00 -1.000000e+00 -0.000000e+00
   outer loop
     vertex  3.300000e+01  8.250000e+00  1.200000e+00
     vertex  2.075000e+01  8.250000e+00  0.000000e+00
     vertex  3.300000e+01  8.250000e+00  0.000000e+00
   endloop
 endfacet
 facet normal -0.000000e+00 -1.000000e+00  0.000000e+00
   outer loop
     vertex  3.300000e+01  8.250000e+00  1.200000e+00
     vertex  2.075000e+01  8.250000e+00  1.200000e+00
     vertex  2.075000e+01  8.250000e+00  0.000000e+00
   endloop
 endfacet
 facet normal -0.000000e+00  0.000000e+00 -1.000000e+00
   outer loop
     vertex  3.300000e+01  8.250000e+00  1.200000e+00
     vertex  2.075000e+01  6.750000e+00  1.200000e+00
     vertex  2.075000e+01  8.250000e+00  1.200000e+00
   endloop
 endfacet
 facet normal  0.000000e+00 -0.000000e+00 -1.000000e+00
   outer loop
     vertex  3.300000e+01  8.250000e+00  1.200000e+00
     vertex  3.300000e+01  6.750000e+00  1.200000e+00
     vertex  2.075000e+01  6.750000e+00  1.200000e+00
   endloop
 endfacet
 facet normal  0.000000e+00  1.000000e+00  0.000000e+00
   outer loop
     vertex  3.300000e+01  6.750000e+00  1.200000e+00
     vertex  3.300000e+01  6.750000e+00  0.000000e+00
     vertex  2.075000e+01  6.750000e+00  0.000000e+00
   endloop
 endfacet
 facet normal  0.000000e+00  1.000000e+00  0.000000e+00
   outer loop
     vertex  3.300000e+01  6.750000e+00  1.200000e+00
     vertex  2.075000e+01  6.750000e+00  0.000000e+00
     vertex  2.075000e+01  6.750000e+00  1.200000e+00
   endloop
 endfacet
 facet normal  0.000000e+00  1.000000e+00  0.000000e+00
   outer loop
     vertex  3.300000e+01 -1.575000e+01  1.200000e+00
     vertex  3.300000e+01 -1.575000e+01  0.000000e+00
     vertex  2.075000e+01 -1.575000e+01  0.000000e+00
   endloop
 endfacet
 facet normal  0.000000e+00  1.000000e+00  0.000000e+00
   outer loop
     vertex  3.300000e+01 -1.575000e+01  1.200000e+00
     vertex  2.075000e+01 -1.575000e+01  0.000000e+00
     vertex  2.075000e+01 -1.575000e+01  1.200000e+00
   endloop
 endfacet
 facet normal -0.000000e+00  0.000000e+00 -1.000000e+00
   outer loop
     vertex  3.300000e+01  6.750000e+00  0.000000e+00
     vertex  2.075000e+01 -6.750000e+00  0.000000e+00
     vertex  2.075000e+01  6.750000e+00  0.000000e+00
   endloop
 endfacet
 facet normal  0.000000e+00 -0.000000e+00 -1.000000e+00
   outer loop
     vertex  3.300000e+01  6.750000e+00  0.000000e+00
     vertex  3.300000e+01 -6.750000e+00  0.000000e+00
     vertex  2.075000e+01 -6.750000e+00  0.000000e+00
   endloop
 endfacet
 facet normal -0.000000e+00  0.000000e+00 -1.000000e+00
   outer loop
     vertex  3.300000e+01 -1.425000e+01  1.200000e+00
     vertex  2.075000e+01 -1.575000e+01  1.200000e+00
     vertex  2.075000e+01 -1.425000e+01  1.200000e+00
   endloop
 endfacet
 facet normal  0.000000e+00 -0.000000e+00 -1.000000e+00
   outer loop
     vertex  3.300000e+01 -1.425000e+01  1.200000e+00
     vertex  3.300000e+01 -1.575000e+01  1.200000e+00
     vertex  2.075000e+01 -1.575000e+01  1.200000e+00
   endloop
 endfacet
 facet normal  0.000000e+00 -1.000000e+00 -0.000000e+00
   outer loop
     vertex  3.300000e+01 -6.750000e+00  1.200000e+00
     vertex  2.075000e+01 -6.750000e+00  0.000000e+00
     vertex  3.300000e+01 -6.750000e+00  0.000000e+00
   endloop
 endfacet
 facet normal -0.000000e+00 -1.000000e+00  0.000000e+00
   outer loop
     vertex  3.300000e+01 -6.750000e+00  1.200000e+00
     vertex  2.075000e+01 -6.750000e+00  1.200000e+00
     vertex  2.075000e+01 -6.750000e+00  0.000000e+00
   endloop
 endfacet
 facet normal  0.000000e+00 -1.000000e+00 -0.000000e+00
   outer loop
     vertex  3.300000e+01 -1.425000e+01  1.200000e+00
     vertex  2.075000e+01 -1.425000e+01  0.000000e+00
     vertex  3.300000e+01 -1.425000e+01  0.000000e+00
   endloop
 endfacet
 facet normal -0.000000e+00 -1.000000e+00  0.000000e+00
   outer loop
     vertex  3.300000e+01 -1.425000e+01  1.200000e+00
     vertex  2.075000e+01 -1.425000e+01  1.200000e+00
     vertex  2.075000e+01 -1.425000e+01  0.000000e+00
   endloop
 endfacet
 facet normal -0.000000e+00  0.000000e+00 -1.000000e+00
   outer loop
     vertex  3.300000e+01 -6.750000e+00  1.200000e+00
     vertex  2.075000e+01 -8.250000e+00  1.200000e+00
     vertex  2.075000e+01 -6.750000e+00  1.200000e+00
   endloop
 endfacet
 facet normal  0.000000e+00 -0.000000e+00 -1.000000e+00
   outer loop
     vertex  3.300000e+01 -6.750000e+00  1.200000e+00
     vertex  3.300000e+01 -8.250000e+00  1.200000e+00
     vertex  2.075000e+01 -8.250000e+00  1.200000e+00
   endloop
 endfacet
 facet normal -0.000000e+00  0.000000e+00 -1.000000e+00
   outer loop
     vertex  3.300000e+01 -8.250000e+00  0.000000e+00
     vertex  2.075000e+01 -1.425000e+01  0.000000e+00
     vertex  2.075000e+01 -8.250000e+00  0.000000e+00
   endloop
 endfacet
 facet normal  0.000000e+00 -0.000000e+00 -1.000000e+00
   outer loop
     vertex  3.300000e+01 -8.250000e+00  0.000000e+00
     vertex  3.300000e+01 -1.425000e+01  0.000000e+00
     vertex  2.075000e+01 -1.425000e+01  0.000000e+00
   endloop
 endfacet
 facet normal  0.000000e+00  1.000000e+00  0.000000e+00
   outer loop
     vertex  3.300000e+01 -8.250000e+00  1.200000e+00
     vertex  3.300000e+01 -8.250000e+00  0.000000e+00
     vertex  2.075000e+01 -8.250000e+00  0.000000e+00
   endloop
 endfacet
 facet normal  0.000000e+00  1.000000e+00  0.000000e+00
   outer loop
     vertex  3.300000e+01 -8.250000e+00  1.200000e+00
     vertex  2.075000e+01 -8.250000e+00  0.000000e+00
     vertex  2.075000e+01 -8.250000e+00  1.200000e+00
   endloop
 endfacet
 facet normal -0.000000e+00  0.000000e+00 -1.000000e+00
   outer loop
     vertex  3.900000e+01  7.000000e+00  1.800000e+01
     vertex  3.300000e+01 -7.000000e+00  1.800000e+01
     vertex  3.300000e+01  7.000000e+00  1.800000e+01
   endloop
 endfacet
 facet normal  0.000000e+00 -0.000000e+00 -1.000000e+00
   outer loop
     vertex  3.900000e+01  7.000000e+00  1.800000e+01
     vertex  3.900000e+01 -7.000000e+00  1.800000e+01
     vertex  3.300000e+01 -7.000000e+00  1.800000e+01
   endloop
 endfacet
 facet normal  0.000000e+00  1.000000e+00  0.000000e+00
   outer loop
     vertex  3.900000e+01  7.000000e+00  2.200000e+01
     vertex  3.900000e+01  7.000000e+00  1.800000e+01
     vertex  3.300000e+01  7.000000e+00  1.800000e+01
   endloop
 endfacet
 facet normal  0.000000e+00  1.000000e+00  0.000000e+00
   outer loop
     vertex  3.900000e+01  7.000000e+00  2.200000e+01
     vertex  3.300000e+01  7.000000e+00  1.800000e+01
     vertex  3.300000e+01  7.000000e+00  2.200000e+01
   endloop
 endfacet
 facet normal  0.000000e+00  0.000000e+00  1.000000e+00
   outer loop
     vertex  3.900000e+01  7.000000e+00  2.200000e+01
     vertex  3.300000e+01  7.000000e+00  2.200000e+01
     vertex  3.300000e+01 -7.000000e+00  2.200000e+01
   endloop
 endfacet
 facet normal  0.000000e+00  0.000000e+00  1.000000e+00
   outer loop
     vertex  3.900000e+01  7.000000e+00  2.200000e+01
     vertex  3.300000e+01 -7.000000e+00  2.200000e+01
     vertex  3.900000e+01 -7.000000e+00  2.200000e+01
   endloop
 endfacet
 facet normal  0.000000e+00 -1.000000e+00 -0.000000e+00
   outer loop
     vertex  3.900000e+01 -7.000000e+00  2.200000e+01
     vertex  3.300000e+01 -7.000000e+00  1.800000e+01
     vertex  3.900000e+01 -7.000000e+00  1.800000e+01
   endloop
 endfacet
 facet normal -0.000000e+00 -1.000000e+00  0.000000e+00
   outer loop
     vertex  3.900000e+01 -7.000000e+00  2.200000e+01
     vertex  3.300000e+01 -7.000000e+00  2.200000e+01
     vertex  3.300000e+01 -7.000000e+00  1.800000e+01
   endloop
 endfacet
 facet normal -0.000000e+00  0.000000e+00 -1.000000e+00
   outer loop
     vertex -7.500000e-01  1.575000e+01  1.200000e+00
     vertex -1.925000e+01  1.425000e+01  1.200000e+00
     vertex -1.925000e+01  1.575000e+01  1.200000e+00
   endloop
 endfacet
 facet normal  0.000000e+00 -0.000000e+00 -1.000000e+00
   outer loop
     vertex -7.500000e-01  1.575000e+01  1.200000e+00
     vertex -7.500000e-01  1.425000e+01  1.200000e+00
     vertex -1.925000e+01  1.425000e+01  1.200000e+00
   endloop
 endfacet
 facet normal -0.000000e+00  0.000000e+00 -1.000000e+00
   outer loop
     vertex -1.925000e+01  1.425000e+01  1.200000e+00
     vertex -2.075000e+01  8.250000e+00  1.200000e+00
     vertex -2.075000e+01  1.425000e+01  1.200000e+00
   endloop
 endfacet
 facet normal  0.000000e+00 -0.000000e+00 -1.000000e+00
   outer loop
     vertex -1.925000e+01  1.425000e+01  1.200000e+00
     vertex -1.925000e+01  8.250000e+00  1.200000e+00
     vertex -2.075000e+01  8.250000e+00  1.200000e+00
   endloop
 endfacet
 facet normal -0.000000e+00  0.000000e+00 -1.000000e+00
   outer loop
     vertex -7.500000e-01  8.250000e+00  1.200000e+00
     vertex -1.925000e+01  6.750000e+00  1.200000e+00
     vertex -1.925000e+01  8.250000e+00  1.200000e+00
   endloop
 endfacet
 facet normal  0.000000e+00 -0.000000e+00 -1.000000e+00
   outer loop
     vertex -7.500000e-01  8.250000e+00  1.200000e+00
     vertex -7.500000e-01  6.750000e+00  1.200000e+00
     vertex -1.925000e+01  6.750000e+00  1.200000e+00
   endloop
 endfacet
 facet normal -0.000000e+00  0.000000e+00 -1.000000e+00
   outer loop
     vertex -1.925000e+01  6.750000e+00  1.200000e+00
     vertex -2.075000e+01 -6.750000e+00  1.200000e+00
     vertex -2.075000e+01  6.750000e+00  1.200000e+00
   endloop
 endfacet
 facet normal  0.000000e+00 -0.000000e+00 -1.000000e+00
   outer loop
     vertex -1.925000e+01  6.750000e+00  1.200000e+00
     vertex -1.925000e+01 -6.750000e+00  1.200000e+00
     vertex -2.075000e+01 -6.750000e+00  1.200000e+00
   endloop
 endfacet
 facet normal -0.000000e+00  0.000000e+00 -1.000000e+00
   outer loop
     vertex -7.500000e-01 -6.750000e+00  1.200000e+00
     vertex -1.925000e+01 -8.250000e+00  1.200000e+00
     vertex -1.925000e+01 -6.750000e+00  1.200000e+00
   endloop
 endfacet
 facet normal  0.000000e+00 -0.000000e+00 -1.000000e+00
   outer loop
     vertex -7.500000e-01 -6.750000e+00  1.200000e+00
     vertex -7.500000e-01 -8.250000e+00  1.200000e+00
     vertex -1.925000e+01 -8.250000e+00  1.200000e+00
   endloop
 endfacet
 facet normal -0.000000e+00  0.000000e+00 -1.000000e+00
   outer loop
     vertex -1.925000e+01 -8.250000e+00  1.200000e+00
     vertex -2.075000e+01 -1.425000e+01  1.200000e+00
     vertex -2.075000e+01 -8.250000e+00  1.200000e+00
   endloop
 endfacet
 facet normal  0.000000e+00 -0.000000e+00 -1.000000e+00
   outer loop
     vertex -1.925000e+01 -8.250000e+00  1.200000e+00
     vertex -1.925000e+01 -1.425000e+01  1.200000e+00
     vertex -2.075000e+01 -1.425000e+01  1.200000e+00
   endloop
 endfacet
 facet normal -0.000000e+00  0.000000e+00 -1.000000e+00
   outer loop
     vertex -7.500000e-01 -1.425000e+01  1.200000e+00
     vertex -1.925000e+01 -1.575000e+01  1.200000e+00
     vertex -1.925000e+01 -1.425000e+01  1.200000e+00
   endloop
 endfacet
 facet normal  0.000000e+00 -0.000000e+00 -1.000000e+00
   outer loop
     vertex -7.500000e-01 -1.425000e+01  1.200000e+00
     vertex -7.500000e-01 -1.575000e+01  1.200000e+00
     vertex -1.925000e+01 -1.575000e+01  1.200000e+00
   endloop
 endfacet
 facet normal  0.000000e+00  1.000000e+00  0.000000e+00
   outer loop
     vertex -7.500000e-01 -1.575000e+01  1.200000e+00
     vertex -7.500000e-01 -1.575000e+01  0.000000e+00
     vertex -1.925000e+01 -1.575000e+01  0.000000e+00
   endloop
 endfacet
 facet normal  0.000000e+00  1.000000e+00  0.000000e+00
   outer loop
     vertex -7.500000e-01 -1.575000e+01  1.200000e+00
     vertex -1.925000e+01 -1.575000e+01  0.000000e+00
     vertex -1.925000e+01 -1.575000e+01  1.200000e+00
   endloop
 endfacet
 facet normal -0.000000e+00  0.000000e+00 -1.000000e+00
   outer loop
     vertex  7.500000e-01 -1.425000e+01  1.200000e+00
     vertex -7.500000e-01 -1.575000e+01  1.200000e+00
     vertex -7.500000e-01 -1.425000e+01  1.200000e+00
   endloop
 endfacet
 facet normal  0.000000e+00 -0.000000e+00 -1.000000e+00
   outer loop
     vertex  7.500000e-01 -1.425000e+01  1.200000e+00
     vertex  7.500000e-01 -1.575000e+01  1.200000e+00
     vertex -7.500000e-01 -1.575000e+01  1.200000e+00
   endloop
 endfacet
 facet normal  0.000000e+00  1.000000e+00  0.000000e+00
   outer loop
     vertex  1.925000e+01 -1.575000e+01  0.000000e+00
     vertex  7.500000e-01 -1.575000e+01  0.000000e+00
     vertex  7.500000e-01 -1.575000e+01  1.200000e+00
   endloop
 endfacet
 facet normal  0.000000e+00  1.000000e+00  0.000000e+00
   outer loop
     vertex  1.925000e+01 -1.575000e+01  1.200000e+00
     vertex  1.925000e+01 -1.575000e+01  0.000000e+00
     vertex  7.500000e-01 -1.575000e+01  1.200000e+00
   endloop
 endfacet
 facet normal -0.000000e+00  0.000000e+00 -1.000000e+00
   outer loop
     vertex  2.075000e+01 -1.425000e+01  1.200000e+00
     vertex  1.925000e+01 -1.575000e+01  1.200000e+00
     vertex  1.925000e+01 -1.425000e+01  1.200000e+00
   endloop
 endfacet
 facet normal  0.000000e+00 -0.000000e+00 -1.000000e+00
   outer loop
     vertex  2.075000e+01 -1.425000e+01  1.200000e+00
     vertex  2.075000e+01 -1.575000e+01  1.200000e+00
     vertex  1.925000e+01 -1.575000e+01  1.200000e+00
   endloop
 endfacet
 facet normal  0.000000e+00  0.000000e+00  1.000000e+00
   outer loop
     vertex  2.950000e+01  1.475000e+01  2.000000e+00
     vertex -2.950000e+01  1.475000e+01  2.000000e+00
     vertex -2.950000e+01 -1.475000e+01  2.000000e+00
   endloop
 endfacet
 facet normal  0.000000e+00  0.000000e+00  1.000000e+00
   outer loop
     vertex  2.950000e+01  1.475000e+01  2.000000e+00
     vertex -2.950000e+01 -1.475000e+01  2.000000e+00
     vertex  2.950000e+01 -1.475000e+01  2.000000e+00
   endloop
 endfacet
 facet normal  0.000000e+00  0.000000e+00 -1.000000e+00
   outer loop
     vertex  1.925000e+01  1.425000e+01  1.200000e+00
     vertex  7.500000e-01  1.425000e+01  1.200000e+00
     vertex  7.500000e-01  1.575000e+01  1.200000e+00
   endloop
 endfacet
 facet normal -0.000000e+00 -0.000000e+00 -1.000000e+00
   outer loop
     vertex  1.925000e+01  1.575000e+01  1.200000e+00
     vertex  1.925000e+01  1.425000e+01  1.200000e+00
     vertex  7.500000e-01  1.575000e+01  1.200000e+00
   endloop
 endfacet
 facet normal -0.000000e+00  0.000000e+00 -1.000000e+00
   outer loop
     vertex  7.500000e-01  1.425000e+01  1.200000e+00
     vertex -7.500000e-01  8.250000e+00  1.200000e+00
     vertex -7.500000e-01  1.425000e+01  1.200000e+00
   endloop
 endfacet
 facet normal  0.000000e+00 -0.000000e+00 -1.000000e+00
   outer loop
     vertex  7.500000e-01  1.425000e+01  1.200000e+00
     vertex  7.500000e-01  8.250000e+00  1.200000e+00
     vertex -7.500000e-01  8.250000e+00  1.200000e+00
   endloop
 endfacet
 facet normal -0.000000e+00  0.000000e+00 -1.000000e+00
   outer loop
     vertex  2.075000e+01  1.425000e+01  1.200000e+00
     vertex  1.925000e+01  8.250000e+00  1.200000e+00
     vertex  1.925000e+01  1.425000e+01  1.200000e+00
   endloop
 endfacet
 facet normal  0.000000e+00 -0.000000e+00 -1.000000e+00
   outer loop
     vertex  2.075000e+01  1.425000e+01  1.200000e+00
     vertex  2.075000e+01  8.250000e+00  1.200000e+00
     vertex  1.925000e+01  8.250000e+00  1.200000e+00
   endloop
 endfacet
 facet normal -1.000000e+00  0.000000e+00  0.000000e+00
   outer loop
     vertex  2.075000e+01  8.250000e+00  1.200000e+00
     vertex  2.075000e+01  1.425000e+01  0.000000e+00
     vertex  2.075000e+01  8.250000e+00  0.000000e+00
   endloop
 endfacet
 facet normal -1.000000e+00  0.000000e+00  0.000000e+00
   outer loop
     vertex  2.075000e+01  8.250000e+00  1.200000e+00
     vertex  2.075000e+01  1.425000e+01  1.200000e+00
     vertex  2.075000e+01  1.425000e+01  0.000000e+00
   endloop
 endfacet
 facet normal -0.000000e+00  0.000000e+00 -1.000000e+00
   outer loop
     vertex  2.075000e+01  8.250000e+00  1.200000e+00
     vertex  1.925000e+01  6.750000e+00  1.200000e+00
     vertex  1.925000e+01  8.250000e+00  1.200000e+00
   endloop
 endfacet
 facet normal  0.000000e+00 -0.000000e+00 -1.000000e+00
   outer loop
     vertex  2.075000e+01  8.250000e+00  1.200000e+00
     vertex  2.075000e+01  6.750000e+00  1.200000e+00
     vertex  1.925000e+01  6.750000e+00  1.200000e+00
   endloop
 endfacet
 facet normal -1.000000e+00  0.000000e+00  0.000000e+00
   outer loop
     vertex  2.075000e+01 -6.750000e+00  1.200000e+00
     vertex  2.075000e+01  6.750000e+00  0.000000e+00
     vertex  2.075000e+01 -6.750000e+00  0.000000e+00
   endloop
 endfacet
 facet normal -1.000000e+00  0.000000e+00  0.000000e+00
   outer loop
     vertex  2.075000e+01 -6.750000e+00  1.200000e+00
     vertex  2.075000e+01  6.750000e+00  1.200000e+00
     vertex  2.075000e+01  6.750000e+00  0.000000e+00
   endloop
 endfacet
 facet normal -1.000000e+00  0.000000e+00  0.000000e+00
   outer loop
     vertex  2.075000e+01 -1.425000e+01  1.200000e+00
     vertex  2.075000e+01 -8.250000e+00  0.000000e+00
     vertex  2.075000e+01 -1.425000e+01  0.000000e+00
   endloop
 endfacet
 facet normal -1.000000e+00  0.000000e+00  0.000000e+00
   outer loop
     vertex  2.075000e+01 -1.425000e+01  1.200000e+00
     vertex  2.075000e+01 -8.250000e+00  1.200000e+00
     vertex  2.075000e+01 -8.250000e+00  0.000000e+00
   endloop
 endfacet
 facet normal -0.000000e+00  0.000000e+00 -1.000000e+00
   outer loop
     vertex  2.075000e+01 -6.750000e+00  1.200000e+00
     vertex  1.925000e+01 -8.250000e+00  1.200000e+00
     vertex  1.925000e+01 -6.750000e+00  1.200000e+00
   endloop
 endfacet
 facet normal  0.000000e+00 -0.000000e+00 -1.000000e+00
   outer loop
     vertex  2.075000e+01 -6.750000e+00  1.200000e+00
     vertex  2.075000e+01 -8.250000e+00  1.200000e+00
     vertex  1.925000e+01 -8.250000e+00  1.200000e+00
   endloop
 endfacet
 facet normal  1.000000e+00  0.000000e+00  0.000000e+00
   outer loop
     vertex  3.900000e+01 -7.000000e+00  2.200000e+01
     vertex  3.900000e+01 -7.000000e+00  1.800000e+01
     vertex  3.900000e+01  7.000000e+00  1.800000e+01
   endloop
 endfacet
 facet normal  1.000000e+00 -0.000000e+00  0.000000e+00
   outer loop
     vertex  3.900000e+01 -7.000000e+00  2.200000e+01
     vertex  3.900000e+01  7.000000e+00  1.800000e+01
     vertex  3.900000e+01  7.000000e+00  2.200000e+01
   endloop
 endfacet
 facet normal  0.000000e+00  1.000000e+00  0.000000e+00
   outer loop
     vertex -7.500000e-01  1.425000e+01  1.200000e+00
     vertex -7.500000e-01  1.425000e+01  0.000000e+00
     vertex -1.925000e+01  1.425000e+01  0.000000e+00
   endloop
 endfacet
 facet normal  0.000000e+00  1.000000e+00  0.000000e+00
   outer loop
     vertex -7.500000e-01  1.425000e+01  1.200000e+00
     vertex -1.925000e+01  1.425000e+01  0.000000e+00
     vertex -1.925000e+01  1.425000e+01  1.200000e+00
   endloop
 endfacet
 facet normal -1.000000e+00  0.000000e+00  0.000000e+00
   outer loop
     vertex -1.925000e+01  8.250000e+00  1.200000e+00
     vertex -1.925000e+01  1.425000e+01  0.000000e+00
     vertex -1.925000e+01  8.250000e+00  0.000000e+00
   endloop
 endfacet
 facet normal -1.000000e+00  0.000000e+00  0.000000e+00
   outer loop
     vertex -1.925000e+01  8.250000e+00  1.200000e+00
     vertex -1.925000e+01  1.425000e+01  1.200000e+00
     vertex -1.925000e+01  1.425000e+01  0.000000e+00
   endloop
 endfacet
 facet normal  0.000000e+00 -1.000000e+00 -0.000000e+00
   outer loop
     vertex -7.500000e-01  8.250000e+00  1.200000e+00
     vertex -1.925000e+01  8.250000e+00  0.000000e+00
     vertex -7.500000e-01  8.250000e+00  0.000000e+00
   endloop
 endfacet
 facet normal -0.000000e+00 -1.000000e+00  0.000000e+00
   outer loop
     vertex -7.500000e-01  8.250000e+00  1.200000e+00
     vertex -1.925000e+01  8.250000e+00  1.200000e+00
     vertex -1.925000e+01  8.250000e+00  0.000000e+00
   endloop
 endfacet
 facet normal -0.000000e+00  0.000000e+00 -1.000000e+00
   outer loop
     vertex  7.500000e-01  8.250000e+00  1.200000e+00
     vertex -7.500000e-01  6.750000e+00  1.200000e+00
     vertex -7.500000e-01  8.250000e+00  1.200000e+00
   endloop
 endfacet
 facet normal  0.000000e+00 -0.000000e+00 -1.000000e+00
   outer loop
     vertex  7.500000e-01  8.250000e+00  1.200000e+00
     vertex  7.500000e-01  6.750000e+00  1.200000e+00
     vertex -7.500000e-01  6.750000e+00  1.200000e+00
   endloop
 endfacet
 facet normal  0.000000e+00  1.000000e+00  0.000000e+00
   outer loop
     vertex -7.500000e-01  6.750000e+00  1.200000e+00
     vertex -7.500000e-01  6.750000e+00  0.000000e+00
     vertex -1.925000e+01  6.750000e+00  0.000000e+00
   endloop
 endfacet
 facet normal  0.000000e+00  1.000000e+00  0.000000e+00
   outer loop
     vertex -7.500000e-01  6.750000e+00  1.200000e+00
     vertex -1.925000e+01  6.750000e+00  0.000000e+00
     vertex -1.925000e+01  6.750000e+00  1.200000e+00
   endloop
 endfacet
 facet normal -1.000000e+00  0.000000e+00  0.000000e+00
   outer loop
     vertex -1.925000e+01 -6.750000e+00  1.200000e+00
     vertex -1.925000e+01  6.750000e+00  0.000000e+00
     vertex -1.925000e+01 -6.750000e+00  0.000000e+00
   endloop
 endfacet
 facet normal -1.000000e+00  0.000000e+00  0.000000e+00
   outer loop
     vertex -1.925000e+01 -6.750000e+00  1.200000e+00
     vertex -1.925000e+01  6.750000e+00  1.200000e+00
     vertex -1.925000e+01  6.750000e+00  0.000000e+00
   endloop
 endfacet
 facet normal  0.000000e+00 -1.000000e+00 -0.000000e+00
   outer loop
     vertex -7.500000e-01 -6.750000e+00  1.200000e+00
     vertex -1.925000e+01 -6.750000e+00  0.000000e+00
     vertex -7.500000e-01 -6.750000e+00  0.000000e+00
   endloop
 endfacet
 facet normal -0.000000e+00 -1.000000e+00  0.000000e+00
   outer loop
     vertex -7.500000e-01 -6.750000e+00  1.200000e+00
     vertex -1.925000e+01 -6.750000e+00  1.200000e+00
     vertex -1.925000e+01 -6.750000e+00  0.000000e+00
   endloop
 endfacet
 facet normal -0.000000e+00  0.000000e+00 -1.000000e+00
   outer loop
     vertex  7.500000e-01 -6.750000e+00  1.200000e+00
     vertex -7.500000e-01 -8.250000e+00  1.200000e+00
     vertex -7.500000e-01 -6.750000e+00  1.200000e+00
   endloop
 endfacet
 facet normal  0.000000e+00 -0.000000e+00 -1.000000e+00
   outer loop
     vertex  7.500000e-01 -6.750000e+00  1.200000e+00
     vertex  7.500000e-01 -8.250000e+00  1.200000e+00
     vertex -7.500000e-01 -8.250000e+00  1.200000e+00
   endloop
 endfacet
 facet normal  0.000000e+00  1.000000e+00  0.000000e+00
   outer loop
     vertex -7.500000e-01 -8.250000e+00  1.200000e+00
     vertex -7.500000e-01 -8.250000e+00  0.000000e+00
     vertex -1.925000e+01 -8.250000e+00  0.000000e+00
   endloop
 endfacet
 facet normal  0.000000e+00  1.000000e+00  0.000000e+00
   outer loop
     vertex -7.500000e-01 -8.250000e+00  1.200000e+00
     vertex -1.925000e+01 -8.250000e+00  0.000000e+00
     vertex -1.925000e+01 -8.250000e+00  1.200000e+00
   endloop
 endfacet
 facet normal -1.000000e+00  0.000000e+00  0.000000e+00
   outer loop
     vertex -1.925000e+01 -1.425000e+01  1.200000e+00
     vertex -1.925000e+01 -8.250000e+00  0.000000e+00
     vertex -1.925000e+01 -1.425000e+01  0.000000e+00
   endloop
 endfacet
 facet normal -1.000000e+00  0.000000e+00  0.000000e+00
   outer loop
     vertex -1.925000e+01 -1.425000e+01  1.200000e+00
     vertex -1.925000e+01 -8.250000e+00  1.200000e+00
     vertex -1.925000e+01 -8.250000e+00  0.000000e+00
   endloop
 endfacet
 facet normal  0.000000e+00 -1.000000e+00 -0.000000e+00
   outer loop
     vertex -7.500000e-01 -1.425000e+01  1.200000e+00
     vertex -1.925000e+01 -1.425000e+01  0.000000e+00
     vertex -7.500000e-01 -1.425000e+01  0.000000e+00
   endloop
 endfacet
 facet normal -0.000000e+00 -1.000000e+00  0.000000e+00
   outer loop
     vertex -7.500000e-01 -1.425000e+01  1.200000e+00
     vertex -1.925000e+01 -1.425000e+01  1.200000e+00
     vertex -1.925000e+01 -1.425000e+01  0.000000e+00
   endloop
 endfacet
 facet normal -0.000000e+00  0.000000e+00 -1.000000e+00
   outer loop
     vertex  7.500000e-01 -8.250000e+00  1.200000e+00
     vertex -7.500000e-01 -1.425000e+01  1.200000e+00
     vertex -7.500000e-01 -8.250000e+00  1.200000e+00
   endloop
 endfacet
 facet normal  0.000000e+00 -0.000000e+00 -1.000000e+00
   outer loop
     vertex  7.500000e-01 -8.250000e+00  1.200000e+00
     vertex  7.500000e-01 -1.425000e+01  1.200000e+00
     vertex -7.500000e-01 -1.425000e+01  1.200000e+00
   endloop
 endfacet
 facet normal  0.000000e+00  0.000000e+00 -1.000000e+00
   outer loop
     vertex  1.925000e+01 -1.575000e+01  1.200000e+00
     vertex  7.500000e-01 -1.575000e+01  1.200000e+00
     vertex  7.500000e-01 -1.425000e+01  1.200000e+00
   endloop
 endfacet
 facet normal -0.000000e+00 -0.000000e+00 -1.000000e+00
   outer loop
     vertex  1.925000e+01 -1.425000e+01  1.200000e+00
     vertex  1.925000e+01 -1.575000e+01  1.200000e+00
     vertex  7.500000e-01 -1.425000e+01  1.200000e+00
   endloop
 endfacet
 facet normal -0.000000e+00  0.000000e+00 -1.000000e+00
   outer loop
     vertex  2.075000e+01 -8.250000e+00  1.200000e+00
     vertex  1.925000e+01 -1.425000e+01  1.200000e+00
     vertex  1.925000e+01 -8.250000e+00  1.200000e+00
   endloop
 endfacet
 facet normal  0.000000e+00 -0.000000e+00 -1.000000e+00
   outer loop
     vertex  2.075000e+01 -8.250000e+00  1.200000e+00
     vertex  2.075000e+01 -1.425000e+01  1.200000e+00
     vertex  1.925000e+01 -1.425000e+01  1.200000e+00
   endloop
 endfacet
 facet normal  0.000000e+00  1.000000e+00  0.000000e+00
   outer loop
     vertex  1.925000e+01  1.425000e+01  0.000000e+00
     vertex  7.500000e-01  1.425000e+01  0.000000e+00
     vertex  7.500000e-01  1.425000e+01  1.200000e+00
   endloop
 endfacet
 facet normal  0.000000e+00  1.000000e+00  0.000000e+00
   outer loop
     vertex  1.925000e+01  1.425000e+01  1.200000e+00
     vertex  1.925000e+01  1.425000e+01  0.000000e+00
     vertex  7.500000e-01  1.425000e+01  1.200000e+00
   endloop
 endfacet
 facet normal  1.000000e+00  0.000000e+00  0.000000e+00
   outer loop
     vertex -7.500000e-01  8.250000e+00  1.200000e+00
     vertex -7.500000e-01  8.250000e+00  0.000000e+00
     vertex -7.500000e-01  1.425000e+01  0.000000e+00
   endloop
 endfacet
 facet normal  1.000000e+00 -0.000000e+00  0.000000e+00
   outer loop
     vertex -7.500000e-01  8.250000e+00  1.200000e+00
     vertex -7.500000e-01  1.425000e+01  0.000000e+00
     vertex -7.500000e-01  1.425000e+01  1.200000e+00
   endloop
 endfacet
 facet normal -1.000000e+00  0.000000e+00  0.000000e+00
   outer loop
     vertex  7.500000e-01  8.250000e+00  1.200000e+00
     vertex  7.500000e-01  1.425000e+01  0.000000e+00
     vertex  7.500000e-01  8.250000e+00  0.000000e+00
   endloop
 endfacet
 facet normal -1.000000e+00  0.000000e+00  0.000000e+00
   outer loop
     vertex  7.500000e-01  8.250000e+00  1.200000e+00
     vertex  7.500000e-01  1.425000e+01  1.200000e+00
     vertex  7.500000e-01  1.425000e+01  0.000000e+00
   endloop
 endfacet
 facet normal  1.000000e+00  0.000000e+00  0.000000e+00
   outer loop
     vertex  1.925000e+01  8.250000e+00  1.200000e+00
     vertex  1.925000e+01  8.250000e+00  0.000000e+00
     vertex  1.925000e+01  1.425000e+01  0.000000e+00
   endloop
 endfacet
 facet normal  1.000000e+00 -0.000000e+00  0.000000e+00
   outer loop
     vertex  1.925000e+01  8.250000e+00  1.200000e+00
     vertex  1.925000e+01  1.425000e+01  0.000000e+00
     vertex  1.925000e+01  1.425000e+01  1.200000e+00
   endloop
 endfacet
 facet normal -0.000000e+00  0.000000e+00 -1.000000e+00
   outer loop
     vertex  2.075000e+01  6.750000e+00  1.200000e+00
     vertex  1.925000e+01 -6.750000e+00  1.200000e+00
     vertex  1.925000e+01  6.750000e+00  1.200000e+00
   endloop
 endfacet
 facet normal  0.000000e+00 -0.000000e+00 -1.000000e+00
   outer loop
     vertex  2.075000e+01  6.750000e+00  1.200000e+00
     vertex  2.075000e+01 -6.750000e+00  1.200000e+00
     vertex  1.925000e+01 -6.750000e+00  1.200000e+00
   endloop
 endfacet
 facet normal  0.000000e+00  0.000000e+00 -1.000000e+00
   outer loop
     vertex  1.925000e+01  6.750000e+00  1.200000e+00
     vertex  7.500000e-01  6.750000e+00  1.200000e+00
     vertex  7.500000e-01  8.250000e+00  1.200000e+00
   endloop
 endfacet
 facet normal -0.000000e+00 -0.000000e+00 -1.000000e+00
   outer loop
     vertex  1.925000e+01  8.250000e+00  1.200000e+00
     vertex  1.925000e+01  6.750000e+00  1.200000e+00
     vertex  7.500000e-01  8.250000e+00  1.200000e+00
   endloop
 endfacet
 facet normal  0.000000e+00  0.000000e+00 -1.000000e+00
   outer loop
     vertex  1.925000e+01 -8.250000e+00  1.200000e+00
     vertex  7.500000e-01 -8.250000e+00  1.200000e+00
     vertex  7.500000e-01 -6.750000e+00  1.200000e+00
   endloop
 endfacet
 facet normal -0.000000e+00 -0.000000e+00 -1.000000e+00
   outer loop
     vertex  1.925000e+01 -6.750000e+00  1.200000e+00
     vertex  1.925000e+01 -8.250000e+00  1.200000e+00
     vertex  7.500000e-01 -6.750000e+00  1.200000e+00
   endloop
 endfacet
 facet normal  0.000000e+00  0.000000e+00 -1.000000e+00
   outer loop
     vertex -7.500000e-01  8.250000e+00  0.000000e+00
     vertex -1.925000e+01  8.250000e+00  0.000000e+00
     vertex -1.925000e+01  1.425000e+01  0.000000e+00
   endloop
 endfacet
 facet normal -0.000000e+00 -0.000000e+00 -1.000000e+00
   outer loop
     vertex -7.500000e-01  1.425000e+01  0.000000e+00
     vertex -7.500000e-01  8.250000e+00  0.000000e+00
     vertex -1.925000e+01  1.425000e+01  0.000000e+00
   endloop
 endfacet
 facet normal -0.000000e+00  0.000000e+00 -1.000000e+00
   outer loop
     vertex  7.500000e-01  6.750000e+00  1.200000e+00
     vertex -7.500000e-01 -6.750000e+00  1.200000e+00
     vertex -7.500000e-01  6.750000e+00  1.200000e+00
   endloop
 endfacet
 facet normal  0.000000e+00 -0.000000e+00 -1.000000e+00
   outer loop
     vertex  7.500000e-01  6.750000e+00  1.200000e+00
     vertex  7.500000e-01 -6.750000e+00  1.200000e+00
     vertex -7.500000e-01 -6.750000e+00  1.200000e+00
   endloop
 endfacet
 facet normal -0.000000e+00  0.000000e+00 -1.000000e+00
   outer loop
     vertex -7.500000e-01  6.750000e+00  0.000000e+00
     vertex -1.925000e+01 -6.750000e+00  0.000000e+00
     vertex -1.925000e+01  6.750000e+00  0.000000e+00
   endloop
 endfacet
 facet normal  0.000000e+00 -0.000000e+00 -1.000000e+00
   outer loop
     vertex -7.500000e-01  6.750000e+00  0.000000e+00
     vertex -7.500000e-01 -6.750000e+00  0.000000e+00
     vertex -1.925000e+01 -6.750000e+00  0.000000e+00
   endloop
 endfacet
 facet normal  1.000000e+00  0.000000e+00  0.000000e+00
   outer loop
     vertex -7.500000e-01 -6.750000e+00  1.200000e+00
     vertex -7.500000e-01 -6.750000e+00  0.000000e+00
     vertex -7.500000e-01  6.750000e+00  0.000000e+00
   endloop
 endfacet
 facet normal  1.000000e+00 -0.000000e+00  0.000000e+00
   outer loop
     vertex -7.500000e-01 -6.750000e+00  1.200000e+00
     vertex -7.500000e-01  6.750000e+00  0.000000e+00
     vertex -7.500000e-01  6.750000e+00  1.200000e+00
   endloop
 endfacet
 facet normal -0.000000e+00  0.000000e+00 -1.000000e+00
   outer loop
     vertex -7.500000e-01 -8.250000e+00  0.000000e+00
     vertex -1.925000e+01 -1.425000e+01  0.000000e+00
     vertex -1.925000e+01 -8.250000e+00  0.000000e+00
   endloop
 endfacet
 facet normal  0.000000e+00 -0.000000e+00 -1.000000e+00
   outer loop
     vertex -7.500000e-01 -8.250000e+00  0.000000e+00
     vertex -7.500000e-01 -1.425000e+01  0.000000e+00
     vertex -1.925000e+01 -1.425000e+01  0.000000e+00
   endloop
 endfacet
 facet normal  1.000000e+00  0.000000e+00  0.000000e+00
   outer loop
     vertex -7.500000e-01 -1.425000e+01  1.200000e+00
     vertex -7.500000e-01 -1.425000e+01  0.000000e+00
     vertex -7.500000e-01 -8.250000e+00  0.000000e+00
   endloop
 endfacet
 facet normal  1.000000e+00 -0.000000e+00  0.000000e+00
   outer loop
     vertex -7.500000e-01 -1.425000e+01  1.200000e+00
     vertex -7.500000e-01 -8.250000e+00  0.000000e+00
     vertex -7.500000e-01 -8.250000e+00  1.200000e+00
   endloop
 endfacet
 facet normal -1.000000e+00  0.000000e+00  0.000000e+00
   outer loop
     vertex  7.500000e-01 -1.425000e+01  1.200000e+00
     vertex  7.500000e-01 -8.250000e+00  0.000000e+00
     vertex  7.500000e-01 -1.425000e+01  0.000000e+00
   endloop
 endfacet
 facet normal -1.000000e+00  0.000000e+00  0.000000e+00
   outer loop
     vertex  7.500000e-01 -1.425000e+01  1.200000e+00
     vertex  7.500000e-01 -8.250000e+00  1.200000e+00
     vertex  7.500000e-01 -8.250000e+00  0.000000e+00
   endloop
 endfacet
 facet normal  0.000000e+00 -1.000000e+00  0.000000e+00
   outer loop
     vertex  1.925000e+01 -1.425000e+01  0.000000e+00
     vertex  7.500000e-01 -1.425000e+01  1.200000e+00
     vertex  7.500000e-01 -1.425000e+01  0.000000e+00
   endloop
 endfacet
 facet normal -0.000000e+00 -1.000000e+00 -0.000000e+00
   outer loop
     vertex  1.925000e+01 -1.425000e+01  1.200000e+00
     vertex  7.500000e-01 -1.425000e+01  1.200000e+00
     vertex  1.925000e+01 -1.425000e+01  0.000000e+00
   endloop
 endfacet
 facet normal  1.000000e+00  0.000000e+00  0.000000e+00
   outer loop
     vertex  1.925000e+01 -1.425000e+01  1.200000e+00
     vertex  1.925000e+01 -1.425000e+01  0.000000e+00
     vertex  1.925000e+01 -8.250000e+00  0.000000e+00
   endloop
 endfacet
 facet normal  1.000000e+00 -0.000000e+00  0.000000e+00
   outer loop
     vertex  1.925000e+01 -1.425000e+01  1.200000e+00
     vertex  1.925000e+01 -8.250000e+00  0.000000e+00
     vertex  1.925000e+01 -8.250000e+00  1.200000e+00
   endloop
 endfacet
 facet normal  0.000000e+00  0.000000e+00 -1.000000e+00
   outer loop
     vertex  1.925000e+01  8.250000e+00  0.000000e+00
     vertex  7.500000e-01  8.250000e+00  0.000000e+00
     vertex  7.500000e-01  1.425000e+01  0.000000e+00
   endloop
 endfacet
 facet normal -0.000000e+00 -0.000000e+00 -1.000000e+00
   outer loop
     vertex  1.925000e+01  1.425000e+01  0.000000e+00
     vertex  1.925000e+01  8.250000e+00  0.000000e+00
     vertex  7.500000e-01  1.425000e+01  0.000000e+00
   endloop
 endfacet
 facet normal  0.000000e+00 -1.000000e+00  0.000000e+00
   outer loop
     vertex  1.925000e+01  8.250000e+00  0.000000e+00
     vertex  7.500000e-01  8.250000e+00  1.200000e+00
     vertex  7.500000e-01  8.250000e+00  0.000000e+00
   endloop
 endfacet
 facet normal -0.000000e+00 -1.000000e+00 -0.000000e+00
   outer loop
     vertex  1.925000e+01  8.250000e+00  1.200000e+00
     vertex  7.500000e-01  8.250000e+00  1.200000e+00
     vertex  1.925000e+01  8.250000e+00  0.000000e+00
   endloop
 endfacet
 facet normal  1.000000e+00  0.000000e+00  0.000000e+00
   outer loop
     vertex  1.925000e+01 -6.750000e+00  1.200000e+00
     vertex  1.925000e+01 -6.750000e+00  0.000000e+00
     vertex  1.925000e+01  6.750000e+00  0.000000e+00
   endloop
 endfacet
 facet normal  1.000000e+00 -0.000000e+00  0.000000e+00
   outer loop
     vertex  1.925000e+01 -6.750000e+00  1.200000e+00
     vertex  1.925000e+01  6.750000e+00  0.000000e+00
     vertex  1.925000e+01  6.750000e+00  1.200000e+00
   endloop
 endfacet
 facet normal  0.000000e+00  1.000000e+00  0.000000e+00
   outer loop
     vertex  1.925000e+01  6.750000e+00  0.000000e+00
     vertex  7.500000e-01  6.750000e+00  0.000000e+00
     vertex  7.500000e-01  6.750000e+00  1.200000e+00
   endloop
 endfacet
 facet normal  0.000000e+00  1.000000e+00  0.000000e+00
   outer loop
     vertex  1.925000e+01  6.750000e+00  1.200000e+00
     vertex  1.925000e+01  6.750000e+00  0.000000e+00
     vertex  7.500000e-01  6.750000e+00  1.200000e+00
   endloop
 endfacet
 facet normal  0.000000e+00 -1.000000e+00  0.000000e+00
   outer loop
     vertex  1.925000e+01 -6.750000e+00  0.000000e+00
     vertex  7.500000e-01 -6.750000e+00  1.200000e+00
     vertex  7.500000e-01 -6.750000e+00  0.000000e+00
   endloop
 endfacet
 facet normal -0.000000e+00 -1.000000e+00 -0.000000e+00
   outer loop
     vertex  1.925000e+01 -6.750000e+00  1.200000e+00
     vertex  7.500000e-01 -6.750000e+00  1.200000e+00
     vertex  1.925000e+01 -6.750000e+00  0.000000e+00
   endloop
 endfacet
 facet normal  0.000000e+00  1.000000e+00  0.000000e+00
   outer loop
     vertex  1.925000e+01 -8.250000e+00  0.000000e+00
     vertex  7.500000e-01 -8.250000e+00  0.000000e+00
     vertex  7.500000e-01 -8.250000e+00  1.200000e+00
   endloop
 endfacet
 facet normal  0.000000e+00  1.000000e+00  0.000000e+00
   outer loop
     vertex  1.925000e+01 -8.250000e+00  1.200000e+00
     vertex  1.925000e+01 -8.250000e+00  0.000000e+00
     vertex  7.500000e-01 -8.250000e+00  1.200000e+00
   endloop
 endfacet
 facet normal -1.000000e+00  0.000000e+00  0.000000e+00
   outer loop
     vertex  7.500000e-01 -6.750000e+00  1.200000e+00
     vertex  7.500000e-01  6.750000e+00  0.000000e+00
     vertex  7.500000e-01 -6.750000e+00  0.000000e+00
   endloop
 endfacet
 facet normal -1.000000e+00  0.000000e+00  0.000000e+00
   outer loop
     vertex  7.500000e-01 -6.750000e+00  1.200000e+00
     vertex  7.500000e-01  6.750000e+00  1.200000e+00
     vertex  7.500000e-01  6.750000e+00  0.000000e+00
   endloop
 endfacet
 facet normal  0.000000e+00  0.000000e+00 -1.000000e+00
   outer loop
     vertex  1.925000e+01 -1.425000e+01  0.000000e+00
     vertex  7.500000e-01 -1.425000e+01  0.000000e+00
     vertex  7.500000e-01 -8.250000e+00  0.000000e+00
   endloop
 endfacet
 facet normal -0.000000e+00 -0.000000e+00 -1.000000e+00
   outer loop
     vertex  1.925000e+01 -8.250000e+00  0.000000e+00
     vertex  1.925000e+01 -1.425000e+01  0.000000e+00
     vertex  7.500000e-01 -8.250000e+00  0.000000e+00
   endloop
 endfacet
 facet normal  0.000000e+00  0.000000e+00 -1.000000e+00
   outer loop
     vertex  1.925000e+01 -6.750000e+00  0.000000e+00
     vertex  7.500000e-01 -6.750000e+00  0.000000e+00
     vertex  7.500000e-01  6.750000e+00  0.000000e+00
   endloop
 endfacet
 facet normal -0.000000e+00 -0.000000e+00 -1.000000e+00
   outer loop
     vertex  1.925000e+01  6.750000e+00  0.000000e+00
     vertex  1.925000e+01 -6.750000e+00  0.000000e+00
     vertex  7.500000e-01  6.750000e+00  0.000000e+00
   endloop
 endfacet
endsolid
